<svg id="Layer_1" data-name="Layer 1" xmlns="http://www.w3.org/2000/svg" viewBox="0 0 1643 360.74"><defs><style>.cls-1{fill:#4eba6f;}.cls-2{fill:#4eba6e;}.cls-3{fill:#bdc3c7;}.cls-4{opacity:0.95;}.cls-5{fill:#fff;}.cls-6{opacity:0.9;}.cls-7{fill:#0e594c;}.cls-8{fill:#147f6b;}.cls-9{fill:#3b97d3;}.cls-10{fill:#f0c419;}.cls-11,.cls-12,.cls-14,.cls-16,.cls-17,.cls-18,.cls-20,.cls-21{fill:none;}.cls-11,.cls-16{stroke:#4eba6f;}.cls-11,.cls-12,.cls-14,.cls-16,.cls-17,.cls-18,.cls-20,.cls-21,.cls-22,.cls-23,.cls-25{stroke-miterlimit:10;}.cls-11,.cls-12,.cls-14,.cls-22,.cls-23,.cls-25{stroke-width:3px;}.cls-12,.cls-17{stroke:#3c97d3;}.cls-13{fill:#3c97d3;}.cls-14,.cls-18,.cls-25{stroke:#d5aa29;}.cls-15{fill:#d5aa29;}.cls-16,.cls-17,.cls-18,.cls-20,.cls-21{stroke-width:2px;}.cls-19{fill:#8a8d8e;}.cls-20,.cls-21{stroke:#8a8d8e;}.cls-21{stroke-linecap:round;}.cls-22{fill:#cfe9d6;stroke:#4eba6e;}.cls-23{fill:#c8e1ed;stroke:#3d97d3;}.cls-24{fill:#3d97d3;}.cls-25{fill:#f2e9d6;}</style></defs><title>bit-array-fields-padding-be</title><rect class="cls-1" x="101.5" y="132.58" width="100" height="76.94"/><rect class="cls-1" x="201.5" y="132.58" width="100" height="76.94"/><rect class="cls-2" x="301.5" y="132.58" width="100" height="76.94"/><rect class="cls-2" x="401.5" y="132.58" width="100" height="76.94"/><rect class="cls-3" x="501.5" y="132.58" width="100" height="76.94"/><rect class="cls-3" x="601.5" y="132.58" width="100" height="76.94"/><path class="cls-3" d="M833.65,599.72h84a16,16,0,0,0,16-16V538.79a16,16,0,0,0-16-16h-84" transform="translate(-132 -390.2)"/><path class="cls-1" d="M233.5,599.91h-84a16,16,0,0,1-16-16V539a16,16,0,0,1,16-16h84" transform="translate(-132 -390.2)"/><g class="cls-4"><path class="cls-5" d="M168.52,566.78a10.46,10.46,0,0,0,4.74,1.27c3,0,4.22-1.69,4.19-3.32,0-2.47-2.3-3.52-4.7-3.52h-1.83v-2.88h1.76c1.83,0,4.13-.83,4.13-2.91,0-1.41-1.06-2.6-3.33-2.6a8.31,8.31,0,0,0-4.25,1.32l-.9-2.85a11.27,11.27,0,0,1,6-1.6c4.29,0,6.5,2.37,6.5,5.09,0,2.17-1.28,4-3.84,4.86v.06a5.26,5.26,0,0,1,4.58,5.19c0,3.52-3,6.3-8.1,6.3a11.29,11.29,0,0,1-5.82-1.44Z" transform="translate(-132 -390.2)"/><path class="cls-5" d="M184.88,570.84v-2.4l2.46-2.27c4.89-4.55,7.2-7,7.23-9.79,0-1.86-1-3.49-3.71-3.49a7.6,7.6,0,0,0-4.45,1.73l-1.15-2.79a10.33,10.33,0,0,1,6.4-2.14c4.61,0,6.85,2.91,6.85,6.3,0,3.65-2.63,6.59-6.24,10l-1.83,1.57v.07H199v3.26Z" transform="translate(-132 -390.2)"/></g><g class="cls-6"><path class="cls-7" d="M144.56,465.18a36.68,36.68,0,0,1,6.44-.51c3.27,0,5.29.4,6.95,1.55a5.13,5.13,0,0,1,2.52,4.54,5.64,5.64,0,0,1-4,5.25v.08a6.11,6.11,0,0,1,4.9,6,6.3,6.3,0,0,1-2.34,5c-1.73,1.51-4.57,2.27-9,2.27a41.32,41.32,0,0,1-5.43-.33Zm4.39,9.57h2.26c3.06,0,4.79-1.44,4.79-3.49,0-2.27-1.73-3.31-4.53-3.31a11.82,11.82,0,0,0-2.52.18Zm0,11.16a19.82,19.82,0,0,0,2.34.11c2.84,0,5.36-1.08,5.36-4.07,0-2.8-2.45-4-5.51-4H149Z" transform="translate(-132 -390.2)"/><path class="cls-7" d="M167.88,471.59l3.17,9.39c.36,1.08.72,2.41,1,3.42h.11c.29-1,.61-2.3.94-3.45l2.73-9.36h4.75l-4.39,12c-2.41,6.55-4,9.46-6.12,11.26a8.88,8.88,0,0,1-4.64,2.27l-1-3.74A7.53,7.53,0,0,0,167,492.1a7.66,7.66,0,0,0,2.41-2.77,1.75,1.75,0,0,0,.29-.79,1.8,1.8,0,0,0-.25-.86L163,471.59Z" transform="translate(-132 -390.2)"/><path class="cls-7" d="M188.19,466.58v5h4.21v3.31h-4.21v7.74c0,2.12.57,3.24,2.26,3.24a6.39,6.39,0,0,0,1.73-.22l.07,3.38a9.44,9.44,0,0,1-3.2.44,5.14,5.14,0,0,1-3.82-1.44c-.93-1-1.36-2.6-1.36-4.9V474.9h-2.52v-3.31h2.52v-4Z" transform="translate(-132 -390.2)"/><path class="cls-7" d="M198.66,481.59c.11,3.17,2.59,4.54,5.4,4.54a13.26,13.26,0,0,0,4.86-.79l.65,3.06a16.54,16.54,0,0,1-6.12,1.08c-5.69,0-9-3.5-9-8.86,0-4.86,3-9.43,8.56-9.43s7.56,4.68,7.56,8.53a11.1,11.1,0,0,1-.14,1.87Zm7.71-3.09c0-1.62-.69-4.29-3.64-4.29-2.73,0-3.89,2.49-4.07,4.29Z" transform="translate(-132 -390.2)"/><path class="cls-7" d="M230.49,489.12v-5.94H219.9V480.3l9.54-14.58h5.22v14.11h3v3.35h-3v5.94Zm0-9.29v-6.37c0-1.33,0-2.7.14-4.07h-.14c-.72,1.48-1.34,2.66-2.06,4l-4.28,6.41,0,.07Z" transform="translate(-132 -390.2)"/></g><g class="cls-4"><path class="cls-5" d="M268.52,566.78a10.46,10.46,0,0,0,4.74,1.27c3,0,4.22-1.69,4.19-3.32,0-2.47-2.3-3.52-4.7-3.52h-1.83v-2.88h1.76c1.83,0,4.13-.83,4.13-2.91,0-1.41-1.06-2.6-3.33-2.6a8.31,8.31,0,0,0-4.25,1.32l-.9-2.85a11.27,11.27,0,0,1,6-1.6c4.29,0,6.5,2.37,6.5,5.09,0,2.17-1.28,4-3.84,4.86v.06a5.26,5.26,0,0,1,4.58,5.19c0,3.52-2.95,6.3-8.1,6.3a11.29,11.29,0,0,1-5.82-1.44Z" transform="translate(-132 -390.2)"/><path class="cls-5" d="M285.68,566.78a10.38,10.38,0,0,0,4.73,1.27c3,0,4.22-1.69,4.19-3.32,0-2.47-2.3-3.52-4.7-3.52h-1.82v-2.88h1.75c1.83,0,4.13-.83,4.13-2.91,0-1.41-1-2.6-3.33-2.6a8.31,8.31,0,0,0-4.25,1.32l-.9-2.85a11.28,11.28,0,0,1,6-1.6c4.28,0,6.49,2.37,6.49,5.09,0,2.17-1.28,4-3.84,4.86v.06a5.26,5.26,0,0,1,4.58,5.19c0,3.52-2.95,6.3-8.1,6.3a11.32,11.32,0,0,1-5.82-1.44Z" transform="translate(-132 -390.2)"/></g><g class="cls-4"><path class="cls-5" d="M368.52,566.78a10.46,10.46,0,0,0,4.74,1.27c3,0,4.22-1.69,4.19-3.32,0-2.47-2.3-3.52-4.7-3.52h-1.83v-2.88h1.76c1.83,0,4.13-.83,4.13-2.91,0-1.41-1.06-2.6-3.33-2.6a8.31,8.31,0,0,0-4.25,1.32l-.9-2.85a11.27,11.27,0,0,1,6-1.6c4.29,0,6.5,2.37,6.5,5.09,0,2.17-1.28,4-3.84,4.86v.06a5.26,5.26,0,0,1,4.58,5.19c0,3.52-2.95,6.3-8.1,6.3a11.29,11.29,0,0,1-5.82-1.44Z" transform="translate(-132 -390.2)"/><path class="cls-5" d="M393.55,570.84v-5.28h-9.41V563l8.48-13h4.64v12.54H400v3h-2.69v5.28Zm0-8.26v-5.66c0-1.18,0-2.4.12-3.62h-.12c-.64,1.32-1.19,2.37-1.83,3.52l-3.81,5.7,0,.06Z" transform="translate(-132 -390.2)"/></g><g class="cls-4"><path class="cls-5" d="M468.52,566.78a10.46,10.46,0,0,0,4.74,1.27c3,0,4.22-1.69,4.19-3.32,0-2.47-2.3-3.52-4.7-3.52h-1.83v-2.88h1.76c1.83,0,4.13-.83,4.13-2.91,0-1.41-1.06-2.6-3.33-2.6a8.31,8.31,0,0,0-4.25,1.32l-.9-2.85a11.27,11.27,0,0,1,6-1.6c4.29,0,6.5,2.37,6.5,5.09,0,2.17-1.28,4-3.84,4.86v.06a5.26,5.26,0,0,1,4.58,5.19c0,3.52-2.95,6.3-8.1,6.3a11.29,11.29,0,0,1-5.82-1.44Z" transform="translate(-132 -390.2)"/><path class="cls-5" d="M498.09,553.3h-8l-.61,4.16a11.25,11.25,0,0,1,1.51-.09,9.25,9.25,0,0,1,5.05,1.34,6,6,0,0,1,2.72,5.28c0,4-3.29,7.2-8.41,7.2a12,12,0,0,1-5.51-1.22l.8-3a10.55,10.55,0,0,0,4.58,1.09c2.3,0,4.51-1.31,4.51-3.81s-1.76-3.94-5.92-3.94a17.89,17.89,0,0,0-2.85.2l1.38-10.5h10.75Z" transform="translate(-132 -390.2)"/></g><g class="cls-4"><path class="cls-5" d="M568.52,566.78a10.46,10.46,0,0,0,4.74,1.27c3,0,4.22-1.69,4.19-3.32,0-2.47-2.3-3.52-4.7-3.52h-1.83v-2.88h1.76c1.83,0,4.13-.83,4.13-2.91,0-1.41-1.06-2.6-3.33-2.6a8.31,8.31,0,0,0-4.25,1.32l-.9-2.85a11.27,11.27,0,0,1,6-1.6c4.29,0,6.5,2.37,6.5,5.09,0,2.17-1.28,4-3.84,4.86v.06a5.26,5.26,0,0,1,4.58,5.19c0,3.52-2.95,6.3-8.1,6.3a11.29,11.29,0,0,1-5.82-1.44Z" transform="translate(-132 -390.2)"/><path class="cls-5" d="M597.55,552.82a15.23,15.23,0,0,0-2,.1c-4.35.51-6.46,3.2-7,6.08h.09a6,6,0,0,1,4.67-2c3.59,0,6.37,2.56,6.37,6.79a7.22,7.22,0,0,1-7.33,7.42c-5.05,0-7.84-3.84-7.84-9a12.71,12.71,0,0,1,3.62-9.34,12,12,0,0,1,7.39-3.07,11,11,0,0,1,2-.07ZM595.69,564c0-2.4-1.31-4.13-3.62-4.13a3.83,3.83,0,0,0-3.39,2.15,2.69,2.69,0,0,0-.25,1.25c.06,2.75,1.37,5,3.9,5C594.38,568.25,595.69,566.49,595.69,564Z" transform="translate(-132 -390.2)"/></g><g class="cls-4"><path class="cls-5" d="M668.52,566.78a10.46,10.46,0,0,0,4.74,1.27c3,0,4.22-1.69,4.19-3.32,0-2.47-2.3-3.52-4.7-3.52h-1.83v-2.88h1.76c1.83,0,4.13-.83,4.13-2.91,0-1.41-1.06-2.6-3.33-2.6a8.31,8.31,0,0,0-4.25,1.32l-.9-2.85a11.27,11.27,0,0,1,6-1.6c4.29,0,6.5,2.37,6.5,5.09,0,2.17-1.28,4-3.84,4.86v.06a5.26,5.26,0,0,1,4.58,5.19c0,3.52-2.95,6.3-8.1,6.3a11.29,11.29,0,0,1-5.82-1.44Z" transform="translate(-132 -390.2)"/><path class="cls-5" d="M699.18,550v2.53l-8.8,18.27h-4.16L695,553.37v-.07H685.2V550Z" transform="translate(-132 -390.2)"/></g><g class="cls-4"><path class="cls-5" d="M768.52,566.78a10.46,10.46,0,0,0,4.74,1.27c3,0,4.22-1.69,4.19-3.32,0-2.47-2.3-3.52-4.7-3.52h-1.83v-2.88h1.76c1.83,0,4.13-.83,4.13-2.91,0-1.41-1.06-2.6-3.33-2.6a8.31,8.31,0,0,0-4.25,1.32l-.9-2.85a11.27,11.27,0,0,1,6-1.6c4.29,0,6.5,2.37,6.5,5.09,0,2.17-1.28,4-3.84,4.86v.06a5.26,5.26,0,0,1,4.58,5.19c0,3.52-2.95,6.3-8.1,6.3a11.29,11.29,0,0,1-5.82-1.44Z" transform="translate(-132 -390.2)"/><path class="cls-5" d="M784.59,565.49c0-2.59,1.5-4.35,3.9-5.4V560a5.07,5.07,0,0,1-3.17-4.61c0-3.39,3-5.69,6.95-5.69,4.48,0,6.52,2.69,6.52,5.25a5.18,5.18,0,0,1-3.2,4.7v.1a5.57,5.57,0,0,1,4,5.24c0,3.72-3.13,6.21-7.58,6.21C787.12,571.19,784.59,568.41,784.59,565.49Zm11-.19c0-2.11-1.57-3.26-3.87-3.9a3.81,3.81,0,0,0-3.07,3.65,3.28,3.28,0,0,0,3.49,3.36A3.15,3.15,0,0,0,795.56,565.3Zm-6.49-10.08c0,1.7,1.4,2.72,3.39,3.27a3.38,3.38,0,0,0,2.59-3.14,2.78,2.78,0,0,0-3-2.94A2.75,2.75,0,0,0,789.07,555.22Z" transform="translate(-132 -390.2)"/></g><g class="cls-4"><path class="cls-5" d="M868.67,566.78a10.46,10.46,0,0,0,4.74,1.27c3,0,4.22-1.69,4.19-3.32,0-2.47-2.3-3.52-4.7-3.52h-1.83v-2.88h1.76c1.83,0,4.13-.83,4.13-2.91,0-1.41-1.05-2.6-3.33-2.6a8.31,8.31,0,0,0-4.25,1.32l-.9-2.85a11.28,11.28,0,0,1,6-1.6c4.28,0,6.49,2.37,6.49,5.09,0,2.17-1.28,4-3.84,4.86v.06a5.26,5.26,0,0,1,4.58,5.19c0,3.52-3,6.3-8.1,6.3a11.29,11.29,0,0,1-5.82-1.44Z" transform="translate(-132 -390.2)"/><path class="cls-5" d="M886.63,568a10.34,10.34,0,0,0,2.17-.06,7.89,7.89,0,0,0,4.23-1.6,7.7,7.7,0,0,0,2.65-4.61l-.06,0a5.78,5.78,0,0,1-4.55,1.86,6.15,6.15,0,0,1-6.3-6.47,7.36,7.36,0,0,1,7.52-7.42c4.83,0,7.42,3.81,7.42,8.86,0,4.45-1.47,7.62-3.61,9.66a11.44,11.44,0,0,1-7.11,2.85,15.29,15.29,0,0,1-2.36.07Zm2-11.13c0,2.14,1.25,3.81,3.43,3.81a3.8,3.8,0,0,0,3.36-1.73,2.49,2.49,0,0,0,.22-1.12c0-2.82-1-5.25-3.58-5.25C890.11,552.6,888.67,554.36,888.67,556.89Z" transform="translate(-132 -390.2)"/></g><path class="cls-8" d="M917.48,521.28h-768A17.54,17.54,0,0,0,132,538.79V583.7a17.54,17.54,0,0,0,17.51,17.52h768A17.54,17.54,0,0,0,935,583.7V538.79A17.54,17.54,0,0,0,917.48,521.28Zm-582.48,3h97v73.94H335Zm-3,73.94H235V524.28h97Zm103-73.94h97v73.94H435Zm100,0h97v73.94H535Zm100,0h97v73.94H635Zm100,0h97v73.94H735ZM135,583.7V538.79a14.53,14.53,0,0,1,14.51-14.51H232v73.94H149.51A14.54,14.54,0,0,1,135,583.7Zm797,0a14.54,14.54,0,0,1-14.52,14.52H835V524.28h82.48A14.53,14.53,0,0,1,932,538.79Z" transform="translate(-132 -390.2)"/><rect class="cls-9" x="941.5" y="132.58" width="100" height="76.94"/><rect class="cls-9" x="1041.5" y="132.58" width="100" height="76.94"/><rect class="cls-3" x="1141.5" y="132.58" width="100" height="76.94"/><rect class="cls-10" x="1241.5" y="132.58" width="100" height="76.94"/><rect class="cls-10" x="1341.5" y="132.58" width="100" height="76.94"/><rect class="cls-10" x="1441.5" y="132.58" width="100" height="76.94"/><path class="cls-10" d="M1673.65,599.72h84a16,16,0,0,0,16-16V538.79a16,16,0,0,0-16-16h-84" transform="translate(-132 -390.2)"/><path class="cls-9" d="M1073.5,599.91h-84a16,16,0,0,1-16-16V539a16,16,0,0,1,16-16h84" transform="translate(-132 -390.2)"/><g class="cls-4"><path class="cls-5" d="M1016.39,570.84v-5.28H1007V563l8.48-13h4.64v12.54h2.68v3h-2.68v5.28Zm0-8.26v-5.66c0-1.18,0-2.4.13-3.62h-.13c-.64,1.32-1.18,2.37-1.82,3.52l-3.81,5.7,0,.06Z" transform="translate(-132 -390.2)"/><path class="cls-5" d="M1039.56,560.31c0,6.69-2.62,10.88-7.58,10.88-4.8,0-7.36-4.35-7.39-10.69s2.75-10.81,7.61-10.81C1037.23,549.69,1039.56,554.17,1039.56,560.31Zm-11,.19c0,5.06,1.37,7.68,3.55,7.68s3.52-2.81,3.52-7.8-1.16-7.68-3.52-7.68C1030,552.7,1028.52,555.29,1028.56,560.5Z" transform="translate(-132 -390.2)"/></g><g class="cls-4"><path class="cls-5" d="M1116.39,570.84v-5.28H1107V563l8.48-13h4.64v12.54h2.68v3h-2.68v5.28Zm0-8.26v-5.66c0-1.18,0-2.4.13-3.62h-.13c-.64,1.32-1.18,2.37-1.82,3.52l-3.81,5.7,0,.06Z" transform="translate(-132 -390.2)"/><path class="cls-5" d="M1131.05,553.59H1131l-3.81,1.92-.67-3,5-2.5h3.3v20.8h-3.81Z" transform="translate(-132 -390.2)"/></g><g class="cls-4"><path class="cls-5" d="M1216.39,570.84v-5.28H1207V563l8.48-13h4.64v12.54h2.68v3h-2.68v5.28Zm0-8.26v-5.66c0-1.18,0-2.4.13-3.62h-.13c-.64,1.32-1.18,2.37-1.82,3.52l-3.81,5.7,0,.06Z" transform="translate(-132 -390.2)"/><path class="cls-5" d="M1224.88,570.84v-2.4l2.46-2.27c4.89-4.55,7.2-7,7.23-9.79,0-1.86-1-3.49-3.71-3.49a7.6,7.6,0,0,0-4.45,1.73l-1.15-2.79a10.33,10.33,0,0,1,6.4-2.14c4.61,0,6.85,2.91,6.85,6.3,0,3.65-2.63,6.59-6.24,10l-1.83,1.57v.07H1239v3.26Z" transform="translate(-132 -390.2)"/></g><g class="cls-4"><path class="cls-5" d="M1316.39,570.84v-5.28H1307V563l8.48-13h4.64v12.54h2.68v3h-2.68v5.28Zm0-8.26v-5.66c0-1.18,0-2.4.13-3.62h-.13c-.64,1.32-1.18,2.37-1.82,3.52l-3.81,5.7,0,.06Z" transform="translate(-132 -390.2)"/><path class="cls-5" d="M1325.68,566.78a10.38,10.38,0,0,0,4.73,1.27c3,0,4.23-1.69,4.19-3.32,0-2.47-2.3-3.52-4.7-3.52h-1.83v-2.88h1.76c1.83,0,4.13-.83,4.13-2.91,0-1.41-1-2.6-3.32-2.6a8.32,8.32,0,0,0-4.26,1.32l-.9-2.85a11.28,11.28,0,0,1,6-1.6c4.28,0,6.49,2.37,6.49,5.09,0,2.17-1.28,4-3.84,4.86v.06a5.26,5.26,0,0,1,4.58,5.19c0,3.52-3,6.3-8.1,6.3a11.29,11.29,0,0,1-5.82-1.44Z" transform="translate(-132 -390.2)"/></g><g class="cls-4"><path class="cls-5" d="M1416.39,570.84v-5.28H1407V563l8.48-13h4.64v12.54h2.68v3h-2.68v5.28Zm0-8.26v-5.66c0-1.18,0-2.4.13-3.62h-.13c-.63,1.32-1.18,2.37-1.82,3.52l-3.81,5.7,0,.06Z" transform="translate(-132 -390.2)"/><path class="cls-5" d="M1433.55,570.84v-5.28h-9.41V563l8.48-13h4.64v12.54H1440v3h-2.69v5.28Zm0-8.26v-5.66c0-1.18,0-2.4.13-3.62h-.13c-.64,1.32-1.19,2.37-1.83,3.52l-3.8,5.7,0,.06Z" transform="translate(-132 -390.2)"/></g><g class="cls-4"><path class="cls-5" d="M1516.39,570.84v-5.28H1507V563l8.48-13h4.64v12.54h2.68v3h-2.68v5.28Zm0-8.26v-5.66c0-1.18,0-2.4.13-3.62h-.13c-.63,1.32-1.18,2.37-1.82,3.52l-3.81,5.7,0,.06Z" transform="translate(-132 -390.2)"/><path class="cls-5" d="M1538.09,553.3h-8l-.61,4.16a11.25,11.25,0,0,1,1.51-.09,9.22,9.22,0,0,1,5,1.34,6,6,0,0,1,2.72,5.28c0,4-3.29,7.2-8.41,7.2a12,12,0,0,1-5.51-1.22l.8-3a10.55,10.55,0,0,0,4.58,1.09c2.3,0,4.51-1.31,4.51-3.81s-1.76-3.94-5.92-3.94a17.89,17.89,0,0,0-2.85.2l1.38-10.5h10.75Z" transform="translate(-132 -390.2)"/></g><g class="cls-4"><path class="cls-5" d="M1616.39,570.84v-5.28H1607V563l8.48-13h4.64v12.54h2.68v3h-2.68v5.28Zm0-8.26v-5.66c0-1.18,0-2.4.13-3.62h-.13c-.63,1.32-1.18,2.37-1.82,3.52l-3.81,5.7,0,.06Z" transform="translate(-132 -390.2)"/><path class="cls-5" d="M1637.55,552.82a15.23,15.23,0,0,0-2,.1c-4.35.51-6.46,3.2-7,6.08h.09a6,6,0,0,1,4.67-2c3.59,0,6.37,2.56,6.37,6.79a7.22,7.22,0,0,1-7.33,7.42c-5,0-7.84-3.84-7.84-9a12.71,12.71,0,0,1,3.62-9.34,12,12,0,0,1,7.39-3.07,11.1,11.1,0,0,1,2-.07ZM1635.69,564c0-2.4-1.31-4.13-3.62-4.13a3.83,3.83,0,0,0-3.39,2.15,2.69,2.69,0,0,0-.25,1.25c.06,2.75,1.37,5,3.9,5C1634.38,568.25,1635.69,566.49,1635.69,564Z" transform="translate(-132 -390.2)"/></g><g class="cls-4"><path class="cls-5" d="M1716.55,570.84v-5.28h-9.41V563l8.48-13h4.64v12.54h2.68v3h-2.68v5.28Zm0-8.26v-5.66c0-1.18,0-2.4.12-3.62h-.12c-.64,1.32-1.19,2.37-1.83,3.52l-3.81,5.7,0,.06Z" transform="translate(-132 -390.2)"/><path class="cls-5" d="M1739.33,550v2.53l-8.8,18.27h-4.16l8.77-17.47v-.07h-9.79V550Z" transform="translate(-132 -390.2)"/></g><path class="cls-8" d="M1757.48,521.28h-768A17.54,17.54,0,0,0,972,538.79V583.7a17.54,17.54,0,0,0,17.51,17.52h768A17.54,17.54,0,0,0,1775,583.7V538.79A17.54,17.54,0,0,0,1757.48,521.28Zm-582.48,3h97v73.94h-97Zm-3,73.94h-97V524.28h97Zm103-73.94h97v73.94h-97Zm100,0h97v73.94h-97Zm100,0h97v73.94h-97Zm100,0h97v73.94h-97ZM975,583.7V538.79a14.53,14.53,0,0,1,14.51-14.51H1072v73.94H989.51A14.54,14.54,0,0,1,975,583.7Zm797,0a14.54,14.54,0,0,1-14.52,14.52H1675V524.28h82.48A14.53,14.53,0,0,1,1772,538.79Z" transform="translate(-132 -390.2)"/><g class="cls-6"><path class="cls-7" d="M984.56,465.18a36.68,36.68,0,0,1,6.44-.51c3.27,0,5.29.4,7,1.55a5.13,5.13,0,0,1,2.52,4.54,5.64,5.64,0,0,1-4,5.25v.08a6.11,6.11,0,0,1,4.9,6,6.3,6.3,0,0,1-2.34,5c-1.73,1.51-4.57,2.27-9,2.27a41.32,41.32,0,0,1-5.43-.33Zm4.39,9.57h2.26c3.06,0,4.79-1.44,4.79-3.49,0-2.27-1.73-3.31-4.53-3.31a11.82,11.82,0,0,0-2.52.18Zm0,11.16a19.82,19.82,0,0,0,2.34.11c2.84,0,5.36-1.08,5.36-4.07,0-2.8-2.45-4-5.51-4H989Z" transform="translate(-132 -390.2)"/><path class="cls-7" d="M1007.88,471.59l3.17,9.39c.36,1.08.72,2.41,1,3.42h.11c.29-1,.61-2.3.94-3.45l2.73-9.36h4.75l-4.39,12c-2.41,6.55-4,9.46-6.12,11.26a8.88,8.88,0,0,1-4.64,2.27l-1-3.74a7.53,7.53,0,0,0,2.59-1.23,7.66,7.66,0,0,0,2.41-2.77,1.75,1.75,0,0,0,.29-.79,1.8,1.8,0,0,0-.25-.86L1003,471.59Z" transform="translate(-132 -390.2)"/><path class="cls-7" d="M1028.19,466.58v5h4.21v3.31h-4.21v7.74c0,2.12.57,3.24,2.26,3.24a6.39,6.39,0,0,0,1.73-.22l.07,3.38a9.44,9.44,0,0,1-3.2.44,5.14,5.14,0,0,1-3.82-1.44c-.93-1-1.36-2.6-1.36-4.9V474.9h-2.52v-3.31h2.52v-4Z" transform="translate(-132 -390.2)"/><path class="cls-7" d="M1038.66,481.59c.11,3.17,2.59,4.54,5.4,4.54a13.26,13.26,0,0,0,4.86-.79l.65,3.06a16.54,16.54,0,0,1-6.12,1.08c-5.69,0-9-3.5-9-8.86,0-4.86,2.95-9.43,8.56-9.43s7.56,4.68,7.56,8.53a11.1,11.1,0,0,1-.14,1.87Zm7.71-3.09c0-1.62-.69-4.29-3.64-4.29-2.73,0-3.89,2.49-4.07,4.29Z" transform="translate(-132 -390.2)"/><path class="cls-7" d="M1075.6,469.39h-9l-.69,4.68a12.13,12.13,0,0,1,1.7-.11,10.43,10.43,0,0,1,5.68,1.51,6.71,6.71,0,0,1,3.06,5.94c0,4.47-3.71,8.1-9.46,8.1a13.44,13.44,0,0,1-6.2-1.37l.9-3.34a11.88,11.88,0,0,0,5.15,1.22c2.59,0,5.08-1.48,5.08-4.28s-2-4.43-6.66-4.43a19.7,19.7,0,0,0-3.21.22l1.55-11.81h12.1Z" transform="translate(-132 -390.2)"/></g><g class="cls-6"><line class="cls-11" x1="481.89" y1="256.71" y2="256.71"/><path class="cls-1" d="M632,646.91c-8.52-3.16-19.09-8.55-25.64-14.26l5.16,14.26-5.16,14.27C612.91,655.47,623.48,650.07,632,646.91Z" transform="translate(-132 -390.2)"/></g><g class="cls-6"><line class="cls-12" x1="1121.89" y1="256.71" x2="840" y2="256.71"/><path class="cls-13" d="M1272,646.91c-8.52-3.16-19.09-8.55-25.64-14.26l5.16,14.26-5.16,14.27C1252.91,655.47,1263.48,650.07,1272,646.91Z" transform="translate(-132 -390.2)"/></g><g class="cls-6"><line class="cls-14" x1="1624.89" y1="256.71" x2="1243" y2="256.71"/><path class="cls-15" d="M1775,646.91c-8.52-3.16-19.09-8.55-25.64-14.26l5.16,14.26-5.16,14.27C1755.91,655.47,1766.48,650.07,1775,646.91Z" transform="translate(-132 -390.2)"/></g><g class="cls-6"><path class="cls-2" d="M483.82,410.3h2.09v14.43h6.91v1.75h-9Z" transform="translate(-132 -390.2)"/><path class="cls-2" d="M501.51,426.48l-.17-1.46h-.07a4.32,4.32,0,0,1-3.55,1.72,3.3,3.3,0,0,1-3.55-3.33c0-2.81,2.49-4.35,7-4.32v-.24a2.39,2.39,0,0,0-2.64-2.69,5.83,5.83,0,0,0-3,.86l-.48-1.39a7.23,7.23,0,0,1,3.81-1c3.56,0,4.42,2.42,4.42,4.75v4.35a16.79,16.79,0,0,0,.19,2.78Zm-.31-5.93c-2.3-.05-4.92.36-4.92,2.62a1.86,1.86,0,0,0,2,2,2.9,2.9,0,0,0,2.81-1.94,2.31,2.31,0,0,0,.12-.67Z" transform="translate(-132 -390.2)"/><path class="cls-2" d="M506.36,424.32a5.51,5.51,0,0,0,2.78.84c1.54,0,2.26-.77,2.26-1.73s-.6-1.56-2.16-2.13c-2.09-.75-3.07-1.9-3.07-3.29,0-1.87,1.51-3.41,4-3.41a5.84,5.84,0,0,1,2.85.72l-.53,1.54a4.45,4.45,0,0,0-2.37-.68c-1.25,0-1.95.72-1.95,1.59s.7,1.39,2.21,2c2,.76,3.05,1.77,3.05,3.5,0,2-1.58,3.48-4.34,3.48a6.64,6.64,0,0,1-3.27-.79Z" transform="translate(-132 -390.2)"/><path class="cls-2" d="M518.7,411.53v3.33h3v1.61h-3v6.27c0,1.44.4,2.25,1.58,2.25a4.78,4.78,0,0,0,1.22-.14l.1,1.58a5.14,5.14,0,0,1-1.87.29,2.9,2.9,0,0,1-2.28-.89,4.28,4.28,0,0,1-.82-3v-6.34h-1.8v-1.61h1.8v-2.78Z" transform="translate(-132 -390.2)"/><path class="cls-2" d="M529.09,426.48c0-.79.09-2,.09-3v-14h2.09v7.3h.05a4.32,4.32,0,0,1,4-2.14c2.88,0,4.92,2.4,4.9,5.93,0,4.15-2.62,6.21-5.21,6.21a4.13,4.13,0,0,1-3.89-2.18H531l-.1,1.92Zm2.18-4.66a3.77,3.77,0,0,0,.1.77,3.25,3.25,0,0,0,3.17,2.47c2.2,0,3.52-1.8,3.52-4.46,0-2.33-1.2-4.32-3.45-4.32a3.37,3.37,0,0,0-3.22,2.59,4.06,4.06,0,0,0-.12.87Z" transform="translate(-132 -390.2)"/><path class="cls-2" d="M545.19,411.6a1.31,1.31,0,0,1-2.61,0,1.29,1.29,0,0,1,1.31-1.32A1.25,1.25,0,0,1,545.19,411.6Zm-2.35,14.88V414.86H545v11.62Z" transform="translate(-132 -390.2)"/><path class="cls-2" d="M551,411.53v3.33h3v1.61h-3v6.27c0,1.44.41,2.25,1.58,2.25a4.87,4.87,0,0,0,1.23-.14l.09,1.58a5.06,5.06,0,0,1-1.87.29,2.91,2.91,0,0,1-2.28-.89,4.28,4.28,0,0,1-.82-3v-6.34h-1.8v-1.61h1.8v-2.78Z" transform="translate(-132 -390.2)"/><path class="cls-2" d="M572,420.58c0,4.29-3,6.16-5.79,6.16-3.14,0-5.56-2.3-5.56-6,0-3.89,2.54-6.17,5.76-6.17S572,417,572,420.58Zm-9.22.12c0,2.54,1.47,4.46,3.53,4.46s3.53-1.9,3.53-4.51c0-2-1-4.47-3.48-4.47S562.78,418.49,562.78,420.7Z" transform="translate(-132 -390.2)"/><path class="cls-2" d="M574.88,426.48v-10h-1.63v-1.61h1.63v-.55a5.51,5.51,0,0,1,1.34-4.06,4.08,4.08,0,0,1,2.83-1.08,4.79,4.79,0,0,1,1.8.34l-.28,1.63a3.28,3.28,0,0,0-1.35-.26c-1.8,0-2.25,1.58-2.25,3.36v.62h2.8v1.61H577v10Z" transform="translate(-132 -390.2)"/><path class="cls-2" d="M587,426.48v-10h-1.63v-1.61H587v-.62c0-3.07,1.8-5.07,5.07-5.07a5.82,5.82,0,0,1,3,.77l-.6,1.61a4.44,4.44,0,0,0-2.45-.67c-2.23,0-2.88,1.56-2.88,3.41v.57h6.75v11.62h-2.09v-10h-4.66v10Z" transform="translate(-132 -390.2)"/><path class="cls-2" d="M600.49,421.06a3.72,3.72,0,0,0,4,4,7.79,7.79,0,0,0,3.22-.6l.36,1.51a9.39,9.39,0,0,1-3.87.72c-3.57,0-5.71-2.35-5.71-5.86s2.06-6.26,5.45-6.26c3.79,0,4.8,3.34,4.8,5.47a9.22,9.22,0,0,1-.07,1Zm6.19-1.52c0-1.34-.55-3.43-2.93-3.43-2.14,0-3.07,2-3.24,3.43Z" transform="translate(-132 -390.2)"/><path class="cls-2" d="M611.33,409.44h2.12v17h-2.12Z" transform="translate(-132 -390.2)"/><path class="cls-2" d="M627,409.44v14c0,1,0,2.21.1,3h-1.9l-.1-2h0a4.3,4.3,0,0,1-4,2.28c-2.81,0-5-2.37-5-5.9,0-3.86,2.37-6.24,5.21-6.24a3.88,3.88,0,0,1,3.5,1.78h0v-6.94Zm-2.11,10.15a3.92,3.92,0,0,0-.1-.89,3.1,3.1,0,0,0-3.05-2.44c-2.18,0-3.48,1.92-3.48,4.48,0,2.36,1.16,4.3,3.44,4.3a3.17,3.17,0,0,0,3.09-2.52,3.79,3.79,0,0,0,.1-.91Z" transform="translate(-132 -390.2)"/><path class="cls-2" d="M634.66,429.12a6.19,6.19,0,0,0,3.07.77c1.95,0,3.48-1,4.18-4.15l.38-1.73h-.07a4.64,4.64,0,0,1-4,2.47c-2.33,0-3.53-2-3.53-4,0-3.94,2.88-7.85,7.37-7.85a9.5,9.5,0,0,1,3.72.81L644,425c-.48,2.44-1.12,4.15-2.35,5.18a6.11,6.11,0,0,1-4.06,1.3,6.92,6.92,0,0,1-3.48-.82Zm8.91-12.53a4.83,4.83,0,0,0-1.92-.38c-2.91,0-4.9,3-4.93,5.9,0,1.27.46,2.79,2.24,2.79s3.43-2.16,3.86-4.44Z" transform="translate(-132 -390.2)"/><path class="cls-2" d="M647.12,426.48l1.41-7.49c.29-1.51.48-3.05.6-4.13h1.75c-.09.82-.19,1.64-.31,2.52h.07c.75-1.58,2-2.78,3.56-2.78a3.21,3.21,0,0,1,.55,0l-.38,2a2.44,2.44,0,0,0-.53-.05c-1.73,0-3.27,2.09-3.77,4.8l-1,5.11Z" transform="translate(-132 -390.2)"/><path class="cls-2" d="M663,425.81a8,8,0,0,1-3.84.91c-3.07,0-4.42-2.09-4.42-4.66,0-3.5,2.6-7.46,6.34-7.46,2.21,0,3.41,1.32,3.41,3,0,3-3.43,3.86-7.73,3.79a4.84,4.84,0,0,0,.24,2.21,2.65,2.65,0,0,0,2.59,1.56,6.51,6.51,0,0,0,3.12-.82Zm-2.21-9.65c-1.89,0-3.31,1.85-3.79,3.67,3.12,0,5.57-.38,5.57-2.18C662.55,416.69,661.83,416.16,660.77,416.16Z" transform="translate(-132 -390.2)"/><path class="cls-2" d="M673.85,425.81a8,8,0,0,1-3.84.91c-3.07,0-4.41-2.09-4.41-4.66,0-3.5,2.59-7.46,6.33-7.46,2.21,0,3.41,1.32,3.41,3,0,3-3.43,3.86-7.73,3.79a5,5,0,0,0,.24,2.21,2.65,2.65,0,0,0,2.59,1.56,6.51,6.51,0,0,0,3.12-.82Zm-2.21-9.65c-1.89,0-3.31,1.85-3.79,3.67,3.12,0,5.57-.38,5.57-2.18C673.42,416.69,672.7,416.16,671.64,416.16Z" transform="translate(-132 -390.2)"/><path class="cls-2" d="M676.35,426.48l1.56-8.23c.26-1.3.41-2.43.55-3.39h1.78l-.29,2.28h0a5.07,5.07,0,0,1,4.29-2.54c1.39,0,3,.79,3,3.24a11.14,11.14,0,0,1-.21,1.87l-1.3,6.77h-2l1.27-6.7a7.22,7.22,0,0,0,.17-1.48c0-1.18-.46-2-1.82-2s-3.44,1.7-4,4.58l-1.06,5.64Z" transform="translate(-132 -390.2)"/></g><line class="cls-16" x1="442.86" y1="47.71" x2="447.7" y2="120.4"/><path class="cls-1" d="M569.22,497.6a1,1,0,0,1,1.39.21l9.06,12.33L587,496.72a1,1,0,1,1,1.76,1l-8.1,14.8a1,1,0,0,1-1.68.11L569,499a1,1,0,0,1-.19-.53A1,1,0,0,1,569.22,497.6Z" transform="translate(-132 -390.2)"/><g class="cls-6"><path class="cls-15" d="M1368.16,424.83h8.72v1.75h-6.63V432h6.12v1.73h-6.12V441h-2.09Z" transform="translate(-132 -390.2)"/><path class="cls-15" d="M1381.51,426.12a1.31,1.31,0,0,1-2.62,0,1.29,1.29,0,0,1,1.32-1.32A1.26,1.26,0,0,1,1381.51,426.12ZM1379.16,441V429.39h2.11V441Z" transform="translate(-132 -390.2)"/><path class="cls-15" d="M1384.77,433c0-1.36,0-2.54-.09-3.62h1.84l.08,2.28h.09a3.49,3.49,0,0,1,3.22-2.55,2.18,2.18,0,0,1,.6.08v2a3.08,3.08,0,0,0-.72-.07,3,3,0,0,0-2.83,2.71,5.69,5.69,0,0,0-.1,1V441h-2.09Z" transform="translate(-132 -390.2)"/><path class="cls-15" d="M1392.33,438.85a5.65,5.65,0,0,0,2.79.84c1.53,0,2.25-.77,2.25-1.73s-.6-1.56-2.16-2.14c-2.09-.74-3.07-1.9-3.07-3.29,0-1.87,1.51-3.41,4-3.41a5.81,5.81,0,0,1,2.85.72l-.52,1.54a4.53,4.53,0,0,0-2.38-.67c-1.25,0-1.94.72-1.94,1.58s.69,1.4,2.2,2c2,.77,3.05,1.78,3.05,3.51,0,2-1.58,3.48-4.34,3.48a6.67,6.67,0,0,1-3.27-.8Z" transform="translate(-132 -390.2)"/><path class="cls-15" d="M1404.67,426.05v3.34h3V431h-3v6.26c0,1.44.41,2.26,1.58,2.26a4.42,4.42,0,0,0,1.23-.15l.09,1.59a5.1,5.1,0,0,1-1.87.29,3,3,0,0,1-2.28-.89,4.33,4.33,0,0,1-.82-3V431h-1.8v-1.61h1.8V426.6Z" transform="translate(-132 -390.2)"/><path class="cls-15" d="M1415.06,441c0-.8.09-2,.09-3V424h2.09v7.3h0a4.32,4.32,0,0,1,4-2.14c2.88,0,4.92,2.41,4.9,5.93,0,4.16-2.62,6.22-5.21,6.22a4.14,4.14,0,0,1-3.89-2.18H1417l-.1,1.92Zm2.18-4.66a3.86,3.86,0,0,0,.1.77,3.26,3.26,0,0,0,3.17,2.47c2.21,0,3.53-1.8,3.53-4.47,0-2.32-1.2-4.32-3.46-4.32a3.38,3.38,0,0,0-3.22,2.6,4,4,0,0,0-.12.86Z" transform="translate(-132 -390.2)"/><path class="cls-15" d="M1431.16,426.12a1.31,1.31,0,0,1-2.61,0,1.29,1.29,0,0,1,1.32-1.32A1.25,1.25,0,0,1,1431.16,426.12ZM1428.81,441V429.39h2.11V441Z" transform="translate(-132 -390.2)"/><path class="cls-15" d="M1437,426.05v3.34h3V431h-3v6.26c0,1.44.41,2.26,1.58,2.26a4.31,4.31,0,0,0,1.23-.15l.09,1.59a5.06,5.06,0,0,1-1.87.29,3,3,0,0,1-2.28-.89,4.33,4.33,0,0,1-.81-3V431h-1.8v-1.61h1.8V426.6Z" transform="translate(-132 -390.2)"/><path class="cls-15" d="M1458,435.1c0,4.3-3,6.17-5.78,6.17-3.15,0-5.57-2.3-5.57-6,0-3.88,2.54-6.17,5.76-6.17S1458,431.55,1458,435.1Zm-9.22.12c0,2.55,1.47,4.47,3.53,4.47s3.53-1.9,3.53-4.52c0-2-1-4.46-3.48-4.46S1448.75,433,1448.75,435.22Z" transform="translate(-132 -390.2)"/><path class="cls-15" d="M1460.85,441V431h-1.63v-1.61h1.63v-.55a5.49,5.49,0,0,1,1.34-4.06,4.05,4.05,0,0,1,2.84-1.08,4.87,4.87,0,0,1,1.8.34l-.29,1.63a3.08,3.08,0,0,0-1.35-.27c-1.8,0-2.25,1.59-2.25,3.36v.63h2.81V431h-2.81v10Z" transform="translate(-132 -390.2)"/><path class="cls-15" d="M1473,441V431h-1.64v-1.61H1473v-.63c0-3.07,1.8-5.06,5.06-5.06a5.82,5.82,0,0,1,3,.77l-.6,1.61a4.41,4.41,0,0,0-2.45-.68c-2.23,0-2.88,1.56-2.88,3.41v.58h6.75V441h-2.09V431H1475v10Z" transform="translate(-132 -390.2)"/><path class="cls-15" d="M1486.46,435.58a3.72,3.72,0,0,0,4,4,7.6,7.6,0,0,0,3.22-.6l.36,1.52a9.56,9.56,0,0,1-3.87.72c-3.57,0-5.71-2.36-5.71-5.86s2.07-6.27,5.45-6.27c3.79,0,4.8,3.34,4.8,5.48a8.79,8.79,0,0,1-.07,1Zm6.19-1.51c0-1.34-.55-3.43-2.93-3.43-2.13,0-3.07,2-3.24,3.43Z" transform="translate(-132 -390.2)"/><path class="cls-15" d="M1497.31,424h2.11V441h-2.11Z" transform="translate(-132 -390.2)"/><path class="cls-15" d="M1513,424V438c0,1,0,2.2.1,3h-1.9l-.09-2h0a4.3,4.3,0,0,1-4,2.28c-2.81,0-5-2.38-5-5.9,0-3.87,2.38-6.25,5.21-6.25a3.88,3.88,0,0,1,3.5,1.78h.05V424Zm-2.11,10.16a3.33,3.33,0,0,0-.1-.89,3.09,3.09,0,0,0-3-2.45c-2.19,0-3.48,1.92-3.48,4.49,0,2.35,1.15,4.3,3.43,4.3a3.17,3.17,0,0,0,3.09-2.52,3.37,3.37,0,0,0,.1-.92Z" transform="translate(-132 -390.2)"/><path class="cls-15" d="M1523.06,429.39l1.15,6.26c.26,1.32.41,2.19.53,3.05h0c.32-.74.65-1.56,1.25-2.83l3-6.48h2.11l-4.35,8.83a21.45,21.45,0,0,1-4,6.1,7.19,7.19,0,0,1-3.38,2l-.48-1.7a7.72,7.72,0,0,0,2.14-1.13,9.16,9.16,0,0,0,2.23-2.66.76.76,0,0,0,.07-.53L1521,429.39Z" transform="translate(-132 -390.2)"/><path class="cls-15" d="M1539.28,440.33a7.92,7.92,0,0,1-3.84.92c-3.07,0-4.42-2.09-4.42-4.66,0-3.51,2.6-7.47,6.34-7.47,2.21,0,3.41,1.33,3.41,3,0,3-3.43,3.87-7.73,3.79a4.81,4.81,0,0,0,.24,2.21,2.65,2.65,0,0,0,2.59,1.56,6.52,6.52,0,0,0,3.12-.81Zm-2.21-9.65c-1.89,0-3.31,1.85-3.79,3.68,3.12,0,5.57-.39,5.57-2.19C1538.85,431.21,1538.13,430.68,1537.07,430.68Z" transform="translate(-132 -390.2)"/><path class="cls-15" d="M1541.8,441,1545,424h2L1543.77,441Z" transform="translate(-132 -390.2)"/><path class="cls-15" d="M1547.3,441l3.24-17.05h2L1549.26,441Z" transform="translate(-132 -390.2)"/><path class="cls-15" d="M1563.9,434c0,3.58-2.54,7.3-6.43,7.3-2.9,0-4.54-2.16-4.54-4.78,0-3.81,2.67-7.37,6.44-7.37C1562.51,429.12,1563.9,431.5,1563.9,434Zm-8.9,2.45c0,1.9,1,3.27,2.74,3.27,2.35,0,4.12-3,4.12-5.74,0-1.34-.62-3.24-2.71-3.24C1556.66,430.71,1555,433.76,1555,436.42Z" transform="translate(-132 -390.2)"/><path class="cls-15" d="M1567.89,429.39l.41,6.53a28.18,28.18,0,0,1,0,3.12h.08a25.65,25.65,0,0,1,1.27-2.91l3.45-6.74h1.73l.72,6.62a25.68,25.68,0,0,1,.19,3h0c.31-.94.65-1.83,1.11-2.93l3.14-6.72h2L1576.36,441h-1.85l-.77-6.32a27.12,27.12,0,0,1-.16-3.07h0c-.48,1.11-.82,2-1.35,3l-3.33,6.36H1567l-1.08-11.62Z" transform="translate(-132 -390.2)"/></g><g class="cls-6"><path class="cls-13" d="M1124.71,391.33h2.08v14.42h6.92v1.76h-9Z" transform="translate(-132 -390.2)"/><path class="cls-13" d="M1142.39,407.51l-.16-1.47h-.08a4.31,4.31,0,0,1-3.55,1.73,3.31,3.31,0,0,1-3.55-3.34c0-2.81,2.5-4.34,7-4.32v-.24a2.39,2.39,0,0,0-2.64-2.69,5.74,5.74,0,0,0-3,.87l-.48-1.39a7.16,7.16,0,0,1,3.82-1c3.55,0,4.41,2.43,4.41,4.76v4.34a16.91,16.91,0,0,0,.19,2.79Zm-.31-5.93c-2.3-.05-4.92.36-4.92,2.61a1.87,1.87,0,0,0,2,2,2.88,2.88,0,0,0,2.81-1.94,2.32,2.32,0,0,0,.12-.68Z" transform="translate(-132 -390.2)"/><path class="cls-13" d="M1147.24,405.35a5.65,5.65,0,0,0,2.79.84c1.53,0,2.25-.77,2.25-1.73s-.6-1.56-2.16-2.14c-2.09-.74-3.07-1.9-3.07-3.29,0-1.87,1.51-3.41,4-3.41a5.81,5.81,0,0,1,2.85.72l-.52,1.54a4.53,4.53,0,0,0-2.38-.67c-1.25,0-2,.72-2,1.58s.7,1.4,2.21,2c2,.77,3,1.78,3,3.51,0,2-1.58,3.48-4.34,3.48a6.64,6.64,0,0,1-3.27-.8Z" transform="translate(-132 -390.2)"/><path class="cls-13" d="M1159.58,392.55v3.34h3v1.61h-3v6.26c0,1.44.41,2.26,1.58,2.26a4.42,4.42,0,0,0,1.23-.15l.09,1.59a5.1,5.1,0,0,1-1.87.29,2.93,2.93,0,0,1-2.28-.89,4.33,4.33,0,0,1-.82-3V397.5h-1.8v-1.61h1.8V393.1Z" transform="translate(-132 -390.2)"/><path class="cls-13" d="M1170,407.51c0-.8.09-2,.09-3V390.46h2.09v7.3h0a4.32,4.32,0,0,1,4-2.14c2.88,0,4.92,2.41,4.9,5.93,0,4.16-2.62,6.22-5.21,6.22a4.14,4.14,0,0,1-3.89-2.18h-.07l-.1,1.92Zm2.18-4.66a3.86,3.86,0,0,0,.1.77,3.26,3.26,0,0,0,3.17,2.47c2.21,0,3.53-1.8,3.53-4.47,0-2.32-1.2-4.32-3.46-4.32a3.38,3.38,0,0,0-3.22,2.6,4,4,0,0,0-.12.86Z" transform="translate(-132 -390.2)"/><path class="cls-13" d="M1186.07,392.62a1.31,1.31,0,0,1-2.61,0,1.29,1.29,0,0,1,1.32-1.32A1.25,1.25,0,0,1,1186.07,392.62Zm-2.35,14.89V395.89h2.11v11.62Z" transform="translate(-132 -390.2)"/><path class="cls-13" d="M1191.88,392.55v3.34h3v1.61h-3v6.26c0,1.44.41,2.26,1.58,2.26a4.37,4.37,0,0,0,1.23-.15l.09,1.59a5.06,5.06,0,0,1-1.87.29,3,3,0,0,1-2.28-.89,4.33,4.33,0,0,1-.81-3V397.5H1188v-1.61h1.8V393.1Z" transform="translate(-132 -390.2)"/><path class="cls-13" d="M1212.88,401.6c0,4.3-3,6.17-5.78,6.17-3.15,0-5.57-2.3-5.57-6,0-3.88,2.54-6.17,5.76-6.17S1212.88,398.05,1212.88,401.6Zm-9.22.12c0,2.55,1.47,4.47,3.53,4.47s3.53-1.9,3.53-4.52c0-2-1-4.46-3.48-4.46S1203.66,399.51,1203.66,401.72Z" transform="translate(-132 -390.2)"/><path class="cls-13" d="M1215.76,407.51v-10h-1.63v-1.61h1.63v-.55a5.49,5.49,0,0,1,1.34-4.06,4.05,4.05,0,0,1,2.84-1.08,4.87,4.87,0,0,1,1.8.34l-.29,1.63a3.08,3.08,0,0,0-1.35-.27c-1.8,0-2.25,1.59-2.25,3.36v.63h2.81v1.61h-2.81v10Z" transform="translate(-132 -390.2)"/><path class="cls-13" d="M1227.86,407.51v-10h-1.64v-1.61h1.64v-.63c0-3.07,1.8-5.06,5.06-5.06a5.82,5.82,0,0,1,2.95.77l-.6,1.61a4.41,4.41,0,0,0-2.45-.68c-2.23,0-2.88,1.56-2.88,3.41v.58h6.75v11.62h-2.09v-10h-4.66v10Z" transform="translate(-132 -390.2)"/><path class="cls-13" d="M1241.37,402.08a3.72,3.72,0,0,0,4,4,7.6,7.6,0,0,0,3.22-.6l.36,1.52a9.56,9.56,0,0,1-3.87.72c-3.57,0-5.71-2.36-5.71-5.86s2.07-6.27,5.45-6.27c3.79,0,4.8,3.34,4.8,5.48a8.79,8.79,0,0,1-.07,1Zm6.19-1.51c0-1.34-.55-3.43-2.93-3.43-2.13,0-3.07,2-3.24,3.43Z" transform="translate(-132 -390.2)"/><path class="cls-13" d="M1252.21,390.46h2.12v17.05h-2.12Z" transform="translate(-132 -390.2)"/><path class="cls-13" d="M1267.91,390.46v14.05c0,1,0,2.2.1,3h-1.9l-.09-2h0a4.3,4.3,0,0,1-4,2.28c-2.81,0-5-2.38-5-5.9,0-3.87,2.37-6.25,5.21-6.25a3.88,3.88,0,0,1,3.5,1.78h0v-6.94Zm-2.11,10.16a3.33,3.33,0,0,0-.1-.89,3.1,3.1,0,0,0-3-2.45c-2.18,0-3.47,1.92-3.47,4.49,0,2.35,1.15,4.3,3.43,4.3a3.17,3.17,0,0,0,3.09-2.52,3.37,3.37,0,0,0,.1-.92Z" transform="translate(-132 -390.2)"/><path class="cls-13" d="M1280.56,390.46,1279,398h0a4.9,4.9,0,0,1,4.08-2.38c2.54,0,3.5,2.12,3.5,4.18,0,3.55-2.56,8-7.22,8-2,0-3.58-.84-3.58-3a11,11,0,0,1,.2-1.8l2.52-12.51ZM1278,403a5,5,0,0,0-.15,1.46c0,1.11.63,1.73,1.88,1.73,3,0,4.82-3.58,4.82-6.14,0-1.45-.62-2.79-2.21-2.79s-3.5,1.78-4.08,4.51Z" transform="translate(-132 -390.2)"/><path class="cls-13" d="M1288.05,407.51l3.24-17.05h2L1290,407.51Z" transform="translate(-132 -390.2)"/><path class="cls-13" d="M1304.85,395.89l-1.56,8.23c-.24,1.3-.41,2.43-.53,3.39H1301l.31-2.19h0a5.18,5.18,0,0,1-4.1,2.45c-1.49,0-3-.72-3-3.36a10.08,10.08,0,0,1,.22-1.94l1.24-6.58h2l-1.23,6.48a8.09,8.09,0,0,0-.21,1.7c0,1.2.5,2,1.87,2s3.29-1.68,3.77-4.25l1.12-5.95Z" transform="translate(-132 -390.2)"/><path class="cls-13" d="M1314.52,406.83a8,8,0,0,1-3.84.92c-3.07,0-4.42-2.09-4.42-4.66,0-3.51,2.59-7.47,6.34-7.47,2.21,0,3.41,1.33,3.41,3,0,3-3.44,3.87-7.73,3.79a4.68,4.68,0,0,0,.24,2.21,2.64,2.64,0,0,0,2.59,1.56,6.52,6.52,0,0,0,3.12-.81Zm-2.21-9.65c-1.9,0-3.31,1.85-3.79,3.68,3.12,0,5.57-.39,5.57-2.19C1314.09,397.71,1313.37,397.18,1312.31,397.18Z" transform="translate(-132 -390.2)"/></g><line class="cls-17" x1="1083.74" y1="28.74" x2="1091.3" y2="120.4"/><path class="cls-13" d="M1212.61,497.77a1,1,0,0,1,1.4.19l9.25,12.19,7.14-13.54a1,1,0,0,1,1.35-.42,1,1,0,0,1,.42,1.35l-7.87,14.93a1,1,0,0,1-1.68.14l-10.2-13.44a1,1,0,0,1-.2-.52A1,1,0,0,1,1212.61,497.77Z" transform="translate(-132 -390.2)"/><line class="cls-18" x1="1319.88" y1="61.24" x2="1310.62" y2="120.42"/><path class="cls-15" d="M1435.25,495.64a1,1,0,0,1,1.31.51l6.13,14,10.11-11.48a1,1,0,1,1,1.5,1.33l-11.15,12.65a1,1,0,0,1-.91.33,1,1,0,0,1-.76-.59L1434.73,497a1,1,0,0,1-.07-.55A1,1,0,0,1,1435.25,495.64Z" transform="translate(-132 -390.2)"/><g class="cls-6"><path class="cls-19" d="M741.15,729.94a24.06,24.06,0,0,1,4-.31A6.68,6.68,0,0,1,749.7,731a4.33,4.33,0,0,1,1.41,3.38,4.78,4.78,0,0,1-1.24,3.46,6.71,6.71,0,0,1-5,1.78,7.19,7.19,0,0,1-1.68-.15v6.48h-2.09Zm2.09,7.8a7,7,0,0,0,1.73.17c2.52,0,4.06-1.23,4.06-3.46s-1.52-3.17-3.82-3.17a8.53,8.53,0,0,0-2,.17Z" transform="translate(-132 -390.2)"/><path class="cls-19" d="M759.66,745.92l-.17-1.46h-.07a4.34,4.34,0,0,1-3.55,1.73,3.31,3.31,0,0,1-3.56-3.34c0-2.81,2.5-4.34,7-4.32v-.24a2.4,2.4,0,0,0-2.64-2.69,5.81,5.81,0,0,0-3,.87l-.48-1.39a7.18,7.18,0,0,1,3.82-1c3.55,0,4.42,2.43,4.42,4.75v4.35a15.7,15.7,0,0,0,.19,2.78Zm-.31-5.93c-2.31,0-4.92.37-4.92,2.62a1.87,1.87,0,0,0,2,2,2.9,2.9,0,0,0,2.81-2,2.2,2.2,0,0,0,.12-.67Z" transform="translate(-132 -390.2)"/><path class="cls-19" d="M774.83,728.88v14c0,1,0,2.21.09,3H773l-.1-2h0a4.31,4.31,0,0,1-4,2.28c-2.81,0-5-2.38-5-5.91,0-3.86,2.38-6.24,5.21-6.24a3.89,3.89,0,0,1,3.51,1.78h0v-6.94ZM772.71,739a3.79,3.79,0,0,0-.09-.89,3.11,3.11,0,0,0-3-2.45c-2.19,0-3.48,1.92-3.48,4.49,0,2.35,1.15,4.29,3.43,4.29a3.17,3.17,0,0,0,3.1-2.52,3.7,3.7,0,0,0,.09-.91Z" transform="translate(-132 -390.2)"/><path class="cls-19" d="M788.36,728.88v14c0,1,0,2.21.1,3h-1.9l-.09-2h-.05a4.32,4.32,0,0,1-4,2.28c-2.81,0-5-2.38-5-5.91,0-3.86,2.37-6.24,5.21-6.24a3.88,3.88,0,0,1,3.5,1.78h0v-6.94ZM786.25,739a3.33,3.33,0,0,0-.1-.89,3.1,3.1,0,0,0-3-2.45c-2.18,0-3.48,1.92-3.48,4.49,0,2.35,1.16,4.29,3.44,4.29a3.16,3.16,0,0,0,3.09-2.52,3.26,3.26,0,0,0,.1-.91Z" transform="translate(-132 -390.2)"/><path class="cls-19" d="M794.22,731a1.31,1.31,0,0,1-2.62,0,1.29,1.29,0,0,1,1.32-1.32A1.26,1.26,0,0,1,794.22,731Zm-2.36,14.88V734.31H794v11.61Z" transform="translate(-132 -390.2)"/><path class="cls-19" d="M797.48,737.45c0-1.2,0-2.18-.1-3.14h1.88l.12,1.92h0a4.29,4.29,0,0,1,3.85-2.19c1.6,0,4.1,1,4.1,5v6.93h-2.11v-6.69c0-1.87-.7-3.44-2.69-3.44a3.12,3.12,0,0,0-3,3.15v7h-2.11Z" transform="translate(-132 -390.2)"/><path class="cls-19" d="M820.81,734.31c0,.84-.1,1.77-.1,3.19v6.74c0,2.67-.53,4.3-1.65,5.31a6.19,6.19,0,0,1-4.23,1.39,7.51,7.51,0,0,1-3.86-1l.53-1.61a6.5,6.5,0,0,0,3.4.91c2.16,0,3.75-1.12,3.75-4v-1.3h0a4.16,4.16,0,0,1-3.7,2c-2.88,0-4.94-2.45-4.94-5.67,0-3.93,2.57-6.17,5.23-6.17a3.88,3.88,0,0,1,3.63,2h0l.09-1.75Zm-2.19,4.58a3.21,3.21,0,0,0-.11-1,3.06,3.06,0,0,0-3-2.23c-2,0-3.45,1.7-3.45,4.39,0,2.28,1.15,4.18,3.43,4.18a3.1,3.1,0,0,0,2.93-2.16,3.68,3.68,0,0,0,.16-1.13Z" transform="translate(-132 -390.2)"/></g><path class="cls-20" d="M783.5,717.81c0-52.72-97.3-47.06-100-104.49" transform="translate(-132 -390.2)"/><path class="cls-19" d="M693.52,626.73a1,1,0,0,1-1.39-.27l-8.55-12.68-7.88,13.11a1,1,0,0,1-1.72-1l8.69-14.46a1,1,0,0,1,.83-.49,1,1,0,0,1,.86.45l9.43,14a1.07,1.07,0,0,1,.17.53A1,1,0,0,1,693.52,626.73Z" transform="translate(-132 -390.2)"/><line class="cls-21" x1="651.5" y1="327.61" x2="641.72" y2="223.11"/><path class="cls-19" d="M784.55,626a1,1,0,0,1-1.4-.17l-9.38-12.09-7,13.62a1,1,0,0,1-1.35.43,1,1,0,0,1-.43-1.34l7.69-15a1,1,0,0,1,.8-.54,1,1,0,0,1,.88.39l10.35,13.32a1.06,1.06,0,0,1,.21.52A1,1,0,0,1,784.55,626Z" transform="translate(-132 -390.2)"/><path class="cls-20" d="M783.5,717.81c0-41.89,97.61-39.46,100-104.49" transform="translate(-132 -390.2)"/><path class="cls-19" d="M892.34,627.42a1,1,0,0,1-1.37-.37l-7.6-13.28-8.82,12.51a1,1,0,0,1-1.63-1.15l9.72-13.79a1,1,0,0,1,1.68.08l8.39,14.63a1,1,0,0,1,.13.55A1,1,0,0,1,892.34,627.42Z" transform="translate(-132 -390.2)"/><g class="cls-6"><path class="cls-19" d="M1271.15,729.94a24.06,24.06,0,0,1,4-.31,6.68,6.68,0,0,1,4.54,1.34,4.33,4.33,0,0,1,1.41,3.38,4.78,4.78,0,0,1-1.24,3.46,6.71,6.71,0,0,1-4.95,1.78,7.19,7.19,0,0,1-1.68-.15v6.48h-2.09Zm2.09,7.8a7,7,0,0,0,1.73.17c2.52,0,4-1.23,4-3.46s-1.51-3.17-3.81-3.17a8.53,8.53,0,0,0-2,.17Z" transform="translate(-132 -390.2)"/><path class="cls-19" d="M1289.66,745.92l-.17-1.46h-.07a4.34,4.34,0,0,1-3.55,1.73,3.31,3.31,0,0,1-3.56-3.34c0-2.81,2.5-4.34,7-4.32v-.24a2.4,2.4,0,0,0-2.64-2.69,5.81,5.81,0,0,0-3,.87l-.48-1.39a7.18,7.18,0,0,1,3.82-1c3.55,0,4.42,2.43,4.42,4.75v4.35a15.7,15.7,0,0,0,.19,2.78Zm-.31-5.93c-2.31,0-4.92.37-4.92,2.62a1.87,1.87,0,0,0,2,2,2.87,2.87,0,0,0,2.8-2,2,2,0,0,0,.13-.67Z" transform="translate(-132 -390.2)"/><path class="cls-19" d="M1304.83,728.88v14c0,1,0,2.21.09,3H1303l-.09-2h0a4.31,4.31,0,0,1-4,2.28c-2.81,0-5-2.38-5-5.91,0-3.86,2.38-6.24,5.21-6.24a3.89,3.89,0,0,1,3.51,1.78h0v-6.94ZM1302.71,739a3.79,3.79,0,0,0-.09-.89,3.11,3.11,0,0,0-3-2.45c-2.19,0-3.48,1.92-3.48,4.49,0,2.35,1.15,4.29,3.43,4.29a3.17,3.17,0,0,0,3.1-2.52,3.7,3.7,0,0,0,.09-.91Z" transform="translate(-132 -390.2)"/><path class="cls-19" d="M1318.36,728.88v14c0,1,0,2.21.1,3h-1.9l-.09-2h0a4.32,4.32,0,0,1-4,2.28c-2.81,0-5-2.38-5-5.91,0-3.86,2.37-6.24,5.21-6.24a3.88,3.88,0,0,1,3.5,1.78h0v-6.94ZM1316.25,739a3.8,3.8,0,0,0-.1-.89,3.1,3.1,0,0,0-3.05-2.45c-2.18,0-3.48,1.92-3.48,4.49,0,2.35,1.16,4.29,3.44,4.29a3.16,3.16,0,0,0,3.09-2.52,3.68,3.68,0,0,0,.1-.91Z" transform="translate(-132 -390.2)"/><path class="cls-19" d="M1324.22,731a1.31,1.31,0,0,1-2.62,0,1.29,1.29,0,0,1,1.32-1.32A1.26,1.26,0,0,1,1324.22,731Zm-2.36,14.88V734.31H1324v11.61Z" transform="translate(-132 -390.2)"/><path class="cls-19" d="M1327.48,737.45c0-1.2,0-2.18-.1-3.14h1.88l.12,1.92h0a4.29,4.29,0,0,1,3.85-2.19c1.6,0,4.1,1,4.1,5v6.93h-2.11v-6.69c0-1.87-.7-3.44-2.69-3.44a3.12,3.12,0,0,0-3,3.15v7h-2.11Z" transform="translate(-132 -390.2)"/><path class="cls-19" d="M1350.81,734.31c0,.84-.1,1.77-.1,3.19v6.74c0,2.67-.53,4.3-1.65,5.31a6.19,6.19,0,0,1-4.23,1.39,7.51,7.51,0,0,1-3.86-1l.53-1.61a6.5,6.5,0,0,0,3.4.91c2.16,0,3.75-1.12,3.75-4v-1.3h-.05a4.16,4.16,0,0,1-3.7,2c-2.88,0-4.94-2.45-4.94-5.67,0-3.93,2.57-6.17,5.23-6.17a3.88,3.88,0,0,1,3.63,2h0l.1-1.75Zm-2.19,4.58a3.21,3.21,0,0,0-.11-1,3.06,3.06,0,0,0-3-2.23c-2,0-3.45,1.7-3.45,4.39,0,2.28,1.15,4.18,3.43,4.18a3.1,3.1,0,0,0,2.93-2.16,3.68,3.68,0,0,0,.16-1.13Z" transform="translate(-132 -390.2)"/></g><line class="cls-20" x1="1181.5" y1="327.61" x2="1191.28" y2="223.11"/><path class="cls-19" d="M1331.56,627.81a1,1,0,0,1-1.35-.43l-7-13.62-9.38,12.09a1,1,0,0,1-1.41.17,1,1,0,0,1-.17-1.4l10.35-13.32a1,1,0,0,1,.88-.39,1,1,0,0,1,.8.54l7.69,15a.94.94,0,0,1,.11.54A1,1,0,0,1,1331.56,627.81Z" transform="translate(-132 -390.2)"/><circle class="cls-22" cx="240" cy="256.71" r="16"/><g class="cls-4"><path class="cls-2" d="M371.17,642.48h0l-2.48,1.18-.5-2.28,3.44-1.6h2.52v13h-2.94Z" transform="translate(-132 -390.2)"/></g><circle class="cls-23" cx="980" cy="256.71" r="16"/><g class="cls-4"><path class="cls-24" d="M1107.29,652.79v-1.85l1.68-1.52c2.84-2.54,4.22-4,4.26-5.52,0-1.06-.64-1.9-2.14-1.9a4.71,4.71,0,0,0-2.78,1.08l-.86-2.18a7.2,7.2,0,0,1,4.26-1.34c2.94,0,4.56,1.72,4.56,4.08,0,2.18-1.58,3.92-3.46,5.6l-1.2,1v0h4.9v2.51Z" transform="translate(-132 -390.2)"/></g><circle class="cls-25" cx="1433" cy="256.71" r="16"/><g class="cls-4"><path class="cls-15" d="M1560.83,649.8a7.17,7.17,0,0,0,3,.8c1.58,0,2.38-.76,2.38-1.74,0-1.28-1.28-1.86-2.62-1.86h-1.24v-2.18h1.18c1,0,2.32-.4,2.32-1.5,0-.78-.64-1.36-1.92-1.36a5.93,5.93,0,0,0-2.72.78l-.62-2.2a8.15,8.15,0,0,1,4-1c2.78,0,4.32,1.46,4.32,3.24a3.11,3.11,0,0,1-2.38,3v0a3.23,3.23,0,0,1,2.82,3.16c0,2.31-2,4-5.32,4a7.58,7.58,0,0,1-3.86-.92Z" transform="translate(-132 -390.2)"/></g></svg>