<svg id="Layer_1" data-name="Layer 1" xmlns="http://www.w3.org/2000/svg" viewBox="0 0 1643 196.74"><defs><style>.cls-1{fill:#25b99a;}.cls-2{opacity:0.95;}.cls-3{fill:#fff;}.cls-4{opacity:0.9;}.cls-5{fill:#0e594c;}.cls-6{fill:#147f6b;}.cls-7{fill:none;stroke:#0e594c;}.cls-7,.cls-8{stroke-miterlimit:10;stroke-width:3px;}.cls-8{fill:#b3dfd8;stroke:#0d594c;}.cls-9{fill:#0d594c;}</style></defs><title>bit-array-decoding-be</title><rect class="cls-1" x="101.5" y="58.11" width="100" height="76.94"/><rect class="cls-1" x="201.5" y="58.11" width="100" height="76.94"/><rect class="cls-1" x="301.5" y="58.11" width="100" height="76.94"/><rect class="cls-1" x="401.5" y="58.11" width="100" height="76.94"/><rect class="cls-1" x="501.5" y="58.11" width="100" height="76.94"/><rect class="cls-1" x="601.5" y="58.11" width="100" height="76.94"/><path class="cls-1" d="M833.65,599.72h84a16,16,0,0,0,16-16V538.79a16,16,0,0,0-16-16h-84" transform="translate(-132 -464.67)"/><path class="cls-1" d="M233.5,599.91h-84a16,16,0,0,1-16-16V539a16,16,0,0,1,16-16h84" transform="translate(-132 -464.67)"/><g class="cls-2"><path class="cls-3" d="M191,560.31c0,6.69-2.63,10.88-7.59,10.88-4.8,0-7.36-4.35-7.39-10.69s2.75-10.81,7.62-10.81C188.65,549.69,191,554.17,191,560.31Zm-11,.19c0,5.06,1.37,7.68,3.55,7.68s3.52-2.81,3.52-7.8-1.15-7.68-3.52-7.68C181.42,552.7,180,555.29,180,560.5Z" transform="translate(-132 -464.67)"/></g><g class="cls-4"><path class="cls-5" d="M144.56,465.18a36.68,36.68,0,0,1,6.44-.51c3.27,0,5.29.4,6.95,1.55a5.13,5.13,0,0,1,2.52,4.54,5.64,5.64,0,0,1-4,5.25v.08a6.11,6.11,0,0,1,4.9,6,6.3,6.3,0,0,1-2.34,5c-1.73,1.51-4.57,2.27-9,2.27a41.32,41.32,0,0,1-5.43-.33Zm4.39,9.57h2.26c3.06,0,4.79-1.44,4.79-3.49,0-2.27-1.73-3.31-4.53-3.31a11.82,11.82,0,0,0-2.52.18Zm0,11.16a19.82,19.82,0,0,0,2.34.11c2.84,0,5.36-1.08,5.36-4.07,0-2.8-2.45-4-5.51-4H149Z" transform="translate(-132 -464.67)"/><path class="cls-5" d="M167.88,471.59l3.17,9.39c.36,1.08.72,2.41,1,3.42h.11c.29-1,.61-2.3.94-3.45l2.73-9.36h4.75l-4.39,12c-2.41,6.55-4,9.46-6.12,11.26a8.88,8.88,0,0,1-4.64,2.27l-1-3.74A7.53,7.53,0,0,0,167,492.1a7.66,7.66,0,0,0,2.41-2.77,1.75,1.75,0,0,0,.29-.79,1.8,1.8,0,0,0-.25-.86L163,471.59Z" transform="translate(-132 -464.67)"/><path class="cls-5" d="M188.19,466.58v5h4.21v3.31h-4.21v7.74c0,2.12.57,3.24,2.26,3.24a6.39,6.39,0,0,0,1.73-.22l.07,3.38a9.44,9.44,0,0,1-3.2.44,5.14,5.14,0,0,1-3.82-1.44c-.93-1-1.36-2.6-1.36-4.9V474.9h-2.52v-3.31h2.52v-4Z" transform="translate(-132 -464.67)"/><path class="cls-5" d="M198.66,481.59c.11,3.17,2.59,4.54,5.4,4.54a13.26,13.26,0,0,0,4.86-.79l.65,3.06a16.54,16.54,0,0,1-6.12,1.08c-5.69,0-9-3.5-9-8.86,0-4.86,3-9.43,8.56-9.43s7.56,4.68,7.56,8.53a11.1,11.1,0,0,1-.14,1.87Zm7.71-3.09c0-1.62-.69-4.29-3.64-4.29-2.73,0-3.89,2.49-4.07,4.29Z" transform="translate(-132 -464.67)"/><path class="cls-5" d="M237.25,477.27c0,7.53-2.95,12.24-8.53,12.24-5.4,0-8.28-4.89-8.31-12s3.09-12.17,8.56-12.17C234.62,465.32,237.25,470.36,237.25,477.27Zm-12.38.22c0,5.69,1.55,8.64,4,8.64s3.95-3.17,3.95-8.78c0-5.44-1.29-8.64-3.95-8.64C226.49,468.71,224.83,471.62,224.87,477.49Z" transform="translate(-132 -464.67)"/></g><g class="cls-2"><path class="cls-3" d="M282.47,553.59h-.06l-3.81,1.92-.67-3L283,550h3.29v20.8h-3.81Z" transform="translate(-132 -464.67)"/></g><g class="cls-2"><path class="cls-3" d="M376.3,570.84v-2.4l2.46-2.27c4.9-4.55,7.2-7,7.23-9.79,0-1.86-1-3.49-3.71-3.49a7.6,7.6,0,0,0-4.45,1.73l-1.15-2.79a10.35,10.35,0,0,1,6.4-2.14c4.61,0,6.85,2.91,6.85,6.3,0,3.65-2.62,6.59-6.24,10l-1.82,1.57v.07h8.54v3.26Z" transform="translate(-132 -464.67)"/></g><g class="cls-2"><path class="cls-3" d="M477.1,566.78a10.42,10.42,0,0,0,4.73,1.27c3,0,4.23-1.69,4.2-3.32,0-2.47-2.31-3.52-4.71-3.52H479.5v-2.88h1.76c1.82,0,4.13-.83,4.13-2.91,0-1.41-1.06-2.6-3.33-2.6a8.35,8.35,0,0,0-4.26,1.32l-.89-2.85a11.21,11.21,0,0,1,6-1.6c4.29,0,6.5,2.37,6.5,5.09,0,2.17-1.28,4-3.84,4.86v.06a5.26,5.26,0,0,1,4.57,5.19c0,3.52-2.94,6.3-8.09,6.3a11.33,11.33,0,0,1-5.83-1.44Z" transform="translate(-132 -464.67)"/></g><g class="cls-2"><path class="cls-3" d="M585,570.84v-5.28h-9.41V563L584,550h4.64v12.54h2.69v3h-2.69v5.28Zm0-8.26v-5.66c0-1.18,0-2.4.13-3.62H585c-.64,1.32-1.18,2.37-1.82,3.52l-3.81,5.7,0,.06Z" transform="translate(-132 -464.67)"/></g><g class="cls-2"><path class="cls-3" d="M689.51,553.3h-8l-.6,4.16a11.09,11.09,0,0,1,1.5-.09,9.28,9.28,0,0,1,5.06,1.34,6,6,0,0,1,2.72,5.28c0,4-3.3,7.2-8.42,7.2a11.89,11.89,0,0,1-5.5-1.22l.8-3a10.46,10.46,0,0,0,4.57,1.09c2.31,0,4.51-1.31,4.51-3.81s-1.76-3.94-5.92-3.94a17.67,17.67,0,0,0-2.84.2l1.37-10.5h10.75Z" transform="translate(-132 -464.67)"/></g><g class="cls-2"><path class="cls-3" d="M789,552.82a15.23,15.23,0,0,0-2,.1c-4.35.51-6.46,3.2-7,6.08h.1a6,6,0,0,1,4.67-2c3.58,0,6.36,2.56,6.36,6.79a7.22,7.22,0,0,1-7.32,7.42c-5.06,0-7.84-3.84-7.84-9a12.75,12.75,0,0,1,3.61-9.34,12,12,0,0,1,7.39-3.07,11.15,11.15,0,0,1,2-.07ZM787.11,564c0-2.4-1.31-4.13-3.61-4.13a3.82,3.82,0,0,0-3.39,2.15,2.68,2.68,0,0,0-.26,1.25c.06,2.75,1.38,5,3.9,5C785.8,568.25,787.11,566.49,787.11,564Z" transform="translate(-132 -464.67)"/></g><g class="cls-2"><path class="cls-3" d="M890.75,550v2.53L882,570.84h-4.16l8.77-17.47v-.07h-9.79V550Z" transform="translate(-132 -464.67)"/></g><path class="cls-6" d="M917.48,521.28h-768A17.54,17.54,0,0,0,132,538.79V583.7a17.54,17.54,0,0,0,17.51,17.52h768A17.54,17.54,0,0,0,935,583.7V538.79A17.54,17.54,0,0,0,917.48,521.28Zm-582.48,3h97v73.94H335Zm-3,73.94H235V524.28h97Zm103-73.94h97v73.94H435Zm100,0h97v73.94H535Zm100,0h97v73.94H635Zm100,0h97v73.94H735ZM135,583.7V538.79a14.53,14.53,0,0,1,14.51-14.51H232v73.94H149.51A14.54,14.54,0,0,1,135,583.7Zm797,0a14.54,14.54,0,0,1-14.52,14.52H835V524.28h82.48A14.53,14.53,0,0,1,932,538.79Z" transform="translate(-132 -464.67)"/><rect class="cls-1" x="941.5" y="58.11" width="100" height="76.94"/><rect class="cls-1" x="1041.5" y="58.11" width="100" height="76.94"/><rect class="cls-1" x="1141.5" y="58.11" width="100" height="76.94"/><rect class="cls-1" x="1241.5" y="58.11" width="100" height="76.94"/><rect class="cls-1" x="1341.5" y="58.11" width="100" height="76.94"/><rect class="cls-1" x="1441.5" y="58.11" width="100" height="76.94"/><path class="cls-1" d="M1673.65,599.72h84a16,16,0,0,0,16-16V538.79a16,16,0,0,0-16-16h-84" transform="translate(-132 -464.67)"/><path class="cls-1" d="M1073.5,599.91h-84a16,16,0,0,1-16-16V539a16,16,0,0,1,16-16h84" transform="translate(-132 -464.67)"/><g class="cls-2"><path class="cls-3" d="M1016,565.49c0-2.59,1.51-4.35,3.9-5.4V560a5.06,5.06,0,0,1-3.16-4.61c0-3.39,3-5.69,6.94-5.69,4.48,0,6.53,2.69,6.53,5.25a5.2,5.2,0,0,1-3.2,4.7v.1a5.58,5.58,0,0,1,4,5.24c0,3.72-3.14,6.21-7.59,6.21C1018.54,571.19,1016,568.41,1016,565.49Zm11-.19c0-2.11-1.57-3.26-3.88-3.9a3.81,3.81,0,0,0-3.07,3.65,3.28,3.28,0,0,0,3.49,3.36A3.16,3.16,0,0,0,1027,565.3Zm-6.5-10.08c0,1.7,1.41,2.72,3.39,3.27a3.38,3.38,0,0,0,2.59-3.14,3,3,0,0,0-6-.13Z" transform="translate(-132 -464.67)"/></g><g class="cls-2"><path class="cls-3" d="M1117.9,568a10.42,10.42,0,0,0,2.18-.06,7.86,7.86,0,0,0,4.22-1.6,7.7,7.7,0,0,0,2.65-4.61l-.06,0a5.78,5.78,0,0,1-4.54,1.86,6.15,6.15,0,0,1-6.31-6.47,7.37,7.37,0,0,1,7.52-7.42c4.83,0,7.43,3.81,7.43,8.86,0,4.45-1.48,7.62-3.62,9.66a11.41,11.41,0,0,1-7.1,2.85,15.44,15.44,0,0,1-2.37.07Zm2-11.13c0,2.14,1.24,3.81,3.42,3.81a3.8,3.8,0,0,0,3.36-1.73,2.36,2.36,0,0,0,.22-1.12c0-2.82-1-5.25-3.58-5.25C1121.39,552.6,1120,554.36,1120,556.89Z" transform="translate(-132 -464.67)"/></g><g class="cls-2"><path class="cls-3" d="M1213.9,553.59h-.07l-3.8,1.92-.67-3,5.05-2.5h3.3v20.8h-3.81Z" transform="translate(-132 -464.67)"/><path class="cls-3" d="M1239.56,560.31c0,6.69-2.62,10.88-7.58,10.88-4.8,0-7.36-4.35-7.39-10.69s2.75-10.81,7.61-10.81C1237.23,549.69,1239.56,554.17,1239.56,560.31Zm-11,.19c0,5.06,1.37,7.68,3.55,7.68s3.52-2.81,3.52-7.8-1.16-7.68-3.52-7.68C1230,552.7,1228.52,555.29,1228.56,560.5Z" transform="translate(-132 -464.67)"/></g><g class="cls-2"><path class="cls-3" d="M1313.9,553.59h-.07l-3.8,1.92-.67-3,5.05-2.5h3.3v20.8h-3.81Z" transform="translate(-132 -464.67)"/><path class="cls-3" d="M1331.05,553.59H1331l-3.81,1.92-.67-3,5-2.5h3.3v20.8h-3.81Z" transform="translate(-132 -464.67)"/></g><g class="cls-2"><path class="cls-3" d="M1413.9,553.59h-.06l-3.81,1.92-.67-3,5.05-2.5h3.3v20.8h-3.81Z" transform="translate(-132 -464.67)"/><path class="cls-3" d="M1424.88,570.84v-2.4l2.46-2.27c4.89-4.55,7.2-7,7.23-9.79,0-1.86-1-3.49-3.71-3.49a7.6,7.6,0,0,0-4.45,1.73l-1.15-2.79a10.33,10.33,0,0,1,6.4-2.14c4.61,0,6.85,2.91,6.85,6.3,0,3.65-2.63,6.59-6.24,10l-1.83,1.57v.07H1439v3.26Z" transform="translate(-132 -464.67)"/></g><g class="cls-2"><path class="cls-3" d="M1513.9,553.59h-.06l-3.81,1.92-.67-3,5.05-2.5h3.3v20.8h-3.81Z" transform="translate(-132 -464.67)"/><path class="cls-3" d="M1525.68,566.78a10.38,10.38,0,0,0,4.73,1.27c3,0,4.23-1.69,4.19-3.32,0-2.47-2.3-3.52-4.7-3.52h-1.82v-2.88h1.76c1.82,0,4.12-.83,4.12-2.91,0-1.41-1-2.6-3.32-2.6a8.32,8.32,0,0,0-4.26,1.32l-.9-2.85a11.28,11.28,0,0,1,6-1.6c4.28,0,6.49,2.37,6.49,5.09,0,2.17-1.28,4-3.84,4.86v.06a5.26,5.26,0,0,1,4.58,5.19c0,3.52-3,6.3-8.1,6.3a11.32,11.32,0,0,1-5.82-1.44Z" transform="translate(-132 -464.67)"/></g><g class="cls-2"><path class="cls-3" d="M1613.9,553.59h-.06l-3.81,1.92-.67-3,5.05-2.5h3.3v20.8h-3.81Z" transform="translate(-132 -464.67)"/><path class="cls-3" d="M1633.55,570.84v-5.28h-9.41V563l8.48-13h4.64v12.54H1640v3h-2.69v5.28Zm0-8.26v-5.66c0-1.18,0-2.4.13-3.62h-.13c-.64,1.32-1.19,2.37-1.83,3.52l-3.8,5.7,0,.06Z" transform="translate(-132 -464.67)"/></g><g class="cls-2"><path class="cls-3" d="M1714.05,553.59H1714l-3.81,1.92-.67-3,5-2.5h3.3v20.8h-3.81Z" transform="translate(-132 -464.67)"/><path class="cls-3" d="M1738.24,553.3h-8l-.61,4.16a11.25,11.25,0,0,1,1.51-.09,9.22,9.22,0,0,1,5,1.34,6,6,0,0,1,2.72,5.28c0,4-3.29,7.2-8.41,7.2A12,12,0,0,1,1725,570l.8-3a10.55,10.55,0,0,0,4.58,1.09c2.3,0,4.51-1.31,4.51-3.81s-1.76-3.94-5.92-3.94a17.89,17.89,0,0,0-2.85.2l1.38-10.5h10.75Z" transform="translate(-132 -464.67)"/></g><path class="cls-6" d="M1757.48,521.28h-768A17.54,17.54,0,0,0,972,538.79V583.7a17.54,17.54,0,0,0,17.51,17.52h768A17.54,17.54,0,0,0,1775,583.7V538.79A17.54,17.54,0,0,0,1757.48,521.28Zm-582.48,3h97v73.94h-97Zm-3,73.94h-97V524.28h97Zm103-73.94h97v73.94h-97Zm100,0h97v73.94h-97Zm100,0h97v73.94h-97Zm100,0h97v73.94h-97ZM975,583.7V538.79a14.53,14.53,0,0,1,14.51-14.51H1072v73.94H989.51A14.54,14.54,0,0,1,975,583.7Zm797,0a14.54,14.54,0,0,1-14.52,14.52H1675V524.28h82.48A14.53,14.53,0,0,1,1772,538.79Z" transform="translate(-132 -464.67)"/><g class="cls-4"><path class="cls-5" d="M984.56,465.18a36.68,36.68,0,0,1,6.44-.51c3.27,0,5.29.4,7,1.55a5.13,5.13,0,0,1,2.52,4.54,5.64,5.64,0,0,1-4,5.25v.08a6.11,6.11,0,0,1,4.9,6,6.3,6.3,0,0,1-2.34,5c-1.73,1.51-4.57,2.27-9,2.27a41.32,41.32,0,0,1-5.43-.33Zm4.39,9.57h2.26c3.06,0,4.79-1.44,4.79-3.49,0-2.27-1.73-3.31-4.53-3.31a11.82,11.82,0,0,0-2.52.18Zm0,11.16a19.82,19.82,0,0,0,2.34.11c2.84,0,5.36-1.08,5.36-4.07,0-2.8-2.45-4-5.51-4H989Z" transform="translate(-132 -464.67)"/><path class="cls-5" d="M1007.88,471.59l3.17,9.39c.36,1.08.72,2.41,1,3.42h.11c.29-1,.61-2.3.94-3.45l2.73-9.36h4.75l-4.39,12c-2.41,6.55-4,9.46-6.12,11.26a8.88,8.88,0,0,1-4.64,2.27l-1-3.74a7.53,7.53,0,0,0,2.59-1.23,7.66,7.66,0,0,0,2.41-2.77,1.75,1.75,0,0,0,.29-.79,1.8,1.8,0,0,0-.25-.86L1003,471.59Z" transform="translate(-132 -464.67)"/><path class="cls-5" d="M1028.19,466.58v5h4.21v3.31h-4.21v7.74c0,2.12.57,3.24,2.26,3.24a6.39,6.39,0,0,0,1.73-.22l.07,3.38a9.44,9.44,0,0,1-3.2.44,5.14,5.14,0,0,1-3.82-1.44c-.93-1-1.36-2.6-1.36-4.9V474.9h-2.52v-3.31h2.52v-4Z" transform="translate(-132 -464.67)"/><path class="cls-5" d="M1038.66,481.59c.11,3.17,2.59,4.54,5.4,4.54a13.26,13.26,0,0,0,4.86-.79l.65,3.06a16.54,16.54,0,0,1-6.12,1.08c-5.69,0-9-3.5-9-8.86,0-4.86,2.95-9.43,8.56-9.43s7.56,4.68,7.56,8.53a11.1,11.1,0,0,1-.14,1.87Zm7.71-3.09c0-1.62-.69-4.29-3.64-4.29-2.73,0-3.89,2.49-4.07,4.29Z" transform="translate(-132 -464.67)"/><path class="cls-5" d="M1067.68,469.71h-.07l-4.29,2.16-.75-3.34,5.68-2.81H1072v23.4h-4.28Z" transform="translate(-132 -464.67)"/></g><g class="cls-4"><line class="cls-7" x1="784.89" y1="179.24" y2="179.24"/><path class="cls-5" d="M935,643.91c-8.52-3.16-19.09-8.55-25.64-14.26l5.16,14.26-5.16,14.27C915.91,652.47,926.48,647.07,935,643.91Z" transform="translate(-132 -464.67)"/></g><g class="cls-4"><line class="cls-7" x1="1624.89" y1="179.24" x2="840" y2="179.24"/><path class="cls-5" d="M1775,643.91c-8.52-3.16-19.09-8.55-25.64-14.26l5.16,14.26-5.16,14.27C1755.91,652.47,1766.48,647.07,1775,643.91Z" transform="translate(-132 -464.67)"/></g><circle class="cls-8" cx="391.5" cy="179.24" r="16"/><g class="cls-2"><path class="cls-9" d="M522.67,639.48h0l-2.48,1.18-.5-2.28,3.44-1.6h2.52v13h-2.94Z" transform="translate(-132 -464.67)"/></g><circle class="cls-8" cx="1231.5" cy="179.24" r="16"/><g class="cls-2"><path class="cls-9" d="M1358.79,649.79v-1.85l1.68-1.52c2.84-2.54,4.22-4,4.26-5.52,0-1.06-.64-1.9-2.14-1.9a4.71,4.71,0,0,0-2.78,1.08l-.86-2.18a7.2,7.2,0,0,1,4.26-1.34c2.94,0,4.56,1.72,4.56,4.08,0,2.18-1.58,3.92-3.46,5.6l-1.2,1v0h4.9v2.51Z" transform="translate(-132 -464.67)"/></g></svg>