<svg id="Layer_1" data-name="Layer 1" xmlns="http://www.w3.org/2000/svg" viewBox="0 0 1685.01 715.59"><defs><style>.cls-1{fill:#4eba6f;}.cls-2{fill:#3b97d3;}.cls-3{fill:#3c97d3;}.cls-4{opacity:0.95;}.cls-5{fill:#fff;}.cls-6{opacity:0.9;}.cls-7{fill:#0e594c;}.cls-8{fill:#147f6b;}.cls-9{fill:#e57e25;}.cls-10{fill:#efc41b;}.cls-11{fill:#f0c419;}.cls-12,.cls-16,.cls-17,.cls-19,.cls-21,.cls-23,.cls-24,.cls-27,.cls-28,.cls-29,.cls-30,.cls-32,.cls-33,.cls-34{fill:none;}.cls-12,.cls-23{stroke:#4eba6f;}.cls-12,.cls-16,.cls-17,.cls-19,.cls-21,.cls-23,.cls-24,.cls-27,.cls-28,.cls-29,.cls-30,.cls-32,.cls-33,.cls-34,.cls-35,.cls-36,.cls-37,.cls-39,.cls-40{stroke-miterlimit:10;}.cls-12,.cls-16,.cls-17,.cls-19,.cls-21,.cls-30,.cls-35,.cls-36,.cls-37,.cls-39,.cls-40{stroke-width:3px;}.cls-13{fill:#bdc3c7;}.cls-14{fill:#e54d3b;}.cls-15{fill:#e64c3c;}.cls-16,.cls-34{stroke:#3c97d3;}.cls-17,.cls-28,.cls-39{stroke:#d5aa29;}.cls-18{fill:#d5aa29;}.cls-19{stroke:#ce6d28;}.cls-20{fill:#ce6d28;}.cls-21,.cls-29{stroke:#e54d3b;}.cls-22{fill:#4eba6e;}.cls-23,.cls-24,.cls-27,.cls-28,.cls-29,.cls-32,.cls-33,.cls-34{stroke-width:2px;}.cls-24,.cls-36{stroke:#3d97d3;}.cls-25{fill:#3d97d3;}.cls-26{fill:#ce6e28;}.cls-27,.cls-30{stroke:#ce6e28;}.cls-31{fill:#8a8d8e;}.cls-32,.cls-33{stroke:#8a8d8e;}.cls-33{stroke-linecap:round;}.cls-35{fill:#cfe9d6;stroke:#4eba6e;}.cls-36{fill:#c8e1ed;}.cls-37{fill:#ead1c1;stroke:#cd6f28;}.cls-38{fill:#cd6f28;}.cls-39{fill:#f2e9d6;}.cls-40{fill:#f0d4d2;stroke:#e44e3a;}.cls-41{fill:#e44e3a;}</style></defs><title>bit-array-fields-be-le</title><rect class="cls-1" x="101.5" y="170.11" width="100" height="76.94"/><rect class="cls-1" x="201.5" y="170.11" width="100" height="76.94"/><rect class="cls-2" x="301.5" y="170.11" width="100" height="76.94"/><rect class="cls-2" x="401.5" y="170.11" width="100" height="76.94"/><rect class="cls-2" x="501.5" y="170.11" width="100" height="76.94"/><rect class="cls-2" x="601.5" y="170.11" width="100" height="76.94"/><path class="cls-3" d="M833.65,599.72h84a16,16,0,0,0,16-16V538.79a16,16,0,0,0-16-16h-84" transform="translate(-132 -352.67)"/><path class="cls-1" d="M233.5,599.91h-84a16,16,0,0,1-16-16V539a16,16,0,0,1,16-16h84" transform="translate(-132 -352.67)"/><g class="cls-4"><path class="cls-5" d="M173.9,553.59h-.07l-3.8,1.92-.67-3,5-2.5h3.3v20.8H173.9Z" transform="translate(-132 -352.67)"/><path class="cls-5" d="M197.55,552.82a15.23,15.23,0,0,0-2,.1c-4.35.51-6.46,3.2-7,6.08h.09a6,6,0,0,1,4.67-2c3.59,0,6.37,2.56,6.37,6.79a7.22,7.22,0,0,1-7.33,7.42c-5.05,0-7.84-3.84-7.84-9a12.71,12.71,0,0,1,3.62-9.34,12,12,0,0,1,7.39-3.07,11,11,0,0,1,2-.07ZM195.69,564c0-2.4-1.31-4.13-3.62-4.13a3.83,3.83,0,0,0-3.39,2.15,2.69,2.69,0,0,0-.25,1.25c.06,2.75,1.37,5,3.9,5C194.38,568.25,195.69,566.49,195.69,564Z" transform="translate(-132 -352.67)"/></g><g class="cls-6"><path class="cls-7" d="M144.56,465.18a36.68,36.68,0,0,1,6.44-.51c3.27,0,5.29.4,6.95,1.55a5.13,5.13,0,0,1,2.52,4.54,5.64,5.64,0,0,1-4,5.25v.08a6.11,6.11,0,0,1,4.9,6,6.3,6.3,0,0,1-2.34,5c-1.73,1.51-4.57,2.27-9,2.27a41.32,41.32,0,0,1-5.43-.33Zm4.39,9.57h2.26c3.06,0,4.79-1.44,4.79-3.49,0-2.27-1.73-3.31-4.53-3.31a11.82,11.82,0,0,0-2.52.18Zm0,11.16a19.82,19.82,0,0,0,2.34.11c2.84,0,5.36-1.08,5.36-4.07,0-2.8-2.45-4-5.51-4H149Z" transform="translate(-132 -352.67)"/><path class="cls-7" d="M167.88,471.59l3.17,9.39c.36,1.08.72,2.41,1,3.42h.11c.29-1,.61-2.3.94-3.45l2.73-9.36h4.75l-4.39,12c-2.41,6.55-4,9.46-6.12,11.26a8.88,8.88,0,0,1-4.64,2.27l-1-3.74A7.53,7.53,0,0,0,167,492.1a7.66,7.66,0,0,0,2.41-2.77,1.75,1.75,0,0,0,.29-.79,1.8,1.8,0,0,0-.25-.86L163,471.59Z" transform="translate(-132 -352.67)"/><path class="cls-7" d="M188.19,466.58v5h4.21v3.31h-4.21v7.74c0,2.12.57,3.24,2.26,3.24a6.39,6.39,0,0,0,1.73-.22l.07,3.38a9.44,9.44,0,0,1-3.2.44,5.14,5.14,0,0,1-3.82-1.44c-.93-1-1.36-2.6-1.36-4.9V474.9h-2.52v-3.31h2.52v-4Z" transform="translate(-132 -352.67)"/><path class="cls-7" d="M198.66,481.59c.11,3.17,2.59,4.54,5.4,4.54a13.26,13.26,0,0,0,4.86-.79l.65,3.06a16.54,16.54,0,0,1-6.12,1.08c-5.69,0-9-3.5-9-8.86,0-4.86,3-9.43,8.56-9.43s7.56,4.68,7.56,8.53a11.1,11.1,0,0,1-.14,1.87Zm7.71-3.09c0-1.62-.69-4.29-3.64-4.29-2.73,0-3.89,2.49-4.07,4.29Z" transform="translate(-132 -352.67)"/><path class="cls-7" d="M220.73,489.12v-2.7l2.77-2.56c5.51-5.11,8.1-7.92,8.14-11,0-2.09-1.12-3.93-4.18-3.93a8.52,8.52,0,0,0-5,1.95l-1.3-3.13a11.57,11.57,0,0,1,7.2-2.42c5.18,0,7.7,3.28,7.7,7.09,0,4.11-2.95,7.42-7,11.2L227,485.37v.07h9.61v3.68Z" transform="translate(-132 -352.67)"/></g><g class="cls-4"><path class="cls-5" d="M273.9,553.59h-.07l-3.8,1.92-.67-3,5.05-2.5h3.3v20.8H273.9Z" transform="translate(-132 -352.67)"/><path class="cls-5" d="M299.18,550v2.53l-8.8,18.27h-4.16L295,553.37v-.07H285.2V550Z" transform="translate(-132 -352.67)"/></g><g class="cls-4"><path class="cls-5" d="M373.9,553.59h-.07l-3.8,1.92-.67-3,5.05-2.5h3.3v20.8H373.9Z" transform="translate(-132 -352.67)"/><path class="cls-5" d="M384.59,565.49c0-2.59,1.5-4.35,3.9-5.4V560a5.07,5.07,0,0,1-3.17-4.61c0-3.39,3-5.69,6.95-5.69,4.48,0,6.52,2.69,6.52,5.25a5.18,5.18,0,0,1-3.2,4.7v.1a5.57,5.57,0,0,1,4,5.24c0,3.72-3.13,6.21-7.58,6.21C387.12,571.19,384.59,568.41,384.59,565.49Zm11-.19c0-2.11-1.57-3.26-3.87-3.9a3.81,3.81,0,0,0-3.07,3.65,3.28,3.28,0,0,0,3.49,3.36A3.15,3.15,0,0,0,395.56,565.3Zm-6.49-10.08c0,1.7,1.4,2.72,3.39,3.27a3.38,3.38,0,0,0,2.59-3.14,2.78,2.78,0,0,0-3-2.94A2.75,2.75,0,0,0,389.07,555.22Z" transform="translate(-132 -352.67)"/></g><g class="cls-4"><path class="cls-5" d="M473.9,553.59h-.07l-3.8,1.92-.67-3,5.05-2.5h3.3v20.8H473.9Z" transform="translate(-132 -352.67)"/><path class="cls-5" d="M486.47,568a10.42,10.42,0,0,0,2.18-.06,7.83,7.83,0,0,0,4.22-1.6,7.66,7.66,0,0,0,2.66-4.61l-.06,0a5.78,5.78,0,0,1-4.55,1.86,6.15,6.15,0,0,1-6.3-6.47,7.36,7.36,0,0,1,7.52-7.42c4.83,0,7.42,3.81,7.42,8.86,0,4.45-1.47,7.62-3.61,9.66a11.44,11.44,0,0,1-7.11,2.85,15.38,15.38,0,0,1-2.37.07Zm2-11.13c0,2.14,1.25,3.81,3.43,3.81a3.8,3.8,0,0,0,3.36-1.73,2.49,2.49,0,0,0,.22-1.12c0-2.82-1-5.25-3.58-5.25C490,552.6,488.52,554.36,488.52,556.89Z" transform="translate(-132 -352.67)"/></g><g class="cls-4"><path class="cls-5" d="M567.72,570.84v-2.4l2.47-2.27c4.89-4.55,7.2-7,7.23-9.79,0-1.86-1-3.49-3.71-3.49a7.58,7.58,0,0,0-4.45,1.73l-1.15-2.79a10.31,10.31,0,0,1,6.4-2.14c4.6,0,6.84,2.91,6.84,6.3,0,3.65-2.62,6.59-6.23,10l-1.83,1.57v.07h8.54v3.26Z" transform="translate(-132 -352.67)"/><path class="cls-5" d="M599.56,560.31c0,6.69-2.62,10.88-7.58,10.88-4.8,0-7.36-4.35-7.39-10.69s2.75-10.81,7.61-10.81C597.23,549.69,599.56,554.17,599.56,560.31Zm-11,.19c0,5.06,1.37,7.68,3.55,7.68s3.52-2.81,3.52-7.8-1.16-7.68-3.52-7.68C590,552.7,588.52,555.29,588.56,560.5Z" transform="translate(-132 -352.67)"/></g><g class="cls-4"><path class="cls-5" d="M667.72,570.84v-2.4l2.47-2.27c4.89-4.55,7.2-7,7.23-9.79,0-1.86-1-3.49-3.71-3.49a7.58,7.58,0,0,0-4.45,1.73l-1.15-2.79a10.31,10.31,0,0,1,6.4-2.14c4.6,0,6.84,2.91,6.84,6.3,0,3.65-2.62,6.59-6.23,10l-1.83,1.57v.07h8.54v3.26Z" transform="translate(-132 -352.67)"/><path class="cls-5" d="M691.05,553.59H691l-3.81,1.92-.67-3,5-2.5h3.3v20.8h-3.81Z" transform="translate(-132 -352.67)"/></g><g class="cls-4"><path class="cls-5" d="M767.72,570.84v-2.4l2.47-2.27c4.89-4.55,7.2-7,7.23-9.79,0-1.86-1-3.49-3.71-3.49a7.58,7.58,0,0,0-4.45,1.73l-1.15-2.79a10.31,10.31,0,0,1,6.4-2.14c4.6,0,6.84,2.91,6.84,6.3,0,3.65-2.62,6.59-6.23,10l-1.83,1.57v.07h8.54v3.26Z" transform="translate(-132 -352.67)"/><path class="cls-5" d="M784.88,570.84v-2.4l2.46-2.27c4.89-4.55,7.2-7,7.23-9.79,0-1.86-1-3.49-3.71-3.49a7.6,7.6,0,0,0-4.45,1.73l-1.15-2.79a10.33,10.33,0,0,1,6.4-2.14c4.61,0,6.85,2.91,6.85,6.3,0,3.65-2.63,6.59-6.24,10l-1.83,1.57v.07H799v3.26Z" transform="translate(-132 -352.67)"/></g><g class="cls-4"><path class="cls-5" d="M867.87,570.84v-2.4l2.47-2.27c4.89-4.55,7.2-7,7.23-9.79,0-1.86-1-3.49-3.71-3.49a7.58,7.58,0,0,0-4.45,1.73l-1.15-2.79a10.31,10.31,0,0,1,6.4-2.14c4.61,0,6.84,2.91,6.84,6.3,0,3.65-2.62,6.59-6.23,10l-1.83,1.57v.07H882v3.26Z" transform="translate(-132 -352.67)"/><path class="cls-5" d="M885.83,566.78a10.42,10.42,0,0,0,4.73,1.27c3,0,4.23-1.69,4.19-3.32,0-2.47-2.3-3.52-4.7-3.52h-1.82v-2.88H890c1.82,0,4.12-.83,4.12-2.91,0-1.41-1.05-2.6-3.32-2.6a8.32,8.32,0,0,0-4.26,1.32l-.9-2.85a11.28,11.28,0,0,1,6-1.6c4.28,0,6.49,2.37,6.49,5.09,0,2.17-1.28,4-3.84,4.86v.06a5.26,5.26,0,0,1,4.58,5.19c0,3.52-3,6.3-8.1,6.3a11.32,11.32,0,0,1-5.82-1.44Z" transform="translate(-132 -352.67)"/></g><path class="cls-8" d="M917.48,521.28h-768A17.54,17.54,0,0,0,132,538.79V583.7a17.54,17.54,0,0,0,17.51,17.52h768A17.54,17.54,0,0,0,935,583.7V538.79A17.54,17.54,0,0,0,917.48,521.28Zm-582.48,3h97v73.94H335Zm-3,73.94H235V524.28h97Zm103-73.94h97v73.94H435Zm100,0h97v73.94H535Zm100,0h97v73.94H635Zm100,0h97v73.94H735ZM135,583.7V538.79a14.53,14.53,0,0,1,14.51-14.51H232v73.94H149.51A14.54,14.54,0,0,1,135,583.7Zm797,0a14.54,14.54,0,0,1-14.52,14.52H835V524.28h82.48A14.53,14.53,0,0,1,932,538.79Z" transform="translate(-132 -352.67)"/><rect class="cls-9" x="941.5" y="170.11" width="100" height="76.94"/><rect class="cls-9" x="1041.5" y="170.11" width="100" height="76.94"/><rect class="cls-10" x="1141.5" y="170.11" width="100" height="76.94"/><rect class="cls-11" x="1241.5" y="170.11" width="100" height="76.94"/><rect class="cls-11" x="1341.5" y="170.11" width="100" height="76.94"/><rect class="cls-11" x="1441.5" y="170.11" width="100" height="76.94"/><path class="cls-11" d="M1673.65,599.72h84a16,16,0,0,0,16-16V538.79a16,16,0,0,0-16-16h-84" transform="translate(-132 -352.67)"/><path class="cls-9" d="M1073.5,599.91h-84a16,16,0,0,1-16-16V539a16,16,0,0,1,16-16h84" transform="translate(-132 -352.67)"/><g class="cls-4"><path class="cls-5" d="M1008.52,566.78a10.46,10.46,0,0,0,4.74,1.27c3,0,4.22-1.69,4.19-3.32,0-2.47-2.3-3.52-4.7-3.52h-1.83v-2.88h1.76c1.83,0,4.13-.83,4.13-2.91,0-1.41-1.06-2.6-3.33-2.6a8.31,8.31,0,0,0-4.25,1.32l-.9-2.85a11.27,11.27,0,0,1,6-1.6c4.29,0,6.5,2.37,6.5,5.09,0,2.17-1.28,4-3.84,4.86v.06a5.26,5.26,0,0,1,4.58,5.19c0,3.52-2.95,6.3-8.1,6.3a11.29,11.29,0,0,1-5.82-1.44Z" transform="translate(-132 -352.67)"/><path class="cls-5" d="M1031.05,553.59H1031l-3.81,1.92-.67-3,5-2.5h3.3v20.8h-3.81Z" transform="translate(-132 -352.67)"/></g><g class="cls-4"><path class="cls-5" d="M1108.52,566.78a10.46,10.46,0,0,0,4.74,1.27c3,0,4.22-1.69,4.19-3.32,0-2.47-2.3-3.52-4.7-3.52h-1.83v-2.88h1.76c1.83,0,4.13-.83,4.13-2.91,0-1.41-1.06-2.6-3.33-2.6a8.31,8.31,0,0,0-4.25,1.32l-.9-2.85a11.27,11.27,0,0,1,6-1.6c4.29,0,6.5,2.37,6.5,5.09,0,2.17-1.28,4-3.84,4.86v.06a5.26,5.26,0,0,1,4.58,5.19c0,3.52-3,6.3-8.1,6.3a11.29,11.29,0,0,1-5.82-1.44Z" transform="translate(-132 -352.67)"/><path class="cls-5" d="M1139.56,560.31c0,6.69-2.62,10.88-7.58,10.88-4.8,0-7.36-4.35-7.39-10.69s2.75-10.81,7.61-10.81C1137.23,549.69,1139.56,554.17,1139.56,560.31Zm-11,.19c0,5.06,1.37,7.68,3.55,7.68s3.52-2.81,3.52-7.8-1.16-7.68-3.52-7.68C1130,552.7,1128.52,555.29,1128.56,560.5Z" transform="translate(-132 -352.67)"/></g><g class="cls-4"><path class="cls-5" d="M1207.72,570.84v-2.4l2.47-2.27c4.89-4.55,7.2-7,7.23-9.79,0-1.86-1-3.49-3.71-3.49a7.58,7.58,0,0,0-4.45,1.73l-1.15-2.79a10.31,10.31,0,0,1,6.4-2.14c4.6,0,6.84,2.91,6.84,6.3,0,3.65-2.62,6.59-6.23,10l-1.83,1.57v.07h8.54v3.26Z" transform="translate(-132 -352.67)"/><path class="cls-5" d="M1226.47,568a10.42,10.42,0,0,0,2.18-.06,7.89,7.89,0,0,0,4.23-1.6,7.7,7.7,0,0,0,2.65-4.61l-.06,0a5.78,5.78,0,0,1-4.55,1.86,6.15,6.15,0,0,1-6.3-6.47,7.36,7.36,0,0,1,7.52-7.42c4.83,0,7.42,3.81,7.42,8.86,0,4.45-1.47,7.62-3.61,9.66a11.44,11.44,0,0,1-7.11,2.85,15.38,15.38,0,0,1-2.37.07Zm2-11.13c0,2.14,1.25,3.81,3.43,3.81a3.8,3.8,0,0,0,3.36-1.73,2.49,2.49,0,0,0,.22-1.12c0-2.82-1-5.25-3.58-5.25C1230,552.6,1228.52,554.36,1228.52,556.89Z" transform="translate(-132 -352.67)"/></g><g class="cls-4"><path class="cls-5" d="M1307.72,570.84v-2.4l2.47-2.27c4.89-4.55,7.2-7,7.23-9.79,0-1.86-1-3.49-3.71-3.49a7.55,7.55,0,0,0-4.45,1.73l-1.15-2.79a10.31,10.31,0,0,1,6.4-2.14c4.6,0,6.84,2.91,6.84,6.3,0,3.65-2.62,6.59-6.23,10l-1.83,1.57v.07h8.54v3.26Z" transform="translate(-132 -352.67)"/><path class="cls-5" d="M1324.59,565.49c0-2.59,1.5-4.35,3.9-5.4V560a5.06,5.06,0,0,1-3.17-4.61c0-3.39,3-5.69,7-5.69,4.48,0,6.52,2.69,6.52,5.25a5.18,5.18,0,0,1-3.2,4.7v.1a5.57,5.57,0,0,1,4,5.24c0,3.72-3.13,6.21-7.58,6.21C1327.12,571.19,1324.59,568.41,1324.59,565.49Zm11-.19c0-2.11-1.57-3.26-3.87-3.9a3.81,3.81,0,0,0-3.07,3.65,3.28,3.28,0,0,0,3.49,3.36A3.15,3.15,0,0,0,1335.56,565.3Zm-6.49-10.08c0,1.7,1.4,2.72,3.39,3.27a3.38,3.38,0,0,0,2.59-3.14,2.78,2.78,0,0,0-3-2.94A2.75,2.75,0,0,0,1329.07,555.22Z" transform="translate(-132 -352.67)"/></g><g class="cls-4"><path class="cls-5" d="M1407.72,570.84v-2.4l2.47-2.27c4.89-4.55,7.2-7,7.23-9.79,0-1.86-1-3.49-3.71-3.49a7.58,7.58,0,0,0-4.45,1.73l-1.15-2.79a10.31,10.31,0,0,1,6.4-2.14c4.6,0,6.84,2.91,6.84,6.3,0,3.65-2.62,6.59-6.23,10l-1.83,1.57v.07h8.54v3.26Z" transform="translate(-132 -352.67)"/><path class="cls-5" d="M1439.18,550v2.53l-8.8,18.27h-4.16l8.77-17.47v-.07h-9.79V550Z" transform="translate(-132 -352.67)"/></g><g class="cls-4"><path class="cls-5" d="M1507.72,570.84v-2.4l2.47-2.27c4.89-4.55,7.2-7,7.23-9.79,0-1.86-1-3.49-3.71-3.49a7.58,7.58,0,0,0-4.45,1.73l-1.15-2.79a10.31,10.31,0,0,1,6.4-2.14c4.6,0,6.84,2.91,6.84,6.3,0,3.65-2.62,6.59-6.23,10l-1.83,1.57v.07h8.54v3.26Z" transform="translate(-132 -352.67)"/><path class="cls-5" d="M1537.55,552.82a15.23,15.23,0,0,0-2,.1c-4.35.51-6.46,3.2-7,6.08h.09a6,6,0,0,1,4.67-2c3.59,0,6.37,2.56,6.37,6.79a7.22,7.22,0,0,1-7.33,7.42c-5,0-7.84-3.84-7.84-9a12.71,12.71,0,0,1,3.62-9.34,12,12,0,0,1,7.39-3.07,11.1,11.1,0,0,1,2-.07ZM1535.69,564c0-2.4-1.31-4.13-3.62-4.13a3.83,3.83,0,0,0-3.39,2.15,2.69,2.69,0,0,0-.25,1.25c.06,2.75,1.37,5,3.9,5C1534.38,568.25,1535.69,566.49,1535.69,564Z" transform="translate(-132 -352.67)"/></g><g class="cls-4"><path class="cls-5" d="M1607.72,570.84v-2.4l2.47-2.27c4.89-4.55,7.2-7,7.23-9.79,0-1.86-1-3.49-3.71-3.49a7.58,7.58,0,0,0-4.45,1.73l-1.15-2.79a10.31,10.31,0,0,1,6.4-2.14c4.6,0,6.84,2.91,6.84,6.3,0,3.65-2.62,6.59-6.23,10l-1.83,1.57v.07h8.54v3.26Z" transform="translate(-132 -352.67)"/><path class="cls-5" d="M1638.09,553.3h-8l-.61,4.16a11.25,11.25,0,0,1,1.51-.09,9.22,9.22,0,0,1,5,1.34,6,6,0,0,1,2.72,5.28c0,4-3.29,7.2-8.41,7.2a12,12,0,0,1-5.51-1.22l.8-3a10.55,10.55,0,0,0,4.58,1.09c2.3,0,4.51-1.31,4.51-3.81s-1.76-3.94-5.92-3.94a17.89,17.89,0,0,0-2.85.2l1.38-10.5h10.75Z" transform="translate(-132 -352.67)"/></g><g class="cls-4"><path class="cls-5" d="M1707.87,570.84v-2.4l2.47-2.27c4.89-4.55,7.2-7,7.23-9.79,0-1.86-1-3.49-3.71-3.49a7.58,7.58,0,0,0-4.45,1.73l-1.15-2.79a10.31,10.31,0,0,1,6.4-2.14c4.61,0,6.85,2.91,6.85,6.3,0,3.65-2.63,6.59-6.24,10l-1.83,1.57v.07H1722v3.26Z" transform="translate(-132 -352.67)"/><path class="cls-5" d="M1733.7,570.84v-5.28h-9.41V563l8.48-13h4.64v12.54h2.69v3h-2.69v5.28Zm0-8.26v-5.66c0-1.18,0-2.4.13-3.62h-.13c-.64,1.32-1.19,2.37-1.83,3.52l-3.8,5.7,0,.06Z" transform="translate(-132 -352.67)"/></g><path class="cls-8" d="M1757.48,521.28h-768A17.54,17.54,0,0,0,972,538.79V583.7a17.54,17.54,0,0,0,17.51,17.52h768A17.54,17.54,0,0,0,1775,583.7V538.79A17.54,17.54,0,0,0,1757.48,521.28Zm-582.48,3h97v73.94h-97Zm-3,73.94h-97V524.28h97Zm103-73.94h97v73.94h-97Zm100,0h97v73.94h-97Zm100,0h97v73.94h-97Zm100,0h97v73.94h-97ZM975,583.7V538.79a14.53,14.53,0,0,1,14.51-14.51H1072v73.94H989.51A14.54,14.54,0,0,1,975,583.7Zm797,0a14.54,14.54,0,0,1-14.52,14.52H1675V524.28h82.48A14.53,14.53,0,0,1,1772,538.79Z" transform="translate(-132 -352.67)"/><g class="cls-6"><path class="cls-7" d="M984.56,465.18a36.68,36.68,0,0,1,6.44-.51c3.27,0,5.29.4,7,1.55a5.13,5.13,0,0,1,2.52,4.54,5.64,5.64,0,0,1-4,5.25v.08a6.11,6.11,0,0,1,4.9,6,6.3,6.3,0,0,1-2.34,5c-1.73,1.51-4.57,2.27-9,2.27a41.32,41.32,0,0,1-5.43-.33Zm4.39,9.57h2.26c3.06,0,4.79-1.44,4.79-3.49,0-2.27-1.73-3.31-4.53-3.31a11.82,11.82,0,0,0-2.52.18Zm0,11.16a19.82,19.82,0,0,0,2.34.11c2.84,0,5.36-1.08,5.36-4.07,0-2.8-2.45-4-5.51-4H989Z" transform="translate(-132 -352.67)"/><path class="cls-7" d="M1007.88,471.59l3.17,9.39c.36,1.08.72,2.41,1,3.42h.11c.29-1,.61-2.3.94-3.45l2.73-9.36h4.75l-4.39,12c-2.41,6.55-4,9.46-6.12,11.26a8.88,8.88,0,0,1-4.64,2.27l-1-3.74a7.53,7.53,0,0,0,2.59-1.23,7.66,7.66,0,0,0,2.41-2.77,1.75,1.75,0,0,0,.29-.79,1.8,1.8,0,0,0-.25-.86L1003,471.59Z" transform="translate(-132 -352.67)"/><path class="cls-7" d="M1028.19,466.58v5h4.21v3.31h-4.21v7.74c0,2.12.57,3.24,2.26,3.24a6.39,6.39,0,0,0,1.73-.22l.07,3.38a9.44,9.44,0,0,1-3.2.44,5.14,5.14,0,0,1-3.82-1.44c-.93-1-1.36-2.6-1.36-4.9V474.9h-2.52v-3.31h2.52v-4Z" transform="translate(-132 -352.67)"/><path class="cls-7" d="M1038.66,481.59c.11,3.17,2.59,4.54,5.4,4.54a13.26,13.26,0,0,0,4.86-.79l.65,3.06a16.54,16.54,0,0,1-6.12,1.08c-5.69,0-9-3.5-9-8.86,0-4.86,2.95-9.43,8.56-9.43s7.56,4.68,7.56,8.53a11.1,11.1,0,0,1-.14,1.87Zm7.71-3.09c0-1.62-.69-4.29-3.64-4.29-2.73,0-3.89,2.49-4.07,4.29Z" transform="translate(-132 -352.67)"/><path class="cls-7" d="M1061.63,484.54A11.59,11.59,0,0,0,1067,486c3.38,0,4.75-1.9,4.71-3.74,0-2.77-2.59-4-5.29-4h-2.05V475h2c2,0,4.64-.93,4.64-3.27,0-1.59-1.18-2.92-3.74-2.92a9.39,9.39,0,0,0-4.79,1.48l-1-3.21a12.74,12.74,0,0,1,6.74-1.8c4.82,0,7.3,2.67,7.3,5.73,0,2.44-1.44,4.46-4.32,5.47v.07a5.9,5.9,0,0,1,5.15,5.83c0,4-3.31,7.09-9.11,7.09a12.76,12.76,0,0,1-6.55-1.62Z" transform="translate(-132 -352.67)"/></g><g class="cls-6"><line class="cls-12" x1="281.89" y1="294.24" y2="294.24"/><path class="cls-1" d="M432,646.91c-8.52-3.16-19.09-8.55-25.64-14.26l5.16,14.26-5.16,14.27C412.91,655.47,423.48,650.07,432,646.91Z" transform="translate(-132 -352.67)"/></g><rect class="cls-13" x="101.5" y="488.11" width="100" height="76.94"/><rect class="cls-13" x="201.5" y="488.11" width="100" height="76.94"/><rect class="cls-9" x="301.5" y="488.11" width="100" height="76.94"/><rect class="cls-9" x="401.5" y="488.11" width="100" height="76.94"/><rect class="cls-9" x="501.5" y="488.11" width="100" height="76.94"/><rect class="cls-9" x="601.5" y="488.11" width="100" height="76.94"/><path class="cls-9" d="M833.65,917.72h84a16,16,0,0,0,16-16V856.79a16,16,0,0,0-16-16h-84" transform="translate(-132 -352.67)"/><path class="cls-13" d="M233.5,917.91h-84a16,16,0,0,1-16-16V857a16,16,0,0,1,16-16h84" transform="translate(-132 -352.67)"/><g class="cls-4"><path class="cls-5" d="M168.52,884.78a10.46,10.46,0,0,0,4.74,1.27c3,0,4.22-1.69,4.19-3.32,0-2.47-2.3-3.52-4.7-3.52h-1.83v-2.88h1.76c1.83,0,4.13-.83,4.13-2.91,0-1.41-1.06-2.6-3.33-2.6a8.31,8.31,0,0,0-4.25,1.32l-.9-2.85a11.27,11.27,0,0,1,6-1.6c4.29,0,6.5,2.37,6.5,5.09,0,2.17-1.28,4-3.84,4.86v.06a5.26,5.26,0,0,1,4.58,5.19c0,3.52-3,6.3-8.1,6.3a11.29,11.29,0,0,1-5.82-1.44Z" transform="translate(-132 -352.67)"/><path class="cls-5" d="M186.47,886a10.42,10.42,0,0,0,2.18-.06,7.83,7.83,0,0,0,4.22-1.6,7.66,7.66,0,0,0,2.66-4.61l-.06,0a5.78,5.78,0,0,1-4.55,1.86,6.15,6.15,0,0,1-6.3-6.47,7.36,7.36,0,0,1,7.52-7.42c4.83,0,7.42,3.81,7.42,8.86,0,4.45-1.47,7.62-3.61,9.66a11.44,11.44,0,0,1-7.11,2.85,15.38,15.38,0,0,1-2.37.07Zm2.05-11.13c0,2.14,1.25,3.81,3.43,3.81a3.8,3.8,0,0,0,3.36-1.73,2.49,2.49,0,0,0,.22-1.12c0-2.82-1-5.25-3.58-5.25C190,870.6,188.52,872.36,188.52,874.89Z" transform="translate(-132 -352.67)"/></g><g class="cls-6"><path class="cls-7" d="M144.56,783.18a36.68,36.68,0,0,1,6.44-.51c3.27,0,5.29.4,6.95,1.55a5.13,5.13,0,0,1,2.52,4.54,5.64,5.64,0,0,1-4,5.25v.08a6.11,6.11,0,0,1,4.9,6,6.3,6.3,0,0,1-2.34,5c-1.73,1.51-4.57,2.27-9,2.27a41.32,41.32,0,0,1-5.43-.33Zm4.39,9.57h2.26c3.06,0,4.79-1.44,4.79-3.49,0-2.27-1.73-3.31-4.53-3.31a11.82,11.82,0,0,0-2.52.18Zm0,11.16a19.82,19.82,0,0,0,2.34.11c2.84,0,5.36-1.08,5.36-4.07,0-2.8-2.45-4-5.51-4H149Z" transform="translate(-132 -352.67)"/><path class="cls-7" d="M167.88,789.59l3.17,9.39c.36,1.08.72,2.41,1,3.42h.11c.29-1,.61-2.3.94-3.45l2.73-9.36h4.75l-4.39,11.95c-2.41,6.55-4,9.46-6.12,11.26a8.88,8.88,0,0,1-4.64,2.27l-1-3.74A7.53,7.53,0,0,0,167,810.1a7.66,7.66,0,0,0,2.41-2.77,1.75,1.75,0,0,0,.29-.79,1.8,1.8,0,0,0-.25-.86L163,789.59Z" transform="translate(-132 -352.67)"/><path class="cls-7" d="M188.19,784.58v5h4.21v3.31h-4.21v7.74c0,2.12.57,3.24,2.26,3.24a6.39,6.39,0,0,0,1.73-.22l.07,3.38a9.44,9.44,0,0,1-3.2.44,5.14,5.14,0,0,1-3.82-1.44c-.93-1-1.36-2.6-1.36-4.9V792.9h-2.52v-3.31h2.52v-4Z" transform="translate(-132 -352.67)"/><path class="cls-7" d="M198.66,799.59c.11,3.17,2.59,4.54,5.4,4.54a13.26,13.26,0,0,0,4.86-.79l.65,3.06a16.54,16.54,0,0,1-6.12,1.08c-5.69,0-9-3.5-9-8.86,0-4.86,3-9.43,8.56-9.43s7.56,4.68,7.56,8.53a11.1,11.1,0,0,1-.14,1.87Zm7.71-3.09c0-1.62-.69-4.29-3.64-4.29-2.73,0-3.89,2.49-4.07,4.29Z" transform="translate(-132 -352.67)"/><path class="cls-7" d="M230.49,807.12v-5.94H219.9V798.3l9.54-14.58h5.22v14.11h3v3.35h-3v5.94Zm0-9.29v-6.37c0-1.33,0-2.7.14-4.07h-.14c-.72,1.48-1.34,2.66-2.06,4l-4.28,6.41,0,.07Z" transform="translate(-132 -352.67)"/></g><g class="cls-4"><path class="cls-5" d="M268.52,884.78a10.46,10.46,0,0,0,4.74,1.27c3,0,4.22-1.69,4.19-3.32,0-2.47-2.3-3.52-4.7-3.52h-1.83v-2.88h1.76c1.83,0,4.13-.83,4.13-2.91,0-1.41-1.06-2.6-3.33-2.6a8.31,8.31,0,0,0-4.25,1.32l-.9-2.85a11.27,11.27,0,0,1,6-1.6c4.29,0,6.5,2.37,6.5,5.09,0,2.17-1.28,4-3.84,4.86v.06a5.26,5.26,0,0,1,4.58,5.19c0,3.52-2.95,6.3-8.1,6.3a11.29,11.29,0,0,1-5.82-1.44Z" transform="translate(-132 -352.67)"/><path class="cls-5" d="M284.59,883.49c0-2.59,1.5-4.35,3.9-5.4V878a5.07,5.07,0,0,1-3.17-4.61c0-3.39,3-5.69,6.95-5.69,4.48,0,6.52,2.69,6.52,5.25a5.18,5.18,0,0,1-3.2,4.7v.1a5.57,5.57,0,0,1,4,5.24c0,3.72-3.13,6.21-7.58,6.21C287.12,889.19,284.59,886.41,284.59,883.49Zm11-.19c0-2.11-1.57-3.26-3.87-3.9a3.81,3.81,0,0,0-3.07,3.65,3.28,3.28,0,0,0,3.49,3.36A3.15,3.15,0,0,0,295.56,883.3Zm-6.49-10.08c0,1.7,1.4,2.72,3.39,3.27a3.38,3.38,0,0,0,2.59-3.14,2.78,2.78,0,0,0-3-2.94A2.75,2.75,0,0,0,289.07,873.22Z" transform="translate(-132 -352.67)"/></g><g class="cls-4"><path class="cls-5" d="M368.52,884.78a10.46,10.46,0,0,0,4.74,1.27c3,0,4.22-1.69,4.19-3.32,0-2.47-2.3-3.52-4.7-3.52h-1.83v-2.88h1.76c1.83,0,4.13-.83,4.13-2.91,0-1.41-1.06-2.6-3.33-2.6a8.31,8.31,0,0,0-4.25,1.32l-.9-2.85a11.27,11.27,0,0,1,6-1.6c4.29,0,6.5,2.37,6.5,5.09,0,2.17-1.28,4-3.84,4.86v.06a5.26,5.26,0,0,1,4.58,5.19c0,3.52-2.95,6.3-8.1,6.3a11.29,11.29,0,0,1-5.82-1.44Z" transform="translate(-132 -352.67)"/><path class="cls-5" d="M399.18,868v2.53l-8.8,18.27h-4.16L395,871.37v-.07H385.2V868Z" transform="translate(-132 -352.67)"/></g><g class="cls-4"><path class="cls-5" d="M468.52,884.78a10.46,10.46,0,0,0,4.74,1.27c3,0,4.22-1.69,4.19-3.32,0-2.47-2.3-3.52-4.7-3.52h-1.83v-2.88h1.76c1.83,0,4.13-.83,4.13-2.91,0-1.41-1.06-2.6-3.33-2.6a8.31,8.31,0,0,0-4.25,1.32l-.9-2.85a11.27,11.27,0,0,1,6-1.6c4.29,0,6.5,2.37,6.5,5.09,0,2.17-1.28,4-3.84,4.86v.06a5.26,5.26,0,0,1,4.58,5.19c0,3.52-2.95,6.3-8.1,6.3a11.29,11.29,0,0,1-5.82-1.44Z" transform="translate(-132 -352.67)"/><path class="cls-5" d="M497.55,870.82a15.23,15.23,0,0,0-2,.1c-4.35.51-6.46,3.2-7,6.08h.09a6,6,0,0,1,4.67-2c3.59,0,6.37,2.56,6.37,6.79a7.22,7.22,0,0,1-7.33,7.42c-5.05,0-7.84-3.84-7.84-9a12.71,12.71,0,0,1,3.62-9.34,12,12,0,0,1,7.39-3.07,11,11,0,0,1,2-.07ZM495.69,882c0-2.4-1.31-4.13-3.62-4.13a3.83,3.83,0,0,0-3.39,2.15,2.69,2.69,0,0,0-.25,1.25c.06,2.75,1.37,5,3.9,5C494.38,886.25,495.69,884.49,495.69,882Z" transform="translate(-132 -352.67)"/></g><g class="cls-4"><path class="cls-5" d="M568.52,884.78a10.46,10.46,0,0,0,4.74,1.27c3,0,4.22-1.69,4.19-3.32,0-2.47-2.3-3.52-4.7-3.52h-1.83v-2.88h1.76c1.83,0,4.13-.83,4.13-2.91,0-1.41-1.06-2.6-3.33-2.6a8.31,8.31,0,0,0-4.25,1.32l-.9-2.85a11.27,11.27,0,0,1,6-1.6c4.29,0,6.5,2.37,6.5,5.09,0,2.17-1.28,4-3.84,4.86v.06a5.26,5.26,0,0,1,4.58,5.19c0,3.52-2.95,6.3-8.1,6.3a11.29,11.29,0,0,1-5.82-1.44Z" transform="translate(-132 -352.67)"/><path class="cls-5" d="M598.09,871.3h-8l-.61,4.16a11.25,11.25,0,0,1,1.51-.09,9.25,9.25,0,0,1,5,1.34,6,6,0,0,1,2.72,5.28c0,4-3.29,7.2-8.41,7.2a12,12,0,0,1-5.51-1.22l.8-3a10.55,10.55,0,0,0,4.58,1.09c2.3,0,4.51-1.31,4.51-3.81s-1.76-3.94-5.92-3.94a17.89,17.89,0,0,0-2.85.2l1.38-10.5h10.75Z" transform="translate(-132 -352.67)"/></g><g class="cls-4"><path class="cls-5" d="M668.52,884.78a10.46,10.46,0,0,0,4.74,1.27c3,0,4.22-1.69,4.19-3.32,0-2.47-2.3-3.52-4.7-3.52h-1.83v-2.88h1.76c1.83,0,4.13-.83,4.13-2.91,0-1.41-1.06-2.6-3.33-2.6a8.31,8.31,0,0,0-4.25,1.32l-.9-2.85a11.27,11.27,0,0,1,6-1.6c4.29,0,6.5,2.37,6.5,5.09,0,2.17-1.28,4-3.84,4.86v.06a5.26,5.26,0,0,1,4.58,5.19c0,3.52-2.95,6.3-8.1,6.3a11.29,11.29,0,0,1-5.82-1.44Z" transform="translate(-132 -352.67)"/><path class="cls-5" d="M693.55,888.84v-5.28h-9.41V881l8.48-13h4.64v12.54H700v3h-2.69v5.28Zm0-8.26v-5.66c0-1.18,0-2.4.12-3.62h-.12c-.64,1.32-1.19,2.37-1.83,3.52l-3.81,5.7,0,.06Z" transform="translate(-132 -352.67)"/></g><g class="cls-4"><path class="cls-5" d="M768.52,884.78a10.46,10.46,0,0,0,4.74,1.27c3,0,4.22-1.69,4.19-3.32,0-2.47-2.3-3.52-4.7-3.52h-1.83v-2.88h1.76c1.83,0,4.13-.83,4.13-2.91,0-1.41-1.06-2.6-3.33-2.6a8.31,8.31,0,0,0-4.25,1.32l-.9-2.85a11.27,11.27,0,0,1,6-1.6c4.29,0,6.5,2.37,6.5,5.09,0,2.17-1.28,4-3.84,4.86v.06a5.26,5.26,0,0,1,4.58,5.19c0,3.52-2.95,6.3-8.1,6.3a11.29,11.29,0,0,1-5.82-1.44Z" transform="translate(-132 -352.67)"/><path class="cls-5" d="M785.68,884.78a10.38,10.38,0,0,0,4.73,1.27c3,0,4.22-1.69,4.19-3.32,0-2.47-2.3-3.52-4.7-3.52h-1.82v-2.88h1.75c1.83,0,4.13-.83,4.13-2.91,0-1.41-1.05-2.6-3.33-2.6a8.31,8.31,0,0,0-4.25,1.32l-.9-2.85a11.28,11.28,0,0,1,6-1.6c4.28,0,6.49,2.37,6.49,5.09,0,2.17-1.28,4-3.84,4.86v.06a5.26,5.26,0,0,1,4.58,5.19c0,3.52-3,6.3-8.1,6.3a11.32,11.32,0,0,1-5.82-1.44Z" transform="translate(-132 -352.67)"/></g><g class="cls-4"><path class="cls-5" d="M868.67,884.78a10.46,10.46,0,0,0,4.74,1.27c3,0,4.22-1.69,4.19-3.32,0-2.47-2.3-3.52-4.7-3.52h-1.83v-2.88h1.76c1.83,0,4.13-.83,4.13-2.91,0-1.41-1.05-2.6-3.33-2.6a8.31,8.31,0,0,0-4.25,1.32l-.9-2.85a11.28,11.28,0,0,1,6-1.6c4.28,0,6.49,2.37,6.49,5.09,0,2.17-1.28,4-3.84,4.86v.06a5.26,5.26,0,0,1,4.58,5.19c0,3.52-3,6.3-8.1,6.3a11.29,11.29,0,0,1-5.82-1.44Z" transform="translate(-132 -352.67)"/><path class="cls-5" d="M885,888.84v-2.4l2.46-2.27c4.9-4.55,7.2-7,7.23-9.79,0-1.86-1-3.49-3.71-3.49a7.6,7.6,0,0,0-4.45,1.73l-1.15-2.79a10.33,10.33,0,0,1,6.4-2.14c4.61,0,6.85,2.91,6.85,6.3,0,3.65-2.63,6.59-6.24,10l-1.83,1.57v.07h8.55v3.26Z" transform="translate(-132 -352.67)"/></g><path class="cls-8" d="M917.48,839.28h-768A17.54,17.54,0,0,0,132,856.79V901.7a17.54,17.54,0,0,0,17.51,17.52h768A17.54,17.54,0,0,0,935,901.7V856.79A17.54,17.54,0,0,0,917.48,839.28Zm-582.48,3h97v73.94H335Zm-3,73.94H235V842.28h97Zm103-73.94h97v73.94H435Zm100,0h97v73.94H535Zm100,0h97v73.94H635Zm100,0h97v73.94H735ZM135,901.7V856.79a14.53,14.53,0,0,1,14.51-14.51H232v73.94H149.51A14.54,14.54,0,0,1,135,901.7Zm797,0a14.54,14.54,0,0,1-14.52,14.52H835V842.28h82.48A14.53,14.53,0,0,1,932,856.79Z" transform="translate(-132 -352.67)"/><rect class="cls-14" x="941.5" y="488.11" width="100" height="76.94"/><rect class="cls-15" x="1041.5" y="488.11" width="100" height="76.94"/><rect class="cls-15" x="1141.5" y="488.11" width="100" height="76.94"/><rect class="cls-15" x="1241.5" y="488.11" width="100" height="76.94"/><rect class="cls-15" x="1341.5" y="488.11" width="100" height="76.94"/><rect class="cls-13" x="1441.5" y="488.11" width="100" height="76.94"/><path class="cls-13" d="M1673.65,917.72h84a16,16,0,0,0,16-16V856.79a16,16,0,0,0-16-16h-84" transform="translate(-132 -352.67)"/><path class="cls-14" d="M1073.5,917.91h-84a16,16,0,0,1-16-16V857a16,16,0,0,1,16-16h84" transform="translate(-132 -352.67)"/><g class="cls-4"><path class="cls-5" d="M1016.39,888.84v-5.28H1007V881l8.48-13h4.64v12.54h2.68v3h-2.68v5.28Zm0-8.26v-5.66c0-1.18,0-2.4.13-3.62h-.13c-.64,1.32-1.18,2.37-1.82,3.52l-3.81,5.7,0,.06Z" transform="translate(-132 -352.67)"/><path class="cls-5" d="M1039.56,878.31c0,6.69-2.62,10.88-7.58,10.88-4.8,0-7.36-4.35-7.39-10.69s2.75-10.81,7.61-10.81C1037.23,867.69,1039.56,872.17,1039.56,878.31Zm-11,.19c0,5.06,1.37,7.68,3.55,7.68s3.52-2.81,3.52-7.8-1.16-7.68-3.52-7.68C1030,870.7,1028.52,873.29,1028.56,878.5Z" transform="translate(-132 -352.67)"/></g><g class="cls-4"><path class="cls-5" d="M1116.39,888.84v-5.28H1107V881l8.48-13h4.64v12.54h2.68v3h-2.68v5.28Zm0-8.26v-5.66c0-1.18,0-2.4.13-3.62h-.13c-.64,1.32-1.18,2.37-1.82,3.52l-3.81,5.7,0,.06Z" transform="translate(-132 -352.67)"/><path class="cls-5" d="M1131.05,871.59H1131l-3.81,1.92-.67-3,5-2.5h3.3v20.8h-3.81Z" transform="translate(-132 -352.67)"/></g><g class="cls-4"><path class="cls-5" d="M1216.39,888.84v-5.28H1207V881l8.48-13h4.64v12.54h2.68v3h-2.68v5.28Zm0-8.26v-5.66c0-1.18,0-2.4.13-3.62h-.13c-.64,1.32-1.18,2.37-1.82,3.52l-3.81,5.7,0,.06Z" transform="translate(-132 -352.67)"/><path class="cls-5" d="M1224.88,888.84v-2.4l2.46-2.27c4.89-4.55,7.2-7,7.23-9.79,0-1.86-1-3.49-3.71-3.49a7.6,7.6,0,0,0-4.45,1.73l-1.15-2.79a10.33,10.33,0,0,1,6.4-2.14c4.61,0,6.85,2.91,6.85,6.3,0,3.65-2.63,6.59-6.24,10l-1.83,1.57v.07H1239v3.26Z" transform="translate(-132 -352.67)"/></g><g class="cls-4"><path class="cls-5" d="M1316.39,888.84v-5.28H1307V881l8.48-13h4.64v12.54h2.68v3h-2.68v5.28Zm0-8.26v-5.66c0-1.18,0-2.4.13-3.62h-.13c-.64,1.32-1.18,2.37-1.82,3.52l-3.81,5.7,0,.06Z" transform="translate(-132 -352.67)"/><path class="cls-5" d="M1325.68,884.78a10.38,10.38,0,0,0,4.73,1.27c3,0,4.23-1.69,4.19-3.32,0-2.47-2.3-3.52-4.7-3.52h-1.83v-2.88h1.76c1.83,0,4.13-.83,4.13-2.91,0-1.41-1-2.6-3.32-2.6a8.32,8.32,0,0,0-4.26,1.32l-.9-2.85a11.28,11.28,0,0,1,6-1.6c4.28,0,6.49,2.37,6.49,5.09,0,2.17-1.28,4-3.84,4.86v.06a5.26,5.26,0,0,1,4.58,5.19c0,3.52-3,6.3-8.1,6.3a11.29,11.29,0,0,1-5.82-1.44Z" transform="translate(-132 -352.67)"/></g><g class="cls-4"><path class="cls-5" d="M1416.39,888.84v-5.28H1407V881l8.48-13h4.64v12.54h2.68v3h-2.68v5.28Zm0-8.26v-5.66c0-1.18,0-2.4.13-3.62h-.13c-.63,1.32-1.18,2.37-1.82,3.52l-3.81,5.7,0,.06Z" transform="translate(-132 -352.67)"/><path class="cls-5" d="M1433.55,888.84v-5.28h-9.41V881l8.48-13h4.64v12.54H1440v3h-2.69v5.28Zm0-8.26v-5.66c0-1.18,0-2.4.13-3.62h-.13c-.64,1.32-1.19,2.37-1.83,3.52l-3.8,5.7,0,.06Z" transform="translate(-132 -352.67)"/></g><g class="cls-4"><path class="cls-5" d="M1516.39,888.84v-5.28H1507V881l8.48-13h4.64v12.54h2.68v3h-2.68v5.28Zm0-8.26v-5.66c0-1.18,0-2.4.13-3.62h-.13c-.63,1.32-1.18,2.37-1.82,3.52l-3.81,5.7,0,.06Z" transform="translate(-132 -352.67)"/><path class="cls-5" d="M1538.09,871.3h-8l-.61,4.16a11.25,11.25,0,0,1,1.51-.09,9.22,9.22,0,0,1,5,1.34,6,6,0,0,1,2.72,5.28c0,4-3.29,7.2-8.41,7.2a12,12,0,0,1-5.51-1.22l.8-3a10.55,10.55,0,0,0,4.58,1.09c2.3,0,4.51-1.31,4.51-3.81s-1.76-3.94-5.92-3.94a17.89,17.89,0,0,0-2.85.2l1.38-10.5h10.75Z" transform="translate(-132 -352.67)"/></g><g class="cls-4"><path class="cls-5" d="M1616.39,888.84v-5.28H1607V881l8.48-13h4.64v12.54h2.68v3h-2.68v5.28Zm0-8.26v-5.66c0-1.18,0-2.4.13-3.62h-.13c-.63,1.32-1.18,2.37-1.82,3.52l-3.81,5.7,0,.06Z" transform="translate(-132 -352.67)"/><path class="cls-5" d="M1637.55,870.82a15.23,15.23,0,0,0-2,.1c-4.35.51-6.46,3.2-7,6.08h.09a6,6,0,0,1,4.67-2c3.59,0,6.37,2.56,6.37,6.79a7.22,7.22,0,0,1-7.33,7.42c-5,0-7.84-3.84-7.84-9a12.71,12.71,0,0,1,3.62-9.34,12,12,0,0,1,7.39-3.07,11.1,11.1,0,0,1,2-.07ZM1635.69,882c0-2.4-1.31-4.13-3.62-4.13a3.83,3.83,0,0,0-3.39,2.15,2.69,2.69,0,0,0-.25,1.25c.06,2.75,1.37,5,3.9,5C1634.38,886.25,1635.69,884.49,1635.69,882Z" transform="translate(-132 -352.67)"/></g><g class="cls-4"><path class="cls-5" d="M1716.55,888.84v-5.28h-9.41V881l8.48-13h4.64v12.54h2.68v3h-2.68v5.28Zm0-8.26v-5.66c0-1.18,0-2.4.12-3.62h-.12c-.64,1.32-1.19,2.37-1.83,3.52l-3.81,5.7,0,.06Z" transform="translate(-132 -352.67)"/><path class="cls-5" d="M1739.33,868v2.53l-8.8,18.27h-4.16l8.77-17.47v-.07h-9.79V868Z" transform="translate(-132 -352.67)"/></g><path class="cls-8" d="M1757.48,839.28h-768A17.54,17.54,0,0,0,972,856.79V901.7a17.54,17.54,0,0,0,17.51,17.52h768A17.54,17.54,0,0,0,1775,901.7V856.79A17.54,17.54,0,0,0,1757.48,839.28Zm-582.48,3h97v73.94h-97Zm-3,73.94h-97V842.28h97Zm103-73.94h97v73.94h-97Zm100,0h97v73.94h-97Zm100,0h97v73.94h-97Zm100,0h97v73.94h-97ZM975,901.7V856.79a14.53,14.53,0,0,1,14.51-14.51H1072v73.94H989.51A14.54,14.54,0,0,1,975,901.7Zm797,0a14.54,14.54,0,0,1-14.52,14.52H1675V842.28h82.48A14.53,14.53,0,0,1,1772,856.79Z" transform="translate(-132 -352.67)"/><g class="cls-6"><path class="cls-7" d="M984.56,783.18a36.68,36.68,0,0,1,6.44-.51c3.27,0,5.29.4,7,1.55a5.13,5.13,0,0,1,2.52,4.54,5.64,5.64,0,0,1-4,5.25v.08a6.11,6.11,0,0,1,4.9,6,6.3,6.3,0,0,1-2.34,5c-1.73,1.51-4.57,2.27-9,2.27a41.32,41.32,0,0,1-5.43-.33Zm4.39,9.57h2.26c3.06,0,4.79-1.44,4.79-3.49,0-2.27-1.73-3.31-4.53-3.31a11.82,11.82,0,0,0-2.52.18Zm0,11.16a19.82,19.82,0,0,0,2.34.11c2.84,0,5.36-1.08,5.36-4.07,0-2.8-2.45-4-5.51-4H989Z" transform="translate(-132 -352.67)"/><path class="cls-7" d="M1007.88,789.59l3.17,9.39c.36,1.08.72,2.41,1,3.42h.11c.29-1,.61-2.3.94-3.45l2.73-9.36h4.75l-4.39,11.95c-2.41,6.55-4,9.46-6.12,11.26a8.88,8.88,0,0,1-4.64,2.27l-1-3.74a7.53,7.53,0,0,0,2.59-1.23,7.66,7.66,0,0,0,2.41-2.77,1.75,1.75,0,0,0,.29-.79,1.8,1.8,0,0,0-.25-.86L1003,789.59Z" transform="translate(-132 -352.67)"/><path class="cls-7" d="M1028.19,784.58v5h4.21v3.31h-4.21v7.74c0,2.12.57,3.24,2.26,3.24a6.39,6.39,0,0,0,1.73-.22l.07,3.38a9.44,9.44,0,0,1-3.2.44,5.14,5.14,0,0,1-3.82-1.44c-.93-1-1.36-2.6-1.36-4.9V792.9h-2.52v-3.31h2.52v-4Z" transform="translate(-132 -352.67)"/><path class="cls-7" d="M1038.66,799.59c.11,3.17,2.59,4.54,5.4,4.54a13.26,13.26,0,0,0,4.86-.79l.65,3.06a16.54,16.54,0,0,1-6.12,1.08c-5.69,0-9-3.5-9-8.86,0-4.86,2.95-9.43,8.56-9.43s7.56,4.68,7.56,8.53a11.1,11.1,0,0,1-.14,1.87Zm7.71-3.09c0-1.62-.69-4.29-3.64-4.29-2.73,0-3.89,2.49-4.07,4.29Z" transform="translate(-132 -352.67)"/><path class="cls-7" d="M1075.6,787.39h-9l-.69,4.68a12.13,12.13,0,0,1,1.7-.11,10.43,10.43,0,0,1,5.68,1.51,6.71,6.71,0,0,1,3.06,5.94c0,4.47-3.71,8.1-9.46,8.1a13.44,13.44,0,0,1-6.2-1.37l.9-3.34a11.88,11.88,0,0,0,5.15,1.22c2.59,0,5.08-1.48,5.08-4.28s-2-4.43-6.66-4.43a19.7,19.7,0,0,0-3.21.22l1.55-11.81h12.1Z" transform="translate(-132 -352.67)"/></g><g class="cls-6"><line class="cls-16" x1="784.89" y1="294.24" x2="303" y2="294.24"/><path class="cls-3" d="M935,646.91c-8.52-3.16-19.09-8.55-25.64-14.26l5.16,14.26-5.16,14.27C915.91,655.47,926.48,650.07,935,646.91Z" transform="translate(-132 -352.67)"/></g><g class="cls-6"><line class="cls-17" x1="1161.11" y1="294.24" x2="1643" y2="294.24"/><path class="cls-18" d="M1275,646.92c8.52,3.16,19.09,8.55,25.64,14.26l-5.16-14.26,5.16-14.27C1294.09,638.36,1283.52,643.76,1275,646.92Z" transform="translate(-132 -352.67)"/></g><g class="cls-6"><line class="cls-19" x1="321.11" y1="611.24" x2="803" y2="611.24"/><path class="cls-20" d="M435,963.91c8.52,3.17,19.09,8.56,25.64,14.27l-5.16-14.27,5.16-14.26C454.09,955.36,443.52,960.76,435,963.91Z" transform="translate(-132 -352.67)"/></g><g class="cls-6"><line class="cls-21" x1="1421.89" y1="611.24" x2="840" y2="611.24"/><path class="cls-14" d="M1572,963.91c-8.52-3.16-19.09-8.55-25.64-14.26l5.16,14.26-5.16,14.27C1552.91,972.47,1563.48,967.07,1572,963.91Z" transform="translate(-132 -352.67)"/></g><g class="cls-6"><path class="cls-3" d="M457.28,353.8H466v1.76h-6.62v5.37h6.12v1.73h-6.12V370h-2.09Z" transform="translate(-132 -352.67)"/><path class="cls-3" d="M470.63,355.1a1.31,1.31,0,0,1-2.62,0,1.29,1.29,0,0,1,1.32-1.32A1.26,1.26,0,0,1,470.63,355.1ZM468.27,370V358.36h2.12V370Z" transform="translate(-132 -352.67)"/><path class="cls-3" d="M473.89,362c0-1.37,0-2.55-.1-3.63h1.85l.07,2.28h.1A3.48,3.48,0,0,1,479,358.1a2.25,2.25,0,0,1,.6.07v2a3.82,3.82,0,0,0-.72-.07,3,3,0,0,0-2.84,2.71,7.12,7.12,0,0,0-.09,1V370h-2.09Z" transform="translate(-132 -352.67)"/><path class="cls-3" d="M481.45,367.82a5.51,5.51,0,0,0,2.78.84c1.54,0,2.26-.77,2.26-1.73s-.6-1.56-2.16-2.13c-2.09-.75-3.07-1.9-3.07-3.29,0-1.87,1.51-3.41,4-3.41a5.84,5.84,0,0,1,2.85.72l-.53,1.54a4.45,4.45,0,0,0-2.37-.68c-1.25,0-2,.72-2,1.59s.7,1.39,2.21,2c2,.76,3,1.77,3,3.5,0,2-1.58,3.48-4.34,3.48a6.64,6.64,0,0,1-3.27-.79Z" transform="translate(-132 -352.67)"/><path class="cls-3" d="M493.79,355v3.33h3V360h-3v6.27c0,1.44.4,2.25,1.58,2.25a4.78,4.78,0,0,0,1.22-.14l.1,1.58a5.14,5.14,0,0,1-1.87.29,2.9,2.9,0,0,1-2.28-.89,4.28,4.28,0,0,1-.82-3V360h-1.8v-1.61h1.8v-2.78Z" transform="translate(-132 -352.67)"/><path class="cls-3" d="M504.18,370c0-.79.09-2,.09-3v-14h2.09v7.3h.05a4.32,4.32,0,0,1,4-2.14c2.88,0,4.92,2.4,4.9,5.93,0,4.15-2.62,6.21-5.21,6.21a4.13,4.13,0,0,1-3.89-2.18h-.07L506,370Zm2.18-4.66a3.77,3.77,0,0,0,.1.77,3.25,3.25,0,0,0,3.17,2.47c2.2,0,3.52-1.8,3.52-4.46,0-2.33-1.2-4.32-3.45-4.32a3.37,3.37,0,0,0-3.22,2.59,4.06,4.06,0,0,0-.12.87Z" transform="translate(-132 -352.67)"/><path class="cls-3" d="M520.28,355.1a1.24,1.24,0,0,1-1.34,1.3,1.26,1.26,0,0,1-1.28-1.3,1.29,1.29,0,0,1,1.32-1.32A1.25,1.25,0,0,1,520.28,355.1ZM517.93,370V358.36H520V370Z" transform="translate(-132 -352.67)"/><path class="cls-3" d="M526.09,355v3.33h3V360h-3v6.27c0,1.44.41,2.25,1.58,2.25a4.93,4.93,0,0,0,1.23-.14l.09,1.58a5.1,5.1,0,0,1-1.87.29,2.91,2.91,0,0,1-2.28-.89,4.28,4.28,0,0,1-.82-3V360h-1.8v-1.61H524v-2.78Z" transform="translate(-132 -352.67)"/><path class="cls-3" d="M547.09,364.08c0,4.29-3,6.16-5.79,6.16-3.14,0-5.56-2.3-5.56-6,0-3.89,2.54-6.17,5.76-6.17S547.09,360.52,547.09,364.08Zm-9.22.12c0,2.54,1.47,4.46,3.53,4.46s3.53-1.9,3.53-4.51c0-2-1-4.47-3.48-4.47S537.87,362,537.87,364.2Z" transform="translate(-132 -352.67)"/><path class="cls-3" d="M550,370V360h-1.63v-1.61H550v-.55a5.51,5.51,0,0,1,1.34-4.06,4.08,4.08,0,0,1,2.83-1.08,4.79,4.79,0,0,1,1.8.34l-.28,1.63a3.28,3.28,0,0,0-1.35-.26c-1.8,0-2.25,1.58-2.25,3.36v.62h2.8V360h-2.8v10Z" transform="translate(-132 -352.67)"/><path class="cls-3" d="M562.06,370V360h-1.63v-1.61h1.63v-.62c0-3.07,1.8-5.07,5.07-5.07a5.82,5.82,0,0,1,3,.77l-.6,1.61a4.44,4.44,0,0,0-2.45-.67c-2.23,0-2.88,1.56-2.88,3.41v.57h6.75V370h-2.09V360h-4.66v10Z" transform="translate(-132 -352.67)"/><path class="cls-3" d="M575.58,364.56a3.72,3.72,0,0,0,4,4,7.79,7.79,0,0,0,3.22-.6l.36,1.51a9.39,9.39,0,0,1-3.87.72c-3.57,0-5.71-2.35-5.71-5.86s2.06-6.26,5.45-6.26c3.79,0,4.8,3.34,4.8,5.47a9.22,9.22,0,0,1-.07,1Zm6.19-1.52c0-1.34-.55-3.43-2.93-3.43-2.14,0-3.07,2-3.24,3.43Z" transform="translate(-132 -352.67)"/><path class="cls-3" d="M586.42,352.94h2.12v17h-2.12Z" transform="translate(-132 -352.67)"/><path class="cls-3" d="M602.12,352.94v14c0,1,0,2.21.1,3h-1.9l-.1-2h0a4.3,4.3,0,0,1-4,2.28c-2.81,0-5-2.37-5-5.9,0-3.86,2.37-6.24,5.21-6.24a3.88,3.88,0,0,1,3.5,1.78h0v-6.94ZM600,363.09a3.92,3.92,0,0,0-.1-.89,3.1,3.1,0,0,0-3-2.44c-2.18,0-3.48,1.92-3.48,4.48,0,2.36,1.16,4.3,3.44,4.3a3.17,3.17,0,0,0,3.09-2.52,3.79,3.79,0,0,0,.1-.91Z" transform="translate(-132 -352.67)"/><path class="cls-3" d="M614.77,352.94l-1.54,7.54h0a4.87,4.87,0,0,1,4.08-2.38c2.54,0,3.5,2.11,3.5,4.18,0,3.55-2.56,8-7.22,8-2,0-3.58-.84-3.58-3a12.36,12.36,0,0,1,.19-1.8l2.53-12.5Zm-2.52,12.55a5.15,5.15,0,0,0-.15,1.47c0,1.1.63,1.72,1.88,1.72,3,0,4.82-3.57,4.82-6.14,0-1.44-.62-2.78-2.21-2.78s-3.5,1.77-4.08,4.51Z" transform="translate(-132 -352.67)"/><path class="cls-3" d="M622.25,370l3.25-17h2l-3.27,17Z" transform="translate(-132 -352.67)"/><path class="cls-3" d="M639.06,358.36l-1.56,8.24c-.25,1.29-.41,2.42-.53,3.38h-1.8l.31-2.18h-.05a5.16,5.16,0,0,1-4.1,2.44c-1.49,0-3.05-.72-3.05-3.36a10.92,10.92,0,0,1,.21-1.94l1.25-6.58h2l-1.22,6.48a8.17,8.17,0,0,0-.22,1.71c0,1.2.51,2,1.88,2s3.28-1.68,3.76-4.24l1.13-6Z" transform="translate(-132 -352.67)"/><path class="cls-3" d="M648.73,369.31a8.07,8.07,0,0,1-3.84.91c-3.08,0-4.42-2.09-4.42-4.66,0-3.5,2.59-7.46,6.34-7.46,2.21,0,3.41,1.32,3.41,3,0,3-3.44,3.86-7.73,3.79a4.71,4.71,0,0,0,.24,2.21,2.64,2.64,0,0,0,2.59,1.56,6.51,6.51,0,0,0,3.12-.82Zm-2.21-9.65c-1.9,0-3.31,1.85-3.79,3.67,3.12,0,5.56-.38,5.56-2.18C648.29,360.19,647.57,359.66,646.52,359.66Z" transform="translate(-132 -352.67)"/></g><g class="cls-6"><path class="cls-22" d="M263.82,410.3h2.09v14.43h6.91v1.75h-9Z" transform="translate(-132 -352.67)"/><path class="cls-22" d="M281.51,426.48l-.17-1.46h-.07a4.32,4.32,0,0,1-3.55,1.72,3.3,3.3,0,0,1-3.55-3.33c0-2.81,2.49-4.35,7-4.32v-.24a2.39,2.39,0,0,0-2.64-2.69,5.83,5.83,0,0,0-3,.86l-.48-1.39a7.23,7.23,0,0,1,3.81-1c3.56,0,4.42,2.42,4.42,4.75v4.35a16.79,16.79,0,0,0,.19,2.78Zm-.31-5.93c-2.3-.05-4.92.36-4.92,2.62a1.86,1.86,0,0,0,2,2,2.9,2.9,0,0,0,2.81-1.94,2.31,2.31,0,0,0,.12-.67Z" transform="translate(-132 -352.67)"/><path class="cls-22" d="M286.36,424.32a5.51,5.51,0,0,0,2.78.84c1.54,0,2.26-.77,2.26-1.73s-.6-1.56-2.16-2.13c-2.09-.75-3.07-1.9-3.07-3.29,0-1.87,1.51-3.41,4-3.41a5.84,5.84,0,0,1,2.85.72l-.53,1.54a4.45,4.45,0,0,0-2.37-.68c-1.25,0-1.95.72-1.95,1.59s.7,1.39,2.21,2c2,.76,3.05,1.77,3.05,3.5,0,2-1.58,3.48-4.34,3.48a6.64,6.64,0,0,1-3.27-.79Z" transform="translate(-132 -352.67)"/><path class="cls-22" d="M298.7,411.53v3.33h3v1.61h-3v6.27c0,1.44.4,2.25,1.58,2.25a4.78,4.78,0,0,0,1.22-.14l.1,1.58a5.14,5.14,0,0,1-1.87.29,2.9,2.9,0,0,1-2.28-.89,4.28,4.28,0,0,1-.82-3v-6.34h-1.8v-1.61h1.8v-2.78Z" transform="translate(-132 -352.67)"/><path class="cls-22" d="M309.09,426.48c.05-.79.09-2,.09-3v-14h2.09v7.3h.05a4.32,4.32,0,0,1,4-2.14c2.88,0,4.92,2.4,4.9,5.93,0,4.15-2.62,6.21-5.21,6.21a4.13,4.13,0,0,1-3.89-2.18H311l-.1,1.92Zm2.18-4.66a3.77,3.77,0,0,0,.1.77,3.25,3.25,0,0,0,3.17,2.47c2.2,0,3.52-1.8,3.52-4.46,0-2.33-1.2-4.32-3.45-4.32a3.37,3.37,0,0,0-3.22,2.59,4.06,4.06,0,0,0-.12.87Z" transform="translate(-132 -352.67)"/><path class="cls-22" d="M325.19,411.6a1.31,1.31,0,0,1-2.61,0,1.29,1.29,0,0,1,1.31-1.32A1.25,1.25,0,0,1,325.19,411.6Zm-2.35,14.88V414.86H325v11.62Z" transform="translate(-132 -352.67)"/><path class="cls-22" d="M331,411.53v3.33h3v1.61h-3v6.27c0,1.44.41,2.25,1.58,2.25a4.87,4.87,0,0,0,1.23-.14l.09,1.58a5.06,5.06,0,0,1-1.87.29,2.91,2.91,0,0,1-2.28-.89,4.28,4.28,0,0,1-.82-3v-6.34h-1.8v-1.61h1.8v-2.78Z" transform="translate(-132 -352.67)"/><path class="cls-22" d="M352,420.58c0,4.29-3,6.16-5.79,6.16-3.14,0-5.56-2.3-5.56-6,0-3.89,2.54-6.17,5.76-6.17S352,417,352,420.58Zm-9.22.12c0,2.54,1.47,4.46,3.53,4.46s3.53-1.9,3.53-4.51c0-2-1-4.47-3.48-4.47S342.78,418.49,342.78,420.7Z" transform="translate(-132 -352.67)"/><path class="cls-22" d="M354.88,426.48v-10h-1.63v-1.61h1.63v-.55a5.51,5.51,0,0,1,1.34-4.06,4.08,4.08,0,0,1,2.83-1.08,4.79,4.79,0,0,1,1.8.34l-.28,1.63a3.28,3.28,0,0,0-1.35-.26c-1.8,0-2.25,1.58-2.25,3.36v.62h2.8v1.61H357v10Z" transform="translate(-132 -352.67)"/><path class="cls-22" d="M367,426.48v-10h-1.63v-1.61H367v-.62c0-3.07,1.8-5.07,5.07-5.07a5.82,5.82,0,0,1,2.95.77l-.6,1.61a4.44,4.44,0,0,0-2.45-.67c-2.23,0-2.88,1.56-2.88,3.41v.57h6.75v11.62h-2.09v-10h-4.66v10Z" transform="translate(-132 -352.67)"/><path class="cls-22" d="M380.49,421.06a3.72,3.72,0,0,0,4,4,7.79,7.79,0,0,0,3.22-.6l.36,1.51a9.39,9.39,0,0,1-3.87.72c-3.57,0-5.71-2.35-5.71-5.86s2.06-6.26,5.45-6.26c3.79,0,4.8,3.34,4.8,5.47a9.22,9.22,0,0,1-.07,1Zm6.19-1.52c0-1.34-.55-3.43-2.93-3.43-2.14,0-3.07,2-3.24,3.43Z" transform="translate(-132 -352.67)"/><path class="cls-22" d="M391.33,409.44h2.12v17h-2.12Z" transform="translate(-132 -352.67)"/><path class="cls-22" d="M407,409.44v14c0,1,0,2.21.1,3h-1.9l-.1-2h0a4.3,4.3,0,0,1-4,2.28c-2.81,0-5-2.37-5-5.9,0-3.86,2.37-6.24,5.21-6.24a3.88,3.88,0,0,1,3.5,1.78h.05v-6.94Zm-2.11,10.15a3.92,3.92,0,0,0-.1-.89,3.1,3.1,0,0,0-3.05-2.44c-2.18,0-3.48,1.92-3.48,4.48,0,2.36,1.16,4.3,3.44,4.3a3.17,3.17,0,0,0,3.09-2.52,3.79,3.79,0,0,0,.1-.91Z" transform="translate(-132 -352.67)"/><path class="cls-22" d="M414.66,429.12a6.19,6.19,0,0,0,3.07.77c1.95,0,3.48-1,4.18-4.15l.38-1.73h-.07a4.64,4.64,0,0,1-4,2.47c-2.33,0-3.53-2-3.53-4,0-3.94,2.88-7.85,7.37-7.85a9.5,9.5,0,0,1,3.72.81L424,425c-.48,2.44-1.12,4.15-2.35,5.18a6.11,6.11,0,0,1-4.06,1.3,6.92,6.92,0,0,1-3.48-.82Zm8.91-12.53a4.83,4.83,0,0,0-1.92-.38c-2.91,0-4.9,3-4.93,5.9,0,1.27.46,2.79,2.24,2.79s3.43-2.16,3.86-4.44Z" transform="translate(-132 -352.67)"/><path class="cls-22" d="M427.12,426.48l1.41-7.49c.29-1.51.48-3.05.6-4.13h1.75c-.09.82-.19,1.64-.31,2.52h.07c.75-1.58,2-2.78,3.56-2.78a3.21,3.21,0,0,1,.55,0l-.38,2a2.44,2.44,0,0,0-.53-.05c-1.73,0-3.27,2.09-3.77,4.8l-1,5.11Z" transform="translate(-132 -352.67)"/><path class="cls-22" d="M443,425.81a8,8,0,0,1-3.84.91c-3.07,0-4.42-2.09-4.42-4.66,0-3.5,2.6-7.46,6.34-7.46,2.21,0,3.41,1.32,3.41,3,0,3-3.43,3.86-7.73,3.79a4.84,4.84,0,0,0,.24,2.21,2.65,2.65,0,0,0,2.59,1.56,6.51,6.51,0,0,0,3.12-.82Zm-2.21-9.65c-1.89,0-3.31,1.85-3.79,3.67,3.12,0,5.57-.38,5.57-2.18C442.55,416.69,441.83,416.16,440.77,416.16Z" transform="translate(-132 -352.67)"/><path class="cls-22" d="M453.85,425.81a8,8,0,0,1-3.84.91c-3.07,0-4.41-2.09-4.41-4.66,0-3.5,2.59-7.46,6.33-7.46,2.21,0,3.41,1.32,3.41,3,0,3-3.43,3.86-7.73,3.79a5,5,0,0,0,.24,2.21,2.65,2.65,0,0,0,2.59,1.56,6.51,6.51,0,0,0,3.12-.82Zm-2.21-9.65c-1.89,0-3.31,1.85-3.79,3.67,3.12,0,5.57-.38,5.57-2.18C453.42,416.69,452.7,416.16,451.64,416.16Z" transform="translate(-132 -352.67)"/><path class="cls-22" d="M456.35,426.48l1.56-8.23c.26-1.3.41-2.43.55-3.39h1.78l-.29,2.28H460a5.07,5.07,0,0,1,4.29-2.54c1.39,0,2.95.79,2.95,3.24a11.14,11.14,0,0,1-.21,1.87l-1.3,6.77h-2l1.27-6.7a7.22,7.22,0,0,0,.17-1.48c0-1.18-.46-2-1.82-2s-3.44,1.7-4,4.58l-1.06,5.64Z" transform="translate(-132 -352.67)"/></g><line class="cls-23" x1="242.86" y1="85.24" x2="247.7" y2="157.93"/><path class="cls-1" d="M369.22,497.6a1,1,0,0,1,1.39.21l9.06,12.33L387,496.72a1,1,0,0,1,1.76,1l-8.1,14.8a1,1,0,0,1-1.68.11L369,499a1,1,0,0,1-.19-.53A1,1,0,0,1,369.22,497.6Z" transform="translate(-132 -352.67)"/><line class="cls-24" x1="379" y1="27.74" x2="369.54" y2="157.93"/><path class="cls-25" d="M493,496.27a1,1,0,0,1,1.36.41l7.26,13.47,9.13-12.28a1,1,0,0,1,1.61,1.19L502.24,512.6a1,1,0,0,1-.88.4,1,1,0,0,1-.81-.52l-8-14.85a1,1,0,0,1-.12-.55A1,1,0,0,1,493,496.27Z" transform="translate(-132 -352.67)"/><g class="cls-6"><path class="cls-18" d="M1288.16,424.83h8.72v1.75h-6.63V432h6.12v1.73h-6.12V441h-2.09Z" transform="translate(-132 -352.67)"/><path class="cls-18" d="M1301.51,426.12a1.31,1.31,0,0,1-2.62,0,1.29,1.29,0,0,1,1.32-1.32A1.26,1.26,0,0,1,1301.51,426.12ZM1299.16,441V429.39h2.11V441Z" transform="translate(-132 -352.67)"/><path class="cls-18" d="M1304.77,433c0-1.36,0-2.54-.09-3.62h1.84l.08,2.28h.09a3.49,3.49,0,0,1,3.22-2.55,2.18,2.18,0,0,1,.6.08v2a3.08,3.08,0,0,0-.72-.07,3,3,0,0,0-2.83,2.71,5.69,5.69,0,0,0-.1,1V441h-2.09Z" transform="translate(-132 -352.67)"/><path class="cls-18" d="M1312.33,438.85a5.65,5.65,0,0,0,2.79.84c1.53,0,2.25-.77,2.25-1.73s-.6-1.56-2.16-2.14c-2.09-.74-3.07-1.9-3.07-3.29,0-1.87,1.51-3.41,4-3.41a5.81,5.81,0,0,1,2.85.72l-.52,1.54a4.53,4.53,0,0,0-2.38-.67c-1.25,0-1.94.72-1.94,1.58s.69,1.4,2.2,2c2,.77,3.05,1.78,3.05,3.51,0,2-1.58,3.48-4.34,3.48a6.67,6.67,0,0,1-3.27-.8Z" transform="translate(-132 -352.67)"/><path class="cls-18" d="M1324.67,426.05v3.34h3V431h-3v6.26c0,1.44.41,2.26,1.58,2.26a4.42,4.42,0,0,0,1.23-.15l.09,1.59a5.1,5.1,0,0,1-1.87.29,3,3,0,0,1-2.28-.89,4.33,4.33,0,0,1-.82-3V431h-1.8v-1.61h1.8V426.6Z" transform="translate(-132 -352.67)"/><path class="cls-18" d="M1335.06,441c0-.8.09-2,.09-3V424h2.09v7.3h0a4.32,4.32,0,0,1,4-2.14c2.88,0,4.92,2.41,4.9,5.93,0,4.16-2.62,6.22-5.21,6.22a4.14,4.14,0,0,1-3.89-2.18H1337l-.1,1.92Zm2.18-4.66a3.86,3.86,0,0,0,.1.77,3.26,3.26,0,0,0,3.17,2.47c2.21,0,3.53-1.8,3.53-4.47,0-2.32-1.2-4.32-3.46-4.32a3.38,3.38,0,0,0-3.22,2.6,4,4,0,0,0-.12.86Z" transform="translate(-132 -352.67)"/><path class="cls-18" d="M1351.16,426.12a1.31,1.31,0,0,1-2.61,0,1.29,1.29,0,0,1,1.32-1.32A1.25,1.25,0,0,1,1351.16,426.12ZM1348.81,441V429.39h2.11V441Z" transform="translate(-132 -352.67)"/><path class="cls-18" d="M1357,426.05v3.34h3V431h-3v6.26c0,1.44.41,2.26,1.58,2.26a4.31,4.31,0,0,0,1.23-.15l.09,1.59a5.06,5.06,0,0,1-1.87.29,3,3,0,0,1-2.28-.89,4.33,4.33,0,0,1-.81-3V431h-1.8v-1.61h1.8V426.6Z" transform="translate(-132 -352.67)"/><path class="cls-18" d="M1378,435.1c0,4.3-3,6.17-5.78,6.17-3.15,0-5.57-2.3-5.57-6,0-3.88,2.54-6.17,5.76-6.17S1378,431.55,1378,435.1Zm-9.22.12c0,2.55,1.47,4.47,3.53,4.47s3.53-1.9,3.53-4.52c0-2-1-4.46-3.48-4.46S1368.75,433,1368.75,435.22Z" transform="translate(-132 -352.67)"/><path class="cls-18" d="M1380.85,441V431h-1.63v-1.61h1.63v-.55a5.49,5.49,0,0,1,1.34-4.06,4.05,4.05,0,0,1,2.84-1.08,4.87,4.87,0,0,1,1.8.34l-.29,1.63a3.08,3.08,0,0,0-1.35-.27c-1.8,0-2.25,1.59-2.25,3.36v.63h2.81V431h-2.81v10Z" transform="translate(-132 -352.67)"/><path class="cls-18" d="M1393,441V431h-1.64v-1.61H1393v-.63c0-3.07,1.8-5.06,5.06-5.06a5.82,5.82,0,0,1,3,.77l-.6,1.61a4.41,4.41,0,0,0-2.45-.68c-2.23,0-2.88,1.56-2.88,3.41v.58h6.75V441h-2.09V431H1395v10Z" transform="translate(-132 -352.67)"/><path class="cls-18" d="M1406.46,435.58a3.72,3.72,0,0,0,4,4,7.6,7.6,0,0,0,3.22-.6l.36,1.52a9.56,9.56,0,0,1-3.87.72c-3.57,0-5.71-2.36-5.71-5.86s2.07-6.27,5.45-6.27c3.79,0,4.8,3.34,4.8,5.48a8.79,8.79,0,0,1-.07,1Zm6.19-1.51c0-1.34-.55-3.43-2.93-3.43-2.13,0-3.07,2-3.24,3.43Z" transform="translate(-132 -352.67)"/><path class="cls-18" d="M1417.31,424h2.11V441h-2.11Z" transform="translate(-132 -352.67)"/><path class="cls-18" d="M1433,424V438c0,1,0,2.2.1,3h-1.9l-.09-2h0a4.3,4.3,0,0,1-4,2.28c-2.81,0-5-2.38-5-5.9,0-3.87,2.38-6.25,5.21-6.25a3.88,3.88,0,0,1,3.5,1.78h.05V424Zm-2.11,10.16a3.33,3.33,0,0,0-.1-.89,3.09,3.09,0,0,0-3-2.45c-2.19,0-3.48,1.92-3.48,4.49,0,2.35,1.15,4.3,3.43,4.3a3.17,3.17,0,0,0,3.09-2.52,3.37,3.37,0,0,0,.1-.92Z" transform="translate(-132 -352.67)"/><path class="cls-18" d="M1443.06,429.39l1.15,6.26c.26,1.32.41,2.19.53,3.05h0c.32-.74.65-1.56,1.25-2.83l3-6.48h2.11l-4.35,8.83a21.45,21.45,0,0,1-4,6.1,7.19,7.19,0,0,1-3.38,2l-.48-1.7a7.72,7.72,0,0,0,2.14-1.13,9.16,9.16,0,0,0,2.23-2.66.76.76,0,0,0,.07-.53L1441,429.39Z" transform="translate(-132 -352.67)"/><path class="cls-18" d="M1459.28,440.33a7.92,7.92,0,0,1-3.84.92c-3.07,0-4.42-2.09-4.42-4.66,0-3.51,2.6-7.47,6.34-7.47,2.21,0,3.41,1.33,3.41,3,0,3-3.43,3.87-7.73,3.79a4.81,4.81,0,0,0,.24,2.21,2.65,2.65,0,0,0,2.59,1.56,6.52,6.52,0,0,0,3.12-.81Zm-2.21-9.65c-1.89,0-3.31,1.85-3.79,3.68,3.12,0,5.57-.39,5.57-2.19C1458.85,431.21,1458.13,430.68,1457.07,430.68Z" transform="translate(-132 -352.67)"/><path class="cls-18" d="M1461.8,441,1465,424h2L1463.77,441Z" transform="translate(-132 -352.67)"/><path class="cls-18" d="M1467.3,441l3.24-17.05h2L1469.26,441Z" transform="translate(-132 -352.67)"/><path class="cls-18" d="M1483.9,434c0,3.58-2.54,7.3-6.43,7.3-2.9,0-4.54-2.16-4.54-4.78,0-3.81,2.67-7.37,6.44-7.37C1482.51,429.12,1483.9,431.5,1483.9,434Zm-8.9,2.45c0,1.9,1,3.27,2.74,3.27,2.35,0,4.12-3,4.12-5.74,0-1.34-.62-3.24-2.71-3.24C1476.66,430.71,1475,433.76,1475,436.42Z" transform="translate(-132 -352.67)"/><path class="cls-18" d="M1487.89,429.39l.41,6.53a28.18,28.18,0,0,1,0,3.12h.08a25.65,25.65,0,0,1,1.27-2.91l3.45-6.74h1.73l.72,6.62a25.68,25.68,0,0,1,.19,3h0c.31-.94.65-1.83,1.11-2.93l3.14-6.72h2L1496.36,441h-1.85l-.77-6.32a27.12,27.12,0,0,1-.16-3.07h0c-.48,1.11-.82,2-1.35,3l-3.33,6.36H1487l-1.08-11.62Z" transform="translate(-132 -352.67)"/></g><g class="cls-6"><path class="cls-26" d="M1094.71,371.33h2.08v14.42h6.92v1.76h-9Z" transform="translate(-132 -352.67)"/><path class="cls-26" d="M1112.39,387.51l-.16-1.47h-.08a4.31,4.31,0,0,1-3.55,1.73,3.31,3.31,0,0,1-3.55-3.34c0-2.81,2.5-4.34,7-4.32v-.24a2.39,2.39,0,0,0-2.64-2.69,5.74,5.74,0,0,0-3,.87l-.48-1.39a7.16,7.16,0,0,1,3.82-1c3.55,0,4.41,2.43,4.41,4.76v4.34a16.91,16.91,0,0,0,.19,2.79Zm-.31-5.93c-2.3-.05-4.92.36-4.92,2.61a1.87,1.87,0,0,0,2,2,2.88,2.88,0,0,0,2.81-1.94,2.32,2.32,0,0,0,.12-.68Z" transform="translate(-132 -352.67)"/><path class="cls-26" d="M1117.24,385.35a5.65,5.65,0,0,0,2.79.84c1.53,0,2.25-.77,2.25-1.73s-.6-1.56-2.16-2.14c-2.09-.74-3.07-1.9-3.07-3.29,0-1.87,1.51-3.41,4-3.41a5.81,5.81,0,0,1,2.85.72l-.52,1.54a4.53,4.53,0,0,0-2.38-.67c-1.25,0-2,.72-2,1.58s.7,1.4,2.21,2c2,.77,3,1.78,3,3.51,0,2-1.58,3.48-4.34,3.48a6.64,6.64,0,0,1-3.27-.8Z" transform="translate(-132 -352.67)"/><path class="cls-26" d="M1129.58,372.55v3.34h3v1.61h-3v6.26c0,1.44.41,2.26,1.58,2.26a4.42,4.42,0,0,0,1.23-.15l.09,1.59a5.1,5.1,0,0,1-1.87.29,2.93,2.93,0,0,1-2.28-.89,4.33,4.33,0,0,1-.82-3V377.5h-1.8v-1.61h1.8V373.1Z" transform="translate(-132 -352.67)"/><path class="cls-26" d="M1140,387.51c0-.8.09-2,.09-3V370.46h2.09v7.3h0a4.32,4.32,0,0,1,4-2.14c2.88,0,4.92,2.41,4.9,5.93,0,4.16-2.62,6.22-5.21,6.22a4.14,4.14,0,0,1-3.89-2.18h-.07l-.1,1.92Zm2.18-4.66a3.86,3.86,0,0,0,.1.77,3.26,3.26,0,0,0,3.17,2.47c2.21,0,3.53-1.8,3.53-4.47,0-2.32-1.2-4.32-3.46-4.32a3.38,3.38,0,0,0-3.22,2.6,4,4,0,0,0-.12.86Z" transform="translate(-132 -352.67)"/><path class="cls-26" d="M1156.07,372.62a1.31,1.31,0,0,1-2.61,0,1.29,1.29,0,0,1,1.32-1.32A1.25,1.25,0,0,1,1156.07,372.62Zm-2.35,14.89V375.89h2.11v11.62Z" transform="translate(-132 -352.67)"/><path class="cls-26" d="M1161.88,372.55v3.34h3v1.61h-3v6.26c0,1.44.41,2.26,1.58,2.26a4.37,4.37,0,0,0,1.23-.15l.09,1.59a5.06,5.06,0,0,1-1.87.29,3,3,0,0,1-2.28-.89,4.33,4.33,0,0,1-.81-3V377.5H1158v-1.61h1.8V373.1Z" transform="translate(-132 -352.67)"/><path class="cls-26" d="M1182.88,381.6c0,4.3-3,6.17-5.78,6.17-3.15,0-5.57-2.3-5.57-6,0-3.88,2.54-6.17,5.76-6.17S1182.88,378.05,1182.88,381.6Zm-9.22.12c0,2.55,1.47,4.47,3.53,4.47s3.53-1.9,3.53-4.52c0-2-1-4.46-3.48-4.46S1173.66,379.51,1173.66,381.72Z" transform="translate(-132 -352.67)"/><path class="cls-26" d="M1185.76,387.51v-10h-1.63v-1.61h1.63v-.55a5.49,5.49,0,0,1,1.34-4.06,4.05,4.05,0,0,1,2.84-1.08,4.87,4.87,0,0,1,1.8.34l-.29,1.63a3.08,3.08,0,0,0-1.35-.27c-1.8,0-2.25,1.59-2.25,3.36v.63h2.81v1.61h-2.81v10Z" transform="translate(-132 -352.67)"/><path class="cls-26" d="M1197.86,387.51v-10h-1.64v-1.61h1.64v-.63c0-3.07,1.8-5.06,5.06-5.06a5.82,5.82,0,0,1,2.95.77l-.6,1.61a4.41,4.41,0,0,0-2.45-.68c-2.23,0-2.88,1.56-2.88,3.41v.58h6.75v11.62h-2.09v-10h-4.66v10Z" transform="translate(-132 -352.67)"/><path class="cls-26" d="M1211.37,382.08a3.71,3.71,0,0,0,4,4,7.6,7.6,0,0,0,3.22-.6l.36,1.52a9.56,9.56,0,0,1-3.87.72c-3.57,0-5.71-2.36-5.71-5.86s2.06-6.27,5.45-6.27c3.79,0,4.8,3.34,4.8,5.48a8.79,8.79,0,0,1-.07,1Zm6.19-1.51c0-1.34-.55-3.43-2.93-3.43-2.13,0-3.07,2-3.24,3.43Z" transform="translate(-132 -352.67)"/><path class="cls-26" d="M1222.21,370.46h2.12v17.05h-2.12Z" transform="translate(-132 -352.67)"/><path class="cls-26" d="M1237.91,370.46v14.05c0,1,0,2.2.1,3h-1.9l-.09-2h0a4.3,4.3,0,0,1-4,2.28c-2.81,0-5-2.38-5-5.9,0-3.87,2.37-6.25,5.21-6.25a3.88,3.88,0,0,1,3.5,1.78h0v-6.94Zm-2.11,10.16a3.33,3.33,0,0,0-.1-.89,3.1,3.1,0,0,0-3-2.45c-2.18,0-3.47,1.92-3.47,4.49,0,2.35,1.15,4.3,3.43,4.3a3.17,3.17,0,0,0,3.09-2.52,3.37,3.37,0,0,0,.1-.92Z" transform="translate(-132 -352.67)"/><path class="cls-26" d="M1256.56,380.47c0,3.58-2.54,7.3-6.43,7.3-2.91,0-4.54-2.16-4.54-4.78,0-3.81,2.66-7.37,6.43-7.37C1255.17,375.62,1256.56,378,1256.56,380.47Zm-8.91,2.45c0,1.9,1,3.27,2.74,3.27,2.35,0,4.13-3,4.13-5.74,0-1.34-.63-3.24-2.71-3.24C1249.31,377.21,1247.63,380.26,1247.65,382.92Z" transform="translate(-132 -352.67)"/><path class="cls-26" d="M1258,387.51l1.42-7.49c.28-1.52.48-3,.6-4.13h1.75c-.1.81-.19,1.63-.31,2.52h.07c.74-1.58,2-2.79,3.55-2.79a4.49,4.49,0,0,1,.55.05l-.38,2a3.17,3.17,0,0,0-.53-.05c-1.73,0-3.26,2.09-3.77,4.8l-1,5.12Z" transform="translate(-132 -352.67)"/><path class="cls-26" d="M1272.93,387.51c0-.7.12-1.8.26-3h0c-1.27,2.4-2.85,3.26-4.51,3.26-2,0-3.34-1.63-3.34-3.84a8.12,8.12,0,0,1,8-8.31,10.92,10.92,0,0,1,3.12.46l-1.17,6.05a26.8,26.8,0,0,0-.51,5.38Zm1.29-10.13a5,5,0,0,0-1.39-.17c-3,0-5.45,3.14-5.47,6.36,0,1.3.45,2.57,2,2.57s3.62-2.16,4.2-5.26Z" transform="translate(-132 -352.67)"/><path class="cls-26" d="M1277.75,387.51l1.56-8.24c.26-1.29.41-2.42.55-3.38h1.78l-.29,2.28h.05a5.08,5.08,0,0,1,4.29-2.55c1.4,0,3,.8,3,3.25a11.35,11.35,0,0,1-.22,1.87l-1.3,6.77h-2l1.27-6.7a7.4,7.4,0,0,0,.17-1.49c0-1.17-.45-2-1.82-2s-3.43,1.71-4,4.59l-1.06,5.64Z" transform="translate(-132 -352.67)"/><path class="cls-26" d="M1290.68,390.15a6.21,6.21,0,0,0,3.08.76c1.94,0,3.48-1,4.17-4.15l.39-1.73h-.07a4.65,4.65,0,0,1-4,2.48c-2.32,0-3.53-2-3.53-4,0-3.93,2.89-7.85,7.37-7.85a9.45,9.45,0,0,1,3.72.82L1300,386c-.48,2.45-1.13,4.15-2.35,5.19a6.19,6.19,0,0,1-4.06,1.29,6.87,6.87,0,0,1-3.48-.81Zm8.91-12.53a4.8,4.8,0,0,0-1.92-.39c-2.9,0-4.9,3-4.92,5.91,0,1.27.46,2.78,2.23,2.78s3.43-2.16,3.87-4.44Z" transform="translate(-132 -352.67)"/><path class="cls-26" d="M1311.52,386.83a8,8,0,0,1-3.84.92c-3.07,0-4.42-2.09-4.42-4.66,0-3.51,2.59-7.47,6.34-7.47,2.21,0,3.41,1.33,3.41,3,0,3-3.44,3.87-7.73,3.79a4.68,4.68,0,0,0,.24,2.21,2.64,2.64,0,0,0,2.59,1.56,6.52,6.52,0,0,0,3.12-.81Zm-2.21-9.65c-1.9,0-3.31,1.85-3.79,3.68,3.12,0,5.57-.39,5.57-2.19C1311.09,377.71,1310.37,377.18,1309.31,377.18Z" transform="translate(-132 -352.67)"/></g><line class="cls-27" x1="1083.74" y1="46.26" x2="1091.34" y2="157.93"/><path class="cls-26" d="M1212.83,497.62a1,1,0,0,1,1.4.21l9.08,12.32,7.32-13.44a1,1,0,0,1,1.76,1l-8.08,14.81a1,1,0,0,1-.81.52,1,1,0,0,1-.87-.4l-10-13.59a.92.92,0,0,1-.19-.52A1,1,0,0,1,1212.83,497.62Z" transform="translate(-132 -352.67)"/><line class="cls-28" x1="1199.88" y1="98.76" x2="1190.62" y2="157.95"/><path class="cls-18" d="M1315.25,495.64a1,1,0,0,1,1.31.51l6.13,14,10.11-11.48a1,1,0,1,1,1.5,1.33l-11.15,12.65a1,1,0,0,1-.91.33,1,1,0,0,1-.76-.59L1314.73,497a1,1,0,0,1-.07-.55A1,1,0,0,1,1315.25,495.64Z" transform="translate(-132 -352.67)"/><g class="cls-6"><path class="cls-14" d="M1438.78,728.53h2.09V743h6.91v1.75h-9Z" transform="translate(-132 -352.67)"/><path class="cls-14" d="M1456.47,744.71l-.17-1.47h-.07a4.31,4.31,0,0,1-3.55,1.73,3.31,3.31,0,0,1-3.56-3.33c0-2.81,2.5-4.35,7-4.32v-.24a2.39,2.39,0,0,0-2.64-2.69,5.8,5.8,0,0,0-3,.86l-.47-1.39a7.21,7.21,0,0,1,3.81-1c3.55,0,4.42,2.42,4.42,4.75v4.34a16.83,16.83,0,0,0,.19,2.79Zm-.31-5.93c-2.31,0-4.92.36-4.92,2.62a1.87,1.87,0,0,0,2,2,2.9,2.9,0,0,0,2.81-1.94,2.31,2.31,0,0,0,.12-.67Z" transform="translate(-132 -352.67)"/><path class="cls-14" d="M1461.32,742.55a5.51,5.51,0,0,0,2.78.84c1.54,0,2.26-.77,2.26-1.73s-.6-1.56-2.16-2.14c-2.09-.74-3.08-1.89-3.08-3.28,0-1.88,1.52-3.41,4-3.41a5.74,5.74,0,0,1,2.86.72l-.53,1.53a4.6,4.6,0,0,0-2.38-.67c-1.24,0-1.94.72-1.94,1.59s.7,1.39,2.21,2c2,.77,3.05,1.78,3.05,3.51,0,2-1.59,3.48-4.35,3.48a6.6,6.6,0,0,1-3.26-.79Z" transform="translate(-132 -352.67)"/><path class="cls-14" d="M1473.65,729.76v3.33h3v1.61h-3V741c0,1.44.41,2.26,1.59,2.26a4.78,4.78,0,0,0,1.22-.14l.1,1.58a5.16,5.16,0,0,1-1.88.29,2.93,2.93,0,0,1-2.28-.89,4.35,4.35,0,0,1-.81-3V734.7h-1.8v-1.61h1.8v-2.78Z" transform="translate(-132 -352.67)"/><path class="cls-14" d="M1484,744.71c0-.79.1-2,.1-3v-14h2.09V735h0a4.32,4.32,0,0,1,4-2.13c2.88,0,4.92,2.4,4.89,5.93,0,4.15-2.61,6.21-5.21,6.21a4.11,4.11,0,0,1-3.88-2.18H1486l-.09,1.92Zm2.19-4.66a4.64,4.64,0,0,0,.09.77,3.26,3.26,0,0,0,3.17,2.47c2.21,0,3.53-1.8,3.53-4.46,0-2.33-1.2-4.32-3.46-4.32a3.35,3.35,0,0,0-3.21,2.59,4,4,0,0,0-.12.86Z" transform="translate(-132 -352.67)"/><path class="cls-14" d="M1500.15,729.83a1.31,1.31,0,0,1-2.62,0,1.28,1.28,0,0,1,1.32-1.32A1.25,1.25,0,0,1,1500.15,729.83Zm-2.35,14.88V733.09h2.11v11.62Z" transform="translate(-132 -352.67)"/><path class="cls-14" d="M1506,729.76v3.33h3v1.61h-3V741c0,1.44.4,2.26,1.58,2.26a4.78,4.78,0,0,0,1.22-.14l.1,1.58a5.14,5.14,0,0,1-1.87.29,2.9,2.9,0,0,1-2.28-.89,4.3,4.3,0,0,1-.82-3V734.7h-1.8v-1.61h1.8v-2.78Z" transform="translate(-132 -352.67)"/><path class="cls-14" d="M1527,738.8c0,4.3-3,6.17-5.79,6.17-3.14,0-5.57-2.3-5.57-6,0-3.89,2.55-6.17,5.76-6.17S1527,735.25,1527,738.8Zm-9.22.12c0,2.55,1.46,4.47,3.53,4.47s3.53-1.9,3.53-4.51c0-2-1-4.47-3.48-4.47S1517.74,736.72,1517.74,738.92Z" transform="translate(-132 -352.67)"/><path class="cls-14" d="M1529.84,744.71v-10h-1.64v-1.61h1.64v-.55a5.51,5.51,0,0,1,1.34-4.06,4.08,4.08,0,0,1,2.83-1.08,4.83,4.83,0,0,1,1.8.34l-.29,1.63a3.2,3.2,0,0,0-1.34-.26c-1.8,0-2.26,1.58-2.26,3.36v.62h2.81v1.61h-2.81v10Z" transform="translate(-132 -352.67)"/><path class="cls-14" d="M1541.93,744.71v-10h-1.63v-1.61h1.63v-.62c0-3.07,1.8-5.07,5.07-5.07a5.82,5.82,0,0,1,3,.77l-.6,1.61a4.47,4.47,0,0,0-2.45-.67c-2.23,0-2.88,1.56-2.88,3.41v.57h6.74v11.62h-2.08v-10H1544v10Z" transform="translate(-132 -352.67)"/><path class="cls-14" d="M1555.44,739.28a3.73,3.73,0,0,0,4,4,7.7,7.7,0,0,0,3.21-.6l.36,1.51a9.3,9.3,0,0,1-3.86.72c-3.58,0-5.71-2.35-5.71-5.86s2.06-6.26,5.45-6.26c3.79,0,4.8,3.33,4.8,5.47a6.57,6.57,0,0,1-.08,1Zm6.2-1.51c0-1.34-.56-3.43-2.93-3.43-2.14,0-3.07,2-3.24,3.43Z" transform="translate(-132 -352.67)"/><path class="cls-14" d="M1566.29,727.67h2.11v17h-2.11Z" transform="translate(-132 -352.67)"/><path class="cls-14" d="M1582,727.67v14c0,1,0,2.21.09,3h-1.89l-.1-2h0a4.29,4.29,0,0,1-4,2.28c-2.81,0-5-2.37-5-5.9,0-3.87,2.38-6.24,5.21-6.24a3.9,3.9,0,0,1,3.51,1.77h.05v-6.93Zm-2.11,10.15a3.92,3.92,0,0,0-.1-.89,3.12,3.12,0,0,0-3-2.45c-2.18,0-3.48,1.92-3.48,4.49,0,2.35,1.15,4.3,3.43,4.3a3.18,3.18,0,0,0,3.1-2.52,3.79,3.79,0,0,0,.1-.91Z" transform="translate(-132 -352.67)"/><path class="cls-14" d="M1589.5,744.71l1.41-7.49c.29-1.51.48-3.05.6-4.13h1.76c-.1.82-.2,1.63-.32,2.52h.08c.74-1.58,2-2.78,3.55-2.78a3.12,3.12,0,0,1,.55,0l-.38,2a3.48,3.48,0,0,0-.53,0c-1.73,0-3.27,2.08-3.77,4.8l-1,5.11Z" transform="translate(-132 -352.67)"/><path class="cls-14" d="M1605.36,744a8,8,0,0,1-3.84.91c-3.07,0-4.41-2.09-4.41-4.66,0-3.5,2.59-7.46,6.33-7.46,2.21,0,3.41,1.32,3.41,3,0,3.05-3.43,3.87-7.73,3.8a4.92,4.92,0,0,0,.24,2.2,2.64,2.64,0,0,0,2.59,1.57,6.51,6.51,0,0,0,3.12-.82Zm-2.21-9.65c-1.89,0-3.31,1.85-3.79,3.67,3.12,0,5.57-.38,5.57-2.18C1604.93,734.92,1604.21,734.39,1603.15,734.39Z" transform="translate(-132 -352.67)"/><path class="cls-14" d="M1620.22,727.67,1617.67,741a28.78,28.78,0,0,0-.5,3.67h-1.82l.31-2.31h-.05a5,5,0,0,1-4.18,2.57c-2.25,0-3.48-1.85-3.48-4.22,0-4.13,3.08-7.92,7.18-7.92a5.24,5.24,0,0,1,2.06.41l1-5.57Zm-3.34,7.25a3.57,3.57,0,0,0-1.92-.48c-2.78,0-4.94,2.95-4.94,6,0,1.4.48,2.86,2.18,2.86,1.54,0,3.39-1.75,3.89-4.37Z" transform="translate(-132 -352.67)"/></g><line class="cls-29" x1="1380.5" y1="402.47" x2="1390.54" y2="477.94"/><path class="cls-14" d="M1511.23,818.33a1,1,0,0,1,1.4.13l9.85,11.7,6.45-13.87a1,1,0,1,1,1.81.84l-7.1,15.3a1,1,0,0,1-.78.57,1,1,0,0,1-.9-.35l-10.86-12.91a1,1,0,0,1-.22-.51A1,1,0,0,1,1511.23,818.33Z" transform="translate(-132 -352.67)"/><g class="cls-6"><line class="cls-30" x1="858.11" y1="294.24" x2="1140" y2="294.24"/><path class="cls-26" d="M972,646.92c8.52,3.16,19.09,8.55,25.64,14.26l-5.16-14.26,5.16-14.27C991.09,638.36,980.52,643.76,972,646.92Z" transform="translate(-132 -352.67)"/></g><g class="cls-6"><path class="cls-26" d="M398.78,728.53h8.71v1.75h-6.62v5.38H407v1.73h-6.12v7.32h-2.09Z" transform="translate(-132 -352.67)"/><path class="cls-26" d="M412.13,729.83a1.31,1.31,0,0,1-2.62,0,1.28,1.28,0,0,1,1.32-1.32A1.25,1.25,0,0,1,412.13,729.83Zm-2.36,14.88V733.09h2.12v11.62Z" transform="translate(-132 -352.67)"/><path class="cls-26" d="M415.39,736.72c0-1.37,0-2.55-.1-3.63h1.85l.07,2.28h.1a3.48,3.48,0,0,1,3.22-2.54,2.25,2.25,0,0,1,.6.07v2a3.14,3.14,0,0,0-.72-.07,3,3,0,0,0-2.84,2.71,7.12,7.12,0,0,0-.09,1v6.19h-2.09Z" transform="translate(-132 -352.67)"/><path class="cls-26" d="M423,742.55a5.51,5.51,0,0,0,2.78.84c1.54,0,2.26-.77,2.26-1.73s-.6-1.56-2.16-2.14c-2.09-.74-3.07-1.89-3.07-3.28,0-1.88,1.51-3.41,4-3.41a5.73,5.73,0,0,1,2.85.72l-.53,1.53a4.55,4.55,0,0,0-2.37-.67c-1.25,0-2,.72-2,1.59s.7,1.39,2.21,2c2,.77,3,1.78,3,3.51,0,2-1.58,3.48-4.34,3.48a6.64,6.64,0,0,1-3.27-.79Z" transform="translate(-132 -352.67)"/><path class="cls-26" d="M435.29,729.76v3.33h3v1.61h-3V741c0,1.44.4,2.26,1.58,2.26a4.78,4.78,0,0,0,1.22-.14l.1,1.58a5.14,5.14,0,0,1-1.87.29,2.9,2.9,0,0,1-2.28-.89,4.3,4.3,0,0,1-.82-3V734.7h-1.8v-1.61h1.8v-2.78Z" transform="translate(-132 -352.67)"/><path class="cls-26" d="M445.68,744.71c0-.79.09-2,.09-3v-14h2.09V735h.05a4.33,4.33,0,0,1,4-2.13c2.88,0,4.92,2.4,4.9,5.93,0,4.15-2.62,6.21-5.21,6.21a4.13,4.13,0,0,1-3.89-2.18h-.07l-.1,1.92Zm2.18-4.66a3.77,3.77,0,0,0,.1.77,3.24,3.24,0,0,0,3.16,2.47c2.21,0,3.53-1.8,3.53-4.46,0-2.33-1.2-4.32-3.45-4.32A3.37,3.37,0,0,0,448,737.1a4,4,0,0,0-.12.86Z" transform="translate(-132 -352.67)"/><path class="cls-26" d="M461.78,729.83a1.31,1.31,0,0,1-2.62,0,1.29,1.29,0,0,1,1.32-1.32A1.25,1.25,0,0,1,461.78,729.83Zm-2.35,14.88V733.09h2.11v11.62Z" transform="translate(-132 -352.67)"/><path class="cls-26" d="M467.59,729.76v3.33h3v1.61h-3V741c0,1.44.41,2.26,1.58,2.26a4.93,4.93,0,0,0,1.23-.14l.09,1.58a5.1,5.1,0,0,1-1.87.29,2.91,2.91,0,0,1-2.28-.89,4.3,4.3,0,0,1-.82-3V734.7h-1.8v-1.61h1.8v-2.78Z" transform="translate(-132 -352.67)"/><path class="cls-26" d="M488.59,738.8c0,4.3-3,6.17-5.79,6.17-3.14,0-5.56-2.3-5.56-6,0-3.89,2.54-6.17,5.76-6.17S488.59,735.25,488.59,738.8Zm-9.22.12c0,2.55,1.47,4.47,3.53,4.47s3.53-1.9,3.53-4.51c0-2-1-4.47-3.48-4.47S479.37,736.72,479.37,738.92Z" transform="translate(-132 -352.67)"/><path class="cls-26" d="M491.47,744.71v-10h-1.63v-1.61h1.63v-.55a5.51,5.51,0,0,1,1.34-4.06,4.08,4.08,0,0,1,2.83-1.08,4.79,4.79,0,0,1,1.8.34l-.28,1.63a3.28,3.28,0,0,0-1.35-.26c-1.8,0-2.25,1.58-2.25,3.36v.62h2.8v1.61h-2.8v10Z" transform="translate(-132 -352.67)"/><path class="cls-26" d="M503.56,744.71v-10h-1.63v-1.61h1.63v-.62c0-3.07,1.8-5.07,5.07-5.07a5.82,5.82,0,0,1,2.95.77l-.6,1.61a4.44,4.44,0,0,0-2.45-.67c-2.23,0-2.88,1.56-2.88,3.41v.57h6.75v11.62h-2.09v-10h-4.66v10Z" transform="translate(-132 -352.67)"/><path class="cls-26" d="M517.08,739.28a3.72,3.72,0,0,0,4,4,7.79,7.79,0,0,0,3.22-.6l.36,1.51a9.39,9.39,0,0,1-3.87.72c-3.57,0-5.71-2.35-5.71-5.86s2.06-6.26,5.45-6.26c3.79,0,4.8,3.33,4.8,5.47a8.79,8.79,0,0,1-.07,1Zm6.19-1.51c0-1.34-.55-3.43-2.93-3.43-2.14,0-3.07,2-3.24,3.43Z" transform="translate(-132 -352.67)"/><path class="cls-26" d="M527.92,727.67H530v17h-2.12Z" transform="translate(-132 -352.67)"/><path class="cls-26" d="M543.62,727.67v14c0,1,0,2.21.1,3h-1.9l-.1-2h0a4.3,4.3,0,0,1-4,2.28c-2.81,0-5-2.37-5-5.9,0-3.87,2.37-6.24,5.21-6.24a3.9,3.9,0,0,1,3.5,1.77h0v-6.93Zm-2.11,10.15a3.92,3.92,0,0,0-.1-.89,3.11,3.11,0,0,0-3-2.45c-2.18,0-3.48,1.92-3.48,4.49,0,2.35,1.16,4.3,3.44,4.3a3.17,3.17,0,0,0,3.09-2.52,3.79,3.79,0,0,0,.1-.91Z" transform="translate(-132 -352.67)"/><path class="cls-26" d="M562.27,737.68c0,3.57-2.55,7.29-6.44,7.29-2.9,0-4.53-2.16-4.53-4.77,0-3.82,2.66-7.37,6.43-7.37C560.88,732.83,562.27,735.2,562.27,737.68Zm-8.91,2.44c0,1.9,1,3.27,2.74,3.27,2.35,0,4.13-3,4.13-5.74,0-1.34-.63-3.24-2.71-3.24C555,734.41,553.34,737.46,553.36,740.12Z" transform="translate(-132 -352.67)"/><path class="cls-26" d="M563.66,744.71l1.41-7.49c.29-1.51.48-3.05.6-4.13h1.76c-.1.82-.2,1.63-.32,2.52h.08c.74-1.58,2-2.78,3.55-2.78a3.12,3.12,0,0,1,.55,0l-.38,2a3.37,3.37,0,0,0-.53,0c-1.73,0-3.27,2.08-3.77,4.8l-1,5.11Z" transform="translate(-132 -352.67)"/><path class="cls-26" d="M578.63,744.71a28.47,28.47,0,0,1,.27-3h0c-1.27,2.4-2.86,3.26-4.51,3.26-2,0-3.34-1.63-3.34-3.84a8.11,8.11,0,0,1,8-8.3,10.94,10.94,0,0,1,3.12.45L581,739.33a26.08,26.08,0,0,0-.51,5.38Zm1.3-10.13a5.46,5.46,0,0,0-1.39-.17c-3,0-5.45,3.15-5.47,6.36,0,1.3.45,2.57,2,2.57s3.62-2.16,4.2-5.26Z" transform="translate(-132 -352.67)"/><path class="cls-26" d="M583.46,744.71l1.56-8.23c.26-1.3.41-2.43.55-3.39h1.78l-.29,2.28h.05a5.07,5.07,0,0,1,4.29-2.54c1.39,0,3,.79,3,3.24a11.14,11.14,0,0,1-.21,1.87l-1.3,6.77h-2l1.27-6.7a7.31,7.31,0,0,0,.17-1.49c0-1.17-.46-2-1.82-2s-3.44,1.71-4,4.59l-1.06,5.64Z" transform="translate(-132 -352.67)"/><path class="cls-26" d="M596.39,747.35a6.2,6.2,0,0,0,3.08.77c1.94,0,3.48-1,4.17-4.16l.39-1.72H604a4.63,4.63,0,0,1-4,2.47c-2.33,0-3.53-2-3.53-4,0-3.94,2.88-7.85,7.37-7.85a9.46,9.46,0,0,1,3.72.81l-1.77,9.6c-.48,2.45-1.13,4.16-2.36,5.19a6.1,6.1,0,0,1-4.05,1.3,6.87,6.87,0,0,1-3.48-.82Zm8.91-12.53a4.83,4.83,0,0,0-1.92-.38c-2.91,0-4.9,3-4.92,5.9,0,1.27.45,2.78,2.23,2.78s3.43-2.16,3.86-4.44Z" transform="translate(-132 -352.67)"/><path class="cls-26" d="M617.23,744a8.07,8.07,0,0,1-3.84.91c-3.08,0-4.42-2.09-4.42-4.66,0-3.5,2.59-7.46,6.34-7.46,2.2,0,3.4,1.32,3.4,3,0,3.05-3.43,3.87-7.72,3.8a4.65,4.65,0,0,0,.24,2.2,2.63,2.63,0,0,0,2.59,1.57,6.51,6.51,0,0,0,3.12-.82ZM615,734.39c-1.9,0-3.31,1.85-3.79,3.67,3.12,0,5.56-.38,5.56-2.18C616.79,734.92,616.07,734.39,615,734.39Z" transform="translate(-132 -352.67)"/></g><line class="cls-27" x1="360.5" y1="402.47" x2="351.16" y2="477.94"/><path class="cls-26" d="M475.31,815.87a1,1,0,0,1,1.33.47l6.57,13.82,9.74-11.8a1,1,0,0,1,1.55,1.28l-10.74,13a1,1,0,0,1-.9.36,1,1,0,0,1-.78-.56l-7.24-15.24a.9.9,0,0,1-.09-.55A1,1,0,0,1,475.31,815.87Z" transform="translate(-132 -352.67)"/><g class="cls-6"><path class="cls-18" d="M1604.71,401.33h2.08v14.42h6.92v1.76h-9Z" transform="translate(-132 -352.67)"/><path class="cls-18" d="M1622.39,417.51l-.16-1.47h-.08a4.31,4.31,0,0,1-3.55,1.73,3.31,3.31,0,0,1-3.55-3.34c0-2.81,2.5-4.34,7-4.32v-.24a2.39,2.39,0,0,0-2.64-2.69,5.74,5.74,0,0,0-3,.87l-.48-1.39a7.16,7.16,0,0,1,3.82-1c3.55,0,4.41,2.43,4.41,4.76v4.34a16.91,16.91,0,0,0,.19,2.79Zm-.31-5.93c-2.3-.05-4.92.36-4.92,2.61a1.87,1.87,0,0,0,2,2,2.88,2.88,0,0,0,2.81-1.94,2.32,2.32,0,0,0,.12-.68Z" transform="translate(-132 -352.67)"/><path class="cls-18" d="M1627.24,415.35a5.65,5.65,0,0,0,2.79.84c1.53,0,2.25-.77,2.25-1.73s-.6-1.56-2.16-2.14c-2.09-.74-3.07-1.9-3.07-3.29,0-1.87,1.51-3.41,4-3.41a5.81,5.81,0,0,1,2.85.72l-.52,1.54a4.53,4.53,0,0,0-2.38-.67c-1.25,0-2,.72-2,1.58s.7,1.4,2.21,2c2,.77,3,1.78,3,3.51,0,2-1.58,3.48-4.34,3.48a6.67,6.67,0,0,1-3.27-.8Z" transform="translate(-132 -352.67)"/><path class="cls-18" d="M1639.58,402.55v3.34h3v1.61h-3v6.26c0,1.44.41,2.26,1.58,2.26a4.42,4.42,0,0,0,1.23-.15l.09,1.59a5.1,5.1,0,0,1-1.87.29,3,3,0,0,1-2.28-.89,4.33,4.33,0,0,1-.82-3V407.5h-1.8v-1.61h1.8V403.1Z" transform="translate(-132 -352.67)"/><path class="cls-18" d="M1650,417.51c0-.8.09-2,.09-3V400.46h2.09v7.3h0a4.32,4.32,0,0,1,4-2.14c2.88,0,4.92,2.41,4.9,5.93,0,4.16-2.62,6.22-5.21,6.22a4.14,4.14,0,0,1-3.89-2.18h-.07l-.1,1.92Zm2.18-4.66a3.86,3.86,0,0,0,.1.77,3.26,3.26,0,0,0,3.17,2.47c2.21,0,3.53-1.8,3.53-4.47,0-2.32-1.2-4.32-3.46-4.32a3.38,3.38,0,0,0-3.22,2.6,4,4,0,0,0-.12.86Z" transform="translate(-132 -352.67)"/><path class="cls-18" d="M1666.07,402.62a1.31,1.31,0,0,1-2.61,0,1.29,1.29,0,0,1,1.32-1.32A1.25,1.25,0,0,1,1666.07,402.62Zm-2.35,14.89V405.89h2.11v11.62Z" transform="translate(-132 -352.67)"/><path class="cls-18" d="M1671.88,402.55v3.34h3v1.61h-3v6.26c0,1.44.41,2.26,1.58,2.26a4.31,4.31,0,0,0,1.23-.15l.09,1.59a5.06,5.06,0,0,1-1.87.29,3,3,0,0,1-2.28-.89,4.33,4.33,0,0,1-.81-3V407.5H1668v-1.61h1.8V403.1Z" transform="translate(-132 -352.67)"/><path class="cls-18" d="M1692.88,411.6c0,4.3-3,6.17-5.78,6.17-3.15,0-5.57-2.3-5.57-6,0-3.88,2.54-6.17,5.76-6.17S1692.88,408.05,1692.88,411.6Zm-9.22.12c0,2.55,1.47,4.47,3.53,4.47s3.53-1.9,3.53-4.52c0-2-1-4.46-3.48-4.46S1683.66,409.51,1683.66,411.72Z" transform="translate(-132 -352.67)"/><path class="cls-18" d="M1695.76,417.51v-10h-1.63v-1.61h1.63v-.55a5.49,5.49,0,0,1,1.34-4.06,4.05,4.05,0,0,1,2.84-1.08,4.87,4.87,0,0,1,1.8.34l-.29,1.63a3.08,3.08,0,0,0-1.35-.27c-1.8,0-2.25,1.59-2.25,3.36v.63h2.81v1.61h-2.81v10Z" transform="translate(-132 -352.67)"/><path class="cls-18" d="M1707.86,417.51v-10h-1.64v-1.61h1.64v-.63c0-3.07,1.8-5.06,5.06-5.06a5.82,5.82,0,0,1,2.95.77l-.6,1.61a4.41,4.41,0,0,0-2.45-.68c-2.23,0-2.88,1.56-2.88,3.41v.58h6.75v11.62h-2.09v-10h-4.66v10Z" transform="translate(-132 -352.67)"/><path class="cls-18" d="M1721.37,412.08a3.72,3.72,0,0,0,4,4,7.6,7.6,0,0,0,3.22-.6l.36,1.52a9.56,9.56,0,0,1-3.87.72c-3.57,0-5.71-2.36-5.71-5.86s2.07-6.27,5.45-6.27c3.79,0,4.8,3.34,4.8,5.48a8.79,8.79,0,0,1-.07,1Zm6.19-1.51c0-1.34-.55-3.43-2.93-3.43-2.13,0-3.07,2-3.24,3.43Z" transform="translate(-132 -352.67)"/><path class="cls-18" d="M1732.21,400.46h2.12v17.05h-2.12Z" transform="translate(-132 -352.67)"/><path class="cls-18" d="M1747.91,400.46v14.05c0,1,0,2.2.1,3h-1.9l-.09-2h0a4.3,4.3,0,0,1-4,2.28c-2.81,0-5-2.38-5-5.9,0-3.87,2.37-6.25,5.21-6.25a3.88,3.88,0,0,1,3.5,1.78h0v-6.94Zm-2.11,10.16a3.33,3.33,0,0,0-.1-.89,3.1,3.1,0,0,0-3-2.45c-2.18,0-3.47,1.92-3.47,4.49,0,2.35,1.15,4.3,3.43,4.3a3.17,3.17,0,0,0,3.09-2.52,3.37,3.37,0,0,0,.1-.92Z" transform="translate(-132 -352.67)"/><path class="cls-18" d="M1758,405.89l1.15,6.26c.26,1.32.41,2.19.53,3.05h0c.32-.74.65-1.56,1.25-2.83l3-6.48H1766l-4.35,8.83a21.66,21.66,0,0,1-4,6.1,7.19,7.19,0,0,1-3.38,2l-.48-1.7a7.72,7.72,0,0,0,2.14-1.13,9.16,9.16,0,0,0,2.23-2.66.89.89,0,0,0,.07-.53l-2.33-10.92Z" transform="translate(-132 -352.67)"/><path class="cls-18" d="M1774.19,416.83a7.92,7.92,0,0,1-3.84.92c-3.07,0-4.42-2.09-4.42-4.66,0-3.51,2.6-7.47,6.34-7.47,2.21,0,3.41,1.33,3.41,3,0,3-3.43,3.87-7.73,3.79a4.81,4.81,0,0,0,.24,2.21,2.65,2.65,0,0,0,2.59,1.56,6.52,6.52,0,0,0,3.12-.81Zm-2.21-9.65c-1.89,0-3.31,1.85-3.79,3.68,3.12,0,5.57-.39,5.57-2.19C1773.76,407.71,1773,407.18,1772,407.18Z" transform="translate(-132 -352.67)"/><path class="cls-18" d="M1776.71,417.51l3.24-17.05h2l-3.26,17.05Z" transform="translate(-132 -352.67)"/><path class="cls-18" d="M1782.21,417.51l3.24-17.05h2l-3.27,17.05Z" transform="translate(-132 -352.67)"/><path class="cls-18" d="M1798.81,410.47c0,3.58-2.54,7.3-6.43,7.3-2.9,0-4.53-2.16-4.53-4.78,0-3.81,2.66-7.37,6.43-7.37C1797.42,405.62,1798.81,408,1798.81,410.47Zm-8.9,2.45c0,1.9,1,3.27,2.74,3.27,2.35,0,4.12-3,4.12-5.74,0-1.34-.62-3.24-2.71-3.24C1791.57,407.21,1789.89,410.26,1789.91,412.92Z" transform="translate(-132 -352.67)"/><path class="cls-18" d="M1802.8,405.89l.41,6.53a28.18,28.18,0,0,1,0,3.12h.08a25.65,25.65,0,0,1,1.27-2.91l3.45-6.74h1.73l.72,6.62a25.68,25.68,0,0,1,.19,3h0c.31-.94.65-1.83,1.11-2.93l3.14-6.72h2l-5.74,11.62h-1.85l-.77-6.32a27.12,27.12,0,0,1-.16-3.07h0c-.48,1.11-.82,2-1.35,3l-3.33,6.36h-1.85l-1.08-11.62Z" transform="translate(-132 -352.67)"/></g><line class="cls-28" x1="1583.74" y1="76.26" x2="1591.28" y2="157.93"/><path class="cls-18" d="M1712.46,497.88a1,1,0,0,1,1.41.18l9.37,12.09,7-13.61a1,1,0,0,1,1.34-.43,1,1,0,0,1,.43,1.35l-7.71,15a1,1,0,0,1-1.68.16l-10.33-13.34a1.06,1.06,0,0,1-.21-.52A1,1,0,0,1,1712.46,497.88Z" transform="translate(-132 -352.67)"/><g class="cls-6"><path class="cls-31" d="M240.65,1047.26a25.19,25.19,0,0,1,4-.31,6.63,6.63,0,0,1,4.54,1.35,4.35,4.35,0,0,1,1.41,3.38,4.8,4.8,0,0,1-1.24,3.46,6.75,6.75,0,0,1-5,1.77,7.22,7.22,0,0,1-1.68-.14v6.48h-2.09Zm2.09,7.8a7,7,0,0,0,1.73.17c2.52,0,4.05-1.22,4.05-3.45s-1.51-3.17-3.81-3.17a8.53,8.53,0,0,0-2,.17Z" transform="translate(-132 -352.67)"/><path class="cls-31" d="M259.16,1063.25l-.17-1.46h-.07a4.33,4.33,0,0,1-3.55,1.72,3.31,3.31,0,0,1-3.56-3.33c0-2.81,2.5-4.35,7-4.32v-.24a2.4,2.4,0,0,0-2.64-2.69,5.8,5.8,0,0,0-3,.86l-.48-1.39a7.24,7.24,0,0,1,3.82-1c3.55,0,4.42,2.42,4.42,4.75v4.34a15.82,15.82,0,0,0,.19,2.79Zm-.31-5.93c-2.31,0-4.93.36-4.93,2.62a1.87,1.87,0,0,0,2,2,2.88,2.88,0,0,0,2.8-1.94,2,2,0,0,0,.13-.67Z" transform="translate(-132 -352.67)"/><path class="cls-31" d="M274.33,1046.21v14c0,1,0,2.21.09,3h-1.9l-.09-2h-.05a4.29,4.29,0,0,1-4,2.28c-2.81,0-5-2.37-5-5.9,0-3.87,2.38-6.24,5.21-6.24a3.87,3.87,0,0,1,3.5,1.77h0v-6.93Zm-2.12,10.15a3.9,3.9,0,0,0-.09-.89,3.12,3.12,0,0,0-3.05-2.45c-2.19,0-3.48,1.92-3.48,4.49,0,2.35,1.15,4.3,3.43,4.3a3.18,3.18,0,0,0,3.1-2.52,3.8,3.8,0,0,0,.09-.91Z" transform="translate(-132 -352.67)"/><path class="cls-31" d="M287.86,1046.21v14c0,1,0,2.21.1,3h-1.9l-.1-2h0a4.3,4.3,0,0,1-4,2.28c-2.81,0-5-2.37-5-5.9,0-3.87,2.37-6.24,5.21-6.24a3.9,3.9,0,0,1,3.5,1.77h.05v-6.93Zm-2.11,10.15a3.92,3.92,0,0,0-.1-.89,3.11,3.11,0,0,0-3-2.45c-2.18,0-3.48,1.92-3.48,4.49,0,2.35,1.16,4.3,3.44,4.3a3.17,3.17,0,0,0,3.09-2.52,3.79,3.79,0,0,0,.1-.91Z" transform="translate(-132 -352.67)"/><path class="cls-31" d="M293.72,1048.37a1.31,1.31,0,0,1-2.62,0,1.28,1.28,0,0,1,1.32-1.32A1.25,1.25,0,0,1,293.72,1048.37Zm-2.36,14.88v-11.62h2.12v11.62Z" transform="translate(-132 -352.67)"/><path class="cls-31" d="M297,1054.78c0-1.2,0-2.19-.1-3.15h1.88l.12,1.92h0a4.28,4.28,0,0,1,3.84-2.18c1.61,0,4.11,1,4.11,4.94v6.94h-2.11v-6.7c0-1.87-.7-3.43-2.69-3.43a3,3,0,0,0-2.83,2.16,2.88,2.88,0,0,0-.15,1v7H297Z" transform="translate(-132 -352.67)"/><path class="cls-31" d="M320.31,1051.63c-.05.84-.1,1.78-.1,3.19v6.75c0,2.66-.53,4.3-1.65,5.3a6.15,6.15,0,0,1-4.23,1.4,7.51,7.51,0,0,1-3.86-1l.53-1.61a6.5,6.5,0,0,0,3.4.91c2.16,0,3.75-1.13,3.75-4.06v-1.29h0a4.15,4.15,0,0,1-3.7,1.94c-2.88,0-4.94-2.45-4.94-5.66,0-3.94,2.57-6.17,5.23-6.17a3.87,3.87,0,0,1,3.63,2h0l.1-1.75Zm-2.19,4.59a2.87,2.87,0,0,0-.12-1,3,3,0,0,0-2.95-2.24c-2,0-3.45,1.71-3.45,4.4,0,2.28,1.15,4.17,3.43,4.17a3.09,3.09,0,0,0,2.93-2.16,3.68,3.68,0,0,0,.16-1.13Z" transform="translate(-132 -352.67)"/></g><path class="cls-32" d="M283,1035.13c0-39.75-98-26.83-100-104.49" transform="translate(-132 -352.67)"/><path class="cls-31" d="M193.23,943.92a1,1,0,0,1-1.4-.25l-8.72-12.57-7.7,13.22a1,1,0,0,1-1.37.36,1,1,0,0,1-.36-1.37l8.49-14.57a1,1,0,0,1,1.69-.07l9.62,13.86a1.05,1.05,0,0,1,.18.53A1,1,0,0,1,193.23,943.92Z" transform="translate(-132 -352.67)"/><line class="cls-33" x1="151" y1="682.46" x2="141.22" y2="577.96"/><path class="cls-31" d="M284.05,943.35a1,1,0,0,1-1.4-.18l-9.38-12.08-7,13.61a1,1,0,1,1-1.78-.91l7.69-15a1,1,0,0,1,.8-.54,1,1,0,0,1,.88.38L284.23,942a1,1,0,0,1,.21.52A1,1,0,0,1,284.05,943.35Z" transform="translate(-132 -352.67)"/><path class="cls-32" d="M283,1035.13c0-36.68,97.14-50.18,99.94-104.48" transform="translate(-132 -352.67)"/><path class="cls-31" d="M392.15,944.57a1,1,0,0,1-1.37-.34l-7.86-13.13-8.57,12.67a1,1,0,1,1-1.66-1.12l9.45-14a1,1,0,0,1,.86-.44,1,1,0,0,1,.83.49l8.66,14.47a1,1,0,0,1,.15.54A1,1,0,0,1,392.15,944.57Z" transform="translate(-132 -352.67)"/><g class="cls-6"><path class="cls-3" d="M773.82,390.3h2.09v14.43h6.91v1.75h-9Z" transform="translate(-132 -352.67)"/><path class="cls-3" d="M791.51,406.48l-.17-1.46h-.07a4.32,4.32,0,0,1-3.55,1.72,3.3,3.3,0,0,1-3.55-3.33c0-2.81,2.49-4.35,7-4.32v-.24a2.39,2.39,0,0,0-2.64-2.69,5.83,5.83,0,0,0-3,.86l-.48-1.39a7.23,7.23,0,0,1,3.81-1c3.56,0,4.42,2.42,4.42,4.75v4.35a16.79,16.79,0,0,0,.19,2.78Zm-.31-5.93c-2.3-.05-4.92.36-4.92,2.62a1.86,1.86,0,0,0,2,2,2.9,2.9,0,0,0,2.81-1.94,2.31,2.31,0,0,0,.12-.67Z" transform="translate(-132 -352.67)"/><path class="cls-3" d="M796.36,404.32a5.51,5.51,0,0,0,2.78.84c1.54,0,2.26-.77,2.26-1.73s-.6-1.56-2.16-2.13c-2.09-.75-3.07-1.9-3.07-3.29,0-1.87,1.51-3.41,4-3.41a5.84,5.84,0,0,1,2.85.72l-.53,1.54a4.45,4.45,0,0,0-2.37-.68c-1.25,0-2,.72-2,1.59s.7,1.39,2.21,2c2,.76,3.05,1.77,3.05,3.5,0,2-1.58,3.48-4.34,3.48a6.64,6.64,0,0,1-3.27-.79Z" transform="translate(-132 -352.67)"/><path class="cls-3" d="M808.7,391.53v3.33h3v1.61h-3v6.27c0,1.44.4,2.25,1.58,2.25a4.78,4.78,0,0,0,1.22-.14l.1,1.58a5.14,5.14,0,0,1-1.87.29,2.9,2.9,0,0,1-2.28-.89,4.28,4.28,0,0,1-.82-3v-6.34h-1.8v-1.61h1.8v-2.78Z" transform="translate(-132 -352.67)"/><path class="cls-3" d="M819.09,406.48c0-.79.09-2,.09-3v-14h2.09v7.3h.05a4.32,4.32,0,0,1,4-2.14c2.88,0,4.92,2.4,4.9,5.93,0,4.15-2.62,6.21-5.21,6.21a4.13,4.13,0,0,1-3.89-2.18H821l-.1,1.92Zm2.18-4.66a3.77,3.77,0,0,0,.1.77,3.25,3.25,0,0,0,3.17,2.47c2.2,0,3.52-1.8,3.52-4.46,0-2.33-1.2-4.32-3.45-4.32a3.37,3.37,0,0,0-3.22,2.59,4.06,4.06,0,0,0-.12.87Z" transform="translate(-132 -352.67)"/><path class="cls-3" d="M835.19,391.6a1.31,1.31,0,0,1-2.61,0,1.29,1.29,0,0,1,1.31-1.32A1.25,1.25,0,0,1,835.19,391.6Zm-2.35,14.88V394.86H835v11.62Z" transform="translate(-132 -352.67)"/><path class="cls-3" d="M841,391.53v3.33h3v1.61h-3v6.27c0,1.44.41,2.25,1.58,2.25a4.87,4.87,0,0,0,1.23-.14l.09,1.58a5.06,5.06,0,0,1-1.87.29,2.91,2.91,0,0,1-2.28-.89,4.28,4.28,0,0,1-.82-3v-6.34h-1.8v-1.61h1.8v-2.78Z" transform="translate(-132 -352.67)"/><path class="cls-3" d="M862,400.58c0,4.29-3,6.16-5.79,6.16-3.14,0-5.56-2.3-5.56-6,0-3.89,2.54-6.17,5.76-6.17S862,397,862,400.58Zm-9.22.12c0,2.54,1.47,4.46,3.53,4.46s3.53-1.9,3.53-4.51c0-2-1-4.47-3.48-4.47S852.78,398.49,852.78,400.7Z" transform="translate(-132 -352.67)"/><path class="cls-3" d="M864.88,406.48v-10h-1.63v-1.61h1.63v-.55a5.51,5.51,0,0,1,1.34-4.06,4.08,4.08,0,0,1,2.83-1.08,4.79,4.79,0,0,1,1.8.34l-.28,1.63a3.28,3.28,0,0,0-1.35-.26c-1.8,0-2.25,1.58-2.25,3.36v.62h2.8v1.61H867v10Z" transform="translate(-132 -352.67)"/><path class="cls-3" d="M877,406.48v-10h-1.63v-1.61H877v-.62c0-3.07,1.8-5.07,5.07-5.07a5.82,5.82,0,0,1,3,.77l-.6,1.61a4.44,4.44,0,0,0-2.45-.67c-2.23,0-2.88,1.56-2.88,3.41v.57h6.75v11.62h-2.09v-10h-4.66v10Z" transform="translate(-132 -352.67)"/><path class="cls-3" d="M890.49,401.06a3.72,3.72,0,0,0,4,4,7.79,7.79,0,0,0,3.22-.6l.36,1.51a9.39,9.39,0,0,1-3.87.72c-3.57,0-5.71-2.35-5.71-5.86s2.06-6.26,5.45-6.26c3.79,0,4.8,3.34,4.8,5.47a9.22,9.22,0,0,1-.07,1Zm6.19-1.52c0-1.34-.55-3.43-2.93-3.43-2.14,0-3.07,2-3.24,3.43Z" transform="translate(-132 -352.67)"/><path class="cls-3" d="M901.33,389.44h2.12v17h-2.12Z" transform="translate(-132 -352.67)"/><path class="cls-3" d="M917,389.44v14c0,1,0,2.21.1,3h-1.9l-.1-2h0a4.3,4.3,0,0,1-4,2.28c-2.81,0-5-2.37-5-5.9,0-3.86,2.37-6.24,5.21-6.24a3.88,3.88,0,0,1,3.5,1.78h0v-6.94Zm-2.11,10.15a3.92,3.92,0,0,0-.1-.89,3.1,3.1,0,0,0-3.05-2.44c-2.18,0-3.48,1.92-3.48,4.48,0,2.36,1.16,4.3,3.44,4.3a3.17,3.17,0,0,0,3.09-2.52,3.79,3.79,0,0,0,.1-.91Z" transform="translate(-132 -352.67)"/><path class="cls-3" d="M929.68,389.44,928.14,397h.05a4.87,4.87,0,0,1,4.08-2.38c2.54,0,3.5,2.11,3.5,4.18,0,3.55-2.56,8-7.22,8-2,0-3.58-.84-3.58-3a12.36,12.36,0,0,1,.19-1.8l2.52-12.5ZM927.16,402a5.15,5.15,0,0,0-.15,1.47c0,1.1.63,1.72,1.88,1.72,3,0,4.82-3.57,4.82-6.14,0-1.44-.62-2.78-2.21-2.78s-3.5,1.77-4.08,4.51Z" transform="translate(-132 -352.67)"/><path class="cls-3" d="M937.16,406.48l3.25-17h2l-3.27,17Z" transform="translate(-132 -352.67)"/><path class="cls-3" d="M954,394.86l-1.56,8.24c-.25,1.29-.41,2.42-.53,3.38h-1.8l.31-2.18h0a5.16,5.16,0,0,1-4.1,2.44c-1.49,0-3-.72-3-3.36a10.92,10.92,0,0,1,.21-1.94l1.25-6.58h2l-1.22,6.48a8.17,8.17,0,0,0-.22,1.71c0,1.2.51,2,1.88,2s3.29-1.68,3.77-4.24l1.12-6Z" transform="translate(-132 -352.67)"/><path class="cls-3" d="M963.64,405.81a8.07,8.07,0,0,1-3.84.91c-3.08,0-4.42-2.09-4.42-4.66,0-3.5,2.59-7.46,6.34-7.46,2.2,0,3.4,1.32,3.4,3,0,3-3.43,3.86-7.72,3.79a4.71,4.71,0,0,0,.24,2.21,2.64,2.64,0,0,0,2.59,1.56,6.51,6.51,0,0,0,3.12-.82Zm-2.21-9.65c-1.9,0-3.31,1.85-3.79,3.67,3.12,0,5.56-.38,5.56-2.18C963.2,396.69,962.48,396.16,961.43,396.16Z" transform="translate(-132 -352.67)"/></g><line class="cls-34" x1="742.86" y1="65.24" x2="747.74" y2="157.92"/><path class="cls-3" d="M869.43,497.45a1,1,0,0,1,1.4.24l8.88,12.45,7.53-13.32a1,1,0,0,1,1.36-.38,1,1,0,0,1,.38,1.37l-8.3,14.68a1,1,0,0,1-1.69.09l-9.79-13.73a1,1,0,0,1-.19-.53A1,1,0,0,1,869.43,497.45Z" transform="translate(-132 -352.67)"/><circle class="cls-35" cx="140" cy="294.24" r="16"/><g class="cls-4"><path class="cls-22" d="M271.17,642.48h0l-2.48,1.18-.5-2.28,3.44-1.6h2.52v13h-2.94Z" transform="translate(-132 -352.67)"/></g><circle class="cls-36" cx="543" cy="294.24" r="16"/><g class="cls-4"><path class="cls-25" d="M670.29,652.79v-1.85l1.68-1.52c2.84-2.54,4.22-4,4.26-5.52,0-1.06-.64-1.9-2.14-1.9a4.71,4.71,0,0,0-2.78,1.08l-.86-2.18a7.2,7.2,0,0,1,4.26-1.34c2.94,0,4.56,1.72,4.56,4.08,0,2.18-1.58,3.92-3.46,5.6l-1.2,1v0h4.9v2.51Z" transform="translate(-132 -352.67)"/></g><circle class="cls-37" cx="1000" cy="294.24" r="16"/><g class="cls-4"><path class="cls-38" d="M1132.67,652.79v-3.11h-5.76v-2l4.92-7.92h3.72v7.62h1.56v2.28h-1.56v3.11Zm0-5.39v-2.88c0-.78,0-1.58.1-2.42h-.08c-.42.84-.76,1.6-1.2,2.42l-1.74,2.84v0Z" transform="translate(-132 -352.67)"/></g><circle class="cls-39" cx="1403" cy="294.24" r="16"/><g class="cls-4"><path class="cls-18" d="M1530.83,649.8a7.17,7.17,0,0,0,3,.8c1.58,0,2.38-.76,2.38-1.74,0-1.28-1.28-1.86-2.62-1.86h-1.24v-2.18h1.18c1,0,2.32-.4,2.32-1.5,0-.78-.64-1.36-1.92-1.36a5.93,5.93,0,0,0-2.72.78l-.62-2.2a8.15,8.15,0,0,1,4-1c2.78,0,4.32,1.46,4.32,3.24a3.11,3.11,0,0,1-2.38,3v0a3.23,3.23,0,0,1,2.82,3.16c0,2.31-2,4-5.32,4a7.58,7.58,0,0,1-3.86-.92Z" transform="translate(-132 -352.67)"/></g><circle class="cls-37" cx="563" cy="611.24" r="16"/><g class="cls-4"><path class="cls-38" d="M699,959.28h-5l-.28,2a5.63,5.63,0,0,1,.84,0,6,6,0,0,1,3.42.94,3.7,3.7,0,0,1,1.58,3.26c0,2.43-2.08,4.56-5.58,4.56a8.12,8.12,0,0,1-3.62-.74l.54-2.28a7.47,7.47,0,0,0,2.94.64c1.26,0,2.6-.6,2.6-2s-1.06-2.16-3.66-2.16a11.22,11.22,0,0,0-1.76.12l.86-6.82H699Z" transform="translate(-132 -352.67)"/></g><circle class="cls-40" cx="1130" cy="611.24" r="16"/><g class="cls-4"><path class="cls-41" d="M1265.59,958.94a8.36,8.36,0,0,0-1.18,0c-2.7.22-3.9,1.6-4.24,3.12h.06a3.66,3.66,0,0,1,2.76-1,4,4,0,0,1,4,4.24,4.66,4.66,0,0,1-4.8,4.7c-3.46,0-5.16-2.58-5.16-5.68a7.22,7.22,0,0,1,7.32-7.7,8.69,8.69,0,0,1,1.22,0Zm-1.66,6.52a2,2,0,0,0-3.74-1.08,1.75,1.75,0,0,0-.12.76c.06,1.38.72,2.62,2.1,2.62C1263.25,967.76,1263.93,966.78,1263.93,965.46Z" transform="translate(-132 -352.67)"/></g></svg>