<svg id="Layer_1" data-name="Layer 1" xmlns="http://www.w3.org/2000/svg" viewBox="0 0 1643 618.74"><defs><style>.cls-1{fill:#3c97d3;}.cls-2{fill:#3b97d3;}.cls-3{fill:#4eba6e;}.cls-4{opacity:0.95;}.cls-5{fill:#fff;}.cls-6{opacity:0.9;}.cls-7{fill:#0e594c;}.cls-8{fill:#147f6b;}.cls-9{fill:#efc41b;}.cls-10{fill:#3d97d3;}.cls-11,.cls-16,.cls-17,.cls-19,.cls-20,.cls-22,.cls-23,.cls-25,.cls-26,.cls-27{fill:none;}.cls-11,.cls-22{stroke:#4eba6f;}.cls-11,.cls-16,.cls-17,.cls-19,.cls-20,.cls-22,.cls-23,.cls-25,.cls-26,.cls-27,.cls-28,.cls-29,.cls-30,.cls-31{stroke-miterlimit:10;}.cls-11,.cls-16,.cls-17,.cls-19,.cls-20,.cls-28,.cls-29,.cls-30,.cls-31{stroke-width:3px;}.cls-12{fill:#4eba6f;}.cls-13{fill:#f0c419;}.cls-14{fill:#bdc3c7;}.cls-15{fill:#e64c3c;}.cls-16{stroke:#3c97d3;}.cls-17,.cls-25,.cls-30{stroke:#d5aa29;}.cls-18{fill:#d5aa29;}.cls-19,.cls-23,.cls-29{stroke:#3d97d3;}.cls-20,.cls-27{stroke:#e54d3b;}.cls-21{fill:#e54d3b;}.cls-22,.cls-23,.cls-25,.cls-26,.cls-27{stroke-width:2px;}.cls-24{fill:#3e97d3;}.cls-26{stroke:#3e97d3;}.cls-28{fill:#cfe9d6;stroke:#4eba6e;}.cls-29{fill:#c8e1ed;}.cls-30{fill:#f2e9d6;}.cls-31{fill:#f0d4d2;stroke:#e44e3a;}.cls-32{fill:#e44e3a;}</style></defs><title>bit-array-fields-le</title><rect class="cls-1" x="101.5" y="160.11" width="100" height="76.94"/><rect class="cls-1" x="201.5" y="160.11" width="100" height="76.94"/><rect class="cls-2" x="301.5" y="160.11" width="100" height="76.94"/><rect class="cls-2" x="401.5" y="160.11" width="100" height="76.94"/><rect class="cls-3" x="501.5" y="160.11" width="100" height="76.94"/><rect class="cls-3" x="601.5" y="160.11" width="100" height="76.94"/><path class="cls-3" d="M833.65,599.72h84a16,16,0,0,0,16-16V538.79a16,16,0,0,0-16-16h-84" transform="translate(-132 -362.67)"/><path class="cls-1" d="M233.5,599.91h-84a16,16,0,0,1-16-16V539a16,16,0,0,1,16-16h84" transform="translate(-132 -362.67)"/><g class="cls-4"><path class="cls-5" d="M167.72,570.84v-2.4l2.47-2.27c4.89-4.55,7.2-7,7.23-9.79,0-1.86-1-3.49-3.71-3.49a7.58,7.58,0,0,0-4.45,1.73l-1.15-2.79a10.31,10.31,0,0,1,6.4-2.14c4.6,0,6.84,2.91,6.84,6.3,0,3.65-2.62,6.59-6.23,10l-1.83,1.57v.07h8.54v3.26Z" transform="translate(-132 -362.67)"/><path class="cls-5" d="M185.68,566.78a10.38,10.38,0,0,0,4.73,1.27c3,0,4.22-1.69,4.19-3.32,0-2.47-2.3-3.52-4.7-3.52h-1.82v-2.88h1.75c1.83,0,4.13-.83,4.13-2.91,0-1.41-1.05-2.6-3.33-2.6a8.31,8.31,0,0,0-4.25,1.32l-.9-2.85a11.28,11.28,0,0,1,6-1.6c4.28,0,6.49,2.37,6.49,5.09,0,2.17-1.28,4-3.84,4.86v.06a5.26,5.26,0,0,1,4.58,5.19c0,3.52-2.95,6.3-8.1,6.3a11.32,11.32,0,0,1-5.82-1.44Z" transform="translate(-132 -362.67)"/></g><g class="cls-6"><path class="cls-7" d="M144.56,465.18a36.68,36.68,0,0,1,6.44-.51c3.27,0,5.29.4,6.95,1.55a5.13,5.13,0,0,1,2.52,4.54,5.64,5.64,0,0,1-4,5.25v.08a6.11,6.11,0,0,1,4.9,6,6.3,6.3,0,0,1-2.34,5c-1.73,1.51-4.57,2.27-9,2.27a41.32,41.32,0,0,1-5.43-.33Zm4.39,9.57h2.26c3.06,0,4.79-1.44,4.79-3.49,0-2.27-1.73-3.31-4.53-3.31a11.82,11.82,0,0,0-2.52.18Zm0,11.16a19.82,19.82,0,0,0,2.34.11c2.84,0,5.36-1.08,5.36-4.07,0-2.8-2.45-4-5.51-4H149Z" transform="translate(-132 -362.67)"/><path class="cls-7" d="M167.88,471.59l3.17,9.39c.36,1.08.72,2.41,1,3.42h.11c.29-1,.61-2.3.94-3.45l2.73-9.36h4.75l-4.39,12c-2.41,6.55-4,9.46-6.12,11.26a8.88,8.88,0,0,1-4.64,2.27l-1-3.74A7.53,7.53,0,0,0,167,492.1a7.66,7.66,0,0,0,2.41-2.77,1.75,1.75,0,0,0,.29-.79,1.8,1.8,0,0,0-.25-.86L163,471.59Z" transform="translate(-132 -362.67)"/><path class="cls-7" d="M188.19,466.58v5h4.21v3.31h-4.21v7.74c0,2.12.57,3.24,2.26,3.24a6.39,6.39,0,0,0,1.73-.22l.07,3.38a9.44,9.44,0,0,1-3.2.44,5.14,5.14,0,0,1-3.82-1.44c-.93-1-1.36-2.6-1.36-4.9V474.9h-2.52v-3.31h2.52v-4Z" transform="translate(-132 -362.67)"/><path class="cls-7" d="M198.66,481.59c.11,3.17,2.59,4.54,5.4,4.54a13.26,13.26,0,0,0,4.86-.79l.65,3.06a16.54,16.54,0,0,1-6.12,1.08c-5.69,0-9-3.5-9-8.86,0-4.86,3-9.43,8.56-9.43s7.56,4.68,7.56,8.53a11.1,11.1,0,0,1-.14,1.87Zm7.71-3.09c0-1.62-.69-4.29-3.64-4.29-2.73,0-3.89,2.49-4.07,4.29Z" transform="translate(-132 -362.67)"/><path class="cls-7" d="M220.73,489.12v-2.7l2.77-2.56c5.51-5.11,8.1-7.92,8.14-11,0-2.09-1.12-3.93-4.18-3.93a8.52,8.52,0,0,0-5,1.95l-1.3-3.13a11.57,11.57,0,0,1,7.2-2.42c5.18,0,7.7,3.28,7.7,7.09,0,4.11-2.95,7.42-7,11.2L227,485.37v.07h9.61v3.68Z" transform="translate(-132 -362.67)"/></g><g class="cls-4"><path class="cls-5" d="M267.72,570.84v-2.4l2.47-2.27c4.89-4.55,7.2-7,7.23-9.79,0-1.86-1-3.49-3.71-3.49a7.58,7.58,0,0,0-4.45,1.73l-1.15-2.79a10.31,10.31,0,0,1,6.4-2.14c4.6,0,6.84,2.91,6.84,6.3,0,3.65-2.62,6.59-6.23,10l-1.83,1.57v.07h8.54v3.26Z" transform="translate(-132 -362.67)"/><path class="cls-5" d="M284.88,570.84v-2.4l2.46-2.27c4.89-4.55,7.2-7,7.23-9.79,0-1.86-1-3.49-3.71-3.49a7.6,7.6,0,0,0-4.45,1.73l-1.15-2.79a10.33,10.33,0,0,1,6.4-2.14c4.61,0,6.85,2.91,6.85,6.3,0,3.65-2.63,6.59-6.24,10l-1.83,1.57v.07H299v3.26Z" transform="translate(-132 -362.67)"/></g><g class="cls-4"><path class="cls-5" d="M367.72,570.84v-2.4l2.47-2.27c4.89-4.55,7.2-7,7.23-9.79,0-1.86-1-3.49-3.71-3.49a7.58,7.58,0,0,0-4.45,1.73l-1.15-2.79a10.31,10.31,0,0,1,6.4-2.14c4.6,0,6.84,2.91,6.84,6.3,0,3.65-2.62,6.59-6.23,10l-1.83,1.57v.07h8.54v3.26Z" transform="translate(-132 -362.67)"/><path class="cls-5" d="M391.05,553.59H391l-3.81,1.92-.67-3,5.05-2.5h3.3v20.8h-3.81Z" transform="translate(-132 -362.67)"/></g><g class="cls-4"><path class="cls-5" d="M467.72,570.84v-2.4l2.47-2.27c4.89-4.55,7.2-7,7.23-9.79,0-1.86-1-3.49-3.71-3.49a7.58,7.58,0,0,0-4.45,1.73l-1.15-2.79a10.31,10.31,0,0,1,6.4-2.14c4.6,0,6.84,2.91,6.84,6.3,0,3.65-2.62,6.59-6.23,10l-1.83,1.57v.07h8.54v3.26Z" transform="translate(-132 -362.67)"/><path class="cls-5" d="M499.56,560.31c0,6.69-2.62,10.88-7.58,10.88-4.8,0-7.36-4.35-7.39-10.69s2.75-10.81,7.61-10.81C497.23,549.69,499.56,554.17,499.56,560.31Zm-11,.19c0,5.06,1.37,7.68,3.55,7.68s3.52-2.81,3.52-7.8-1.16-7.68-3.52-7.68C490,552.7,488.52,555.29,488.56,560.5Z" transform="translate(-132 -362.67)"/></g><g class="cls-4"><path class="cls-5" d="M573.9,553.59h-.07l-3.8,1.92-.67-3,5-2.5h3.3v20.8H573.9Z" transform="translate(-132 -362.67)"/><path class="cls-5" d="M586.47,568a10.42,10.42,0,0,0,2.18-.06,7.83,7.83,0,0,0,4.22-1.6,7.66,7.66,0,0,0,2.66-4.61l-.06,0a5.78,5.78,0,0,1-4.55,1.86,6.15,6.15,0,0,1-6.3-6.47,7.36,7.36,0,0,1,7.52-7.42c4.83,0,7.42,3.81,7.42,8.86,0,4.45-1.47,7.62-3.61,9.66a11.44,11.44,0,0,1-7.11,2.85,15.38,15.38,0,0,1-2.37.07Zm2-11.13c0,2.14,1.25,3.81,3.43,3.81a3.8,3.8,0,0,0,3.36-1.73,2.49,2.49,0,0,0,.22-1.12c0-2.82-1-5.25-3.58-5.25C590,552.6,588.52,554.36,588.52,556.89Z" transform="translate(-132 -362.67)"/></g><g class="cls-4"><path class="cls-5" d="M673.9,553.59h-.07l-3.8,1.92-.67-3,5-2.5h3.3v20.8H673.9Z" transform="translate(-132 -362.67)"/><path class="cls-5" d="M684.59,565.49c0-2.59,1.5-4.35,3.9-5.4V560a5.07,5.07,0,0,1-3.17-4.61c0-3.39,3-5.69,6.95-5.69,4.48,0,6.52,2.69,6.52,5.25a5.18,5.18,0,0,1-3.2,4.7v.1a5.57,5.57,0,0,1,4,5.24c0,3.72-3.13,6.21-7.58,6.21C687.12,571.19,684.59,568.41,684.59,565.49Zm11-.19c0-2.11-1.57-3.26-3.87-3.9a3.81,3.81,0,0,0-3.07,3.65,3.28,3.28,0,0,0,3.49,3.36A3.15,3.15,0,0,0,695.56,565.3Zm-6.49-10.08c0,1.7,1.4,2.72,3.39,3.27a3.38,3.38,0,0,0,2.59-3.14,2.78,2.78,0,0,0-3-2.94A2.75,2.75,0,0,0,689.07,555.22Z" transform="translate(-132 -362.67)"/></g><g class="cls-4"><path class="cls-5" d="M773.9,553.59h-.07l-3.8,1.92-.67-3,5-2.5h3.3v20.8H773.9Z" transform="translate(-132 -362.67)"/><path class="cls-5" d="M799.18,550v2.53l-8.8,18.27h-4.16L795,553.37v-.07H785.2V550Z" transform="translate(-132 -362.67)"/></g><g class="cls-4"><path class="cls-5" d="M874.05,553.59H874l-3.81,1.92-.67-3,5-2.5h3.3v20.8h-3.81Z" transform="translate(-132 -362.67)"/><path class="cls-5" d="M897.7,552.82a15.23,15.23,0,0,0-2,.1c-4.35.51-6.46,3.2-7,6.08h.09a6,6,0,0,1,4.67-2c3.59,0,6.37,2.56,6.37,6.79a7.22,7.22,0,0,1-7.33,7.42c-5,0-7.84-3.84-7.84-9a12.71,12.71,0,0,1,3.62-9.34,12,12,0,0,1,7.39-3.07,11,11,0,0,1,2-.07ZM895.84,564c0-2.4-1.31-4.13-3.62-4.13a3.83,3.83,0,0,0-3.39,2.15,2.69,2.69,0,0,0-.25,1.25c.06,2.75,1.37,5,3.9,5C894.53,568.25,895.84,566.49,895.84,564Z" transform="translate(-132 -362.67)"/></g><path class="cls-8" d="M917.48,521.28h-768A17.54,17.54,0,0,0,132,538.79V583.7a17.54,17.54,0,0,0,17.51,17.52h768A17.54,17.54,0,0,0,935,583.7V538.79A17.54,17.54,0,0,0,917.48,521.28Zm-582.48,3h97v73.94H335Zm-3,73.94H235V524.28h97Zm103-73.94h97v73.94H435Zm100,0h97v73.94H535Zm100,0h97v73.94H635Zm100,0h97v73.94H735ZM135,583.7V538.79a14.53,14.53,0,0,1,14.51-14.51H232v73.94H149.51A14.54,14.54,0,0,1,135,583.7Zm797,0a14.54,14.54,0,0,1-14.52,14.52H835V524.28h82.48A14.53,14.53,0,0,1,932,538.79Z" transform="translate(-132 -362.67)"/><rect class="cls-9" x="941.5" y="160.11" width="100" height="76.94"/><rect class="cls-9" x="1041.5" y="160.11" width="100" height="76.94"/><rect class="cls-9" x="1141.5" y="160.11" width="100" height="76.94"/><rect class="cls-10" x="1241.5" y="160.11" width="100" height="76.94"/><rect class="cls-1" x="1341.5" y="160.11" width="100" height="76.94"/><rect class="cls-1" x="1441.5" y="160.11" width="100" height="76.94"/><path class="cls-1" d="M1673.65,599.72h84a16,16,0,0,0,16-16V538.79a16,16,0,0,0-16-16h-84" transform="translate(-132 -362.67)"/><path class="cls-9" d="M1073.5,599.91h-84a16,16,0,0,1-16-16V539a16,16,0,0,1,16-16h84" transform="translate(-132 -362.67)"/><g class="cls-4"><path class="cls-5" d="M1008.52,566.78a10.46,10.46,0,0,0,4.74,1.27c3,0,4.22-1.69,4.19-3.32,0-2.47-2.3-3.52-4.7-3.52h-1.83v-2.88h1.76c1.83,0,4.13-.83,4.13-2.91,0-1.41-1.06-2.6-3.33-2.6a8.31,8.31,0,0,0-4.25,1.32l-.9-2.85a11.27,11.27,0,0,1,6-1.6c4.29,0,6.5,2.37,6.5,5.09,0,2.17-1.28,4-3.84,4.86v.06a5.26,5.26,0,0,1,4.58,5.19c0,3.52-2.95,6.3-8.1,6.3a11.29,11.29,0,0,1-5.82-1.44Z" transform="translate(-132 -362.67)"/><path class="cls-5" d="M1031.05,553.59H1031l-3.81,1.92-.67-3,5-2.5h3.3v20.8h-3.81Z" transform="translate(-132 -362.67)"/></g><g class="cls-4"><path class="cls-5" d="M1108.52,566.78a10.46,10.46,0,0,0,4.74,1.27c3,0,4.22-1.69,4.19-3.32,0-2.47-2.3-3.52-4.7-3.52h-1.83v-2.88h1.76c1.83,0,4.13-.83,4.13-2.91,0-1.41-1.06-2.6-3.33-2.6a8.31,8.31,0,0,0-4.25,1.32l-.9-2.85a11.27,11.27,0,0,1,6-1.6c4.29,0,6.5,2.37,6.5,5.09,0,2.17-1.28,4-3.84,4.86v.06a5.26,5.26,0,0,1,4.58,5.19c0,3.52-3,6.3-8.1,6.3a11.29,11.29,0,0,1-5.82-1.44Z" transform="translate(-132 -362.67)"/><path class="cls-5" d="M1139.56,560.31c0,6.69-2.62,10.88-7.58,10.88-4.8,0-7.36-4.35-7.39-10.69s2.75-10.81,7.61-10.81C1137.23,549.69,1139.56,554.17,1139.56,560.31Zm-11,.19c0,5.06,1.37,7.68,3.55,7.68s3.52-2.81,3.52-7.8-1.16-7.68-3.52-7.68C1130,552.7,1128.52,555.29,1128.56,560.5Z" transform="translate(-132 -362.67)"/></g><g class="cls-4"><path class="cls-5" d="M1207.72,570.84v-2.4l2.47-2.27c4.89-4.55,7.2-7,7.23-9.79,0-1.86-1-3.49-3.71-3.49a7.58,7.58,0,0,0-4.45,1.73l-1.15-2.79a10.31,10.31,0,0,1,6.4-2.14c4.6,0,6.84,2.91,6.84,6.3,0,3.65-2.62,6.59-6.23,10l-1.83,1.57v.07h8.54v3.26Z" transform="translate(-132 -362.67)"/><path class="cls-5" d="M1226.47,568a10.42,10.42,0,0,0,2.18-.06,7.89,7.89,0,0,0,4.23-1.6,7.7,7.7,0,0,0,2.65-4.61l-.06,0a5.78,5.78,0,0,1-4.55,1.86,6.15,6.15,0,0,1-6.3-6.47,7.36,7.36,0,0,1,7.52-7.42c4.83,0,7.42,3.81,7.42,8.86,0,4.45-1.47,7.62-3.61,9.66a11.44,11.44,0,0,1-7.11,2.85,15.38,15.38,0,0,1-2.37.07Zm2-11.13c0,2.14,1.25,3.81,3.43,3.81a3.8,3.8,0,0,0,3.36-1.73,2.49,2.49,0,0,0,.22-1.12c0-2.82-1-5.25-3.58-5.25C1230,552.6,1228.52,554.36,1228.52,556.89Z" transform="translate(-132 -362.67)"/></g><g class="cls-4"><path class="cls-5" d="M1307.72,570.84v-2.4l2.47-2.27c4.89-4.55,7.2-7,7.23-9.79,0-1.86-1-3.49-3.71-3.49a7.55,7.55,0,0,0-4.45,1.73l-1.15-2.79a10.31,10.31,0,0,1,6.4-2.14c4.6,0,6.84,2.91,6.84,6.3,0,3.65-2.62,6.59-6.23,10l-1.83,1.57v.07h8.54v3.26Z" transform="translate(-132 -362.67)"/><path class="cls-5" d="M1324.59,565.49c0-2.59,1.5-4.35,3.9-5.4V560a5.06,5.06,0,0,1-3.17-4.61c0-3.39,3-5.69,7-5.69,4.48,0,6.52,2.69,6.52,5.25a5.18,5.18,0,0,1-3.2,4.7v.1a5.57,5.57,0,0,1,4,5.24c0,3.72-3.13,6.21-7.58,6.21C1327.12,571.19,1324.59,568.41,1324.59,565.49Zm11-.19c0-2.11-1.57-3.26-3.87-3.9a3.81,3.81,0,0,0-3.07,3.65,3.28,3.28,0,0,0,3.49,3.36A3.15,3.15,0,0,0,1335.56,565.3Zm-6.49-10.08c0,1.7,1.4,2.72,3.39,3.27a3.38,3.38,0,0,0,2.59-3.14,2.78,2.78,0,0,0-3-2.94A2.75,2.75,0,0,0,1329.07,555.22Z" transform="translate(-132 -362.67)"/></g><g class="cls-4"><path class="cls-5" d="M1407.72,570.84v-2.4l2.47-2.27c4.89-4.55,7.2-7,7.23-9.79,0-1.86-1-3.49-3.71-3.49a7.58,7.58,0,0,0-4.45,1.73l-1.15-2.79a10.31,10.31,0,0,1,6.4-2.14c4.6,0,6.84,2.91,6.84,6.3,0,3.65-2.62,6.59-6.23,10l-1.83,1.57v.07h8.54v3.26Z" transform="translate(-132 -362.67)"/><path class="cls-5" d="M1439.18,550v2.53l-8.8,18.27h-4.16l8.77-17.47v-.07h-9.79V550Z" transform="translate(-132 -362.67)"/></g><g class="cls-4"><path class="cls-5" d="M1507.72,570.84v-2.4l2.47-2.27c4.89-4.55,7.2-7,7.23-9.79,0-1.86-1-3.49-3.71-3.49a7.58,7.58,0,0,0-4.45,1.73l-1.15-2.79a10.31,10.31,0,0,1,6.4-2.14c4.6,0,6.84,2.91,6.84,6.3,0,3.65-2.62,6.59-6.23,10l-1.83,1.57v.07h8.54v3.26Z" transform="translate(-132 -362.67)"/><path class="cls-5" d="M1537.55,552.82a15.23,15.23,0,0,0-2,.1c-4.35.51-6.46,3.2-7,6.08h.09a6,6,0,0,1,4.67-2c3.59,0,6.37,2.56,6.37,6.79a7.22,7.22,0,0,1-7.33,7.42c-5,0-7.84-3.84-7.84-9a12.71,12.71,0,0,1,3.62-9.34,12,12,0,0,1,7.39-3.07,11.1,11.1,0,0,1,2-.07ZM1535.69,564c0-2.4-1.31-4.13-3.62-4.13a3.83,3.83,0,0,0-3.39,2.15,2.69,2.69,0,0,0-.25,1.25c.06,2.75,1.37,5,3.9,5C1534.38,568.25,1535.69,566.49,1535.69,564Z" transform="translate(-132 -362.67)"/></g><g class="cls-4"><path class="cls-5" d="M1607.72,570.84v-2.4l2.47-2.27c4.89-4.55,7.2-7,7.23-9.79,0-1.86-1-3.49-3.71-3.49a7.58,7.58,0,0,0-4.45,1.73l-1.15-2.79a10.31,10.31,0,0,1,6.4-2.14c4.6,0,6.84,2.91,6.84,6.3,0,3.65-2.62,6.59-6.23,10l-1.83,1.57v.07h8.54v3.26Z" transform="translate(-132 -362.67)"/><path class="cls-5" d="M1638.09,553.3h-8l-.61,4.16a11.25,11.25,0,0,1,1.51-.09,9.22,9.22,0,0,1,5,1.34,6,6,0,0,1,2.72,5.28c0,4-3.29,7.2-8.41,7.2a12,12,0,0,1-5.51-1.22l.8-3a10.55,10.55,0,0,0,4.58,1.09c2.3,0,4.51-1.31,4.51-3.81s-1.76-3.94-5.92-3.94a17.89,17.89,0,0,0-2.85.2l1.38-10.5h10.75Z" transform="translate(-132 -362.67)"/></g><g class="cls-4"><path class="cls-5" d="M1707.87,570.84v-2.4l2.47-2.27c4.89-4.55,7.2-7,7.23-9.79,0-1.86-1-3.49-3.71-3.49a7.58,7.58,0,0,0-4.45,1.73l-1.15-2.79a10.31,10.31,0,0,1,6.4-2.14c4.61,0,6.85,2.91,6.85,6.3,0,3.65-2.63,6.59-6.24,10l-1.83,1.57v.07H1722v3.26Z" transform="translate(-132 -362.67)"/><path class="cls-5" d="M1733.7,570.84v-5.28h-9.41V563l8.48-13h4.64v12.54h2.69v3h-2.69v5.28Zm0-8.26v-5.66c0-1.18,0-2.4.13-3.62h-.13c-.64,1.32-1.19,2.37-1.83,3.52l-3.8,5.7,0,.06Z" transform="translate(-132 -362.67)"/></g><path class="cls-8" d="M1757.48,521.28h-768A17.54,17.54,0,0,0,972,538.79V583.7a17.54,17.54,0,0,0,17.51,17.52h768A17.54,17.54,0,0,0,1775,583.7V538.79A17.54,17.54,0,0,0,1757.48,521.28Zm-582.48,3h97v73.94h-97Zm-3,73.94h-97V524.28h97Zm103-73.94h97v73.94h-97Zm100,0h97v73.94h-97Zm100,0h97v73.94h-97Zm100,0h97v73.94h-97ZM975,583.7V538.79a14.53,14.53,0,0,1,14.51-14.51H1072v73.94H989.51A14.54,14.54,0,0,1,975,583.7Zm797,0a14.54,14.54,0,0,1-14.52,14.52H1675V524.28h82.48A14.53,14.53,0,0,1,1772,538.79Z" transform="translate(-132 -362.67)"/><g class="cls-6"><path class="cls-7" d="M984.56,465.18a36.68,36.68,0,0,1,6.44-.51c3.27,0,5.29.4,7,1.55a5.13,5.13,0,0,1,2.52,4.54,5.64,5.64,0,0,1-4,5.25v.08a6.11,6.11,0,0,1,4.9,6,6.3,6.3,0,0,1-2.34,5c-1.73,1.51-4.57,2.27-9,2.27a41.32,41.32,0,0,1-5.43-.33Zm4.39,9.57h2.26c3.06,0,4.79-1.44,4.79-3.49,0-2.27-1.73-3.31-4.53-3.31a11.82,11.82,0,0,0-2.52.18Zm0,11.16a19.82,19.82,0,0,0,2.34.11c2.84,0,5.36-1.08,5.36-4.07,0-2.8-2.45-4-5.51-4H989Z" transform="translate(-132 -362.67)"/><path class="cls-7" d="M1007.88,471.59l3.17,9.39c.36,1.08.72,2.41,1,3.42h.11c.29-1,.61-2.3.94-3.45l2.73-9.36h4.75l-4.39,12c-2.41,6.55-4,9.46-6.12,11.26a8.88,8.88,0,0,1-4.64,2.27l-1-3.74a7.53,7.53,0,0,0,2.59-1.23,7.66,7.66,0,0,0,2.41-2.77,1.75,1.75,0,0,0,.29-.79,1.8,1.8,0,0,0-.25-.86L1003,471.59Z" transform="translate(-132 -362.67)"/><path class="cls-7" d="M1028.19,466.58v5h4.21v3.31h-4.21v7.74c0,2.12.57,3.24,2.26,3.24a6.39,6.39,0,0,0,1.73-.22l.07,3.38a9.44,9.44,0,0,1-3.2.44,5.14,5.14,0,0,1-3.82-1.44c-.93-1-1.36-2.6-1.36-4.9V474.9h-2.52v-3.31h2.52v-4Z" transform="translate(-132 -362.67)"/><path class="cls-7" d="M1038.66,481.59c.11,3.17,2.59,4.54,5.4,4.54a13.26,13.26,0,0,0,4.86-.79l.65,3.06a16.54,16.54,0,0,1-6.12,1.08c-5.69,0-9-3.5-9-8.86,0-4.86,2.95-9.43,8.56-9.43s7.56,4.68,7.56,8.53a11.1,11.1,0,0,1-.14,1.87Zm7.71-3.09c0-1.62-.69-4.29-3.64-4.29-2.73,0-3.89,2.49-4.07,4.29Z" transform="translate(-132 -362.67)"/><path class="cls-7" d="M1061.63,484.54A11.59,11.59,0,0,0,1067,486c3.38,0,4.75-1.9,4.71-3.74,0-2.77-2.59-4-5.29-4h-2.05V475h2c2,0,4.64-.93,4.64-3.27,0-1.59-1.18-2.92-3.74-2.92a9.39,9.39,0,0,0-4.79,1.48l-1-3.21a12.74,12.74,0,0,1,6.74-1.8c4.82,0,7.3,2.67,7.3,5.73,0,2.44-1.44,4.46-4.32,5.47v.07a5.9,5.9,0,0,1,5.15,5.83c0,4-3.31,7.09-9.11,7.09a12.76,12.76,0,0,1-6.55-1.62Z" transform="translate(-132 -362.67)"/></g><g class="cls-6"><line class="cls-11" x1="521.1" y1="284.24" x2="803" y2="284.24"/><path class="cls-12" d="M635,646.91c8.52,3.17,19.09,8.56,25.64,14.27l-5.16-14.27,5.16-14.26C654.09,638.36,643.52,643.76,635,646.91Z" transform="translate(-132 -362.67)"/></g><rect class="cls-13" x="101.5" y="478.11" width="100" height="76.94"/><rect class="cls-13" x="201.5" y="478.11" width="100" height="76.94"/><rect class="cls-13" x="301.5" y="478.11" width="100" height="76.94"/><rect class="cls-13" x="401.5" y="478.11" width="100" height="76.94"/><rect class="cls-13" x="501.5" y="478.11" width="100" height="76.94"/><rect class="cls-13" x="601.5" y="478.11" width="100" height="76.94"/><path class="cls-13" d="M833.65,917.72h84a16,16,0,0,0,16-16V856.79a16,16,0,0,0-16-16h-84" transform="translate(-132 -362.67)"/><path class="cls-13" d="M233.5,917.91h-84a16,16,0,0,1-16-16V857a16,16,0,0,1,16-16h84" transform="translate(-132 -362.67)"/><g class="cls-4"><path class="cls-5" d="M168.52,884.78a10.46,10.46,0,0,0,4.74,1.27c3,0,4.22-1.69,4.19-3.32,0-2.47-2.3-3.52-4.7-3.52h-1.83v-2.88h1.76c1.83,0,4.13-.83,4.13-2.91,0-1.41-1.06-2.6-3.33-2.6a8.31,8.31,0,0,0-4.25,1.32l-.9-2.85a11.27,11.27,0,0,1,6-1.6c4.29,0,6.5,2.37,6.5,5.09,0,2.17-1.28,4-3.84,4.86v.06a5.26,5.26,0,0,1,4.58,5.19c0,3.52-3,6.3-8.1,6.3a11.29,11.29,0,0,1-5.82-1.44Z" transform="translate(-132 -362.67)"/><path class="cls-5" d="M186.47,886a10.42,10.42,0,0,0,2.18-.06,7.83,7.83,0,0,0,4.22-1.6,7.66,7.66,0,0,0,2.66-4.61l-.06,0a5.78,5.78,0,0,1-4.55,1.86,6.15,6.15,0,0,1-6.3-6.47,7.36,7.36,0,0,1,7.52-7.42c4.83,0,7.42,3.81,7.42,8.86,0,4.45-1.47,7.62-3.61,9.66a11.44,11.44,0,0,1-7.11,2.85,15.38,15.38,0,0,1-2.37.07Zm2.05-11.13c0,2.14,1.25,3.81,3.43,3.81a3.8,3.8,0,0,0,3.36-1.73,2.49,2.49,0,0,0,.22-1.12c0-2.82-1-5.25-3.58-5.25C190,870.6,188.52,872.36,188.52,874.89Z" transform="translate(-132 -362.67)"/></g><g class="cls-6"><path class="cls-7" d="M144.56,783.18a36.68,36.68,0,0,1,6.44-.51c3.27,0,5.29.4,6.95,1.55a5.13,5.13,0,0,1,2.52,4.54,5.64,5.64,0,0,1-4,5.25v.08a6.11,6.11,0,0,1,4.9,6,6.3,6.3,0,0,1-2.34,5c-1.73,1.51-4.57,2.27-9,2.27a41.32,41.32,0,0,1-5.43-.33Zm4.39,9.57h2.26c3.06,0,4.79-1.44,4.79-3.49,0-2.27-1.73-3.31-4.53-3.31a11.82,11.82,0,0,0-2.52.18Zm0,11.16a19.82,19.82,0,0,0,2.34.11c2.84,0,5.36-1.08,5.36-4.07,0-2.8-2.45-4-5.51-4H149Z" transform="translate(-132 -362.67)"/><path class="cls-7" d="M167.88,789.59l3.17,9.39c.36,1.08.72,2.41,1,3.42h.11c.29-1,.61-2.3.94-3.45l2.73-9.36h4.75l-4.39,11.95c-2.41,6.55-4,9.46-6.12,11.26a8.88,8.88,0,0,1-4.64,2.27l-1-3.74A7.53,7.53,0,0,0,167,810.1a7.66,7.66,0,0,0,2.41-2.77,1.75,1.75,0,0,0,.29-.79,1.8,1.8,0,0,0-.25-.86L163,789.59Z" transform="translate(-132 -362.67)"/><path class="cls-7" d="M188.19,784.58v5h4.21v3.31h-4.21v7.74c0,2.12.57,3.24,2.26,3.24a6.39,6.39,0,0,0,1.73-.22l.07,3.38a9.44,9.44,0,0,1-3.2.44,5.14,5.14,0,0,1-3.82-1.44c-.93-1-1.36-2.6-1.36-4.9V792.9h-2.52v-3.31h2.52v-4Z" transform="translate(-132 -362.67)"/><path class="cls-7" d="M198.66,799.59c.11,3.17,2.59,4.54,5.4,4.54a13.26,13.26,0,0,0,4.86-.79l.65,3.06a16.54,16.54,0,0,1-6.12,1.08c-5.69,0-9-3.5-9-8.86,0-4.86,3-9.43,8.56-9.43s7.56,4.68,7.56,8.53a11.1,11.1,0,0,1-.14,1.87Zm7.71-3.09c0-1.62-.69-4.29-3.64-4.29-2.73,0-3.89,2.49-4.07,4.29Z" transform="translate(-132 -362.67)"/><path class="cls-7" d="M230.49,807.12v-5.94H219.9V798.3l9.54-14.58h5.22v14.11h3v3.35h-3v5.94Zm0-9.29v-6.37c0-1.33,0-2.7.14-4.07h-.14c-.72,1.48-1.34,2.66-2.06,4l-4.28,6.41,0,.07Z" transform="translate(-132 -362.67)"/></g><g class="cls-4"><path class="cls-5" d="M268.52,884.78a10.46,10.46,0,0,0,4.74,1.27c3,0,4.22-1.69,4.19-3.32,0-2.47-2.3-3.52-4.7-3.52h-1.83v-2.88h1.76c1.83,0,4.13-.83,4.13-2.91,0-1.41-1.06-2.6-3.33-2.6a8.31,8.31,0,0,0-4.25,1.32l-.9-2.85a11.27,11.27,0,0,1,6-1.6c4.29,0,6.5,2.37,6.5,5.09,0,2.17-1.28,4-3.84,4.86v.06a5.26,5.26,0,0,1,4.58,5.19c0,3.52-2.95,6.3-8.1,6.3a11.29,11.29,0,0,1-5.82-1.44Z" transform="translate(-132 -362.67)"/><path class="cls-5" d="M284.59,883.49c0-2.59,1.5-4.35,3.9-5.4V878a5.07,5.07,0,0,1-3.17-4.61c0-3.39,3-5.69,6.95-5.69,4.48,0,6.52,2.69,6.52,5.25a5.18,5.18,0,0,1-3.2,4.7v.1a5.57,5.57,0,0,1,4,5.24c0,3.72-3.13,6.21-7.58,6.21C287.12,889.19,284.59,886.41,284.59,883.49Zm11-.19c0-2.11-1.57-3.26-3.87-3.9a3.81,3.81,0,0,0-3.07,3.65,3.28,3.28,0,0,0,3.49,3.36A3.15,3.15,0,0,0,295.56,883.3Zm-6.49-10.08c0,1.7,1.4,2.72,3.39,3.27a3.38,3.38,0,0,0,2.59-3.14,2.78,2.78,0,0,0-3-2.94A2.75,2.75,0,0,0,289.07,873.22Z" transform="translate(-132 -362.67)"/></g><g class="cls-4"><path class="cls-5" d="M368.52,884.78a10.46,10.46,0,0,0,4.74,1.27c3,0,4.22-1.69,4.19-3.32,0-2.47-2.3-3.52-4.7-3.52h-1.83v-2.88h1.76c1.83,0,4.13-.83,4.13-2.91,0-1.41-1.06-2.6-3.33-2.6a8.31,8.31,0,0,0-4.25,1.32l-.9-2.85a11.27,11.27,0,0,1,6-1.6c4.29,0,6.5,2.37,6.5,5.09,0,2.17-1.28,4-3.84,4.86v.06a5.26,5.26,0,0,1,4.58,5.19c0,3.52-2.95,6.3-8.1,6.3a11.29,11.29,0,0,1-5.82-1.44Z" transform="translate(-132 -362.67)"/><path class="cls-5" d="M399.18,868v2.53l-8.8,18.27h-4.16L395,871.37v-.07H385.2V868Z" transform="translate(-132 -362.67)"/></g><g class="cls-4"><path class="cls-5" d="M468.52,884.78a10.46,10.46,0,0,0,4.74,1.27c3,0,4.22-1.69,4.19-3.32,0-2.47-2.3-3.52-4.7-3.52h-1.83v-2.88h1.76c1.83,0,4.13-.83,4.13-2.91,0-1.41-1.06-2.6-3.33-2.6a8.31,8.31,0,0,0-4.25,1.32l-.9-2.85a11.27,11.27,0,0,1,6-1.6c4.29,0,6.5,2.37,6.5,5.09,0,2.17-1.28,4-3.84,4.86v.06a5.26,5.26,0,0,1,4.58,5.19c0,3.52-2.95,6.3-8.1,6.3a11.29,11.29,0,0,1-5.82-1.44Z" transform="translate(-132 -362.67)"/><path class="cls-5" d="M497.55,870.82a15.23,15.23,0,0,0-2,.1c-4.35.51-6.46,3.2-7,6.08h.09a6,6,0,0,1,4.67-2c3.59,0,6.37,2.56,6.37,6.79a7.22,7.22,0,0,1-7.33,7.42c-5.05,0-7.84-3.84-7.84-9a12.71,12.71,0,0,1,3.62-9.34,12,12,0,0,1,7.39-3.07,11,11,0,0,1,2-.07ZM495.69,882c0-2.4-1.31-4.13-3.62-4.13a3.83,3.83,0,0,0-3.39,2.15,2.69,2.69,0,0,0-.25,1.25c.06,2.75,1.37,5,3.9,5C494.38,886.25,495.69,884.49,495.69,882Z" transform="translate(-132 -362.67)"/></g><g class="cls-4"><path class="cls-5" d="M568.52,884.78a10.46,10.46,0,0,0,4.74,1.27c3,0,4.22-1.69,4.19-3.32,0-2.47-2.3-3.52-4.7-3.52h-1.83v-2.88h1.76c1.83,0,4.13-.83,4.13-2.91,0-1.41-1.06-2.6-3.33-2.6a8.31,8.31,0,0,0-4.25,1.32l-.9-2.85a11.27,11.27,0,0,1,6-1.6c4.29,0,6.5,2.37,6.5,5.09,0,2.17-1.28,4-3.84,4.86v.06a5.26,5.26,0,0,1,4.58,5.19c0,3.52-2.95,6.3-8.1,6.3a11.29,11.29,0,0,1-5.82-1.44Z" transform="translate(-132 -362.67)"/><path class="cls-5" d="M598.09,871.3h-8l-.61,4.16a11.25,11.25,0,0,1,1.51-.09,9.25,9.25,0,0,1,5,1.34,6,6,0,0,1,2.72,5.28c0,4-3.29,7.2-8.41,7.2a12,12,0,0,1-5.51-1.22l.8-3a10.55,10.55,0,0,0,4.58,1.09c2.3,0,4.51-1.31,4.51-3.81s-1.76-3.94-5.92-3.94a17.89,17.89,0,0,0-2.85.2l1.38-10.5h10.75Z" transform="translate(-132 -362.67)"/></g><g class="cls-4"><path class="cls-5" d="M668.52,884.78a10.46,10.46,0,0,0,4.74,1.27c3,0,4.22-1.69,4.19-3.32,0-2.47-2.3-3.52-4.7-3.52h-1.83v-2.88h1.76c1.83,0,4.13-.83,4.13-2.91,0-1.41-1.06-2.6-3.33-2.6a8.31,8.31,0,0,0-4.25,1.32l-.9-2.85a11.27,11.27,0,0,1,6-1.6c4.29,0,6.5,2.37,6.5,5.09,0,2.17-1.28,4-3.84,4.86v.06a5.26,5.26,0,0,1,4.58,5.19c0,3.52-2.95,6.3-8.1,6.3a11.29,11.29,0,0,1-5.82-1.44Z" transform="translate(-132 -362.67)"/><path class="cls-5" d="M693.55,888.84v-5.28h-9.41V881l8.48-13h4.64v12.54H700v3h-2.69v5.28Zm0-8.26v-5.66c0-1.18,0-2.4.12-3.62h-.12c-.64,1.32-1.19,2.37-1.83,3.52l-3.81,5.7,0,.06Z" transform="translate(-132 -362.67)"/></g><g class="cls-4"><path class="cls-5" d="M768.52,884.78a10.46,10.46,0,0,0,4.74,1.27c3,0,4.22-1.69,4.19-3.32,0-2.47-2.3-3.52-4.7-3.52h-1.83v-2.88h1.76c1.83,0,4.13-.83,4.13-2.91,0-1.41-1.06-2.6-3.33-2.6a8.31,8.31,0,0,0-4.25,1.32l-.9-2.85a11.27,11.27,0,0,1,6-1.6c4.29,0,6.5,2.37,6.5,5.09,0,2.17-1.28,4-3.84,4.86v.06a5.26,5.26,0,0,1,4.58,5.19c0,3.52-2.95,6.3-8.1,6.3a11.29,11.29,0,0,1-5.82-1.44Z" transform="translate(-132 -362.67)"/><path class="cls-5" d="M785.68,884.78a10.38,10.38,0,0,0,4.73,1.27c3,0,4.22-1.69,4.19-3.32,0-2.47-2.3-3.52-4.7-3.52h-1.82v-2.88h1.75c1.83,0,4.13-.83,4.13-2.91,0-1.41-1.05-2.6-3.33-2.6a8.31,8.31,0,0,0-4.25,1.32l-.9-2.85a11.28,11.28,0,0,1,6-1.6c4.28,0,6.49,2.37,6.49,5.09,0,2.17-1.28,4-3.84,4.86v.06a5.26,5.26,0,0,1,4.58,5.19c0,3.52-3,6.3-8.1,6.3a11.32,11.32,0,0,1-5.82-1.44Z" transform="translate(-132 -362.67)"/></g><g class="cls-4"><path class="cls-5" d="M868.67,884.78a10.46,10.46,0,0,0,4.74,1.27c3,0,4.22-1.69,4.19-3.32,0-2.47-2.3-3.52-4.7-3.52h-1.83v-2.88h1.76c1.83,0,4.13-.83,4.13-2.91,0-1.41-1.05-2.6-3.33-2.6a8.31,8.31,0,0,0-4.25,1.32l-.9-2.85a11.28,11.28,0,0,1,6-1.6c4.28,0,6.49,2.37,6.49,5.09,0,2.17-1.28,4-3.84,4.86v.06a5.26,5.26,0,0,1,4.58,5.19c0,3.52-3,6.3-8.1,6.3a11.29,11.29,0,0,1-5.82-1.44Z" transform="translate(-132 -362.67)"/><path class="cls-5" d="M885,888.84v-2.4l2.46-2.27c4.9-4.55,7.2-7,7.23-9.79,0-1.86-1-3.49-3.71-3.49a7.6,7.6,0,0,0-4.45,1.73l-1.15-2.79a10.33,10.33,0,0,1,6.4-2.14c4.61,0,6.85,2.91,6.85,6.3,0,3.65-2.63,6.59-6.24,10l-1.83,1.57v.07h8.55v3.26Z" transform="translate(-132 -362.67)"/></g><path class="cls-8" d="M917.48,839.28h-768A17.54,17.54,0,0,0,132,856.79V901.7a17.54,17.54,0,0,0,17.51,17.52h768A17.54,17.54,0,0,0,935,901.7V856.79A17.54,17.54,0,0,0,917.48,839.28Zm-582.48,3h97v73.94H335Zm-3,73.94H235V842.28h97Zm103-73.94h97v73.94H435Zm100,0h97v73.94H535Zm100,0h97v73.94H635Zm100,0h97v73.94H735ZM135,901.7V856.79a14.53,14.53,0,0,1,14.51-14.51H232v73.94H149.51A14.54,14.54,0,0,1,135,901.7Zm797,0a14.54,14.54,0,0,1-14.52,14.52H835V842.28h82.48A14.53,14.53,0,0,1,932,856.79Z" transform="translate(-132 -362.67)"/><rect class="cls-14" x="941.5" y="478.11" width="100" height="76.94"/><rect class="cls-15" x="1041.5" y="478.11" width="100" height="76.94"/><rect class="cls-15" x="1141.5" y="478.11" width="100" height="76.94"/><rect class="cls-15" x="1241.5" y="478.11" width="100" height="76.94"/><rect class="cls-15" x="1341.5" y="478.11" width="100" height="76.94"/><rect class="cls-9" x="1441.5" y="478.11" width="100" height="76.94"/><path class="cls-9" d="M1673.65,917.72h84a16,16,0,0,0,16-16V856.79a16,16,0,0,0-16-16h-84" transform="translate(-132 -362.67)"/><path class="cls-14" d="M1073.5,917.91h-84a16,16,0,0,1-16-16V857a16,16,0,0,1,16-16h84" transform="translate(-132 -362.67)"/><g class="cls-4"><path class="cls-5" d="M1016.39,888.84v-5.28H1007V881l8.48-13h4.64v12.54h2.68v3h-2.68v5.28Zm0-8.26v-5.66c0-1.18,0-2.4.13-3.62h-.13c-.64,1.32-1.18,2.37-1.82,3.52l-3.81,5.7,0,.06Z" transform="translate(-132 -362.67)"/><path class="cls-5" d="M1039.18,868v2.53l-8.8,18.27h-4.16l8.77-17.47v-.07h-9.79V868Z" transform="translate(-132 -362.67)"/></g><g class="cls-4"><path class="cls-5" d="M1116.39,888.84v-5.28H1107V881l8.48-13h4.64v12.54h2.68v3h-2.68v5.28Zm0-8.26v-5.66c0-1.18,0-2.4.13-3.62h-.13c-.64,1.32-1.18,2.37-1.82,3.52l-3.81,5.7,0,.06Z" transform="translate(-132 -362.67)"/><path class="cls-5" d="M1137.55,870.82a15.23,15.23,0,0,0-2,.1c-4.35.51-6.46,3.2-7,6.08h.09a6,6,0,0,1,4.67-2c3.59,0,6.37,2.56,6.37,6.79a7.22,7.22,0,0,1-7.33,7.42c-5,0-7.84-3.84-7.84-9a12.71,12.71,0,0,1,3.62-9.34,12,12,0,0,1,7.39-3.07,11,11,0,0,1,2-.07ZM1135.69,882c0-2.4-1.31-4.13-3.62-4.13a3.83,3.83,0,0,0-3.39,2.15,2.69,2.69,0,0,0-.25,1.25c.06,2.75,1.37,5,3.9,5C1134.38,886.25,1135.69,884.49,1135.69,882Z" transform="translate(-132 -362.67)"/></g><g class="cls-4"><path class="cls-5" d="M1216.39,888.84v-5.28H1207V881l8.48-13h4.64v12.54h2.68v3h-2.68v5.28Zm0-8.26v-5.66c0-1.18,0-2.4.13-3.62h-.13c-.64,1.32-1.18,2.37-1.82,3.52l-3.81,5.7,0,.06Z" transform="translate(-132 -362.67)"/><path class="cls-5" d="M1238.09,871.3h-8l-.61,4.16a11.25,11.25,0,0,1,1.51-.09,9.22,9.22,0,0,1,5,1.34,6,6,0,0,1,2.72,5.28c0,4-3.29,7.2-8.41,7.2a12,12,0,0,1-5.51-1.22l.8-3a10.55,10.55,0,0,0,4.58,1.09c2.3,0,4.51-1.31,4.51-3.81s-1.76-3.94-5.92-3.94a17.89,17.89,0,0,0-2.85.2l1.38-10.5h10.75Z" transform="translate(-132 -362.67)"/></g><g class="cls-4"><path class="cls-5" d="M1316.39,888.84v-5.28H1307V881l8.48-13h4.64v12.54h2.68v3h-2.68v5.28Zm0-8.26v-5.66c0-1.18,0-2.4.13-3.62h-.13c-.64,1.32-1.18,2.37-1.82,3.52l-3.81,5.7,0,.06Z" transform="translate(-132 -362.67)"/><path class="cls-5" d="M1333.55,888.84v-5.28h-9.41V881l8.48-13h4.64v12.54H1340v3h-2.69v5.28Zm0-8.26v-5.66c0-1.18,0-2.4.12-3.62h-.12c-.64,1.32-1.19,2.37-1.83,3.52l-3.81,5.7,0,.06Z" transform="translate(-132 -362.67)"/></g><g class="cls-4"><path class="cls-5" d="M1416.39,888.84v-5.28H1407V881l8.48-13h4.64v12.54h2.68v3h-2.68v5.28Zm0-8.26v-5.66c0-1.18,0-2.4.13-3.62h-.13c-.63,1.32-1.18,2.37-1.82,3.52l-3.81,5.7,0,.06Z" transform="translate(-132 -362.67)"/><path class="cls-5" d="M1425.68,884.78a10.38,10.38,0,0,0,4.73,1.27c3,0,4.23-1.69,4.19-3.32,0-2.47-2.3-3.52-4.7-3.52h-1.82v-2.88h1.76c1.82,0,4.12-.83,4.12-2.91,0-1.41-1-2.6-3.32-2.6a8.32,8.32,0,0,0-4.26,1.32l-.9-2.85a11.28,11.28,0,0,1,6-1.6c4.28,0,6.49,2.37,6.49,5.09,0,2.17-1.28,4-3.84,4.86v.06a5.26,5.26,0,0,1,4.58,5.19c0,3.52-3,6.3-8.1,6.3a11.32,11.32,0,0,1-5.82-1.44Z" transform="translate(-132 -362.67)"/></g><g class="cls-4"><path class="cls-5" d="M1516.39,888.84v-5.28H1507V881l8.48-13h4.64v12.54h2.68v3h-2.68v5.28Zm0-8.26v-5.66c0-1.18,0-2.4.13-3.62h-.13c-.63,1.32-1.18,2.37-1.82,3.52l-3.81,5.7,0,.06Z" transform="translate(-132 -362.67)"/><path class="cls-5" d="M1524.88,888.84v-2.4l2.46-2.27c4.89-4.55,7.2-7,7.23-9.79,0-1.86-1-3.49-3.71-3.49a7.6,7.6,0,0,0-4.45,1.73l-1.15-2.79a10.33,10.33,0,0,1,6.4-2.14c4.61,0,6.85,2.91,6.85,6.3,0,3.65-2.63,6.59-6.24,10l-1.83,1.57v.07H1539v3.26Z" transform="translate(-132 -362.67)"/></g><g class="cls-4"><path class="cls-5" d="M1616.39,888.84v-5.28H1607V881l8.48-13h4.64v12.54h2.68v3h-2.68v5.28Zm0-8.26v-5.66c0-1.18,0-2.4.13-3.62h-.13c-.63,1.32-1.18,2.37-1.82,3.52l-3.81,5.7,0,.06Z" transform="translate(-132 -362.67)"/><path class="cls-5" d="M1631.05,871.59H1631l-3.81,1.92-.67-3,5-2.5h3.3v20.8h-3.81Z" transform="translate(-132 -362.67)"/></g><g class="cls-4"><path class="cls-5" d="M1716.55,888.84v-5.28h-9.41V881l8.48-13h4.64v12.54h2.68v3h-2.68v5.28Zm0-8.26v-5.66c0-1.18,0-2.4.12-3.62h-.12c-.64,1.32-1.19,2.37-1.83,3.52l-3.81,5.7,0,.06Z" transform="translate(-132 -362.67)"/><path class="cls-5" d="M1739.71,878.31c0,6.69-2.62,10.88-7.58,10.88-4.8,0-7.36-4.35-7.39-10.69s2.75-10.81,7.61-10.81C1737.38,867.69,1739.71,872.17,1739.71,878.31Zm-11,.19c0,5.06,1.37,7.68,3.55,7.68s3.52-2.81,3.52-7.8-1.15-7.68-3.52-7.68C1730.15,870.7,1728.67,873.29,1728.71,878.5Z" transform="translate(-132 -362.67)"/></g><path class="cls-8" d="M1757.48,839.28h-768A17.54,17.54,0,0,0,972,856.79V901.7a17.54,17.54,0,0,0,17.51,17.52h768A17.54,17.54,0,0,0,1775,901.7V856.79A17.54,17.54,0,0,0,1757.48,839.28Zm-582.48,3h97v73.94h-97Zm-3,73.94h-97V842.28h97Zm103-73.94h97v73.94h-97Zm100,0h97v73.94h-97Zm100,0h97v73.94h-97Zm100,0h97v73.94h-97ZM975,901.7V856.79a14.53,14.53,0,0,1,14.51-14.51H1072v73.94H989.51A14.54,14.54,0,0,1,975,901.7Zm797,0a14.54,14.54,0,0,1-14.52,14.52H1675V842.28h82.48A14.53,14.53,0,0,1,1772,856.79Z" transform="translate(-132 -362.67)"/><g class="cls-6"><path class="cls-7" d="M984.56,783.18a36.68,36.68,0,0,1,6.44-.51c3.27,0,5.29.4,7,1.55a5.13,5.13,0,0,1,2.52,4.54,5.64,5.64,0,0,1-4,5.25v.08a6.11,6.11,0,0,1,4.9,6,6.3,6.3,0,0,1-2.34,5c-1.73,1.51-4.57,2.27-9,2.27a41.32,41.32,0,0,1-5.43-.33Zm4.39,9.57h2.26c3.06,0,4.79-1.44,4.79-3.49,0-2.27-1.73-3.31-4.53-3.31a11.82,11.82,0,0,0-2.52.18Zm0,11.16a19.82,19.82,0,0,0,2.34.11c2.84,0,5.36-1.08,5.36-4.07,0-2.8-2.45-4-5.51-4H989Z" transform="translate(-132 -362.67)"/><path class="cls-7" d="M1007.88,789.59l3.17,9.39c.36,1.08.72,2.41,1,3.42h.11c.29-1,.61-2.3.94-3.45l2.73-9.36h4.75l-4.39,11.95c-2.41,6.55-4,9.46-6.12,11.26a8.88,8.88,0,0,1-4.64,2.27l-1-3.74a7.53,7.53,0,0,0,2.59-1.23,7.66,7.66,0,0,0,2.41-2.77,1.75,1.75,0,0,0,.29-.79,1.8,1.8,0,0,0-.25-.86L1003,789.59Z" transform="translate(-132 -362.67)"/><path class="cls-7" d="M1028.19,784.58v5h4.21v3.31h-4.21v7.74c0,2.12.57,3.24,2.26,3.24a6.39,6.39,0,0,0,1.73-.22l.07,3.38a9.44,9.44,0,0,1-3.2.44,5.14,5.14,0,0,1-3.82-1.44c-.93-1-1.36-2.6-1.36-4.9V792.9h-2.52v-3.31h2.52v-4Z" transform="translate(-132 -362.67)"/><path class="cls-7" d="M1038.66,799.59c.11,3.17,2.59,4.54,5.4,4.54a13.26,13.26,0,0,0,4.86-.79l.65,3.06a16.54,16.54,0,0,1-6.12,1.08c-5.69,0-9-3.5-9-8.86,0-4.86,2.95-9.43,8.56-9.43s7.56,4.68,7.56,8.53a11.1,11.1,0,0,1-.14,1.87Zm7.71-3.09c0-1.62-.69-4.29-3.64-4.29-2.73,0-3.89,2.49-4.07,4.29Z" transform="translate(-132 -362.67)"/><path class="cls-7" d="M1075.6,787.39h-9l-.69,4.68a12.13,12.13,0,0,1,1.7-.11,10.43,10.43,0,0,1,5.68,1.51,6.71,6.71,0,0,1,3.06,5.94c0,4.47-3.71,8.1-9.46,8.1a13.44,13.44,0,0,1-6.2-1.37l.9-3.34a11.88,11.88,0,0,0,5.15,1.22c2.59,0,5.08-1.48,5.08-4.28s-2-4.43-6.66-4.43a19.7,19.7,0,0,0-3.21.22l1.55-11.81h12.1Z" transform="translate(-132 -362.67)"/></g><g class="cls-6"><line class="cls-16" x1="18.11" y1="284.24" x2="500" y2="284.24"/><path class="cls-1" d="M132,646.92c8.52,3.16,19.09,8.55,25.64,14.26l-5.16-14.26,5.16-14.27C151.09,638.36,140.52,643.76,132,646.92Z" transform="translate(-132 -362.67)"/></g><g class="cls-6"><line class="cls-17" x1="858.11" y1="284.24" x2="1240" y2="284.24"/><path class="cls-18" d="M972,646.92c8.52,3.16,19.09,8.55,25.64,14.26l-5.16-14.26,5.16-14.27C991.09,638.36,980.52,643.76,972,646.92Z" transform="translate(-132 -362.67)"/></g><g class="cls-6"><line class="cls-19" x1="1261.11" y1="284.24" x2="1643" y2="284.24"/><path class="cls-10" d="M1375,646.92c8.52,3.16,19.09,8.55,25.64,14.26l-5.16-14.26,5.16-14.27C1394.09,638.36,1383.52,643.76,1375,646.92Z" transform="translate(-132 -362.67)"/></g><g class="cls-6"><line class="cls-17" x1="18.11" y1="601.24" x2="803" y2="601.24"/><path class="cls-18" d="M132,963.91c8.52,3.17,19.09,8.56,25.64,14.27l-5.16-14.27,5.16-14.26C151.09,955.36,140.52,960.76,132,963.91Z" transform="translate(-132 -362.67)"/></g><g class="cls-6"><line class="cls-17" x1="1461.11" y1="601.24" x2="1643" y2="601.24"/><path class="cls-18" d="M1575,963.91c8.52,3.17,19.09,8.56,25.64,14.27l-5.16-14.27,5.16-14.26C1594.09,955.36,1583.52,960.76,1575,963.91Z" transform="translate(-132 -362.67)"/></g><g class="cls-6"><line class="cls-20" x1="1061.11" y1="601.24" x2="1440" y2="601.24"/><path class="cls-21" d="M1175,963.91c8.52,3.17,19.09,8.56,25.64,14.27l-5.16-14.27,5.16-14.26C1194.09,955.36,1183.52,960.76,1175,963.91Z" transform="translate(-132 -362.67)"/></g><g class="cls-6"><path class="cls-1" d="M457.28,363.8h2.09v14.43h6.91V380h-9Z" transform="translate(-132 -362.67)"/><path class="cls-1" d="M475,380l-.17-1.46h-.07a4.33,4.33,0,0,1-3.55,1.72,3.31,3.31,0,0,1-3.56-3.33c0-2.81,2.5-4.35,7-4.32v-.24a2.39,2.39,0,0,0-2.64-2.69,5.83,5.83,0,0,0-3,.86l-.48-1.39a7.23,7.23,0,0,1,3.81-1c3.55,0,4.42,2.42,4.42,4.75v4.35a16.79,16.79,0,0,0,.19,2.78Zm-.31-5.93c-2.31-.05-4.92.36-4.92,2.62a1.86,1.86,0,0,0,2,2,2.9,2.9,0,0,0,2.81-1.94,2.31,2.31,0,0,0,.12-.67Z" transform="translate(-132 -362.67)"/><path class="cls-1" d="M479.82,377.82a5.51,5.51,0,0,0,2.78.84c1.54,0,2.26-.77,2.26-1.73s-.6-1.56-2.16-2.13c-2.09-.75-3.08-1.9-3.08-3.29,0-1.87,1.52-3.41,4-3.41a5.85,5.85,0,0,1,2.86.72l-.53,1.54a4.45,4.45,0,0,0-2.37-.68c-1.25,0-1.95.72-1.95,1.59s.7,1.39,2.21,2c2,.76,3,1.77,3,3.5,0,2-1.59,3.48-4.35,3.48a6.6,6.6,0,0,1-3.26-.79Z" transform="translate(-132 -362.67)"/><path class="cls-1" d="M492.15,365v3.33h3V370h-3v6.27c0,1.44.41,2.25,1.59,2.25a4.78,4.78,0,0,0,1.22-.14l.1,1.58a5.14,5.14,0,0,1-1.87.29,2.9,2.9,0,0,1-2.28-.89,4.28,4.28,0,0,1-.82-3V370h-1.8v-1.61h1.8v-2.78Z" transform="translate(-132 -362.67)"/><path class="cls-1" d="M502.54,380c0-.79.1-2,.1-3v-14h2.09v7.3h0a4.32,4.32,0,0,1,4-2.14c2.88,0,4.92,2.4,4.89,5.93,0,4.15-2.61,6.21-5.2,6.21a4.13,4.13,0,0,1-3.89-2.18h-.08l-.09,1.92Zm2.19-4.66a3.77,3.77,0,0,0,.1.77,3.24,3.24,0,0,0,3.16,2.47c2.21,0,3.53-1.8,3.53-4.46,0-2.33-1.2-4.32-3.45-4.32a3.36,3.36,0,0,0-3.22,2.59,4.06,4.06,0,0,0-.12.87Z" transform="translate(-132 -362.67)"/><path class="cls-1" d="M518.65,365.1a1.31,1.31,0,0,1-2.62,0,1.29,1.29,0,0,1,1.32-1.32A1.26,1.26,0,0,1,518.65,365.1ZM516.3,380V368.36h2.11V380Z" transform="translate(-132 -362.67)"/><path class="cls-1" d="M524.46,365v3.33h3V370h-3v6.27c0,1.44.4,2.25,1.58,2.25a4.78,4.78,0,0,0,1.22-.14l.1,1.58a5.14,5.14,0,0,1-1.87.29,2.9,2.9,0,0,1-2.28-.89,4.28,4.28,0,0,1-.82-3V370h-1.8v-1.61h1.8v-2.78Z" transform="translate(-132 -362.67)"/><path class="cls-1" d="M545.46,374.08c0,4.29-3,6.16-5.79,6.16-3.14,0-5.57-2.3-5.57-6,0-3.89,2.55-6.17,5.76-6.17S545.46,370.52,545.46,374.08Zm-9.22.12c0,2.54,1.46,4.46,3.53,4.46s3.53-1.9,3.53-4.51c0-2-1-4.47-3.48-4.47S536.24,372,536.24,374.2Z" transform="translate(-132 -362.67)"/><path class="cls-1" d="M548.34,380V370H546.7v-1.61h1.64v-.55a5.51,5.51,0,0,1,1.34-4.06,4.08,4.08,0,0,1,2.83-1.08,4.83,4.83,0,0,1,1.8.34l-.29,1.63a3.2,3.2,0,0,0-1.34-.26c-1.8,0-2.26,1.58-2.26,3.36v.62h2.81V370h-2.81v10Z" transform="translate(-132 -362.67)"/><path class="cls-1" d="M560.43,380V370H558.8v-1.61h1.63v-.62c0-3.07,1.8-5.07,5.07-5.07a5.82,5.82,0,0,1,3,.77l-.6,1.61a4.47,4.47,0,0,0-2.45-.67c-2.23,0-2.88,1.56-2.88,3.41v.57h6.74V380h-2.08V370h-4.66v10Z" transform="translate(-132 -362.67)"/><path class="cls-1" d="M573.94,374.56a3.73,3.73,0,0,0,4,4,7.7,7.7,0,0,0,3.21-.6l.36,1.51a9.3,9.3,0,0,1-3.86.72c-3.58,0-5.71-2.35-5.71-5.86s2.06-6.26,5.45-6.26c3.79,0,4.8,3.34,4.8,5.47a6.86,6.86,0,0,1-.08,1Zm6.2-1.52c0-1.34-.56-3.43-2.93-3.43-2.14,0-3.07,2-3.24,3.43Z" transform="translate(-132 -362.67)"/><path class="cls-1" d="M584.79,362.94h2.11v17h-2.11Z" transform="translate(-132 -362.67)"/><path class="cls-1" d="M600.49,362.94v14c0,1,0,2.21.09,3h-1.89l-.1-2h-.05a4.28,4.28,0,0,1-4,2.28c-2.81,0-5-2.37-5-5.9,0-3.86,2.38-6.24,5.21-6.24a3.89,3.89,0,0,1,3.51,1.78h0v-6.94Zm-2.11,10.15a3.92,3.92,0,0,0-.1-.89,3.1,3.1,0,0,0-3-2.44c-2.18,0-3.48,1.92-3.48,4.48,0,2.36,1.15,4.3,3.43,4.3a3.18,3.18,0,0,0,3.1-2.52,3.79,3.79,0,0,0,.1-.91Z" transform="translate(-132 -362.67)"/><path class="cls-1" d="M613.13,362.94l-1.53,7.54h0a4.87,4.87,0,0,1,4.08-2.38c2.54,0,3.5,2.11,3.5,4.18,0,3.55-2.57,8-7.22,8-2,0-3.58-.84-3.58-3a12.36,12.36,0,0,1,.19-1.8l2.52-12.5Zm-2.52,12.55a5.58,5.58,0,0,0-.14,1.47c0,1.1.62,1.72,1.87,1.72,3,0,4.83-3.57,4.83-6.14,0-1.44-.63-2.78-2.21-2.78-1.73,0-3.51,1.77-4.08,4.51Z" transform="translate(-132 -362.67)"/><path class="cls-1" d="M620.62,380l3.24-17h2l-3.26,17Z" transform="translate(-132 -362.67)"/><path class="cls-1" d="M637.42,368.36l-1.56,8.24c-.24,1.29-.41,2.42-.53,3.38h-1.8l.32-2.18h-.05a5.17,5.17,0,0,1-4.11,2.44c-1.48,0-3-.72-3-3.36a10.92,10.92,0,0,1,.21-1.94l1.25-6.58h2l-1.22,6.48a7.56,7.56,0,0,0-.22,1.71c0,1.2.51,2,1.87,2s3.29-1.68,3.77-4.24l1.13-6Z" transform="translate(-132 -362.67)"/><path class="cls-1" d="M647.09,379.31a8,8,0,0,1-3.84.91c-3.07,0-4.41-2.09-4.41-4.66,0-3.5,2.59-7.46,6.33-7.46,2.21,0,3.41,1.32,3.41,3,0,3-3.43,3.86-7.73,3.79a5,5,0,0,0,.24,2.21,2.66,2.66,0,0,0,2.6,1.56,6.55,6.55,0,0,0,3.12-.82Zm-2.2-9.65c-1.9,0-3.32,1.85-3.8,3.67,3.12,0,5.57-.38,5.57-2.18C646.66,370.19,645.94,369.66,644.89,369.66Z" transform="translate(-132 -362.67)"/></g><g class="cls-6"><path class="cls-3" d="M633.82,430.3h8.72v1.76h-6.63v5.37H642v1.73h-6.12v7.32h-2.09Z" transform="translate(-132 -362.67)"/><path class="cls-3" d="M647.17,431.6a1.31,1.31,0,0,1-2.62,0,1.29,1.29,0,0,1,1.32-1.32A1.26,1.26,0,0,1,647.17,431.6Zm-2.35,14.88V434.86h2.11v11.62Z" transform="translate(-132 -362.67)"/><path class="cls-3" d="M650.43,438.49c0-1.37,0-2.55-.09-3.63h1.84l.08,2.28h.09a3.48,3.48,0,0,1,3.22-2.54,2.2,2.2,0,0,1,.6.07v2a3.74,3.74,0,0,0-.72-.07,3,3,0,0,0-2.83,2.71,5.81,5.81,0,0,0-.1,1v6.19h-2.09Z" transform="translate(-132 -362.67)"/><path class="cls-3" d="M658,444.32a5.55,5.55,0,0,0,2.79.84c1.53,0,2.25-.77,2.25-1.73s-.6-1.56-2.16-2.13c-2.09-.75-3.07-1.9-3.07-3.29,0-1.87,1.51-3.41,4-3.41a5.81,5.81,0,0,1,2.85.72l-.52,1.54a4.52,4.52,0,0,0-2.38-.68c-1.25,0-1.94.72-1.94,1.59s.69,1.39,2.2,2c2,.76,3.05,1.77,3.05,3.5,0,2-1.58,3.48-4.34,3.48a6.67,6.67,0,0,1-3.27-.79Z" transform="translate(-132 -362.67)"/><path class="cls-3" d="M670.33,431.53v3.33h3v1.61h-3v6.27c0,1.44.41,2.25,1.58,2.25a4.93,4.93,0,0,0,1.23-.14l.09,1.58a5.1,5.1,0,0,1-1.87.29,2.91,2.91,0,0,1-2.28-.89,4.28,4.28,0,0,1-.82-3v-6.34h-1.8v-1.61h1.8v-2.78Z" transform="translate(-132 -362.67)"/><path class="cls-3" d="M680.72,446.48c0-.79.1-2,.1-3v-14h2.08v7.3H683a4.33,4.33,0,0,1,4-2.14c2.88,0,4.92,2.4,4.9,5.93,0,4.15-2.62,6.21-5.21,6.21a4.14,4.14,0,0,1-3.89-2.18h-.07l-.1,1.92Zm2.18-4.66a3.77,3.77,0,0,0,.1.77,3.25,3.25,0,0,0,3.17,2.47c2.21,0,3.53-1.8,3.53-4.46,0-2.33-1.2-4.32-3.46-4.32a3.37,3.37,0,0,0-3.22,2.59,4.8,4.8,0,0,0-.12.87Z" transform="translate(-132 -362.67)"/><path class="cls-3" d="M696.82,431.6a1.24,1.24,0,0,1-1.34,1.3,1.26,1.26,0,0,1-1.27-1.3,1.29,1.29,0,0,1,1.32-1.32A1.25,1.25,0,0,1,696.82,431.6Zm-2.35,14.88V434.86h2.11v11.62Z" transform="translate(-132 -362.67)"/><path class="cls-3" d="M702.63,431.53v3.33h3v1.61h-3v6.27c0,1.44.41,2.25,1.59,2.25a4.78,4.78,0,0,0,1.22-.14l.1,1.58a5.16,5.16,0,0,1-1.88.29,2.93,2.93,0,0,1-2.28-.89,4.28,4.28,0,0,1-.81-3v-6.34h-1.8v-1.61h1.8v-2.78Z" transform="translate(-132 -362.67)"/><path class="cls-3" d="M723.63,440.58c0,4.29-3,6.16-5.78,6.16-3.15,0-5.57-2.3-5.57-6,0-3.89,2.54-6.17,5.76-6.17S723.63,437,723.63,440.58Zm-9.22.12c0,2.54,1.47,4.46,3.53,4.46s3.53-1.9,3.53-4.51c0-2-1-4.47-3.48-4.47S714.41,438.49,714.41,440.7Z" transform="translate(-132 -362.67)"/><path class="cls-3" d="M726.51,446.48v-10h-1.63v-1.61h1.63v-.55a5.51,5.51,0,0,1,1.34-4.06,4.1,4.1,0,0,1,2.84-1.08,4.87,4.87,0,0,1,1.8.34l-.29,1.63a3.25,3.25,0,0,0-1.35-.26c-1.8,0-2.25,1.58-2.25,3.36v.62h2.81v1.61H728.6v10Z" transform="translate(-132 -362.67)"/><path class="cls-3" d="M738.61,446.48v-10H737v-1.61h1.64v-.62c0-3.07,1.8-5.07,5.06-5.07a5.82,5.82,0,0,1,3,.77l-.6,1.61a4.42,4.42,0,0,0-2.45-.67c-2.23,0-2.88,1.56-2.88,3.41v.57h6.75v11.62h-2.09v-10h-4.66v10Z" transform="translate(-132 -362.67)"/><path class="cls-3" d="M752.12,441.06a3.72,3.72,0,0,0,4,4,7.75,7.75,0,0,0,3.22-.6l.36,1.51a9.39,9.39,0,0,1-3.87.72c-3.57,0-5.71-2.35-5.71-5.86s2.07-6.26,5.45-6.26c3.79,0,4.8,3.34,4.8,5.47a9.22,9.22,0,0,1-.07,1Zm6.19-1.52c0-1.34-.55-3.43-2.93-3.43-2.13,0-3.07,2-3.24,3.43Z" transform="translate(-132 -362.67)"/><path class="cls-3" d="M763,429.44h2.11v17H763Z" transform="translate(-132 -362.67)"/><path class="cls-3" d="M778.66,429.44v14c0,1,0,2.21.1,3h-1.9l-.09-2h0a4.3,4.3,0,0,1-4,2.28c-2.81,0-5-2.37-5-5.9,0-3.86,2.38-6.24,5.21-6.24a3.88,3.88,0,0,1,3.5,1.78h0v-6.94Zm-2.11,10.15a3.42,3.42,0,0,0-.1-.89,3.1,3.1,0,0,0-3-2.44c-2.19,0-3.48,1.92-3.48,4.48,0,2.36,1.15,4.3,3.43,4.3a3.17,3.17,0,0,0,3.09-2.52,3.34,3.34,0,0,0,.1-.91Z" transform="translate(-132 -362.67)"/><path class="cls-3" d="M786.29,449.12a6.2,6.2,0,0,0,3.08.77c1.94,0,3.48-1,4.17-4.15l.39-1.73h-.08a4.63,4.63,0,0,1-4,2.47c-2.33,0-3.53-2-3.53-4,0-3.94,2.88-7.85,7.37-7.85a9.46,9.46,0,0,1,3.72.81L795.61,445c-.48,2.44-1.13,4.15-2.36,5.18a6.1,6.1,0,0,1-4,1.3,6.87,6.87,0,0,1-3.48-.82Zm8.91-12.53a4.83,4.83,0,0,0-1.92-.38c-2.91,0-4.9,3-4.92,5.9,0,1.27.45,2.79,2.23,2.79s3.43-2.16,3.86-4.44Z" transform="translate(-132 -362.67)"/><path class="cls-3" d="M798.75,446.48l1.42-7.49c.28-1.51.48-3.05.6-4.13h1.75c-.1.82-.19,1.64-.31,2.52h.07c.74-1.58,2-2.78,3.55-2.78a3.12,3.12,0,0,1,.55,0l-.38,2a2.37,2.37,0,0,0-.53-.05c-1.73,0-3.26,2.09-3.77,4.8l-1,5.11Z" transform="translate(-132 -362.67)"/><path class="cls-3" d="M814.61,445.81a8,8,0,0,1-3.84.91c-3.07,0-4.41-2.09-4.41-4.66,0-3.5,2.59-7.46,6.33-7.46,2.21,0,3.41,1.32,3.41,3,0,3-3.43,3.86-7.73,3.79a5,5,0,0,0,.24,2.21,2.66,2.66,0,0,0,2.6,1.56,6.55,6.55,0,0,0,3.12-.82Zm-2.2-9.65c-1.9,0-3.32,1.85-3.8,3.67,3.12,0,5.57-.38,5.57-2.18C814.18,436.69,813.46,436.16,812.41,436.16Z" transform="translate(-132 -362.67)"/><path class="cls-3" d="M825.49,445.81a8.12,8.12,0,0,1-3.85.91c-3.07,0-4.41-2.09-4.41-4.66,0-3.5,2.59-7.46,6.33-7.46,2.21,0,3.41,1.32,3.41,3,0,3-3.43,3.86-7.73,3.79a5,5,0,0,0,.24,2.21,2.66,2.66,0,0,0,2.6,1.56,6.51,6.51,0,0,0,3.12-.82Zm-2.21-9.65c-1.9,0-3.32,1.85-3.8,3.67,3.12,0,5.57-.38,5.57-2.18C825.05,436.69,824.33,436.16,823.28,436.16Z" transform="translate(-132 -362.67)"/><path class="cls-3" d="M828,446.48l1.56-8.23c.26-1.3.41-2.43.55-3.39h1.78l-.29,2.28h0a5.08,5.08,0,0,1,4.3-2.54c1.39,0,3,.79,3,3.24a11.23,11.23,0,0,1-.22,1.87l-1.29,6.77h-2l1.28-6.7a8,8,0,0,0,.16-1.48c0-1.18-.45-2-1.82-2s-3.43,1.7-4,4.58L830,446.48Z" transform="translate(-132 -362.67)"/></g><line class="cls-22" x1="552.86" y1="95.24" x2="548.08" y2="147.93"/><path class="cls-12" d="M671.75,496.12a1,1,0,0,1,1.35.44l7,13.59L689.47,498a1,1,0,0,1,1.4-.18,1,1,0,0,1,.19,1.4l-10.32,13.36a1,1,0,0,1-1.68-.16l-7.74-15a1,1,0,0,1-.1-.55A1,1,0,0,1,671.75,496.12Z" transform="translate(-132 -362.67)"/><line class="cls-23" x1="439" y1="27.74" x2="449.16" y2="147.93"/><path class="cls-10" d="M570.44,497.79a1,1,0,0,1,1.4.19l9.28,12.17,7.1-13.55a1,1,0,0,1,1.78.93l-7.84,14.94a1,1,0,0,1-1.68.14l-10.23-13.42a1,1,0,0,1-.2-.52A1,1,0,0,1,570.44,497.79Z" transform="translate(-132 -362.67)"/><g class="cls-6"><path class="cls-24" d="M1388.16,424.83h8.72v1.75h-6.63V432h6.12v1.73h-6.12V441h-2.09Z" transform="translate(-132 -362.67)"/><path class="cls-24" d="M1401.51,426.12a1.31,1.31,0,0,1-2.62,0,1.29,1.29,0,0,1,1.32-1.32A1.26,1.26,0,0,1,1401.51,426.12ZM1399.16,441V429.39h2.11V441Z" transform="translate(-132 -362.67)"/><path class="cls-24" d="M1404.77,433c0-1.36,0-2.54-.09-3.62h1.84l.08,2.28h.09a3.49,3.49,0,0,1,3.22-2.55,2.18,2.18,0,0,1,.6.08v2a3.08,3.08,0,0,0-.72-.07,3,3,0,0,0-2.83,2.71,5.69,5.69,0,0,0-.1,1V441h-2.09Z" transform="translate(-132 -362.67)"/><path class="cls-24" d="M1412.33,438.85a5.65,5.65,0,0,0,2.79.84c1.53,0,2.25-.77,2.25-1.73s-.6-1.56-2.16-2.14c-2.09-.74-3.07-1.9-3.07-3.29,0-1.87,1.51-3.41,4-3.41a5.81,5.81,0,0,1,2.85.72l-.52,1.54a4.53,4.53,0,0,0-2.38-.67c-1.25,0-1.94.72-1.94,1.58s.69,1.4,2.2,2c2,.77,3.05,1.78,3.05,3.51,0,2-1.58,3.48-4.34,3.48a6.67,6.67,0,0,1-3.27-.8Z" transform="translate(-132 -362.67)"/><path class="cls-24" d="M1424.67,426.05v3.34h3V431h-3v6.26c0,1.44.41,2.26,1.58,2.26a4.42,4.42,0,0,0,1.23-.15l.09,1.59a5.1,5.1,0,0,1-1.87.29,3,3,0,0,1-2.28-.89,4.33,4.33,0,0,1-.82-3V431h-1.8v-1.61h1.8V426.6Z" transform="translate(-132 -362.67)"/><path class="cls-24" d="M1435.06,441c0-.8.09-2,.09-3V424h2.09v7.3h0a4.32,4.32,0,0,1,4-2.14c2.88,0,4.92,2.41,4.9,5.93,0,4.16-2.62,6.22-5.21,6.22a4.14,4.14,0,0,1-3.89-2.18H1437l-.1,1.92Zm2.18-4.66a3.86,3.86,0,0,0,.1.77,3.26,3.26,0,0,0,3.17,2.47c2.21,0,3.53-1.8,3.53-4.47,0-2.32-1.2-4.32-3.46-4.32a3.38,3.38,0,0,0-3.22,2.6,4,4,0,0,0-.12.86Z" transform="translate(-132 -362.67)"/><path class="cls-24" d="M1451.16,426.12a1.31,1.31,0,0,1-2.61,0,1.29,1.29,0,0,1,1.32-1.32A1.25,1.25,0,0,1,1451.16,426.12ZM1448.81,441V429.39h2.11V441Z" transform="translate(-132 -362.67)"/><path class="cls-24" d="M1457,426.05v3.34h3V431h-3v6.26c0,1.44.41,2.26,1.58,2.26a4.31,4.31,0,0,0,1.23-.15l.09,1.59a5.06,5.06,0,0,1-1.87.29,3,3,0,0,1-2.28-.89,4.33,4.33,0,0,1-.81-3V431h-1.8v-1.61h1.8V426.6Z" transform="translate(-132 -362.67)"/><path class="cls-24" d="M1478,435.1c0,4.3-3,6.17-5.78,6.17-3.15,0-5.57-2.3-5.57-6,0-3.88,2.54-6.17,5.76-6.17S1478,431.55,1478,435.1Zm-9.22.12c0,2.55,1.47,4.47,3.53,4.47s3.53-1.9,3.53-4.52c0-2-1-4.46-3.48-4.46S1468.75,433,1468.75,435.22Z" transform="translate(-132 -362.67)"/><path class="cls-24" d="M1480.85,441V431h-1.63v-1.61h1.63v-.55a5.49,5.49,0,0,1,1.34-4.06,4.05,4.05,0,0,1,2.84-1.08,4.87,4.87,0,0,1,1.8.34l-.29,1.63a3.08,3.08,0,0,0-1.35-.27c-1.8,0-2.25,1.59-2.25,3.36v.63h2.81V431h-2.81v10Z" transform="translate(-132 -362.67)"/><path class="cls-24" d="M1493,441V431h-1.64v-1.61H1493v-.63c0-3.07,1.8-5.06,5.06-5.06a5.82,5.82,0,0,1,3,.77l-.6,1.61a4.41,4.41,0,0,0-2.45-.68c-2.23,0-2.88,1.56-2.88,3.41v.58h6.75V441h-2.09V431H1495v10Z" transform="translate(-132 -362.67)"/><path class="cls-24" d="M1506.46,435.58a3.72,3.72,0,0,0,4,4,7.6,7.6,0,0,0,3.22-.6l.36,1.52a9.56,9.56,0,0,1-3.87.72c-3.57,0-5.71-2.36-5.71-5.86s2.07-6.27,5.45-6.27c3.79,0,4.8,3.34,4.8,5.48a8.79,8.79,0,0,1-.07,1Zm6.19-1.51c0-1.34-.55-3.43-2.93-3.43-2.13,0-3.07,2-3.24,3.43Z" transform="translate(-132 -362.67)"/><path class="cls-24" d="M1517.31,424h2.11V441h-2.11Z" transform="translate(-132 -362.67)"/><path class="cls-24" d="M1533,424V438c0,1,0,2.2.1,3h-1.9l-.09-2h0a4.3,4.3,0,0,1-4,2.28c-2.81,0-5-2.38-5-5.9,0-3.87,2.38-6.25,5.21-6.25a3.88,3.88,0,0,1,3.5,1.78h.05V424Zm-2.11,10.16a3.33,3.33,0,0,0-.1-.89,3.09,3.09,0,0,0-3-2.45c-2.19,0-3.48,1.92-3.48,4.49,0,2.35,1.15,4.3,3.43,4.3a3.17,3.17,0,0,0,3.09-2.52,3.37,3.37,0,0,0,.1-.92Z" transform="translate(-132 -362.67)"/><path class="cls-24" d="M1545.65,424l-1.54,7.54h.05a4.9,4.9,0,0,1,4.08-2.38c2.55,0,3.51,2.12,3.51,4.18,0,3.55-2.57,8-7.23,8-2,0-3.58-.84-3.58-3a11,11,0,0,1,.2-1.8l2.52-12.51Zm-2.52,12.56A5,5,0,0,0,1543,438c0,1.11.63,1.73,1.88,1.73,3,0,4.82-3.58,4.82-6.14,0-1.45-.62-2.79-2.21-2.79s-3.5,1.78-4.08,4.51Z" transform="translate(-132 -362.67)"/><path class="cls-24" d="M1553.14,441l3.24-17.05h2L1555.1,441Z" transform="translate(-132 -362.67)"/><path class="cls-24" d="M1569.94,429.39l-1.56,8.23c-.24,1.3-.41,2.43-.53,3.39h-1.8l.31-2.19h0a5.18,5.18,0,0,1-4.1,2.45c-1.49,0-3-.72-3-3.36a10.08,10.08,0,0,1,.22-1.94l1.24-6.58h2l-1.23,6.48a8.09,8.09,0,0,0-.21,1.7c0,1.2.5,2,1.87,2s3.29-1.68,3.77-4.25l1.12-5.95Z" transform="translate(-132 -362.67)"/><path class="cls-24" d="M1579.61,440.33a8,8,0,0,1-3.84.92c-3.07,0-4.42-2.09-4.42-4.66,0-3.51,2.59-7.47,6.34-7.47,2.21,0,3.41,1.33,3.41,3,0,3-3.44,3.87-7.73,3.79a4.68,4.68,0,0,0,.24,2.21,2.64,2.64,0,0,0,2.59,1.56,6.52,6.52,0,0,0,3.12-.81Zm-2.21-9.65c-1.9,0-3.31,1.85-3.79,3.68,3.12,0,5.57-.39,5.57-2.19C1579.18,431.21,1578.46,430.68,1577.4,430.68Z" transform="translate(-132 -362.67)"/></g><g class="cls-6"><path class="cls-18" d="M1224.71,371.33h2.08v14.42h6.92v1.76h-9Z" transform="translate(-132 -362.67)"/><path class="cls-18" d="M1242.39,387.51l-.16-1.47h-.08a4.31,4.31,0,0,1-3.55,1.73,3.31,3.31,0,0,1-3.55-3.34c0-2.81,2.5-4.34,7-4.32v-.24a2.39,2.39,0,0,0-2.64-2.69,5.74,5.74,0,0,0-3,.87l-.48-1.39a7.16,7.16,0,0,1,3.82-1c3.55,0,4.41,2.43,4.41,4.76v4.34a16.91,16.91,0,0,0,.19,2.79Zm-.31-5.93c-2.3-.05-4.92.36-4.92,2.61a1.87,1.87,0,0,0,2,2,2.88,2.88,0,0,0,2.81-1.94,2.32,2.32,0,0,0,.12-.68Z" transform="translate(-132 -362.67)"/><path class="cls-18" d="M1247.24,385.35a5.65,5.65,0,0,0,2.79.84c1.53,0,2.25-.77,2.25-1.73s-.6-1.56-2.16-2.14c-2.09-.74-3.07-1.9-3.07-3.29,0-1.87,1.51-3.41,4-3.41a5.81,5.81,0,0,1,2.85.72l-.52,1.54a4.53,4.53,0,0,0-2.38-.67c-1.25,0-2,.72-2,1.58s.7,1.4,2.21,2c2,.77,3,1.78,3,3.51,0,2-1.58,3.48-4.34,3.48a6.67,6.67,0,0,1-3.27-.8Z" transform="translate(-132 -362.67)"/><path class="cls-18" d="M1259.58,372.55v3.34h3v1.61h-3v6.26c0,1.44.41,2.26,1.58,2.26a4.42,4.42,0,0,0,1.23-.15l.09,1.59a5.1,5.1,0,0,1-1.87.29,3,3,0,0,1-2.28-.89,4.33,4.33,0,0,1-.82-3V377.5h-1.8v-1.61h1.8V373.1Z" transform="translate(-132 -362.67)"/><path class="cls-18" d="M1270,387.51c0-.8.09-2,.09-3V370.46h2.09v7.3h0a4.32,4.32,0,0,1,4-2.14c2.88,0,4.92,2.41,4.9,5.93,0,4.16-2.62,6.22-5.21,6.22a4.14,4.14,0,0,1-3.89-2.18h-.07l-.1,1.92Zm2.18-4.66a3.86,3.86,0,0,0,.1.77,3.26,3.26,0,0,0,3.17,2.47c2.21,0,3.53-1.8,3.53-4.47,0-2.32-1.2-4.32-3.46-4.32a3.38,3.38,0,0,0-3.22,2.6,4,4,0,0,0-.12.86Z" transform="translate(-132 -362.67)"/><path class="cls-18" d="M1286.07,372.62a1.31,1.31,0,0,1-2.61,0,1.29,1.29,0,0,1,1.32-1.32A1.25,1.25,0,0,1,1286.07,372.62Zm-2.35,14.89V375.89h2.11v11.62Z" transform="translate(-132 -362.67)"/><path class="cls-18" d="M1291.88,372.55v3.34h3v1.61h-3v6.26c0,1.44.41,2.26,1.58,2.26a4.31,4.31,0,0,0,1.23-.15l.09,1.59a5.06,5.06,0,0,1-1.87.29,3,3,0,0,1-2.28-.89,4.33,4.33,0,0,1-.81-3V377.5H1288v-1.61h1.8V373.1Z" transform="translate(-132 -362.67)"/><path class="cls-18" d="M1312.88,381.6c0,4.3-3,6.17-5.78,6.17-3.15,0-5.57-2.3-5.57-6,0-3.88,2.54-6.17,5.76-6.17S1312.88,378.05,1312.88,381.6Zm-9.22.12c0,2.55,1.47,4.47,3.53,4.47s3.53-1.9,3.53-4.52c0-2-1-4.46-3.48-4.46S1303.66,379.51,1303.66,381.72Z" transform="translate(-132 -362.67)"/><path class="cls-18" d="M1315.76,387.51v-10h-1.63v-1.61h1.63v-.55a5.49,5.49,0,0,1,1.34-4.06,4.05,4.05,0,0,1,2.84-1.08,4.87,4.87,0,0,1,1.8.34l-.29,1.63a3.08,3.08,0,0,0-1.35-.27c-1.8,0-2.25,1.59-2.25,3.36v.63h2.81v1.61h-2.81v10Z" transform="translate(-132 -362.67)"/><path class="cls-18" d="M1327.86,387.51v-10h-1.64v-1.61h1.64v-.63c0-3.07,1.8-5.06,5.06-5.06a5.82,5.82,0,0,1,2.95.77l-.6,1.61a4.41,4.41,0,0,0-2.45-.68c-2.23,0-2.88,1.56-2.88,3.41v.58h6.75v11.62h-2.09v-10h-4.66v10Z" transform="translate(-132 -362.67)"/><path class="cls-18" d="M1341.37,382.08a3.72,3.72,0,0,0,4,4,7.6,7.6,0,0,0,3.22-.6l.36,1.52a9.56,9.56,0,0,1-3.87.72c-3.57,0-5.71-2.36-5.71-5.86s2.07-6.27,5.45-6.27c3.79,0,4.8,3.34,4.8,5.48a8.79,8.79,0,0,1-.07,1Zm6.19-1.51c0-1.34-.55-3.43-2.93-3.43-2.13,0-3.07,2-3.24,3.43Z" transform="translate(-132 -362.67)"/><path class="cls-18" d="M1352.21,370.46h2.12v17.05h-2.12Z" transform="translate(-132 -362.67)"/><path class="cls-18" d="M1367.91,370.46v14.05c0,1,0,2.2.1,3h-1.9l-.09-2h0a4.3,4.3,0,0,1-4,2.28c-2.81,0-5-2.38-5-5.9,0-3.87,2.37-6.25,5.21-6.25a3.88,3.88,0,0,1,3.5,1.78h0v-6.94Zm-2.11,10.16a3.33,3.33,0,0,0-.1-.89,3.1,3.1,0,0,0-3-2.45c-2.18,0-3.47,1.92-3.47,4.49,0,2.35,1.15,4.3,3.43,4.3a3.17,3.17,0,0,0,3.09-2.52,3.37,3.37,0,0,0,.1-.92Z" transform="translate(-132 -362.67)"/><path class="cls-18" d="M1378,375.89l1.15,6.26c.26,1.32.41,2.19.53,3.05h0c.32-.74.65-1.56,1.25-2.83l3-6.48H1386l-4.35,8.83a21.66,21.66,0,0,1-4,6.1,7.19,7.19,0,0,1-3.38,2l-.48-1.7a7.72,7.72,0,0,0,2.14-1.13,9.16,9.16,0,0,0,2.23-2.66.89.89,0,0,0,.07-.53l-2.33-10.92Z" transform="translate(-132 -362.67)"/><path class="cls-18" d="M1394.19,386.83a7.92,7.92,0,0,1-3.84.92c-3.07,0-4.42-2.09-4.42-4.66,0-3.51,2.6-7.47,6.34-7.47,2.21,0,3.41,1.33,3.41,3,0,3-3.43,3.87-7.73,3.79a4.81,4.81,0,0,0,.24,2.21,2.65,2.65,0,0,0,2.59,1.56,6.52,6.52,0,0,0,3.12-.81Zm-2.21-9.65c-1.89,0-3.31,1.85-3.79,3.68,3.12,0,5.57-.39,5.57-2.19C1393.76,377.71,1393,377.18,1392,377.18Z" transform="translate(-132 -362.67)"/><path class="cls-18" d="M1396.71,387.51l3.24-17.05h2l-3.26,17.05Z" transform="translate(-132 -362.67)"/><path class="cls-18" d="M1402.21,387.51l3.24-17.05h2l-3.27,17.05Z" transform="translate(-132 -362.67)"/><path class="cls-18" d="M1418.81,380.47c0,3.58-2.54,7.3-6.43,7.3-2.9,0-4.53-2.16-4.53-4.78,0-3.81,2.66-7.37,6.43-7.37C1417.42,375.62,1418.81,378,1418.81,380.47Zm-8.9,2.45c0,1.9,1,3.27,2.74,3.27,2.35,0,4.12-3,4.12-5.74,0-1.34-.62-3.24-2.71-3.24C1411.57,377.21,1409.89,380.26,1409.91,382.92Z" transform="translate(-132 -362.67)"/><path class="cls-18" d="M1422.8,375.89l.41,6.53a28.18,28.18,0,0,1,0,3.12h.08a25.65,25.65,0,0,1,1.27-2.91l3.45-6.74h1.73l.72,6.62a25.68,25.68,0,0,1,.19,3h0c.31-.94.65-1.83,1.11-2.93l3.14-6.72h2l-5.74,11.62h-1.85l-.77-6.32a27.12,27.12,0,0,1-.16-3.07h0c-.48,1.11-.82,2-1.35,3l-3.33,6.36h-1.85l-1.08-11.62Z" transform="translate(-132 -362.67)"/></g><line class="cls-25" x1="1183.74" y1="36.26" x2="1191.34" y2="147.93"/><path class="cls-18" d="M1312.83,497.62a1,1,0,0,1,1.4.21l9.08,12.32,7.32-13.44a1,1,0,0,1,1.76,1l-8.08,14.81a1,1,0,0,1-.81.52,1,1,0,0,1-.87-.4l-10-13.59a.92.92,0,0,1-.19-.52A1,1,0,0,1,1312.83,497.62Z" transform="translate(-132 -362.67)"/><line class="cls-26" x1="1309.88" y1="88.76" x2="1300.62" y2="147.95"/><path class="cls-24" d="M1425.25,495.64a1,1,0,0,1,1.31.51l6.13,14,10.11-11.48a1,1,0,1,1,1.5,1.33l-11.15,12.65a1,1,0,0,1-.91.33,1,1,0,0,1-.76-.59L1424.73,497a1,1,0,0,1-.07-.55A1,1,0,0,1,1425.25,495.64Z" transform="translate(-132 -362.67)"/><g class="cls-6"><path class="cls-21" d="M1168.78,748.53h8.71v1.75h-6.62v5.38H1177v1.73h-6.12v7.32h-2.09Z" transform="translate(-132 -362.67)"/><path class="cls-21" d="M1182.13,749.83a1.31,1.31,0,0,1-2.62,0,1.28,1.28,0,0,1,1.32-1.32A1.25,1.25,0,0,1,1182.13,749.83Zm-2.36,14.88V753.09h2.12v11.62Z" transform="translate(-132 -362.67)"/><path class="cls-21" d="M1185.1,762.55a5.55,5.55,0,0,0,2.79.84c1.53,0,2.25-.77,2.25-1.73s-.6-1.56-2.16-2.14c-2.09-.74-3.07-1.89-3.07-3.28,0-1.88,1.51-3.41,4-3.41a5.7,5.7,0,0,1,2.85.72l-.52,1.53a4.63,4.63,0,0,0-2.38-.67c-1.25,0-1.94.72-1.94,1.59s.69,1.39,2.2,2c2,.77,3,1.78,3,3.51,0,2-1.58,3.48-4.34,3.48a6.67,6.67,0,0,1-3.27-.79Z" transform="translate(-132 -362.67)"/><path class="cls-21" d="M1194.89,756.72c0-1.37,0-2.55-.09-3.63h1.85l.07,2.28h.09a3.48,3.48,0,0,1,3.22-2.54,2.2,2.2,0,0,1,.6.07v2a3.08,3.08,0,0,0-.72-.07,3,3,0,0,0-2.83,2.71,5.81,5.81,0,0,0-.1,1v6.19h-2.09Z" transform="translate(-132 -362.67)"/><path class="cls-21" d="M1205.86,749.76v3.33h3v1.61h-3V761c0,1.44.41,2.26,1.58,2.26a4.8,4.8,0,0,0,1.23-.14l.1,1.58a5.16,5.16,0,0,1-1.88.29,2.93,2.93,0,0,1-2.28-.89,4.3,4.3,0,0,1-.81-3V754.7H1202v-1.61h1.8v-2.78Z" transform="translate(-132 -362.67)"/><path class="cls-21" d="M1216.25,764.71c0-.79.1-2,.1-3v-14h2.09V755h0a4.34,4.34,0,0,1,4-2.13c2.88,0,4.93,2.4,4.9,5.93,0,4.15-2.62,6.21-5.21,6.21a4.14,4.14,0,0,1-3.89-2.18h-.07l-.09,1.92Zm2.19-4.66a3.78,3.78,0,0,0,.09.77,3.25,3.25,0,0,0,3.17,2.47c2.21,0,3.53-1.8,3.53-4.46,0-2.33-1.2-4.32-3.46-4.32a3.35,3.35,0,0,0-3.21,2.59,4,4,0,0,0-.12.86Z" transform="translate(-132 -362.67)"/><path class="cls-21" d="M1232.36,749.83a1.31,1.31,0,0,1-2.62,0,1.28,1.28,0,0,1,1.32-1.32A1.25,1.25,0,0,1,1232.36,749.83ZM1230,764.71V753.09h2.12v11.62Z" transform="translate(-132 -362.67)"/><path class="cls-21" d="M1238.16,749.76v3.33h3v1.61h-3V761c0,1.44.41,2.26,1.59,2.26a4.78,4.78,0,0,0,1.22-.14l.1,1.58a5.14,5.14,0,0,1-1.87.29,2.9,2.9,0,0,1-2.28-.89,4.3,4.3,0,0,1-.82-3V754.7h-1.8v-1.61h1.8v-2.78Z" transform="translate(-132 -362.67)"/><path class="cls-21" d="M1259.16,758.8c0,4.3-3,6.17-5.78,6.17-3.14,0-5.57-2.3-5.57-6,0-3.89,2.55-6.17,5.76-6.17S1259.16,755.25,1259.16,758.8Zm-9.21.12c0,2.55,1.46,4.47,3.53,4.47s3.52-1.9,3.52-4.51c0-2-1-4.47-3.48-4.47S1250,756.72,1250,758.92Z" transform="translate(-132 -362.67)"/><path class="cls-21" d="M1262,764.71v-10h-1.63v-1.61H1262v-.55a5.47,5.47,0,0,1,1.35-4.06,4.08,4.08,0,0,1,2.83-1.08,4.87,4.87,0,0,1,1.8.34l-.29,1.63a3.2,3.2,0,0,0-1.34-.26c-1.8,0-2.26,1.58-2.26,3.36v.62h2.81v1.61h-2.81v10Z" transform="translate(-132 -362.67)"/><path class="cls-21" d="M1274.14,764.71v-10h-1.63v-1.61h1.63v-.62c0-3.07,1.8-5.07,5.06-5.07a5.86,5.86,0,0,1,3,.77l-.6,1.61a4.47,4.47,0,0,0-2.45-.67c-2.23,0-2.88,1.56-2.88,3.41v.57H1283v11.62h-2.09v-10h-4.65v10Z" transform="translate(-132 -362.67)"/><path class="cls-21" d="M1287.65,759.28a3.73,3.73,0,0,0,4,4,7.7,7.7,0,0,0,3.21-.6l.36,1.51a9.3,9.3,0,0,1-3.86.72c-3.58,0-5.71-2.35-5.71-5.86s2.06-6.26,5.44-6.26c3.8,0,4.8,3.33,4.8,5.47a6.87,6.87,0,0,1-.07,1Zm6.19-1.51c0-1.34-.55-3.43-2.93-3.43-2.13,0-3.07,2-3.24,3.43Z" transform="translate(-132 -362.67)"/><path class="cls-21" d="M1298.5,747.67h2.11v17h-2.11Z" transform="translate(-132 -362.67)"/><path class="cls-21" d="M1314.2,747.67v14c0,1,0,2.21.09,3h-1.9l-.09-2h0a4.29,4.29,0,0,1-4,2.28c-2.81,0-5-2.37-5-5.9,0-3.87,2.38-6.24,5.21-6.24a3.9,3.9,0,0,1,3.51,1.77h0v-6.93Zm-2.12,10.15a3.9,3.9,0,0,0-.09-.89,3.12,3.12,0,0,0-3-2.45c-2.19,0-3.48,1.92-3.48,4.49,0,2.35,1.15,4.3,3.43,4.3a3.18,3.18,0,0,0,3.1-2.52,3.8,3.8,0,0,0,.09-.91Z" transform="translate(-132 -362.67)"/><path class="cls-21" d="M1321.71,764.71l1.41-7.49c.29-1.51.48-3.05.6-4.13h1.75c-.09.82-.19,1.63-.31,2.52h.07c.75-1.58,2-2.78,3.56-2.78a3.21,3.21,0,0,1,.55,0l-.38,2a3.59,3.59,0,0,0-.53,0c-1.73,0-3.27,2.08-3.77,4.8l-1,5.11Z" transform="translate(-132 -362.67)"/><path class="cls-21" d="M1337.57,764a8,8,0,0,1-3.84.91c-3.07,0-4.42-2.09-4.42-4.66,0-3.5,2.6-7.46,6.34-7.46,2.21,0,3.41,1.32,3.41,3,0,3.05-3.43,3.87-7.73,3.8a4.79,4.79,0,0,0,.24,2.2,2.64,2.64,0,0,0,2.59,1.57,6.51,6.51,0,0,0,3.12-.82Zm-2.21-9.65c-1.89,0-3.31,1.85-3.79,3.67,3.12,0,5.57-.38,5.57-2.18C1337.14,754.92,1336.42,754.39,1335.36,754.39Z" transform="translate(-132 -362.67)"/><path class="cls-21" d="M1352.43,747.67,1349.88,761a28.78,28.78,0,0,0-.5,3.67h-1.83l.32-2.31h0a5,5,0,0,1-4.18,2.57c-2.25,0-3.48-1.85-3.48-4.22,0-4.13,3.07-7.92,7.18-7.92a5.24,5.24,0,0,1,2.06.41l1-5.57Zm-3.34,7.25a3.57,3.57,0,0,0-1.92-.48c-2.78,0-5,2.95-5,6,0,1.4.49,2.86,2.19,2.86,1.54,0,3.38-1.75,3.89-4.37Z" transform="translate(-132 -362.67)"/></g><g class="cls-6"><path class="cls-18" d="M1555.32,695H1564v1.76h-6.63v5.37h6.12v1.73h-6.12v7.32h-2.09Z" transform="translate(-132 -362.67)"/><path class="cls-18" d="M1568.67,696.33a1.31,1.31,0,0,1-2.62,0,1.28,1.28,0,0,1,1.32-1.32A1.25,1.25,0,0,1,1568.67,696.33Zm-2.35,14.88V699.59h2.11v11.62Z" transform="translate(-132 -362.67)"/><path class="cls-18" d="M1571.93,703.22c0-1.37,0-2.55-.09-3.63h1.84l.08,2.28h.09a3.48,3.48,0,0,1,3.22-2.54,2.2,2.2,0,0,1,.6.07v2a3.08,3.08,0,0,0-.72-.07,3,3,0,0,0-2.83,2.71,5.81,5.81,0,0,0-.1,1v6.19h-2.09Z" transform="translate(-132 -362.67)"/><path class="cls-18" d="M1579.49,709.05a5.55,5.55,0,0,0,2.79.84c1.53,0,2.25-.77,2.25-1.73s-.6-1.56-2.16-2.13c-2.09-.75-3.07-1.9-3.07-3.29,0-1.87,1.51-3.41,4-3.41a5.7,5.7,0,0,1,2.85.72l-.52,1.53a4.63,4.63,0,0,0-2.38-.67c-1.25,0-1.94.72-1.94,1.59s.69,1.39,2.2,2c2,.76,3,1.77,3,3.5,0,2-1.58,3.48-4.34,3.48a6.67,6.67,0,0,1-3.27-.79Z" transform="translate(-132 -362.67)"/><path class="cls-18" d="M1591.83,696.26v3.33h3v1.61h-3v6.27c0,1.44.41,2.25,1.58,2.25a4.93,4.93,0,0,0,1.23-.14l.09,1.58a5.1,5.1,0,0,1-1.87.29,2.91,2.91,0,0,1-2.28-.89,4.28,4.28,0,0,1-.82-3V701.2H1588v-1.61h1.8v-2.78Z" transform="translate(-132 -362.67)"/><path class="cls-18" d="M1602.22,711.21c0-.79.09-2,.09-3v-14h2.09v7.29h0a4.34,4.34,0,0,1,4-2.13c2.88,0,4.92,2.4,4.9,5.93,0,4.15-2.62,6.21-5.21,6.21a4.14,4.14,0,0,1-3.89-2.18h-.07l-.1,1.92Zm2.18-4.66a3.77,3.77,0,0,0,.1.77,3.25,3.25,0,0,0,3.17,2.47c2.21,0,3.53-1.8,3.53-4.46,0-2.33-1.2-4.32-3.46-4.32a3.37,3.37,0,0,0-3.22,2.59,4.06,4.06,0,0,0-.12.87Z" transform="translate(-132 -362.67)"/><path class="cls-18" d="M1618.32,696.33a1.31,1.31,0,0,1-2.61,0A1.28,1.28,0,0,1,1617,695,1.25,1.25,0,0,1,1618.32,696.33ZM1616,711.21V699.59h2.11v11.62Z" transform="translate(-132 -362.67)"/><path class="cls-18" d="M1624.13,696.26v3.33h3v1.61h-3v6.27c0,1.44.41,2.25,1.59,2.25a4.78,4.78,0,0,0,1.22-.14l.1,1.58a5.16,5.16,0,0,1-1.88.29,2.93,2.93,0,0,1-2.28-.89,4.28,4.28,0,0,1-.81-3V701.2h-1.8v-1.61h1.8v-2.78Z" transform="translate(-132 -362.67)"/><path class="cls-18" d="M1645.13,705.31c0,4.29-3,6.16-5.78,6.16-3.15,0-5.57-2.3-5.57-6,0-3.89,2.54-6.17,5.76-6.17S1645.13,701.75,1645.13,705.31Zm-9.22.12c0,2.54,1.47,4.46,3.53,4.46s3.53-1.9,3.53-4.51c0-2-1-4.47-3.48-4.47S1635.91,703.22,1635.91,705.43Z" transform="translate(-132 -362.67)"/><path class="cls-18" d="M1648,711.21v-10h-1.63v-1.61H1648V699a5.51,5.51,0,0,1,1.34-4.06,4.1,4.1,0,0,1,2.84-1.08,4.87,4.87,0,0,1,1.8.34l-.29,1.63a3.25,3.25,0,0,0-1.35-.26c-1.8,0-2.25,1.58-2.25,3.36v.62h2.81v1.61h-2.81v10Z" transform="translate(-132 -362.67)"/><path class="cls-18" d="M1660.11,711.21v-10h-1.64v-1.61h1.64V699c0-3.07,1.8-5.07,5.06-5.07a5.82,5.82,0,0,1,2.95.77l-.6,1.61a4.42,4.42,0,0,0-2.45-.67c-2.23,0-2.88,1.56-2.88,3.41v.57h6.75v11.62h-2.09v-10h-4.66v10Z" transform="translate(-132 -362.67)"/><path class="cls-18" d="M1673.62,705.79a3.72,3.72,0,0,0,4,4,7.75,7.75,0,0,0,3.22-.6l.36,1.51a9.39,9.39,0,0,1-3.87.72c-3.57,0-5.71-2.35-5.71-5.86s2.07-6.26,5.45-6.26c3.79,0,4.8,3.33,4.8,5.47a9.22,9.22,0,0,1-.07,1Zm6.19-1.52c0-1.34-.55-3.43-2.93-3.43-2.13,0-3.07,2-3.24,3.43Z" transform="translate(-132 -362.67)"/><path class="cls-18" d="M1684.47,694.17h2.11v17h-2.11Z" transform="translate(-132 -362.67)"/><path class="cls-18" d="M1700.16,694.17v14c0,1,0,2.21.1,3h-1.9l-.09-2h0a4.3,4.3,0,0,1-4,2.28c-2.81,0-5-2.37-5-5.9,0-3.87,2.38-6.24,5.21-6.24a3.88,3.88,0,0,1,3.5,1.78h0v-6.94Zm-2.11,10.15a3.42,3.42,0,0,0-.1-.89,3.1,3.1,0,0,0-3-2.44c-2.19,0-3.48,1.92-3.48,4.48,0,2.36,1.15,4.3,3.43,4.3a3.17,3.17,0,0,0,3.09-2.52,3.34,3.34,0,0,0,.1-.91Z" transform="translate(-132 -362.67)"/><path class="cls-18" d="M1710.22,699.59l1.15,6.27c.26,1.32.41,2.18.53,3h0c.31-.75.64-1.56,1.24-2.84l3-6.48h2.11l-4.35,8.84a21.44,21.44,0,0,1-4,6.09,7.39,7.39,0,0,1-3.39,2l-.48-1.71a7.64,7.64,0,0,0,2.14-1.12,8.91,8.91,0,0,0,2.23-2.67.76.76,0,0,0,.07-.53l-2.33-10.92Z" transform="translate(-132 -362.67)"/><path class="cls-18" d="M1726.44,710.54a8,8,0,0,1-3.84.91c-3.07,0-4.42-2.09-4.42-4.66,0-3.5,2.6-7.46,6.34-7.46,2.21,0,3.41,1.32,3.41,3,0,3-3.43,3.86-7.73,3.79a5,5,0,0,0,.24,2.21,2.65,2.65,0,0,0,2.59,1.56,6.51,6.51,0,0,0,3.12-.82Zm-2.21-9.65c-1.89,0-3.31,1.85-3.79,3.67,3.12,0,5.57-.38,5.57-2.18C1726,701.42,1725.29,700.89,1724.23,700.89Z" transform="translate(-132 -362.67)"/><path class="cls-18" d="M1729,711.21l3.24-17h2l-3.26,17Z" transform="translate(-132 -362.67)"/><path class="cls-18" d="M1734.46,711.21l3.24-17h2l-3.27,17Z" transform="translate(-132 -362.67)"/><path class="cls-18" d="M1751.06,704.18c0,3.57-2.54,7.29-6.43,7.29-2.9,0-4.53-2.16-4.53-4.77,0-3.82,2.66-7.37,6.43-7.37C1749.67,699.33,1751.06,701.7,1751.06,704.18Zm-8.9,2.45c0,1.89,1,3.26,2.74,3.26,2.35,0,4.12-3,4.12-5.74,0-1.34-.62-3.24-2.71-3.24C1743.82,700.91,1742.14,704,1742.16,706.63Z" transform="translate(-132 -362.67)"/><path class="cls-18" d="M1755.05,699.59l.41,6.53a28.19,28.19,0,0,1,0,3.12h.08a25.62,25.62,0,0,1,1.27-2.9l3.46-6.75H1762l.72,6.63a25.41,25.41,0,0,1,.19,3h0c.32-.93.65-1.82,1.11-2.93l3.14-6.72h2l-5.74,11.62h-1.85l-.77-6.31a27.24,27.24,0,0,1-.16-3.07h0c-.48,1.1-.82,2-1.35,3l-3.33,6.36h-1.85l-1.08-11.62Z" transform="translate(-132 -362.67)"/></g><line class="cls-25" x1="1494.36" y1="359.97" x2="1492.17" y2="467.92"/><path class="cls-18" d="M1614.85,816.73a1,1,0,0,1,1.37.34l8,13.07,8.48-12.74a1,1,0,0,1,1.38-.27,1,1,0,0,1,.28,1.38l-9.35,14a1,1,0,0,1-.85.45,1,1,0,0,1-.84-.48l-8.77-14.41a1,1,0,0,1-.14-.54A1,1,0,0,1,1614.85,816.73Z" transform="translate(-132 -362.67)"/><line class="cls-27" x1="1120.5" y1="412.47" x2="1111.26" y2="467.95"/><path class="cls-21" d="M1236,815.57a1,1,0,0,1,1.32.53l6,14.08,10.23-11.38a1,1,0,0,1,1.41-.08,1,1,0,0,1,.08,1.42l-11.28,12.54a1,1,0,0,1-1.66-.28l-6.61-15.52a1,1,0,0,1-.06-.55A1,1,0,0,1,1236,815.57Z" transform="translate(-132 -362.67)"/><g class="cls-6"><path class="cls-21" d="M1418.78,748.53h2.09V763h6.91v1.75h-9Z" transform="translate(-132 -362.67)"/><path class="cls-21" d="M1436.47,764.71l-.17-1.47h-.07a4.31,4.31,0,0,1-3.55,1.73,3.31,3.31,0,0,1-3.56-3.33c0-2.81,2.5-4.35,7-4.32v-.24a2.39,2.39,0,0,0-2.64-2.69,5.8,5.8,0,0,0-3,.86l-.47-1.39a7.21,7.21,0,0,1,3.81-1c3.55,0,4.42,2.42,4.42,4.75v4.34a16.83,16.83,0,0,0,.19,2.79Zm-.31-5.93c-2.31,0-4.92.36-4.92,2.62a1.87,1.87,0,0,0,2,2,2.9,2.9,0,0,0,2.81-1.94,2.31,2.31,0,0,0,.12-.67Z" transform="translate(-132 -362.67)"/><path class="cls-21" d="M1441.32,762.55a5.51,5.51,0,0,0,2.78.84c1.54,0,2.26-.77,2.26-1.73s-.6-1.56-2.16-2.14c-2.09-.74-3.08-1.89-3.08-3.28,0-1.88,1.52-3.41,4-3.41a5.74,5.74,0,0,1,2.86.72l-.53,1.53a4.6,4.6,0,0,0-2.38-.67c-1.24,0-1.94.72-1.94,1.59s.7,1.39,2.21,2c2,.77,3.05,1.78,3.05,3.51,0,2-1.59,3.48-4.35,3.48a6.6,6.6,0,0,1-3.26-.79Z" transform="translate(-132 -362.67)"/><path class="cls-21" d="M1453.65,749.76v3.33h3v1.61h-3V761c0,1.44.41,2.26,1.59,2.26a4.78,4.78,0,0,0,1.22-.14l.1,1.58a5.16,5.16,0,0,1-1.88.29,2.93,2.93,0,0,1-2.28-.89,4.35,4.35,0,0,1-.81-3V754.7h-1.8v-1.61h1.8v-2.78Z" transform="translate(-132 -362.67)"/><path class="cls-21" d="M1464,764.71c0-.79.1-2,.1-3v-14h2.09V755h0a4.32,4.32,0,0,1,4-2.13c2.88,0,4.92,2.4,4.89,5.93,0,4.15-2.61,6.21-5.21,6.21a4.11,4.11,0,0,1-3.88-2.18H1466l-.09,1.92Zm2.19-4.66a4.64,4.64,0,0,0,.09.77,3.26,3.26,0,0,0,3.17,2.47c2.21,0,3.53-1.8,3.53-4.46,0-2.33-1.2-4.32-3.46-4.32a3.35,3.35,0,0,0-3.21,2.59,4,4,0,0,0-.12.86Z" transform="translate(-132 -362.67)"/><path class="cls-21" d="M1480.15,749.83a1.31,1.31,0,0,1-2.62,0,1.28,1.28,0,0,1,1.32-1.32A1.25,1.25,0,0,1,1480.15,749.83Zm-2.35,14.88V753.09h2.11v11.62Z" transform="translate(-132 -362.67)"/><path class="cls-21" d="M1486,749.76v3.33h3v1.61h-3V761c0,1.44.4,2.26,1.58,2.26a4.78,4.78,0,0,0,1.22-.14l.1,1.58a5.14,5.14,0,0,1-1.87.29,2.9,2.9,0,0,1-2.28-.89,4.3,4.3,0,0,1-.82-3V754.7h-1.8v-1.61h1.8v-2.78Z" transform="translate(-132 -362.67)"/><path class="cls-21" d="M1507,758.8c0,4.3-3,6.17-5.79,6.17-3.14,0-5.57-2.3-5.57-6,0-3.89,2.55-6.17,5.76-6.17S1507,755.25,1507,758.8Zm-9.22.12c0,2.55,1.46,4.47,3.53,4.47s3.53-1.9,3.53-4.51c0-2-1-4.47-3.48-4.47S1497.74,756.72,1497.74,758.92Z" transform="translate(-132 -362.67)"/><path class="cls-21" d="M1509.84,764.71v-10h-1.64v-1.61h1.64v-.55a5.51,5.51,0,0,1,1.34-4.06,4.08,4.08,0,0,1,2.83-1.08,4.83,4.83,0,0,1,1.8.34l-.29,1.63a3.2,3.2,0,0,0-1.34-.26c-1.8,0-2.26,1.58-2.26,3.36v.62h2.81v1.61h-2.81v10Z" transform="translate(-132 -362.67)"/><path class="cls-21" d="M1521.93,764.71v-10h-1.63v-1.61h1.63v-.62c0-3.07,1.8-5.07,5.07-5.07a5.82,5.82,0,0,1,3,.77l-.6,1.61a4.47,4.47,0,0,0-2.45-.67c-2.23,0-2.88,1.56-2.88,3.41v.57h6.74v11.62h-2.08v-10H1524v10Z" transform="translate(-132 -362.67)"/><path class="cls-21" d="M1535.44,759.28a3.73,3.73,0,0,0,4,4,7.7,7.7,0,0,0,3.21-.6l.36,1.51a9.3,9.3,0,0,1-3.86.72c-3.58,0-5.71-2.35-5.71-5.86s2.06-6.26,5.45-6.26c3.79,0,4.8,3.33,4.8,5.47a6.57,6.57,0,0,1-.08,1Zm6.2-1.51c0-1.34-.56-3.43-2.93-3.43-2.14,0-3.07,2-3.24,3.43Z" transform="translate(-132 -362.67)"/><path class="cls-21" d="M1546.29,747.67h2.11v17h-2.11Z" transform="translate(-132 -362.67)"/><path class="cls-21" d="M1562,747.67v14c0,1,0,2.21.09,3h-1.89l-.1-2h0a4.29,4.29,0,0,1-4,2.28c-2.81,0-5-2.37-5-5.9,0-3.87,2.38-6.24,5.21-6.24a3.9,3.9,0,0,1,3.51,1.77h.05v-6.93Zm-2.11,10.15a3.92,3.92,0,0,0-.1-.89,3.12,3.12,0,0,0-3-2.45c-2.18,0-3.48,1.92-3.48,4.49,0,2.35,1.15,4.3,3.43,4.3a3.18,3.18,0,0,0,3.1-2.52,3.79,3.79,0,0,0,.1-.91Z" transform="translate(-132 -362.67)"/><path class="cls-21" d="M1569.5,764.71l1.41-7.49c.29-1.51.48-3.05.6-4.13h1.76c-.1.82-.2,1.63-.32,2.52h.08c.74-1.58,2-2.78,3.55-2.78a3.12,3.12,0,0,1,.55,0l-.38,2a3.48,3.48,0,0,0-.53,0c-1.73,0-3.27,2.08-3.77,4.8l-1,5.11Z" transform="translate(-132 -362.67)"/><path class="cls-21" d="M1585.36,764a8,8,0,0,1-3.84.91c-3.07,0-4.41-2.09-4.41-4.66,0-3.5,2.59-7.46,6.33-7.46,2.21,0,3.41,1.32,3.41,3,0,3.05-3.43,3.87-7.73,3.8a4.92,4.92,0,0,0,.24,2.2,2.64,2.64,0,0,0,2.59,1.57,6.51,6.51,0,0,0,3.12-.82Zm-2.21-9.65c-1.89,0-3.31,1.85-3.79,3.67,3.12,0,5.57-.38,5.57-2.18C1584.93,754.92,1584.21,754.39,1583.15,754.39Z" transform="translate(-132 -362.67)"/><path class="cls-21" d="M1600.22,747.67,1597.67,761a28.78,28.78,0,0,0-.5,3.67h-1.82l.31-2.31h-.05a5,5,0,0,1-4.18,2.57c-2.25,0-3.48-1.85-3.48-4.22,0-4.13,3.08-7.92,7.18-7.92a5.24,5.24,0,0,1,2.06.41l1-5.57Zm-3.34,7.25a3.57,3.57,0,0,0-1.92-.48c-2.78,0-4.94,2.95-4.94,6,0,1.4.48,2.86,2.18,2.86,1.54,0,3.39-1.75,3.89-4.37Z" transform="translate(-132 -362.67)"/></g><line class="cls-27" x1="1380.5" y1="412.47" x2="1390.44" y2="467.96"/><path class="cls-21" d="M1510.58,818.87a1,1,0,0,1,1.41.06l10.37,11.25,5.81-14.15a1,1,0,0,1,1.85.76l-6.41,15.61a1,1,0,0,1-1.66.29l-11.43-12.41a1,1,0,0,1,.06-1.41Z" transform="translate(-132 -362.67)"/><circle class="cls-28" cx="663" cy="284.24" r="16"/><g class="cls-4"><path class="cls-3" d="M794.17,642.48h0l-2.48,1.18-.5-2.28,3.44-1.6h2.52v13h-2.94Z" transform="translate(-132 -362.67)"/></g><circle class="cls-29" cx="260" cy="284.24" r="16"/><g class="cls-4"><path class="cls-10" d="M387.29,652.79v-1.85l1.68-1.52c2.84-2.54,4.22-4,4.26-5.52,0-1.06-.64-1.9-2.14-1.9a4.71,4.71,0,0,0-2.78,1.08l-.86-2.18a7.2,7.2,0,0,1,4.26-1.34c2.94,0,4.56,1.72,4.56,4.08,0,2.18-1.58,3.92-3.46,5.6l-1.2,1v0h4.9v2.51Z" transform="translate(-132 -362.67)"/></g><circle class="cls-29" cx="1453" cy="284.24" r="16"/><g class="cls-4"><path class="cls-10" d="M1580.83,649.8a7.17,7.17,0,0,0,3,.8c1.58,0,2.38-.76,2.38-1.74,0-1.28-1.28-1.86-2.62-1.86h-1.24v-2.18h1.18c1,0,2.32-.4,2.32-1.5,0-.78-.64-1.36-1.92-1.36a5.93,5.93,0,0,0-2.72.78l-.62-2.2a8.15,8.15,0,0,1,4-1c2.78,0,4.32,1.46,4.32,3.24a3.11,3.11,0,0,1-2.38,3v0a3.23,3.23,0,0,1,2.82,3.16c0,2.31-2,4-5.32,4a7.58,7.58,0,0,1-3.86-.92Z" transform="translate(-132 -362.67)"/></g><circle class="cls-30" cx="1050" cy="284.24" r="16"/><g class="cls-4"><path class="cls-18" d="M1182.67,652.79v-3.11h-5.76v-2l4.92-7.92h3.72v7.62h1.56v2.28h-1.56v3.11Zm0-5.39v-2.88c0-.78,0-1.58.1-2.42h-.08c-.42.84-.76,1.6-1.2,2.42l-1.74,2.84v0Z" transform="translate(-132 -362.67)"/></g><circle class="cls-30" cx="411.5" cy="601.24" r="16"/><g class="cls-4"><path class="cls-18" d="M547.47,959.28h-5l-.28,2a5.63,5.63,0,0,1,.84,0,6,6,0,0,1,3.42.94,3.7,3.7,0,0,1,1.58,3.26c0,2.43-2.08,4.56-5.58,4.56a8.12,8.12,0,0,1-3.62-.74l.54-2.28a7.47,7.47,0,0,0,2.94.64c1.26,0,2.6-.6,2.6-2s-1.06-2.16-3.66-2.16a11.22,11.22,0,0,0-1.76.12l.86-6.82h7.16Z" transform="translate(-132 -362.67)"/></g><circle class="cls-30" cx="1553" cy="601.24" r="16"/><g class="cls-4"><path class="cls-18" d="M1688.59,958.94a8.36,8.36,0,0,0-1.18,0c-2.7.22-3.9,1.6-4.24,3.12h.06a3.66,3.66,0,0,1,2.76-1,4,4,0,0,1,4,4.24,4.66,4.66,0,0,1-4.8,4.7c-3.46,0-5.16-2.58-5.16-5.68a7.22,7.22,0,0,1,7.32-7.7,8.69,8.69,0,0,1,1.22,0Zm-1.66,6.52a2,2,0,0,0-3.74-1.08,1.75,1.75,0,0,0-.12.76c.06,1.38.72,2.62,2.1,2.62C1686.25,967.76,1686.93,966.78,1686.93,965.46Z" transform="translate(-132 -362.67)"/></g><circle class="cls-31" cx="1251.5" cy="601.24" r="16"/><g class="cls-4"><path class="cls-32" d="M1388.11,956.78v1.92l-5.36,11.09h-3.22l5.36-10.47v0h-6v-2.5Z" transform="translate(-132 -362.67)"/></g></svg>