<svg id="Layer_1" data-name="Layer 1" xmlns="http://www.w3.org/2000/svg" viewBox="0 0 2483 466.54"><defs><style>.cls-1{fill:#3c97d3;}.cls-2{fill:#3b97d3;}.cls-3{fill:#9a9c9f;}.cls-4{opacity:0.95;}.cls-5{fill:#fff;}.cls-6{fill:#147f6b;}.cls-7{fill:#eec41b;}.cls-8{fill:#efc41b;}.cls-9{fill:#f0c419;}.cls-10{fill:#e44e3a;}.cls-11{opacity:0.9;}.cls-12{fill:#0e594c;}.cls-13{fill:#8a8d8e;}.cls-14{fill:none;stroke:#8a8d8e;stroke-miterlimit:10;stroke-width:2px;}</style></defs><title>vl-ba</title><rect class="cls-1" x="101.5" y="58.11" width="100" height="76.94"/><rect class="cls-1" x="201.5" y="58.11" width="100" height="76.94"/><rect class="cls-2" x="301.5" y="58.11" width="100" height="76.94"/><rect class="cls-2" x="401.5" y="58.11" width="100" height="76.94"/><rect class="cls-2" x="501.5" y="58.11" width="100" height="76.94"/><rect class="cls-2" x="601.5" y="58.11" width="100" height="76.94"/><path class="cls-1" d="M833.65,599.72h84a16,16,0,0,0,16-16V538.79a16,16,0,0,0-16-16h-84" transform="translate(-132 -464.67)"/><path class="cls-3" d="M233.5,599.91h-84a16,16,0,0,1-16-16V539a16,16,0,0,1,16-16h84" transform="translate(-132 -464.67)"/><g class="cls-4"><path class="cls-5" d="M182.47,553.59h-.06l-3.81,1.92-.67-3L183,550h3.29v20.8h-3.81Z" transform="translate(-132 -464.67)"/></g><g class="cls-4"><path class="cls-5" d="M291,560.31c0,6.69-2.63,10.88-7.59,10.88-4.8,0-7.36-4.35-7.39-10.69s2.75-10.81,7.62-10.81S291,554.17,291,560.31Zm-11,.19c0,5.06,1.37,7.68,3.55,7.68s3.52-2.81,3.52-7.8-1.15-7.68-3.52-7.68C281.42,552.7,280,555.29,280,560.5Z" transform="translate(-132 -464.67)"/></g><g class="cls-4"><path class="cls-5" d="M382.47,553.59h-.06l-3.81,1.92-.67-3L383,550h3.29v20.8h-3.81Z" transform="translate(-132 -464.67)"/></g><g class="cls-4"><path class="cls-5" d="M482.47,553.59h-.06l-3.81,1.92-.67-3L483,550h3.29v20.8h-3.81Z" transform="translate(-132 -464.67)"/></g><g class="cls-4"><path class="cls-5" d="M591,560.31c0,6.69-2.63,10.88-7.59,10.88-4.8,0-7.36-4.35-7.39-10.69s2.75-10.81,7.62-10.81S591,554.17,591,560.31Zm-11,.19c0,5.06,1.37,7.68,3.55,7.68s3.52-2.81,3.52-7.8-1.15-7.68-3.52-7.68C581.42,552.7,580,555.29,580,560.5Z" transform="translate(-132 -464.67)"/></g><g class="cls-4"><path class="cls-5" d="M682.47,553.59h-.06l-3.81,1.92-.67-3L683,550h3.29v20.8h-3.81Z" transform="translate(-132 -464.67)"/></g><g class="cls-4"><path class="cls-5" d="M791,560.31c0,6.69-2.63,10.88-7.59,10.88-4.8,0-7.36-4.35-7.39-10.69s2.75-10.81,7.62-10.81S791,554.17,791,560.31Zm-11,.19c0,5.06,1.37,7.68,3.55,7.68s3.52-2.81,3.52-7.8-1.15-7.68-3.52-7.68C781.42,552.7,780,555.29,780,560.5Z" transform="translate(-132 -464.67)"/></g><g class="cls-4"><path class="cls-5" d="M891.14,560.31c0,6.69-2.63,10.88-7.59,10.88-4.8,0-7.36-4.35-7.39-10.69s2.75-10.81,7.62-10.81S891.14,554.17,891.14,560.31Zm-11,.19c0,5.06,1.38,7.68,3.55,7.68s3.52-2.81,3.52-7.8-1.15-7.68-3.52-7.68C881.57,552.7,880.1,555.29,880.13,560.5Z" transform="translate(-132 -464.67)"/></g><path class="cls-6" d="M917.48,521.28h-768A17.54,17.54,0,0,0,132,538.79V583.7a17.54,17.54,0,0,0,17.51,17.52h768A17.54,17.54,0,0,0,935,583.7V538.79A17.54,17.54,0,0,0,917.48,521.28Zm-582.48,3h97v73.94H335Zm-3,73.94H235V524.28h97Zm103-73.94h97v73.94H435Zm100,0h97v73.94H535Zm100,0h97v73.94H635Zm100,0h97v73.94H735ZM135,583.7V538.79a14.53,14.53,0,0,1,14.51-14.51H232v73.94H149.51A14.54,14.54,0,0,1,135,583.7Zm797,0a14.54,14.54,0,0,1-14.52,14.52H835V524.28h82.48A14.53,14.53,0,0,1,932,538.79Z" transform="translate(-132 -464.67)"/><rect class="cls-7" x="941.5" y="58.11" width="100" height="76.94"/><rect class="cls-7" x="1041.5" y="58.11" width="100" height="76.94"/><rect class="cls-8" x="1141.5" y="58.11" width="100" height="76.94"/><rect class="cls-9" x="1241.5" y="58.11" width="100" height="76.94"/><rect class="cls-9" x="1341.5" y="58.11" width="100" height="76.94"/><rect class="cls-9" x="1441.5" y="58.11" width="100" height="76.94"/><path class="cls-9" d="M1673.65,599.72h84a16,16,0,0,0,16-16V538.79a16,16,0,0,0-16-16h-84" transform="translate(-132 -464.67)"/><path class="cls-3" d="M1073.5,599.91h-84a16,16,0,0,1-16-16V539a16,16,0,0,1,16-16h84" transform="translate(-132 -464.67)"/><g class="cls-4"><path class="cls-5" d="M1022.47,553.59h-.06l-3.81,1.92-.67-3L1023,550h3.29v20.8h-3.81Z" transform="translate(-132 -464.67)"/></g><g class="cls-4"><path class="cls-5" d="M1122.47,553.59h-.06l-3.81,1.92-.67-3L1123,550h3.29v20.8h-3.81Z" transform="translate(-132 -464.67)"/></g><g class="cls-4"><path class="cls-5" d="M1231,560.31c0,6.69-2.63,10.88-7.59,10.88-4.8,0-7.36-4.35-7.39-10.69s2.75-10.81,7.62-10.81S1231,554.17,1231,560.31Zm-11,.19c0,5.06,1.37,7.68,3.55,7.68s3.52-2.81,3.52-7.8-1.15-7.68-3.52-7.68C1221.42,552.7,1220,555.29,1220,560.5Z" transform="translate(-132 -464.67)"/></g><g class="cls-4"><path class="cls-5" d="M1331,560.31c0,6.69-2.63,10.88-7.59,10.88-4.8,0-7.36-4.35-7.39-10.69s2.75-10.81,7.62-10.81S1331,554.17,1331,560.31Zm-11,.19c0,5.06,1.37,7.68,3.55,7.68s3.52-2.81,3.52-7.8-1.15-7.68-3.52-7.68C1321.42,552.7,1320,555.29,1320,560.5Z" transform="translate(-132 -464.67)"/></g><g class="cls-4"><path class="cls-5" d="M1431,560.31c0,6.69-2.63,10.88-7.59,10.88-4.8,0-7.36-4.35-7.39-10.69s2.75-10.81,7.62-10.81S1431,554.17,1431,560.31Zm-11,.19c0,5.06,1.37,7.68,3.55,7.68s3.52-2.81,3.52-7.8-1.15-7.68-3.52-7.68C1421.42,552.7,1420,555.29,1420,560.5Z" transform="translate(-132 -464.67)"/></g><g class="cls-4"><path class="cls-5" d="M1522.47,553.59h-.06l-3.81,1.92-.67-3L1523,550h3.29v20.8h-3.81Z" transform="translate(-132 -464.67)"/></g><g class="cls-4"><path class="cls-5" d="M1622.47,553.59h-.06l-3.81,1.92-.67-3L1623,550h3.29v20.8h-3.81Z" transform="translate(-132 -464.67)"/></g><g class="cls-4"><path class="cls-5" d="M1722.63,553.59h-.07l-3.81,1.92-.67-3,5.06-2.5h3.29v20.8h-3.8Z" transform="translate(-132 -464.67)"/></g><path class="cls-6" d="M1757.48,521.28h-768A17.54,17.54,0,0,0,972,538.79V583.7a17.54,17.54,0,0,0,17.51,17.52h768A17.54,17.54,0,0,0,1775,583.7V538.79A17.54,17.54,0,0,0,1757.48,521.28Zm-582.48,3h97v73.94h-97Zm-3,73.94h-97V524.28h97Zm103-73.94h97v73.94h-97Zm100,0h97v73.94h-97Zm100,0h97v73.94h-97Zm100,0h97v73.94h-97ZM975,583.7V538.79a14.53,14.53,0,0,1,14.51-14.51H1072v73.94H989.51A14.54,14.54,0,0,1,975,583.7Zm797,0a14.54,14.54,0,0,1-14.52,14.52H1675V524.28h82.48A14.53,14.53,0,0,1,1772,538.79Z" transform="translate(-132 -464.67)"/><rect class="cls-10" x="1781.5" y="58.11" width="100" height="76.94"/><rect class="cls-10" x="1881.5" y="58.11" width="100" height="76.94"/><rect class="cls-10" x="1981.5" y="58.11" width="100" height="76.94"/><rect class="cls-10" x="2081.5" y="58.11" width="100" height="76.94"/><rect class="cls-10" x="2181.5" y="58.11" width="100" height="76.94"/><rect class="cls-10" x="2281.5" y="58.11" width="100" height="76.94"/><path class="cls-10" d="M2513.65,599.72h84a16,16,0,0,0,16-16V538.79a16,16,0,0,0-16-16h-84" transform="translate(-132 -464.67)"/><path class="cls-3" d="M1913.5,599.91h-84a16,16,0,0,1-16-16V539a16,16,0,0,1,16-16h84" transform="translate(-132 -464.67)"/><g class="cls-4"><path class="cls-5" d="M1871,560.31c0,6.69-2.63,10.88-7.59,10.88-4.8,0-7.36-4.35-7.39-10.69s2.75-10.81,7.62-10.81S1871,554.17,1871,560.31Zm-11,.19c0,5.06,1.37,7.68,3.55,7.68s3.52-2.81,3.52-7.8-1.15-7.68-3.52-7.68C1861.42,552.7,1860,555.29,1860,560.5Z" transform="translate(-132 -464.67)"/></g><g class="cls-4"><path class="cls-5" d="M1971,560.31c0,6.69-2.63,10.88-7.59,10.88-4.8,0-7.36-4.35-7.39-10.69s2.75-10.81,7.62-10.81S1971,554.17,1971,560.31Zm-11,.19c0,5.06,1.37,7.68,3.55,7.68s3.52-2.81,3.52-7.8-1.15-7.68-3.52-7.68C1961.42,552.7,1960,555.29,1960,560.5Z" transform="translate(-132 -464.67)"/></g><g class="cls-4"><path class="cls-5" d="M2062.47,553.59h-.06l-3.81,1.92-.67-3L2063,550h3.29v20.8h-3.81Z" transform="translate(-132 -464.67)"/></g><g class="cls-4"><path class="cls-5" d="M2162.47,553.59h-.06l-3.81,1.92-.67-3L2163,550h3.29v20.8h-3.81Z" transform="translate(-132 -464.67)"/></g><g class="cls-4"><path class="cls-5" d="M2271,560.31c0,6.69-2.63,10.88-7.59,10.88-4.8,0-7.36-4.35-7.39-10.69s2.75-10.81,7.62-10.81C2268.65,549.69,2271,554.17,2271,560.31Zm-11,.19c0,5.06,1.37,7.68,3.55,7.68s3.52-2.81,3.52-7.8-1.15-7.68-3.52-7.68C2261.42,552.7,2260,555.29,2260,560.5Z" transform="translate(-132 -464.67)"/></g><g class="cls-4"><path class="cls-5" d="M2371,560.31c0,6.69-2.63,10.88-7.59,10.88-4.8,0-7.36-4.35-7.39-10.69s2.75-10.81,7.62-10.81C2368.65,549.69,2371,554.17,2371,560.31Zm-11,.19c0,5.06,1.37,7.68,3.55,7.68s3.52-2.81,3.52-7.8-1.15-7.68-3.52-7.68C2361.42,552.7,2360,555.29,2360,560.5Z" transform="translate(-132 -464.67)"/></g><g class="cls-4"><path class="cls-5" d="M2462.47,553.59h-.06l-3.81,1.92-.67-3L2463,550h3.29v20.8h-3.81Z" transform="translate(-132 -464.67)"/></g><g class="cls-4"><path class="cls-5" d="M2571.14,560.31c0,6.69-2.63,10.88-7.59,10.88-4.8,0-7.36-4.35-7.39-10.69s2.75-10.81,7.62-10.81S2571.14,554.17,2571.14,560.31Zm-11,.19c0,5.06,1.38,7.68,3.55,7.68s3.52-2.81,3.52-7.8-1.15-7.68-3.52-7.68C2561.57,552.7,2560.1,555.29,2560.13,560.5Z" transform="translate(-132 -464.67)"/></g><path class="cls-6" d="M2597.48,521.28h-768A17.54,17.54,0,0,0,1812,538.79V583.7a17.54,17.54,0,0,0,17.51,17.52h768A17.54,17.54,0,0,0,2615,583.7V538.79A17.54,17.54,0,0,0,2597.48,521.28Zm-582.48,3h97v73.94h-97Zm-3,73.94h-97V524.28h97Zm103-73.94h97v73.94h-97Zm100,0h97v73.94h-97Zm100,0h97v73.94h-97Zm100,0h97v73.94h-97ZM1815,583.7V538.79a14.53,14.53,0,0,1,14.51-14.51H1912v73.94h-82.49A14.54,14.54,0,0,1,1815,583.7Zm797,0a14.54,14.54,0,0,1-14.52,14.52H2515V524.28h82.48A14.53,14.53,0,0,1,2612,538.79Z" transform="translate(-132 -464.67)"/><g class="cls-11"><path class="cls-12" d="M144.56,465.18a36.68,36.68,0,0,1,6.44-.51c3.27,0,5.29.4,6.95,1.55a5.13,5.13,0,0,1,2.52,4.54,5.64,5.64,0,0,1-4,5.25v.08a6.11,6.11,0,0,1,4.9,6,6.3,6.3,0,0,1-2.34,5c-1.73,1.51-4.57,2.27-9,2.27a41.32,41.32,0,0,1-5.43-.33Zm4.39,9.57h2.26c3.06,0,4.79-1.44,4.79-3.49,0-2.27-1.73-3.31-4.53-3.31a11.82,11.82,0,0,0-2.52.18Zm0,11.16a19.82,19.82,0,0,0,2.34.11c2.84,0,5.36-1.08,5.36-4.07,0-2.8-2.45-4-5.51-4H149Z" transform="translate(-132 -464.67)"/><path class="cls-12" d="M167.88,471.59l3.17,9.39c.36,1.08.72,2.41,1,3.42h.11c.29-1,.61-2.3.94-3.45l2.73-9.36h4.75l-4.39,12c-2.41,6.55-4,9.46-6.12,11.26a8.88,8.88,0,0,1-4.64,2.27l-1-3.74A7.53,7.53,0,0,0,167,492.1a7.66,7.66,0,0,0,2.41-2.77,1.75,1.75,0,0,0,.29-.79,1.8,1.8,0,0,0-.25-.86L163,471.59Z" transform="translate(-132 -464.67)"/><path class="cls-12" d="M188.19,466.58v5h4.21v3.31h-4.21v7.74c0,2.12.57,3.24,2.26,3.24a6.39,6.39,0,0,0,1.73-.22l.07,3.38a9.44,9.44,0,0,1-3.2.44,5.14,5.14,0,0,1-3.82-1.44c-.93-1-1.36-2.6-1.36-4.9V474.9h-2.52v-3.31h2.52v-4Z" transform="translate(-132 -464.67)"/><path class="cls-12" d="M198.66,481.59c.11,3.17,2.59,4.54,5.4,4.54a13.26,13.26,0,0,0,4.86-.79l.65,3.06a16.54,16.54,0,0,1-6.12,1.08c-5.69,0-9-3.5-9-8.86,0-4.86,3-9.43,8.56-9.43s7.56,4.68,7.56,8.53a11.1,11.1,0,0,1-.14,1.87Zm7.71-3.09c0-1.62-.69-4.29-3.64-4.29-2.73,0-3.89,2.49-4.07,4.29Z" transform="translate(-132 -464.67)"/><path class="cls-12" d="M220.05,489.12l4.6-24.26h4.83l4.24,11.26a61.24,61.24,0,0,1,2.2,7.6H236a64.47,64.47,0,0,1,1.08-8.21l2-10.65h4l-4.61,24.26h-4.28l-4.36-11.49a58.09,58.09,0,0,1-2.3-7.81l-.15,0c-.25,2.3-.75,5.29-1.4,8.89l-2,10.37Z" transform="translate(-132 -464.67)"/></g><g class="cls-11"><path class="cls-12" d="M984.56,465.18a36.68,36.68,0,0,1,6.44-.51c3.27,0,5.29.4,7,1.55a5.13,5.13,0,0,1,2.52,4.54,5.64,5.64,0,0,1-4,5.25v.08a6.11,6.11,0,0,1,4.9,6,6.3,6.3,0,0,1-2.34,5c-1.73,1.51-4.57,2.27-9,2.27a41.32,41.32,0,0,1-5.43-.33Zm4.39,9.57h2.26c3.06,0,4.79-1.44,4.79-3.49,0-2.27-1.73-3.31-4.53-3.31a11.82,11.82,0,0,0-2.52.18Zm0,11.16a19.82,19.82,0,0,0,2.34.11c2.84,0,5.36-1.08,5.36-4.07,0-2.8-2.45-4-5.51-4H989Z" transform="translate(-132 -464.67)"/><path class="cls-12" d="M1007.88,471.59l3.17,9.39c.36,1.08.72,2.41,1,3.42h.11c.29-1,.61-2.3.94-3.45l2.73-9.36h4.75l-4.39,12c-2.41,6.55-4,9.46-6.12,11.26a8.88,8.88,0,0,1-4.64,2.27l-1-3.74a7.53,7.53,0,0,0,2.59-1.23,7.66,7.66,0,0,0,2.41-2.77,1.75,1.75,0,0,0,.29-.79,1.8,1.8,0,0,0-.25-.86L1003,471.59Z" transform="translate(-132 -464.67)"/><path class="cls-12" d="M1028.19,466.58v5h4.21v3.31h-4.21v7.74c0,2.12.57,3.24,2.26,3.24a6.39,6.39,0,0,0,1.73-.22l.07,3.38a9.44,9.44,0,0,1-3.2.44,5.14,5.14,0,0,1-3.82-1.44c-.93-1-1.36-2.6-1.36-4.9V474.9h-2.52v-3.31h2.52v-4Z" transform="translate(-132 -464.67)"/><path class="cls-12" d="M1038.66,481.59c.11,3.17,2.59,4.54,5.4,4.54a13.26,13.26,0,0,0,4.86-.79l.65,3.06a16.54,16.54,0,0,1-6.12,1.08c-5.69,0-9-3.5-9-8.86,0-4.86,2.95-9.43,8.56-9.43s7.56,4.68,7.56,8.53a11.1,11.1,0,0,1-.14,1.87Zm7.71-3.09c0-1.62-.69-4.29-3.64-4.29-2.73,0-3.89,2.49-4.07,4.29Z" transform="translate(-132 -464.67)"/><path class="cls-12" d="M1060.05,489.12l4.6-24.26h4.83l4.24,11.26a61.24,61.24,0,0,1,2.2,7.6h.07a64.47,64.47,0,0,1,1.08-8.21l2-10.65h4l-4.61,24.26h-4.28l-4.36-11.49a58.09,58.09,0,0,1-2.3-7.81l-.15,0c-.25,2.3-.75,5.29-1.4,8.89l-2,10.37Z" transform="translate(-132 -464.67)"/><path class="cls-12" d="M1102.27,470v8.13h7.81v2.81h-7.81v8.21h-3v-8.21h-7.81V478.1h7.81V470Z" transform="translate(-132 -464.67)"/><path class="cls-12" d="M1127.47,469.71h-.07l-4.28,2.16-.76-3.34,5.69-2.81h3.71v23.4h-4.29Z" transform="translate(-132 -464.67)"/></g><g class="cls-11"><path class="cls-12" d="M1824.56,465.18a36.68,36.68,0,0,1,6.44-.51c3.27,0,5.29.4,7,1.55a5.13,5.13,0,0,1,2.52,4.54,5.64,5.64,0,0,1-4,5.25v.08a6.11,6.11,0,0,1,4.9,6,6.3,6.3,0,0,1-2.34,5c-1.73,1.51-4.57,2.27-9,2.27a41.32,41.32,0,0,1-5.43-.33Zm4.39,9.57h2.27c3,0,4.78-1.44,4.78-3.49,0-2.27-1.73-3.31-4.53-3.31a11.82,11.82,0,0,0-2.52.18Zm0,11.16a19.82,19.82,0,0,0,2.34.11c2.84,0,5.36-1.08,5.36-4.07,0-2.8-2.45-4-5.51-4H1829Z" transform="translate(-132 -464.67)"/><path class="cls-12" d="M1847.88,471.59l3.17,9.39c.36,1.08.72,2.41,1,3.42h.11c.29-1,.61-2.3.94-3.45l2.73-9.36h4.75l-4.39,12c-2.41,6.55-4,9.46-6.12,11.26a8.88,8.88,0,0,1-4.64,2.27l-1-3.74a7.53,7.53,0,0,0,2.59-1.23,7.66,7.66,0,0,0,2.41-2.77,1.75,1.75,0,0,0,.29-.79,1.8,1.8,0,0,0-.25-.86L1843,471.59Z" transform="translate(-132 -464.67)"/><path class="cls-12" d="M1868.19,466.58v5h4.21v3.31h-4.21v7.74c0,2.12.57,3.24,2.26,3.24a6.39,6.39,0,0,0,1.73-.22l.07,3.38a9.44,9.44,0,0,1-3.2.44,5.14,5.14,0,0,1-3.82-1.44c-.93-1-1.36-2.6-1.36-4.9V474.9h-2.52v-3.31h2.52v-4Z" transform="translate(-132 -464.67)"/><path class="cls-12" d="M1878.66,481.59c.11,3.17,2.59,4.54,5.4,4.54a13.26,13.26,0,0,0,4.86-.79l.65,3.06a16.54,16.54,0,0,1-6.12,1.08c-5.69,0-9-3.5-9-8.86,0-4.86,2.95-9.43,8.56-9.43s7.56,4.68,7.56,8.53a11.1,11.1,0,0,1-.14,1.87Zm7.71-3.09c0-1.62-.69-4.29-3.64-4.29-2.74,0-3.89,2.49-4.07,4.29Z" transform="translate(-132 -464.67)"/><path class="cls-12" d="M1900.05,489.12l4.6-24.26h4.83l4.24,11.26a61.24,61.24,0,0,1,2.2,7.6h.07a64.47,64.47,0,0,1,1.08-8.21l2-10.65h4l-4.61,24.26h-4.28l-4.36-11.49a58.09,58.09,0,0,1-2.3-7.81l-.15,0c-.25,2.3-.75,5.29-1.4,8.89l-2,10.37Z" transform="translate(-132 -464.67)"/><path class="cls-12" d="M1942.27,470v8.13h7.81v2.81h-7.81v8.21h-3v-8.21h-7.81V478.1h7.81V470Z" transform="translate(-132 -464.67)"/><path class="cls-12" d="M1960.52,489.12v-2.7l2.78-2.56c5.5-5.11,8.09-7.92,8.13-11,0-2.09-1.12-3.93-4.17-3.93a8.53,8.53,0,0,0-5,1.95l-1.29-3.13a11.55,11.55,0,0,1,7.2-2.42c5.18,0,7.7,3.28,7.7,7.09,0,4.11-2.95,7.42-7,11.2l-2,1.76v.07h9.61v3.68Z" transform="translate(-132 -464.67)"/></g><rect class="cls-10" x="101.5" y="387.94" width="100" height="76.94"/><rect class="cls-10" x="201.5" y="387.94" width="100" height="76.94"/><rect class="cls-10" x="301.5" y="387.94" width="100" height="76.94"/><rect class="cls-10" x="401.5" y="387.94" width="100" height="76.94"/><rect class="cls-10" x="501.5" y="387.94" width="100" height="76.94"/><g class="cls-4"><path class="cls-5" d="M282.47,883.39h-.06l-3.81,1.92-.67-3,5.06-2.5h3.29v20.8h-3.81Z" transform="translate(-132 -464.67)"/></g><g class="cls-4"><path class="cls-5" d="M382.47,883.39h-.06l-3.81,1.92-.67-3,5.06-2.5h3.29v20.8h-3.81Z" transform="translate(-132 -464.67)"/></g><g class="cls-4"><path class="cls-5" d="M491,890.11c0,6.69-2.63,10.88-7.59,10.88-4.8,0-7.36-4.35-7.39-10.68s2.75-10.82,7.62-10.82S491,884,491,890.11Zm-11,.2c0,5.05,1.37,7.67,3.55,7.67s3.52-2.81,3.52-7.8c0-4.83-1.15-7.68-3.52-7.68C481.42,882.5,480,885.09,480,890.31Z" transform="translate(-132 -464.67)"/></g><g class="cls-4"><path class="cls-5" d="M591,890.11c0,6.69-2.63,10.88-7.59,10.88-4.8,0-7.36-4.35-7.39-10.68s2.75-10.82,7.62-10.82S591,884,591,890.11Zm-11,.2c0,5.05,1.37,7.67,3.55,7.67s3.52-2.81,3.52-7.8c0-4.83-1.15-7.68-3.52-7.68C581.42,882.5,580,885.09,580,890.31Z" transform="translate(-132 -464.67)"/></g><g class="cls-4"><path class="cls-5" d="M682.47,883.39h-.06l-3.81,1.92-.67-3,5.06-2.5h3.29v20.8h-3.81Z" transform="translate(-132 -464.67)"/></g><path class="cls-10" d="M233.5,929.91h-84a16,16,0,0,1-16-16V869a16,16,0,0,1,16-16h84" transform="translate(-132 -464.67)"/><g class="cls-4"><path class="cls-5" d="M191,890.11c0,6.69-2.63,10.88-7.59,10.88-4.8,0-7.36-4.35-7.39-10.68s2.75-10.82,7.62-10.82C188.65,879.49,191,884,191,890.11Zm-11,.2c0,5.05,1.37,7.67,3.55,7.67s3.52-2.81,3.52-7.8c0-4.83-1.15-7.68-3.52-7.68C181.42,882.5,180,885.09,180,890.31Z" transform="translate(-132 -464.67)"/></g><rect class="cls-10" x="601.5" y="387.94" width="100" height="76.94"/><g class="cls-4"><path class="cls-5" d="M791,890.11c0,6.69-2.63,10.88-7.59,10.88-4.8,0-7.36-4.35-7.39-10.68s2.75-10.82,7.62-10.82S791,884,791,890.11Zm-11,.2c0,5.05,1.37,7.67,3.55,7.67s3.52-2.81,3.52-7.8c0-4.83-1.15-7.68-3.52-7.68C781.42,882.5,780,885.09,780,890.31Z" transform="translate(-132 -464.67)"/></g><rect class="cls-7" x="801.5" y="387.94" width="100" height="76.94"/><rect class="cls-8" x="901.5" y="387.94" width="100" height="76.94"/><rect class="cls-9" x="1001.5" y="387.94" width="100" height="76.94"/><rect class="cls-9" x="1101.5" y="387.94" width="100" height="76.94"/><rect class="cls-9" x="1201.5" y="387.94" width="100" height="76.94"/><g class="cls-4"><path class="cls-5" d="M991,890.11c0,6.69-2.63,10.88-7.59,10.88-4.8,0-7.36-4.35-7.39-10.68s2.75-10.82,7.62-10.82S991,884,991,890.11Zm-11,.2c0,5.05,1.37,7.67,3.55,7.67s3.52-2.81,3.52-7.8c0-4.83-1.15-7.68-3.52-7.68C981.42,882.5,980,885.09,980,890.31Z" transform="translate(-132 -464.67)"/></g><g class="cls-4"><path class="cls-5" d="M1091,890.11c0,6.69-2.63,10.88-7.59,10.88-4.8,0-7.36-4.35-7.39-10.68s2.75-10.82,7.62-10.82S1091,884,1091,890.11Zm-11,.2c0,5.05,1.37,7.67,3.55,7.67s3.52-2.81,3.52-7.8c0-4.83-1.15-7.68-3.52-7.68C1081.42,882.5,1080,885.09,1080,890.31Z" transform="translate(-132 -464.67)"/></g><g class="cls-4"><path class="cls-5" d="M1191,890.11c0,6.69-2.63,10.88-7.59,10.88-4.8,0-7.36-4.35-7.39-10.68s2.75-10.82,7.62-10.82S1191,884,1191,890.11Zm-11,.2c0,5.05,1.37,7.67,3.55,7.67s3.52-2.81,3.52-7.8c0-4.83-1.15-7.68-3.52-7.68C1181.42,882.5,1180,885.09,1180,890.31Z" transform="translate(-132 -464.67)"/></g><g class="cls-4"><path class="cls-5" d="M1282.47,883.39h-.06l-3.81,1.92-.67-3,5.06-2.5h3.29v20.8h-3.81Z" transform="translate(-132 -464.67)"/></g><g class="cls-4"><path class="cls-5" d="M1382.47,883.39h-.06l-3.81,1.92-.67-3,5.06-2.5h3.29v20.8h-3.81Z" transform="translate(-132 -464.67)"/></g><rect class="cls-7" x="701.5" y="387.94" width="100" height="76.94"/><g class="cls-4"><path class="cls-5" d="M882.47,883.39h-.06l-3.81,1.92-.67-3,5.06-2.5h3.29v20.8h-3.81Z" transform="translate(-132 -464.67)"/></g><rect class="cls-9" x="1301.5" y="387.94" width="100" height="76.94"/><g class="cls-4"><path class="cls-5" d="M1482.47,883.39h-.06l-3.81,1.92-.67-3,5.06-2.5h3.29v20.8h-3.81Z" transform="translate(-132 -464.67)"/></g><rect class="cls-1" x="1401.5" y="388.11" width="100" height="76.94"/><rect class="cls-1" x="1501.5" y="388.11" width="100" height="76.94"/><rect class="cls-2" x="1601.5" y="388.11" width="100" height="76.94"/><rect class="cls-2" x="1701.5" y="388.11" width="100" height="76.94"/><rect class="cls-2" x="1801.5" y="388.11" width="100" height="76.94"/><rect class="cls-2" x="1901.5" y="388.11" width="100" height="76.94"/><path class="cls-1" d="M2133.65,929.72h84a16,16,0,0,0,16-16V868.79a16,16,0,0,0-16-16h-84" transform="translate(-132 -464.67)"/><g class="cls-4"><path class="cls-5" d="M1591,890.11c0,6.69-2.63,10.88-7.59,10.88-4.8,0-7.36-4.35-7.39-10.68s2.75-10.82,7.62-10.82S1591,884,1591,890.11Zm-11,.2c0,5.05,1.37,7.67,3.55,7.67s3.52-2.81,3.52-7.8c0-4.83-1.15-7.68-3.52-7.68C1581.42,882.5,1580,885.09,1580,890.31Z" transform="translate(-132 -464.67)"/></g><g class="cls-4"><path class="cls-5" d="M1682.47,883.39h-.06l-3.81,1.92-.67-3,5.06-2.5h3.29v20.8h-3.81Z" transform="translate(-132 -464.67)"/></g><g class="cls-4"><path class="cls-5" d="M1782.47,883.39h-.06l-3.81,1.92-.67-3,5.06-2.5h3.29v20.8h-3.81Z" transform="translate(-132 -464.67)"/></g><g class="cls-4"><path class="cls-5" d="M1891,890.11c0,6.69-2.63,10.88-7.59,10.88-4.8,0-7.36-4.35-7.39-10.68s2.75-10.82,7.62-10.82S1891,884,1891,890.11Zm-11,.2c0,5.05,1.37,7.67,3.55,7.67s3.52-2.81,3.52-7.8c0-4.83-1.15-7.68-3.52-7.68C1881.42,882.5,1880,885.09,1880,890.31Z" transform="translate(-132 -464.67)"/></g><g class="cls-4"><path class="cls-5" d="M1982.47,883.39h-.06l-3.81,1.92-.67-3,5.06-2.5h3.29v20.8h-3.81Z" transform="translate(-132 -464.67)"/></g><g class="cls-4"><path class="cls-5" d="M2091,890.11c0,6.69-2.63,10.88-7.59,10.88-4.8,0-7.36-4.35-7.39-10.68s2.75-10.82,7.62-10.82C2088.65,879.49,2091,884,2091,890.11Zm-11,.2c0,5.05,1.37,7.67,3.55,7.67s3.52-2.81,3.52-7.8c0-4.83-1.15-7.68-3.52-7.68C2081.42,882.5,2080,885.09,2080,890.31Z" transform="translate(-132 -464.67)"/></g><g class="cls-4"><path class="cls-5" d="M2191.14,890.11c0,6.69-2.63,10.88-7.59,10.88-4.8,0-7.36-4.35-7.39-10.68s2.75-10.82,7.62-10.82S2191.14,884,2191.14,890.11Zm-11,.2c0,5.05,1.38,7.67,3.55,7.67s3.52-2.81,3.52-7.8c0-4.83-1.15-7.68-3.52-7.68C2181.57,882.5,2180.1,885.09,2180.13,890.31Z" transform="translate(-132 -464.67)"/></g><path class="cls-6" d="M2217.48,851.28h-2068A17.54,17.54,0,0,0,132,868.79V913.7a17.54,17.54,0,0,0,17.51,17.52h2068A17.54,17.54,0,0,0,2235,913.7V868.79A17.54,17.54,0,0,0,2217.48,851.28Zm-1182.48,3h97v73.94h-97Zm-3,73.94H935V854.28h97Zm103-73.94h97v73.94h-97Zm100,0h97v73.94h-97Zm100,0h97v73.94h-97Zm100,0h97v73.94h-97Zm100,0h97v73.94h-97Zm100,0h97v73.94h-97Zm100,0h97v73.94h-97Zm100,0h97v73.94h-97Zm100,0h97v73.94h-97Zm100,0h97v73.94h-97ZM232,928.22H149.51A14.54,14.54,0,0,1,135,913.7V868.79a14.53,14.53,0,0,1,14.51-14.51H232Zm100,0H235V854.28h97Zm100,0H335V854.28h97Zm100,0H435V854.28h97Zm100,0H535V854.28h97Zm100,0H635V854.28h97Zm100,0H735V854.28h97Zm3-73.94h97v73.94H835ZM2232,913.7a14.54,14.54,0,0,1-14.52,14.52H2135V854.28h82.48A14.53,14.53,0,0,1,2232,868.79Z" transform="translate(-132 -464.67)"/><g class="cls-11"><path class="cls-12" d="M144.56,795.18a45,45,0,0,1,7.05-.51c4.54,0,7.67.94,9.9,2.81s3.78,4.79,3.78,8.93c0,4.32-1.48,7.56-3.78,9.65s-6.26,3.31-11,3.31a48,48,0,0,1-6-.33ZM149,815.73a16.28,16.28,0,0,0,2.45.11c5.76,0,9.18-3.13,9.18-9.29,0-5.36-3.06-8.42-8.6-8.42a14.56,14.56,0,0,0-3,.25Z" transform="translate(-132 -464.67)"/><path class="cls-12" d="M172.1,811.59c.1,3.17,2.59,4.54,5.39,4.54a13.22,13.22,0,0,0,4.86-.79l.65,3.06a16.54,16.54,0,0,1-6.12,1.08c-5.68,0-9-3.5-9-8.86,0-4.86,3-9.43,8.56-9.43s7.56,4.68,7.56,8.53a11.1,11.1,0,0,1-.14,1.87Zm7.7-3.09c0-1.62-.69-4.29-3.64-4.29-2.73,0-3.88,2.49-4.06,4.29Z" transform="translate(-132 -464.67)"/><path class="cls-12" d="M200.43,818.58a12.91,12.91,0,0,1-5,.9c-5.47,0-9-3.5-9-8.93,0-5.26,3.6-9.36,9.76-9.36a11,11,0,0,1,4.28.83l-.79,3.31a7.86,7.86,0,0,0-3.35-.68c-3.38,0-5.4,2.48-5.36,5.68,0,3.6,2.34,5.65,5.36,5.65a8.63,8.63,0,0,0,3.49-.68Z" transform="translate(-132 -464.67)"/><path class="cls-12" d="M220.05,810.19c0,6.44-4.54,9.32-9,9.32-5,0-8.79-3.42-8.79-9s3.78-9.29,9.07-9.29S220.05,804.86,220.05,810.19Zm-13.22.18c0,3.38,1.66,5.94,4.36,5.94,2.52,0,4.28-2.48,4.28-6,0-2.74-1.22-5.87-4.24-5.87S206.83,807.45,206.83,810.37Z" transform="translate(-132 -464.67)"/><path class="cls-12" d="M239.85,793.56v20.62c0,1.8.07,3.75.14,4.94h-4l-.18-2.78h-.07a6.31,6.31,0,0,1-5.73,3.17c-4.17,0-7.48-3.56-7.48-9,0-5.87,3.63-9.36,7.84-9.36a5.61,5.61,0,0,1,4.94,2.3h.07v-9.93Zm-4.43,15.33a6.4,6.4,0,0,0-.11-1.15,3.88,3.88,0,0,0-3.82-3.13c-2.84,0-4.42,2.52-4.42,5.8s1.58,5.54,4.39,5.54a3.9,3.9,0,0,0,3.81-3.13,4.88,4.88,0,0,0,.15-1.3Z" transform="translate(-132 -464.67)"/><path class="cls-12" d="M247.73,811.59c.11,3.17,2.59,4.54,5.4,4.54a13.26,13.26,0,0,0,4.86-.79l.65,3.06a16.54,16.54,0,0,1-6.12,1.08c-5.69,0-9-3.5-9-8.86,0-4.86,3-9.43,8.57-9.43s7.56,4.68,7.56,8.53a9.93,9.93,0,0,1-.15,1.87Zm7.7-3.09c0-1.62-.68-4.29-3.63-4.29-2.74,0-3.89,2.49-4.07,4.29Z" transform="translate(-132 -464.67)"/><path class="cls-12" d="M279.34,793.56v20.62c0,1.8.07,3.75.14,4.94h-4l-.18-2.78h-.07a6.31,6.31,0,0,1-5.72,3.17c-4.18,0-7.49-3.56-7.49-9,0-5.87,3.63-9.36,7.85-9.36a5.61,5.61,0,0,1,4.93,2.3h.07v-9.93Zm-4.43,15.33a6.4,6.4,0,0,0-.11-1.15,3.87,3.87,0,0,0-3.81-3.13c-2.85,0-4.43,2.52-4.43,5.8S268.14,816,271,816a3.92,3.92,0,0,0,3.82-3.13,5.34,5.34,0,0,0,.14-1.3Z" transform="translate(-132 -464.67)"/><path class="cls-12" d="M291.4,819.12c.07-1.19.14-3.14.14-4.94V793.56H296V804H296a6.35,6.35,0,0,1,5.62-2.81c4.28,0,7.34,3.56,7.3,8.89,0,6.3-4,9.43-7.95,9.43a6,6,0,0,1-5.54-3h-.08l-.21,2.63Zm4.57-7.24a5,5,0,0,0,.11,1A4.07,4.07,0,0,0,300,816c2.77,0,4.46-2.23,4.46-5.76,0-3.09-1.47-5.61-4.42-5.61a4.15,4.15,0,0,0-3.93,3.24A5.4,5.4,0,0,0,296,809Z" transform="translate(-132 -464.67)"/><path class="cls-12" d="M317.32,796.69a2.49,2.49,0,1,1-2.49-2.41A2.35,2.35,0,0,1,317.32,796.69Zm-4.72,22.43V801.59h4.47v17.53Z" transform="translate(-132 -464.67)"/><path class="cls-12" d="M326.89,796.58v5h4.21v3.31h-4.21v7.74c0,2.12.58,3.24,2.27,3.24a6.45,6.45,0,0,0,1.73-.22L331,819a9.48,9.48,0,0,1-3.2.44,5.14,5.14,0,0,1-3.82-1.44c-.93-1-1.37-2.6-1.37-4.9V804.9h-2.52v-3.31h2.52v-4Z" transform="translate(-132 -464.67)"/><path class="cls-12" d="M351.77,819.12l-.29-2h-.11a6.49,6.49,0,0,1-5.18,2.34,5.2,5.2,0,0,1-5.51-5.22c0-4.42,3.92-6.66,10.4-6.62v-.29c0-1.15-.46-3.06-3.56-3.06a9.26,9.26,0,0,0-4.72,1.3l-.86-2.88a12.65,12.65,0,0,1,6.34-1.55c5.61,0,7.23,3.56,7.23,7.38v6.33a28.21,28.21,0,0,0,.25,4.22Zm-.58-8.57c-3.13-.07-6.12.61-6.12,3.28a2.32,2.32,0,0,0,2.52,2.51,3.59,3.59,0,0,0,3.46-2.41,3.08,3.08,0,0,0,.14-1Z" transform="translate(-132 -464.67)"/><path class="cls-12" d="M360.19,807.24c0-2.38,0-4.07-.14-5.65h3.85l.14,3.34h.15a5.22,5.22,0,0,1,4.79-3.74,4.74,4.74,0,0,1,1,.11v4.17a6.37,6.37,0,0,0-1.3-.14,3.91,3.91,0,0,0-4,3.35,7.69,7.69,0,0,0-.14,1.36v9.08h-4.43Z" transform="translate(-132 -464.67)"/><path class="cls-12" d="M373,807.24c0-2.38,0-4.07-.15-5.65h3.86l.14,3.34H377a5.24,5.24,0,0,1,4.79-3.74,4.9,4.9,0,0,1,1,.11v4.17a6.45,6.45,0,0,0-1.3-.14,3.91,3.91,0,0,0-4,3.35,7.69,7.69,0,0,0-.14,1.36v9.08H373Z" transform="translate(-132 -464.67)"/><path class="cls-12" d="M395.36,819.12l-.28-2H395a6.52,6.52,0,0,1-5.19,2.34,5.2,5.2,0,0,1-5.5-5.22c0-4.42,3.92-6.66,10.4-6.62v-.29c0-1.15-.47-3.06-3.56-3.06a9.26,9.26,0,0,0-4.72,1.3l-.86-2.88a12.6,12.6,0,0,1,6.33-1.55c5.62,0,7.24,3.56,7.24,7.38v6.33a28.21,28.21,0,0,0,.25,4.22Zm-.57-8.57c-3.13-.07-6.12.61-6.12,3.28a2.32,2.32,0,0,0,2.52,2.51,3.58,3.58,0,0,0,3.45-2.41,3.1,3.1,0,0,0,.15-1Z" transform="translate(-132 -464.67)"/><path class="cls-12" d="M406.2,801.59l3.17,9.39c.36,1.08.72,2.41,1,3.42h.11c.29-1,.61-2.3.93-3.45l2.74-9.36h4.75l-4.39,11.95c-2.41,6.55-4,9.46-6.12,11.26a8.88,8.88,0,0,1-4.64,2.27l-1-3.74a8,8,0,0,0,5-4,1.75,1.75,0,0,0,.29-.79,1.93,1.93,0,0,0-.25-.86l-6.41-16.09Z" transform="translate(-132 -464.67)"/></g><g class="cls-11"><path class="cls-13" d="M983,715.12c-.12-2.25-.27-5-.24-7h-.07c-.56,1.89-1.23,3.91-2,6.14l-2.85,7.85h-1.59l-2.61-7.71c-.77-2.28-1.42-4.36-1.87-6.28h0c0,2-.17,4.73-.31,7.15l-.44,6.94h-2L970,706.05h2.66l2.76,7.82c.68,2,1.23,3.77,1.64,5.45h.07c.41-1.63,1-3.41,1.7-5.45l2.88-7.82h2.67l1,16.18h-2Z" transform="translate(-132 -464.67)"/><path class="cls-13" d="M999.2,716.32c0,4.3-3,6.17-5.78,6.17-3.14,0-5.57-2.3-5.57-6,0-3.89,2.55-6.17,5.76-6.17S999.2,712.77,999.2,716.32Zm-9.21.12c0,2.55,1.46,4.47,3.53,4.47S997,719,997,716.39c0-2-1-4.46-3.48-4.46S990,714.23,990,716.44Z" transform="translate(-132 -464.67)"/><path class="cls-13" d="M1001.87,714.23c0-1.36,0-2.54-.1-3.62h1.85l.07,2.28h.1a3.49,3.49,0,0,1,3.21-2.55,2.18,2.18,0,0,1,.6.08v2a3,3,0,0,0-.72-.07,3,3,0,0,0-2.83,2.71,5.74,5.74,0,0,0-.09,1v6.2h-2.09Z" transform="translate(-132 -464.67)"/><path class="cls-13" d="M1010.65,716.8a3.72,3.72,0,0,0,4,4,7.54,7.54,0,0,0,3.21-.6l.36,1.51a9.26,9.26,0,0,1-3.86.73c-3.58,0-5.71-2.36-5.71-5.86s2.06-6.27,5.44-6.27c3.8,0,4.8,3.34,4.8,5.48a7,7,0,0,1-.07,1Zm6.19-1.51c0-1.34-.55-3.43-2.92-3.43-2.14,0-3.08,2-3.24,3.43Z" transform="translate(-132 -464.67)"/><path class="cls-13" d="M1036.62,705.18v14.05c0,1,0,2.2.1,3h-1.9l-.1-2h0a4.3,4.3,0,0,1-4,2.28c-2.81,0-5-2.38-5-5.91,0-3.86,2.37-6.24,5.21-6.24a3.88,3.88,0,0,1,3.5,1.78h0v-6.94Zm-2.11,10.16a3.8,3.8,0,0,0-.1-.89,3.1,3.1,0,0,0-3.05-2.45c-2.18,0-3.48,1.92-3.48,4.49,0,2.35,1.16,4.3,3.44,4.3a3.17,3.17,0,0,0,3.09-2.52,3.82,3.82,0,0,0,.1-.92Z" transform="translate(-132 -464.67)"/><path class="cls-13" d="M1046.56,722.23l-.17-1.47h-.07a4.35,4.35,0,0,1-3.56,1.73,3.31,3.31,0,0,1-3.55-3.34c0-2.81,2.5-4.34,7-4.32v-.24a2.4,2.4,0,0,0-2.64-2.69,5.81,5.81,0,0,0-3,.87l-.48-1.39a7.16,7.16,0,0,1,3.82-1c3.55,0,4.41,2.43,4.41,4.76v4.34a15.83,15.83,0,0,0,.2,2.79Zm-.32-5.93c-2.3,0-4.92.36-4.92,2.61a1.88,1.88,0,0,0,2,2,2.88,2.88,0,0,0,2.8-1.94,2,2,0,0,0,.12-.68Z" transform="translate(-132 -464.67)"/><path class="cls-13" d="M1054.14,707.27v3.34h3v1.61h-3v6.26c0,1.44.41,2.26,1.58,2.26a4.77,4.77,0,0,0,1.23-.15l.09,1.59a5.06,5.06,0,0,1-1.87.29,3,3,0,0,1-2.28-.89,4.33,4.33,0,0,1-.81-3v-6.33h-1.81v-1.61h1.81v-2.79Z" transform="translate(-132 -464.67)"/><path class="cls-13" d="M1066,722.23l-.17-1.47h-.07a4.34,4.34,0,0,1-3.55,1.73,3.31,3.31,0,0,1-3.55-3.34c0-2.81,2.49-4.34,7-4.32v-.24a2.39,2.39,0,0,0-2.64-2.69,5.74,5.74,0,0,0-3,.87l-.48-1.39a7.15,7.15,0,0,1,3.81-1c3.56,0,4.42,2.43,4.42,4.76v4.34a16.91,16.91,0,0,0,.19,2.79Zm-.31-5.93c-2.31,0-4.92.36-4.92,2.61a1.87,1.87,0,0,0,2,2,2.9,2.9,0,0,0,2.81-1.94,2.32,2.32,0,0,0,.12-.68Z" transform="translate(-132 -464.67)"/></g><path class="cls-14" d="M1017.67,696.11c0-36.68,9.71-30.75,10-84.49" transform="translate(-132 -464.67)"/><path class="cls-13" d="M1036.89,625.51a1,1,0,0,1-1.37-.34l-7.92-13.09-8.51,12.71a1,1,0,0,1-1.39.27,1,1,0,0,1-.28-1.39l9.4-14a1,1,0,0,1,.85-.44,1,1,0,0,1,.83.48l8.73,14.44a1,1,0,0,1-.34,1.37Z" transform="translate(-132 -464.67)"/><g class="cls-11"><path class="cls-13" d="M157.37,715.12c-.12-2.25-.26-5-.24-7h-.07c-.55,1.89-1.22,3.91-2,6.14l-2.86,7.85h-1.58L148,714.42c-.77-2.28-1.41-4.36-1.87-6.28H146c0,2-.17,4.73-.31,7.15l-.43,6.94h-2l1.12-16.18h2.67l2.76,7.82c.67,2,1.22,3.77,1.63,5.45h.07c.41-1.63,1-3.41,1.71-5.45l2.88-7.82h2.66l1,16.18h-2Z" transform="translate(-132 -464.67)"/><path class="cls-13" d="M173.62,716.32c0,4.3-3,6.17-5.79,6.17-3.14,0-5.56-2.3-5.56-6,0-3.89,2.54-6.17,5.76-6.17S173.62,712.77,173.62,716.32Zm-9.22.12c0,2.55,1.47,4.47,3.53,4.47s3.53-1.9,3.53-4.52c0-2-1-4.46-3.48-4.46S164.4,714.23,164.4,716.44Z" transform="translate(-132 -464.67)"/><path class="cls-13" d="M176.28,714.23c0-1.36,0-2.54-.09-3.62H178l.08,2.28h.09a3.49,3.49,0,0,1,3.22-2.55,2.18,2.18,0,0,1,.6.08v2a3.08,3.08,0,0,0-.72-.07,3,3,0,0,0-2.83,2.71,5.69,5.69,0,0,0-.1,1v6.2h-2.09Z" transform="translate(-132 -464.67)"/><path class="cls-13" d="M185.07,716.8a3.71,3.71,0,0,0,4,4,7.63,7.63,0,0,0,3.22-.6l.36,1.51a9.36,9.36,0,0,1-3.87.73c-3.57,0-5.71-2.36-5.71-5.86s2.06-6.27,5.45-6.27c3.79,0,4.8,3.34,4.8,5.48a9,9,0,0,1-.07,1Zm6.19-1.51c0-1.34-.55-3.43-2.93-3.43-2.14,0-3.07,2-3.24,3.43Z" transform="translate(-132 -464.67)"/><path class="cls-13" d="M211,705.18v14.05c0,1,0,2.2.1,3h-1.9l-.09-2h0a4.29,4.29,0,0,1-4,2.28c-2.81,0-5-2.38-5-5.91,0-3.86,2.38-6.24,5.21-6.24a3.86,3.86,0,0,1,3.5,1.78h0v-6.94Zm-2.11,10.16a3.79,3.79,0,0,0-.09-.89,3.11,3.11,0,0,0-3.05-2.45c-2.19,0-3.48,1.92-3.48,4.49,0,2.35,1.15,4.3,3.43,4.3a3.18,3.18,0,0,0,3.1-2.52,3.83,3.83,0,0,0,.09-.92Z" transform="translate(-132 -464.67)"/><path class="cls-13" d="M221,722.23l-.17-1.47h-.07a4.34,4.34,0,0,1-3.55,1.73,3.31,3.31,0,0,1-3.55-3.34c0-2.81,2.49-4.34,7-4.32v-.24A2.39,2.39,0,0,0,218,711.9a5.74,5.74,0,0,0-3,.87l-.48-1.39a7.15,7.15,0,0,1,3.81-1c3.55,0,4.42,2.43,4.42,4.76v4.34a16.91,16.91,0,0,0,.19,2.79Zm-.31-5.93c-2.31,0-4.92.36-4.92,2.61a1.87,1.87,0,0,0,2,2,2.9,2.9,0,0,0,2.81-1.94,2.32,2.32,0,0,0,.12-.68Z" transform="translate(-132 -464.67)"/><path class="cls-13" d="M228.55,707.27v3.34h3v1.61h-3v6.26c0,1.44.41,2.26,1.59,2.26a4.68,4.68,0,0,0,1.22-.15l.1,1.59a5.14,5.14,0,0,1-1.87.29,2.93,2.93,0,0,1-2.28-.89,4.33,4.33,0,0,1-.82-3v-6.33h-1.8v-1.61h1.8v-2.79Z" transform="translate(-132 -464.67)"/><path class="cls-13" d="M240.39,722.23l-.17-1.47h-.07a4.35,4.35,0,0,1-3.56,1.73,3.31,3.31,0,0,1-3.55-3.34c0-2.81,2.5-4.34,7-4.32v-.24a2.4,2.4,0,0,0-2.64-2.69,5.81,5.81,0,0,0-3,.87l-.48-1.39a7.16,7.16,0,0,1,3.82-1c3.55,0,4.41,2.43,4.41,4.76v4.34a15.83,15.83,0,0,0,.2,2.79Zm-.32-5.93c-2.3,0-4.92.36-4.92,2.61a1.88,1.88,0,0,0,2,2A2.88,2.88,0,0,0,240,719a2,2,0,0,0,.12-.68Z" transform="translate(-132 -464.67)"/></g><path class="cls-14" d="M192.09,696.11c0-36.68-9.72-30.75-10-84.49" transform="translate(-132 -464.67)"/><path class="cls-13" d="M192.06,625.06a1,1,0,0,1-1.39-.27l-8.52-12.71-7.91,13.09a1,1,0,0,1-1.38.34,1,1,0,0,1-.33-1.37l8.72-14.44a1,1,0,0,1,1.69,0l9.39,14a1,1,0,0,1,.17.54A1,1,0,0,1,192.06,625.06Z" transform="translate(-132 -464.67)"/><g class="cls-11"><path class="cls-13" d="M1846.32,706.05h2.09v14.42h6.91v1.76h-9Z" transform="translate(-132 -464.67)"/><path class="cls-13" d="M1864,722.23l-.17-1.47h-.07a4.33,4.33,0,0,1-3.55,1.73,3.31,3.31,0,0,1-3.55-3.34c0-2.81,2.49-4.34,7-4.32v-.24a2.39,2.39,0,0,0-2.64-2.69,5.74,5.74,0,0,0-3,.87l-.48-1.39a7.15,7.15,0,0,1,3.81-1c3.56,0,4.42,2.43,4.42,4.76v4.34a16.91,16.91,0,0,0,.19,2.79Zm-.31-5.93c-2.3,0-4.92.36-4.92,2.61a1.87,1.87,0,0,0,2,2,2.9,2.9,0,0,0,2.81-1.94,2.32,2.32,0,0,0,.12-.68Z" transform="translate(-132 -464.67)"/><path class="cls-13" d="M1868.86,720.07a5.61,5.61,0,0,0,2.78.84c1.54,0,2.26-.77,2.26-1.73s-.6-1.56-2.16-2.14c-2.09-.74-3.07-1.9-3.07-3.29,0-1.87,1.51-3.41,4-3.41a5.84,5.84,0,0,1,2.85.72l-.53,1.54a4.46,4.46,0,0,0-2.37-.67c-1.25,0-2,.72-2,1.58s.7,1.4,2.21,2c2,.77,3,1.78,3,3.51,0,2-1.58,3.48-4.34,3.48a6.64,6.64,0,0,1-3.27-.8Z" transform="translate(-132 -464.67)"/><path class="cls-13" d="M1881.2,707.27v3.34h3v1.61h-3v6.26c0,1.44.4,2.26,1.58,2.26a4.68,4.68,0,0,0,1.22-.15l.1,1.59a5.14,5.14,0,0,1-1.87.29,2.93,2.93,0,0,1-2.28-.89,4.33,4.33,0,0,1-.82-3v-6.33h-1.8v-1.61h1.8v-2.79Z" transform="translate(-132 -464.67)"/><path class="cls-13" d="M1891.59,722.23c.05-.8.09-2,.09-3V705.18h2.09v7.3h0a4.32,4.32,0,0,1,4-2.14c2.88,0,4.92,2.4,4.9,5.93,0,4.16-2.62,6.22-5.21,6.22a4.14,4.14,0,0,1-3.89-2.18h-.07l-.1,1.92Zm2.18-4.66a3.86,3.86,0,0,0,.1.77,3.26,3.26,0,0,0,3.17,2.47c2.2,0,3.52-1.8,3.52-4.47,0-2.32-1.2-4.32-3.45-4.32a3.38,3.38,0,0,0-3.22,2.6,4,4,0,0,0-.12.86Z" transform="translate(-132 -464.67)"/><path class="cls-13" d="M1905.94,710.61l2.54,6.86c.27.77.56,1.68.75,2.38h0c.21-.7.45-1.58.74-2.43l2.3-6.81h2.24l-3.17,8.28c-1.51,4-2.55,6-4,7.27a5.77,5.77,0,0,1-2.59,1.37l-.53-1.78a5.36,5.36,0,0,0,1.85-1,6.31,6.31,0,0,0,1.78-2.35,1.71,1.71,0,0,0,.17-.5,1.79,1.79,0,0,0-.15-.56l-4.29-10.7Z" transform="translate(-132 -464.67)"/><path class="cls-13" d="M1919,707.27v3.34h3v1.61h-3v6.26c0,1.44.41,2.26,1.58,2.26a4.77,4.77,0,0,0,1.23-.15l.09,1.59a5.06,5.06,0,0,1-1.87.29,3,3,0,0,1-2.28-.89,4.33,4.33,0,0,1-.81-3v-6.33h-1.81v-1.61H1917v-2.79Z" transform="translate(-132 -464.67)"/><path class="cls-13" d="M1925.45,716.8a3.72,3.72,0,0,0,4,4,7.56,7.56,0,0,0,3.22-.6l.36,1.51a9.26,9.26,0,0,1-3.86.73c-3.58,0-5.72-2.36-5.72-5.86s2.07-6.27,5.45-6.27c3.8,0,4.8,3.34,4.8,5.48a7,7,0,0,1-.07,1Zm6.19-1.51c0-1.34-.55-3.43-2.92-3.43-2.14,0-3.08,2-3.25,3.43Z" transform="translate(-132 -464.67)"/></g><path class="cls-14" d="M1887.67,696.11c0-36.68-19.42-30.75-20-84.49" transform="translate(-132 -464.67)"/><path class="cls-13" d="M1877.63,625.07a1,1,0,0,1-1.38-.28l-8.51-12.71-7.93,13.09a1,1,0,0,1-1.37.33,1,1,0,0,1-.34-1.37l8.74-14.43a1,1,0,0,1,.83-.48,1,1,0,0,1,.86.44l9.38,14a1,1,0,0,1,.17.53A1,1,0,0,1,1877.63,625.07Z" transform="translate(-132 -464.67)"/></svg>